{
	"asset":{
		"generator":"Khronos glTF Blender I/O v4.5.48",
		"version":"2.0"
	},
	"extensionsUsed":[
		"KHR_implicit_shapes",
		"KHR_physics_rigid_bodies"
	],
	"extensions":{
		"KHR_implicit_shapes":{
			"shapes":[
				{
					"type":"box",
					"box":{
						"size":[
							2,
							2,
							2
						]
					}
				},
				{
					"type":"box",
					"box":{
						"size":[
							25.743595123291016,
							2,
							26.971439361572266
						]
					}
				},
				{
					"type":"box",
					"box":{
						"size":[
							2.000001907348633,
							2,
							2.000001907348633
						]
					}
				},
				{
					"type":"box",
					"box":{
						"size":[
							2.000000476837158,
							2,
							2
						]
					}
				},
				{
					"type":"box",
					"box":{
						"size":[
							2.000000476837158,
							2.0000009536743164,
							2
						]
					}
				},
				{
					"type":"box",
					"box":{
						"size":[
							2.0000009536743164,
							2.0000009536743164,
							2
						]
					}
				},
				{
					"type":"box",
					"box":{
						"size":[
							9.000008583068848,
							0.3720909059047699,
							3
						]
					}
				},
				{
					"type":"cylinder",
					"cylinder":{
						"height":2,
						"radiusBottom":1,
						"radiusTop":1
					}
				},
				{
					"type":"cylinder",
					"cylinder":{
						"height":4.409381866455078,
						"radiusBottom":1,
						"radiusTop":1
					}
				}
			]
		},
		"KHR_physics_rigid_bodies":{
			"physicsMaterials":[
				{
					"staticFriction":0.5,
					"dynamicFriction":0.5,
					"restitution":0
				},
				{
					"staticFriction":0.5,
					"dynamicFriction":0.5,
					"restitution":0.6000000238418579
				},
				{
					"staticFriction":0.5,
					"dynamicFriction":0.5,
					"restitution":0.0845070406794548
				}
			],
			"collisionFilters":[
				{
					"collisionSystems":[
						"System_0"
					],
					"collideWithSystems":[
						"System_0"
					]
				}
			]
		}
	},
	"scene":0,
	"scenes":[
		{
			"extras":{
				"khr_physics_importer_props":{},
				"khr_physics_exporter_props":{},
				"khr_physics_scene_viewer_props":{}
			},
			"name":"Scene",
			"nodes":[
				0,
				1,
				2,
				3,
				4,
				5,
				6,
				7,
				8,
				9,
				10,
				11,
				12,
				13,
				14,
				15,
				32,
				49,
				66,
				83,
				100,
				101,
				105,
				106,
				108
			]
		}
	],
	"nodes":[
		{
			"extensions":{
				"KHR_physics_rigid_bodies":{
					"motion":{
						"mass":1
					},
					"collider":{
						"geometry":{
							"shape":0
						},
						"physicsMaterial":0,
						"collisionFilter":0
					}
				}
			},
			"extras":{
				"khr_physics_extra_props":{}
			},
			"mesh":0,
			"name":"Cube",
			"translation":[
				-1,
				1.239538311958313,
				4
			]
		},
		{
			"extensions":{
				"KHR_physics_rigid_bodies":{
					"collider":{
						"geometry":{
							"shape":1
						},
						"physicsMaterial":1,
						"collisionFilter":0
					}
				}
			},
			"extras":{
				"khr_physics_extra_props":{}
			},
			"mesh":1,
			"name":"ground",
			"translation":[
				0,
				-1,
				0
			]
		},
		{
			"extensions":{
				"KHR_physics_rigid_bodies":{
					"motion":{
						"mass":1
					},
					"collider":{
						"geometry":{
							"shape":0
						},
						"physicsMaterial":0,
						"collisionFilter":0
					}
				}
			},
			"extras":{
				"khr_physics_extra_props":{}
			},
			"mesh":2,
			"name":"Cube.001",
			"rotation":[
				0,
				0.1736481487751007,
				0,
				0.9848077893257141
			],
			"translation":[
				1.2000000476837158,
				1.239538311958313,
				1.7999999523162842
			]
		},
		{
			"extensions":{
				"KHR_physics_rigid_bodies":{
					"motion":{
						"mass":1
					},
					"collider":{
						"geometry":{
							"shape":0
						},
						"physicsMaterial":0,
						"collisionFilter":0
					}
				}
			},
			"extras":{
				"khr_physics_extra_props":{}
			},
			"mesh":3,
			"name":"Cube.002",
			"translation":[
				3.4000000953674316,
				1.239538311958313,
				-0.40000009536743164
			]
		},
		{
			"extensions":{
				"KHR_physics_rigid_bodies":{
					"motion":{
						"mass":1
					},
					"collider":{
						"geometry":{
							"shape":2
						},
						"physicsMaterial":0,
						"collisionFilter":0
					}
				}
			},
			"extras":{
				"khr_physics_extra_props":{}
			},
			"mesh":4,
			"name":"Cube.003",
			"rotation":[
				0,
				0.2588190734386444,
				0,
				0.965925931930542
			],
			"translation":[
				5.59999942779541,
				1.239538311958313,
				-2.59999942779541
			]
		},
		{
			"extensions":{
				"KHR_physics_rigid_bodies":{
					"motion":{
						"mass":1
					},
					"collider":{
						"geometry":{
							"shape":0
						},
						"physicsMaterial":0,
						"collisionFilter":0
					}
				}
			},
			"extras":{
				"khr_physics_extra_props":{}
			},
			"mesh":5,
			"name":"Cube.004",
			"rotation":[
				0,
				-0.1736481487751007,
				0,
				0.9848077893257141
			],
			"translation":[
				7.800000190734863,
				1.239538311958313,
				-4.800000190734863
			]
		},
		{
			"extensions":{
				"KHR_physics_rigid_bodies":{
					"motion":{
						"mass":1
					},
					"collider":{
						"geometry":{
							"shape":0
						},
						"physicsMaterial":0,
						"collisionFilter":0
					}
				}
			},
			"extras":{
				"khr_physics_extra_props":{}
			},
			"mesh":6,
			"name":"Cube.005",
			"rotation":[
				0,
				-0.1736481487751007,
				0,
				0.9848077893257141
			],
			"translation":[
				0.07999992370605469,
				3.4395384788513184,
				2.9200000762939453
			]
		},
		{
			"extensions":{
				"KHR_physics_rigid_bodies":{
					"motion":{
						"mass":1
					},
					"collider":{
						"geometry":{
							"shape":3
						},
						"physicsMaterial":0,
						"collisionFilter":0
					}
				}
			},
			"extras":{
				"khr_physics_extra_props":{}
			},
			"mesh":7,
			"name":"Cube.006",
			"translation":[
				2.2800004482269287,
				3.4395384788513184,
				0.7200002670288086
			]
		},
		{
			"extensions":{
				"KHR_physics_rigid_bodies":{
					"motion":{
						"mass":1
					},
					"collider":{
						"geometry":{
							"shape":0
						},
						"physicsMaterial":0,
						"collisionFilter":0
					}
				}
			},
			"extras":{
				"khr_physics_extra_props":{}
			},
			"mesh":8,
			"name":"Cube.007",
			"rotation":[
				0,
				-0.3420201539993286,
				0,
				0.9396927356719971
			],
			"translation":[
				4.480000019073486,
				3.4395384788513184,
				-1.4800000190734863
			]
		},
		{
			"extensions":{
				"KHR_physics_rigid_bodies":{
					"motion":{
						"mass":1
					},
					"collider":{
						"geometry":{
							"shape":0
						},
						"physicsMaterial":0,
						"collisionFilter":0
					}
				}
			},
			"extras":{
				"khr_physics_extra_props":{}
			},
			"mesh":9,
			"name":"Cube.008",
			"translation":[
				6.680000305175781,
				3.4395384788513184,
				-3.6800003051757812
			]
		},
		{
			"extensions":{
				"KHR_physics_rigid_bodies":{
					"motion":{
						"mass":0.5
					},
					"collider":{
						"geometry":{
							"shape":0
						},
						"physicsMaterial":0,
						"collisionFilter":0
					}
				}
			},
			"extras":{
				"khr_physics_extra_props":{}
			},
			"mesh":10,
			"name":"Cube.012",
			"rotation":[
				0,
				0.1736481487751007,
				0,
				0.9848077893257141
			],
			"translation":[
				1.0239999294281006,
				5.649537563323975,
				1.9759998321533203
			]
		},
		{
			"extensions":{
				"KHR_physics_rigid_bodies":{
					"motion":{
						"mass":0.5
					},
					"collider":{
						"geometry":{
							"shape":0
						},
						"physicsMaterial":0,
						"collisionFilter":0
					}
				}
			},
			"extras":{
				"khr_physics_extra_props":{}
			},
			"mesh":11,
			"name":"Cube.013",
			"translation":[
				3.2239999771118164,
				5.649537563323975,
				-0.2240004539489746
			]
		},
		{
			"extensions":{
				"KHR_physics_rigid_bodies":{
					"motion":{
						"mass":0.5
					},
					"collider":{
						"geometry":{
							"shape":0
						},
						"physicsMaterial":0,
						"collisionFilter":0
					}
				}
			},
			"extras":{
				"khr_physics_extra_props":{}
			},
			"mesh":12,
			"name":"Cube.014",
			"rotation":[
				0,
				0.1736481487751007,
				0,
				0.9848077893257141
			],
			"translation":[
				5.423999786376953,
				5.649537563323975,
				-2.4240002632141113
			]
		},
		{
			"extensions":{
				"KHR_physics_rigid_bodies":{
					"motion":{
						"mass":0.30000001192092896
					},
					"collider":{
						"geometry":{
							"shape":4
						},
						"physicsMaterial":0,
						"collisionFilter":0
					}
				}
			},
			"extras":{
				"khr_physics_extra_props":{}
			},
			"mesh":13,
			"name":"Cube.017",
			"translation":[
				2.1040000915527344,
				7.849538326263428,
				0.8959999084472656
			]
		},
		{
			"extensions":{
				"KHR_physics_rigid_bodies":{
					"motion":{
						"mass":0.30000001192092896
					},
					"collider":{
						"geometry":{
							"shape":5
						},
						"physicsMaterial":0,
						"collisionFilter":0
					}
				}
			},
			"extras":{
				"khr_physics_extra_props":{}
			},
			"mesh":14,
			"name":"Cube.018",
			"rotation":[
				0,
				0.21643957495689392,
				0,
				0.9762960076332092
			],
			"translation":[
				4.304000377655029,
				7.849538326263428,
				-1.3040003776550293
			]
		},
		{
			"extensions":{
				"KHR_physics_rigid_bodies":{
					"motion":{
						"mass":0.699999988079071
					},
					"collider":{
						"geometry":{
							"shape":6
						},
						"physicsMaterial":0,
						"collisionFilter":0
					}
				}
			},
			"extras":{
				"khr_physics_extra_props":{}
			},
			"mesh":15,
			"name":"Cube.019",
			"rotation":[
				0,
				0.3826834559440613,
				0,
				0.9238795638084412
			],
			"translation":[
				2.9706966876983643,
				9.358386039733887,
				-0.2750561237335205
			]
		},
		{
			"mesh":16,
			"name":"physicsMeshDataNode",
			"rotation":[
				0,
				0,
				0,
				1
			],
			"translation":[
				0,
				0,
				0
			]
		},
		{
			"extensions":{
				"KHR_physics_rigid_bodies":{
					"collider":{
						"geometry":{
							"convexHull":true,
							"node":16
						},
						"physicsMaterial":0,
						"collisionFilter":0
					}
				}
			},
			"extras":{
				"khr_physics_extra_props":{
					"non_renderable":1
				}
			},
			"name":"Cube.032",
			"rotation":[
				-0.7071068286895752,
				0,
				0,
				0.7071068286895752
			]
		},
		{
			"mesh":17,
			"name":"physicsMeshDataNode",
			"rotation":[
				0,
				0,
				0,
				1
			],
			"translation":[
				0,
				0,
				0
			]
		},
		{
			"extensions":{
				"KHR_physics_rigid_bodies":{
					"collider":{
						"geometry":{
							"convexHull":true,
							"node":18
						},
						"physicsMaterial":0,
						"collisionFilter":0
					}
				}
			},
			"extras":{
				"khr_physics_extra_props":{
					"non_renderable":1
				}
			},
			"name":"Cube.033",
			"rotation":[
				-0.7071068286895752,
				0,
				0,
				0.7071068286895752
			]
		},
		{
			"mesh":18,
			"name":"physicsMeshDataNode",
			"rotation":[
				0,
				0,
				0,
				1
			],
			"translation":[
				0,
				0,
				0
			]
		},
		{
			"extensions":{
				"KHR_physics_rigid_bodies":{
					"collider":{
						"geometry":{
							"convexHull":true,
							"node":20
						},
						"physicsMaterial":0,
						"collisionFilter":0
					}
				}
			},
			"extras":{
				"khr_physics_extra_props":{
					"non_renderable":1
				}
			},
			"name":"Cube.034",
			"rotation":[
				-0.7071068286895752,
				0,
				0,
				0.7071068286895752
			]
		},
		{
			"mesh":19,
			"name":"physicsMeshDataNode",
			"rotation":[
				0,
				0,
				0,
				1
			],
			"translation":[
				0,
				0,
				0
			]
		},
		{
			"extensions":{
				"KHR_physics_rigid_bodies":{
					"collider":{
						"geometry":{
							"convexHull":true,
							"node":22
						},
						"physicsMaterial":0,
						"collisionFilter":0
					}
				}
			},
			"extras":{
				"khr_physics_extra_props":{
					"non_renderable":1
				}
			},
			"name":"Cube.035",
			"rotation":[
				-0.7071068286895752,
				0,
				0,
				0.7071068286895752
			]
		},
		{
			"mesh":20,
			"name":"physicsMeshDataNode",
			"rotation":[
				0,
				0,
				0,
				1
			],
			"translation":[
				0,
				0,
				0
			]
		},
		{
			"extensions":{
				"KHR_physics_rigid_bodies":{
					"collider":{
						"geometry":{
							"convexHull":true,
							"node":24
						},
						"physicsMaterial":0,
						"collisionFilter":0
					}
				}
			},
			"extras":{
				"khr_physics_extra_props":{
					"non_renderable":1
				}
			},
			"name":"Cube.036",
			"rotation":[
				-0.7071068286895752,
				0,
				0,
				0.7071068286895752
			]
		},
		{
			"mesh":21,
			"name":"physicsMeshDataNode",
			"rotation":[
				0,
				0,
				0,
				1
			],
			"translation":[
				0,
				0,
				0
			]
		},
		{
			"extensions":{
				"KHR_physics_rigid_bodies":{
					"collider":{
						"geometry":{
							"convexHull":true,
							"node":26
						},
						"physicsMaterial":0,
						"collisionFilter":0
					}
				}
			},
			"extras":{
				"khr_physics_extra_props":{
					"non_renderable":1
				}
			},
			"name":"Cube.037",
			"rotation":[
				-0.7071068286895752,
				0,
				0,
				0.7071068286895752
			]
		},
		{
			"mesh":22,
			"name":"physicsMeshDataNode",
			"rotation":[
				0,
				0,
				0,
				1
			],
			"translation":[
				0,
				0,
				0
			]
		},
		{
			"extensions":{
				"KHR_physics_rigid_bodies":{
					"collider":{
						"geometry":{
							"convexHull":true,
							"node":28
						},
						"physicsMaterial":0,
						"collisionFilter":0
					}
				}
			},
			"extras":{
				"khr_physics_extra_props":{
					"non_renderable":1
				}
			},
			"name":"Cube.038",
			"rotation":[
				-0.7071068286895752,
				0,
				0,
				0.7071068286895752
			]
		},
		{
			"mesh":23,
			"name":"physicsMeshDataNode",
			"rotation":[
				0,
				0,
				0,
				1
			],
			"translation":[
				0,
				0,
				0
			]
		},
		{
			"extensions":{
				"KHR_physics_rigid_bodies":{
					"collider":{
						"geometry":{
							"convexHull":true,
							"node":30
						},
						"physicsMaterial":0,
						"collisionFilter":0
					}
				}
			},
			"extras":{
				"khr_physics_extra_props":{
					"non_renderable":1
				}
			},
			"name":"Cube.039",
			"rotation":[
				-0.7071068286895752,
				0,
				0,
				0.7071068286895752
			]
		},
		{
			"children":[
				17,
				19,
				21,
				23,
				25,
				27,
				29,
				31
			],
			"extensions":{
				"KHR_physics_rigid_bodies":{
					"motion":{
						"mass":0.75
					}
				}
			},
			"extras":{
				"khr_physics_extra_props":{}
			},
			"mesh":24,
			"name":"Torus.001",
			"rotation":[
				-0.1398131102323532,
				0.2559985816478729,
				-0.7515994906425476,
				0.5916208624839783
			],
			"translation":[
				4.912746906280518,
				11.55961799621582,
				1.9417452812194824
			]
		},
		{
			"mesh":25,
			"name":"physicsMeshDataNode",
			"rotation":[
				0,
				0,
				0,
				1
			],
			"translation":[
				0,
				0,
				0
			]
		},
		{
			"extensions":{
				"KHR_physics_rigid_bodies":{
					"collider":{
						"geometry":{
							"convexHull":true,
							"node":33
						},
						"physicsMaterial":0,
						"collisionFilter":0
					}
				}
			},
			"extras":{
				"khr_physics_extra_props":{
					"non_renderable":1
				}
			},
			"name":"Cube.040",
			"rotation":[
				-0.7071068286895752,
				0,
				0,
				0.7071068286895752
			]
		},
		{
			"mesh":26,
			"name":"physicsMeshDataNode",
			"rotation":[
				0,
				0,
				0,
				1
			],
			"translation":[
				0,
				0,
				0
			]
		},
		{
			"extensions":{
				"KHR_physics_rigid_bodies":{
					"collider":{
						"geometry":{
							"convexHull":true,
							"node":35
						},
						"physicsMaterial":0,
						"collisionFilter":0
					}
				}
			},
			"extras":{
				"khr_physics_extra_props":{
					"non_renderable":1
				}
			},
			"name":"Cube.041",
			"rotation":[
				-0.7071068286895752,
				0,
				0,
				0.7071068286895752
			]
		},
		{
			"mesh":27,
			"name":"physicsMeshDataNode",
			"rotation":[
				0,
				0,
				0,
				1
			],
			"translation":[
				0,
				0,
				0
			]
		},
		{
			"extensions":{
				"KHR_physics_rigid_bodies":{
					"collider":{
						"geometry":{
							"convexHull":true,
							"node":37
						},
						"physicsMaterial":0,
						"collisionFilter":0
					}
				}
			},
			"extras":{
				"khr_physics_extra_props":{
					"non_renderable":1
				}
			},
			"name":"Cube.042",
			"rotation":[
				-0.7071068286895752,
				0,
				0,
				0.7071068286895752
			]
		},
		{
			"mesh":28,
			"name":"physicsMeshDataNode",
			"rotation":[
				0,
				0,
				0,
				1
			],
			"translation":[
				0,
				0,
				0
			]
		},
		{
			"extensions":{
				"KHR_physics_rigid_bodies":{
					"collider":{
						"geometry":{
							"convexHull":true,
							"node":39
						},
						"physicsMaterial":0,
						"collisionFilter":0
					}
				}
			},
			"extras":{
				"khr_physics_extra_props":{
					"non_renderable":1
				}
			},
			"name":"Cube.043",
			"rotation":[
				-0.7071068286895752,
				0,
				0,
				0.7071068286895752
			]
		},
		{
			"mesh":29,
			"name":"physicsMeshDataNode",
			"rotation":[
				0,
				0,
				0,
				1
			],
			"translation":[
				0,
				0,
				0
			]
		},
		{
			"extensions":{
				"KHR_physics_rigid_bodies":{
					"collider":{
						"geometry":{
							"convexHull":true,
							"node":41
						},
						"physicsMaterial":0,
						"collisionFilter":0
					}
				}
			},
			"extras":{
				"khr_physics_extra_props":{
					"non_renderable":1
				}
			},
			"name":"Cube.044",
			"rotation":[
				-0.7071068286895752,
				0,
				0,
				0.7071068286895752
			]
		},
		{
			"mesh":30,
			"name":"physicsMeshDataNode",
			"rotation":[
				0,
				0,
				0,
				1
			],
			"translation":[
				0,
				0,
				0
			]
		},
		{
			"extensions":{
				"KHR_physics_rigid_bodies":{
					"collider":{
						"geometry":{
							"convexHull":true,
							"node":43
						},
						"physicsMaterial":0,
						"collisionFilter":0
					}
				}
			},
			"extras":{
				"khr_physics_extra_props":{
					"non_renderable":1
				}
			},
			"name":"Cube.045",
			"rotation":[
				-0.7071068286895752,
				0,
				0,
				0.7071068286895752
			]
		},
		{
			"mesh":31,
			"name":"physicsMeshDataNode",
			"rotation":[
				0,
				0,
				0,
				1
			],
			"translation":[
				0,
				0,
				0
			]
		},
		{
			"extensions":{
				"KHR_physics_rigid_bodies":{
					"collider":{
						"geometry":{
							"convexHull":true,
							"node":45
						},
						"physicsMaterial":0,
						"collisionFilter":0
					}
				}
			},
			"extras":{
				"khr_physics_extra_props":{
					"non_renderable":1
				}
			},
			"name":"Cube.046",
			"rotation":[
				-0.7071068286895752,
				0,
				0,
				0.7071068286895752
			]
		},
		{
			"mesh":32,
			"name":"physicsMeshDataNode",
			"rotation":[
				0,
				0,
				0,
				1
			],
			"translation":[
				0,
				0,
				0
			]
		},
		{
			"extensions":{
				"KHR_physics_rigid_bodies":{
					"collider":{
						"geometry":{
							"convexHull":true,
							"node":47
						},
						"physicsMaterial":0,
						"collisionFilter":0
					}
				}
			},
			"extras":{
				"khr_physics_extra_props":{
					"non_renderable":1
				}
			},
			"name":"Cube.047",
			"rotation":[
				-0.7071068286895752,
				0,
				0,
				0.7071068286895752
			]
		},
		{
			"children":[
				34,
				36,
				38,
				40,
				42,
				44,
				46,
				48
			],
			"extensions":{
				"KHR_physics_rigid_bodies":{
					"motion":{
						"mass":0.75
					}
				}
			},
			"extras":{
				"khr_physics_extra_props":{}
			},
			"mesh":33,
			"name":"Torus.002",
			"rotation":[
				0.27988123893737793,
				-0.08215566724538803,
				0.9498002529144287,
				0.1131218746304512
			],
			"translation":[
				5.938896179199219,
				11.120849609375,
				3.6014137268066406
			]
		},
		{
			"mesh":34,
			"name":"physicsMeshDataNode",
			"rotation":[
				0,
				0,
				0,
				1
			],
			"translation":[
				0,
				0,
				0
			]
		},
		{
			"extensions":{
				"KHR_physics_rigid_bodies":{
					"collider":{
						"geometry":{
							"convexHull":true,
							"node":50
						},
						"physicsMaterial":0,
						"collisionFilter":0
					}
				}
			},
			"extras":{
				"khr_physics_extra_props":{
					"non_renderable":1
				}
			},
			"name":"Cube.048",
			"rotation":[
				-0.7071068286895752,
				0,
				0,
				0.7071068286895752
			]
		},
		{
			"mesh":35,
			"name":"physicsMeshDataNode",
			"rotation":[
				0,
				0,
				0,
				1
			],
			"translation":[
				0,
				0,
				0
			]
		},
		{
			"extensions":{
				"KHR_physics_rigid_bodies":{
					"collider":{
						"geometry":{
							"convexHull":true,
							"node":52
						},
						"physicsMaterial":0,
						"collisionFilter":0
					}
				}
			},
			"extras":{
				"khr_physics_extra_props":{
					"non_renderable":1
				}
			},
			"name":"Cube.049",
			"rotation":[
				-0.7071068286895752,
				0,
				0,
				0.7071068286895752
			]
		},
		{
			"mesh":36,
			"name":"physicsMeshDataNode",
			"rotation":[
				0,
				0,
				0,
				1
			],
			"translation":[
				0,
				0,
				0
			]
		},
		{
			"extensions":{
				"KHR_physics_rigid_bodies":{
					"collider":{
						"geometry":{
							"convexHull":true,
							"node":54
						},
						"physicsMaterial":0,
						"collisionFilter":0
					}
				}
			},
			"extras":{
				"khr_physics_extra_props":{
					"non_renderable":1
				}
			},
			"name":"Cube.050",
			"rotation":[
				-0.7071068286895752,
				0,
				0,
				0.7071068286895752
			]
		},
		{
			"mesh":37,
			"name":"physicsMeshDataNode",
			"rotation":[
				0,
				0,
				0,
				1
			],
			"translation":[
				0,
				0,
				0
			]
		},
		{
			"extensions":{
				"KHR_physics_rigid_bodies":{
					"collider":{
						"geometry":{
							"convexHull":true,
							"node":56
						},
						"physicsMaterial":0,
						"collisionFilter":0
					}
				}
			},
			"extras":{
				"khr_physics_extra_props":{
					"non_renderable":1
				}
			},
			"name":"Cube.051",
			"rotation":[
				-0.7071068286895752,
				0,
				0,
				0.7071068286895752
			]
		},
		{
			"mesh":38,
			"name":"physicsMeshDataNode",
			"rotation":[
				0,
				0,
				0,
				1
			],
			"translation":[
				0,
				0,
				0
			]
		},
		{
			"extensions":{
				"KHR_physics_rigid_bodies":{
					"collider":{
						"geometry":{
							"convexHull":true,
							"node":58
						},
						"physicsMaterial":0,
						"collisionFilter":0
					}
				}
			},
			"extras":{
				"khr_physics_extra_props":{
					"non_renderable":1
				}
			},
			"name":"Cube.052",
			"rotation":[
				-0.7071068286895752,
				0,
				0,
				0.7071068286895752
			]
		},
		{
			"mesh":39,
			"name":"physicsMeshDataNode",
			"rotation":[
				0,
				0,
				0,
				1
			],
			"translation":[
				0,
				0,
				0
			]
		},
		{
			"extensions":{
				"KHR_physics_rigid_bodies":{
					"collider":{
						"geometry":{
							"convexHull":true,
							"node":60
						},
						"physicsMaterial":0,
						"collisionFilter":0
					}
				}
			},
			"extras":{
				"khr_physics_extra_props":{
					"non_renderable":1
				}
			},
			"name":"Cube.053",
			"rotation":[
				-0.7071068286895752,
				0,
				0,
				0.7071068286895752
			]
		},
		{
			"mesh":40,
			"name":"physicsMeshDataNode",
			"rotation":[
				0,
				0,
				0,
				1
			],
			"translation":[
				0,
				0,
				0
			]
		},
		{
			"extensions":{
				"KHR_physics_rigid_bodies":{
					"collider":{
						"geometry":{
							"convexHull":true,
							"node":62
						},
						"physicsMaterial":0,
						"collisionFilter":0
					}
				}
			},
			"extras":{
				"khr_physics_extra_props":{
					"non_renderable":1
				}
			},
			"name":"Cube.054",
			"rotation":[
				-0.7071068286895752,
				0,
				0,
				0.7071068286895752
			]
		},
		{
			"mesh":41,
			"name":"physicsMeshDataNode",
			"rotation":[
				0,
				0,
				0,
				1
			],
			"translation":[
				0,
				0,
				0
			]
		},
		{
			"extensions":{
				"KHR_physics_rigid_bodies":{
					"collider":{
						"geometry":{
							"convexHull":true,
							"node":64
						},
						"physicsMaterial":0,
						"collisionFilter":0
					}
				}
			},
			"extras":{
				"khr_physics_extra_props":{
					"non_renderable":1
				}
			},
			"name":"dynamic_child",
			"rotation":[
				-0.7071068286895752,
				0,
				0,
				0.7071068286895752
			]
		},
		{
			"children":[
				51,
				53,
				55,
				57,
				59,
				61,
				63,
				65
			],
			"extensions":{
				"KHR_physics_rigid_bodies":{
					"motion":{
						"mass":1
					}
				}
			},
			"extras":{
				"khr_physics_extra_props":{}
			},
			"mesh":42,
			"name":"dynamic_parent",
			"rotation":[
				0.27988120913505554,
				-0.08215566724538803,
				0.9498002529144287,
				0.1131218746304512
			],
			"translation":[
				7.991196155548096,
				10.24331283569336,
				6.920751571655273
			]
		},
		{
			"mesh":43,
			"name":"physicsMeshDataNode",
			"rotation":[
				0,
				0,
				0,
				1
			],
			"translation":[
				0,
				0,
				0
			]
		},
		{
			"extensions":{
				"KHR_physics_rigid_bodies":{
					"collider":{
						"geometry":{
							"convexHull":true,
							"node":67
						},
						"physicsMaterial":0,
						"collisionFilter":0
					}
				}
			},
			"extras":{
				"khr_physics_extra_props":{
					"non_renderable":1
				}
			},
			"name":"Cube.056",
			"rotation":[
				-0.7071068286895752,
				0,
				0,
				0.7071068286895752
			]
		},
		{
			"mesh":44,
			"name":"physicsMeshDataNode",
			"rotation":[
				0,
				0,
				0,
				1
			],
			"translation":[
				0,
				0,
				0
			]
		},
		{
			"extensions":{
				"KHR_physics_rigid_bodies":{
					"collider":{
						"geometry":{
							"convexHull":true,
							"node":69
						},
						"physicsMaterial":0,
						"collisionFilter":0
					}
				}
			},
			"extras":{
				"khr_physics_extra_props":{
					"non_renderable":1
				}
			},
			"name":"Cube.057",
			"rotation":[
				-0.7071068286895752,
				0,
				0,
				0.7071068286895752
			]
		},
		{
			"mesh":45,
			"name":"physicsMeshDataNode",
			"rotation":[
				0,
				0,
				0,
				1
			],
			"translation":[
				0,
				0,
				0
			]
		},
		{
			"extensions":{
				"KHR_physics_rigid_bodies":{
					"collider":{
						"geometry":{
							"convexHull":true,
							"node":71
						},
						"physicsMaterial":0,
						"collisionFilter":0
					}
				}
			},
			"extras":{
				"khr_physics_extra_props":{
					"non_renderable":1
				}
			},
			"name":"Cube.058",
			"rotation":[
				-0.7071068286895752,
				0,
				0,
				0.7071068286895752
			]
		},
		{
			"mesh":46,
			"name":"physicsMeshDataNode",
			"rotation":[
				0,
				0,
				0,
				1
			],
			"translation":[
				0,
				0,
				0
			]
		},
		{
			"extensions":{
				"KHR_physics_rigid_bodies":{
					"collider":{
						"geometry":{
							"convexHull":true,
							"node":73
						},
						"physicsMaterial":0,
						"collisionFilter":0
					}
				}
			},
			"extras":{
				"khr_physics_extra_props":{
					"non_renderable":1
				}
			},
			"name":"Cube.059",
			"rotation":[
				-0.7071068286895752,
				0,
				0,
				0.7071068286895752
			]
		},
		{
			"mesh":47,
			"name":"physicsMeshDataNode",
			"rotation":[
				0,
				0,
				0,
				1
			],
			"translation":[
				0,
				0,
				0
			]
		},
		{
			"extensions":{
				"KHR_physics_rigid_bodies":{
					"collider":{
						"geometry":{
							"convexHull":true,
							"node":75
						},
						"physicsMaterial":0,
						"collisionFilter":0
					}
				}
			},
			"extras":{
				"khr_physics_extra_props":{
					"non_renderable":1
				}
			},
			"name":"Cube.060",
			"rotation":[
				-0.7071068286895752,
				0,
				0,
				0.7071068286895752
			]
		},
		{
			"mesh":48,
			"name":"physicsMeshDataNode",
			"rotation":[
				0,
				0,
				0,
				1
			],
			"translation":[
				0,
				0,
				0
			]
		},
		{
			"extensions":{
				"KHR_physics_rigid_bodies":{
					"collider":{
						"geometry":{
							"convexHull":true,
							"node":77
						},
						"physicsMaterial":0,
						"collisionFilter":0
					}
				}
			},
			"extras":{
				"khr_physics_extra_props":{
					"non_renderable":1
				}
			},
			"name":"Cube.061",
			"rotation":[
				-0.7071068286895752,
				0,
				0,
				0.7071068286895752
			]
		},
		{
			"mesh":49,
			"name":"physicsMeshDataNode",
			"rotation":[
				0,
				0,
				0,
				1
			],
			"translation":[
				0,
				0,
				0
			]
		},
		{
			"extensions":{
				"KHR_physics_rigid_bodies":{
					"collider":{
						"geometry":{
							"convexHull":true,
							"node":79
						},
						"physicsMaterial":0,
						"collisionFilter":0
					}
				}
			},
			"extras":{
				"khr_physics_extra_props":{
					"non_renderable":1
				}
			},
			"name":"Cube.062",
			"rotation":[
				-0.7071068286895752,
				0,
				0,
				0.7071068286895752
			]
		},
		{
			"mesh":50,
			"name":"physicsMeshDataNode",
			"rotation":[
				0,
				0,
				0,
				1
			],
			"translation":[
				0,
				0,
				0
			]
		},
		{
			"extensions":{
				"KHR_physics_rigid_bodies":{
					"collider":{
						"geometry":{
							"convexHull":true,
							"node":81
						},
						"physicsMaterial":0,
						"collisionFilter":0
					}
				}
			},
			"extras":{
				"khr_physics_extra_props":{
					"non_renderable":1
				}
			},
			"name":"Cube.063",
			"rotation":[
				-0.7071068286895752,
				0,
				0,
				0.7071068286895752
			]
		},
		{
			"children":[
				68,
				70,
				72,
				74,
				76,
				78,
				80,
				82
			],
			"extensions":{
				"KHR_physics_rigid_bodies":{
					"motion":{
						"mass":0.75
					}
				}
			},
			"extras":{
				"khr_physics_extra_props":{
					"non_renderable":0
				}
			},
			"mesh":51,
			"name":"Torus.004",
			"rotation":[
				-0.1398131102323532,
				0.2559985816478729,
				-0.7515994906425476,
				0.5916208624839783
			],
			"translation":[
				6.96504545211792,
				10.68208122253418,
				5.261081218719482
			]
		},
		{
			"mesh":52,
			"name":"physicsMeshDataNode",
			"rotation":[
				0,
				0,
				0,
				1
			],
			"translation":[
				0,
				0,
				0
			]
		},
		{
			"extensions":{
				"KHR_physics_rigid_bodies":{
					"collider":{
						"geometry":{
							"convexHull":true,
							"node":84
						},
						"physicsMaterial":0,
						"collisionFilter":0
					}
				}
			},
			"extras":{
				"khr_physics_extra_props":{
					"non_renderable":1
				}
			},
			"name":"Cube.009",
			"rotation":[
				-0.7071068286895752,
				0,
				0,
				0.7071068286895752
			]
		},
		{
			"mesh":53,
			"name":"physicsMeshDataNode",
			"rotation":[
				0,
				0,
				0,
				1
			],
			"translation":[
				0,
				0,
				0
			]
		},
		{
			"extensions":{
				"KHR_physics_rigid_bodies":{
					"collider":{
						"geometry":{
							"convexHull":true,
							"node":86
						},
						"physicsMaterial":0,
						"collisionFilter":0
					}
				}
			},
			"extras":{
				"khr_physics_extra_props":{
					"non_renderable":1
				}
			},
			"name":"Cube.010",
			"rotation":[
				-0.7071068286895752,
				0,
				0,
				0.7071068286895752
			]
		},
		{
			"mesh":54,
			"name":"physicsMeshDataNode",
			"rotation":[
				0,
				0,
				0,
				1
			],
			"translation":[
				0,
				0,
				0
			]
		},
		{
			"extensions":{
				"KHR_physics_rigid_bodies":{
					"collider":{
						"geometry":{
							"convexHull":true,
							"node":88
						},
						"physicsMaterial":0,
						"collisionFilter":0
					}
				}
			},
			"extras":{
				"khr_physics_extra_props":{
					"non_renderable":1
				}
			},
			"name":"Cube.011",
			"rotation":[
				-0.7071068286895752,
				0,
				0,
				0.7071068286895752
			]
		},
		{
			"mesh":55,
			"name":"physicsMeshDataNode",
			"rotation":[
				0,
				0,
				0,
				1
			],
			"translation":[
				0,
				0,
				0
			]
		},
		{
			"extensions":{
				"KHR_physics_rigid_bodies":{
					"collider":{
						"geometry":{
							"convexHull":true,
							"node":90
						},
						"physicsMaterial":0,
						"collisionFilter":0
					}
				}
			},
			"extras":{
				"khr_physics_extra_props":{
					"non_renderable":1
				}
			},
			"name":"Cube.016",
			"rotation":[
				-0.7071068286895752,
				0,
				0,
				0.7071068286895752
			]
		},
		{
			"mesh":56,
			"name":"physicsMeshDataNode",
			"rotation":[
				0,
				0,
				0,
				1
			],
			"translation":[
				0,
				0,
				0
			]
		},
		{
			"extensions":{
				"KHR_physics_rigid_bodies":{
					"collider":{
						"geometry":{
							"convexHull":true,
							"node":92
						},
						"physicsMaterial":0,
						"collisionFilter":0
					}
				}
			},
			"extras":{
				"khr_physics_extra_props":{
					"non_renderable":1
				}
			},
			"name":"Cube.020",
			"rotation":[
				-0.7071068286895752,
				0,
				0,
				0.7071068286895752
			]
		},
		{
			"mesh":57,
			"name":"physicsMeshDataNode",
			"rotation":[
				0,
				0,
				0,
				1
			],
			"translation":[
				0,
				0,
				0
			]
		},
		{
			"extensions":{
				"KHR_physics_rigid_bodies":{
					"collider":{
						"geometry":{
							"convexHull":true,
							"node":94
						},
						"physicsMaterial":0,
						"collisionFilter":0
					}
				}
			},
			"extras":{
				"khr_physics_extra_props":{
					"non_renderable":1
				}
			},
			"name":"Cube.021",
			"rotation":[
				-0.7071068286895752,
				0,
				0,
				0.7071068286895752
			]
		},
		{
			"mesh":58,
			"name":"physicsMeshDataNode",
			"rotation":[
				0,
				0,
				0,
				1
			],
			"translation":[
				0,
				0,
				0
			]
		},
		{
			"extensions":{
				"KHR_physics_rigid_bodies":{
					"collider":{
						"geometry":{
							"convexHull":true,
							"node":96
						},
						"physicsMaterial":0,
						"collisionFilter":0
					}
				}
			},
			"extras":{
				"khr_physics_extra_props":{
					"non_renderable":1
				}
			},
			"name":"Cube.022",
			"rotation":[
				-0.7071068286895752,
				0,
				0,
				0.7071068286895752
			]
		},
		{
			"mesh":59,
			"name":"physicsMeshDataNode",
			"rotation":[
				0,
				0,
				0,
				1
			],
			"translation":[
				0,
				0,
				0
			]
		},
		{
			"extensions":{
				"KHR_physics_rigid_bodies":{
					"collider":{
						"geometry":{
							"convexHull":true,
							"node":98
						},
						"physicsMaterial":0,
						"collisionFilter":0
					}
				}
			},
			"extras":{
				"khr_physics_extra_props":{
					"non_renderable":1
				}
			},
			"name":"Cube.023",
			"rotation":[
				-0.7071068286895752,
				0,
				0,
				0.7071068286895752
			]
		},
		{
			"children":[
				85,
				87,
				89,
				91,
				93,
				95,
				97,
				99
			],
			"extensions":{},
			"extras":{
				"khr_physics_extra_props":{}
			},
			"mesh":60,
			"name":"Torus.006",
			"rotation":[
				0.6261395812034607,
				0.32855626940727234,
				-0.32855626940727234,
				0.6261396408081055
			],
			"translation":[
				4.744499206542969,
				12.944793701171875,
				1.4568967819213867
			]
		},
		{
			"extras":{
				"khr_physics_extra_props":{}
			},
			"mesh":61,
			"name":"non_physical",
			"translation":[
				18.464252471923828,
				5.513338565826416,
				-3.226680040359497
			]
		},
		{
			"mesh":62,
			"name":"physicsMeshDataNode",
			"rotation":[
				0,
				0,
				0,
				1
			],
			"translation":[
				0,
				0,
				0
			]
		},
		{
			"extensions":{
				"KHR_physics_rigid_bodies":{
					"collider":{
						"geometry":{
							"convexHull":true,
							"node":102
						},
						"physicsMaterial":0,
						"collisionFilter":0
					}
				}
			},
			"extras":{
				"khr_physics_extra_props":{
					"non_renderable":1
				}
			},
			"name":"static_child_0",
			"rotation":[
				0,
				-0.3962327241897583,
				0,
				0.9181501269340515
			],
			"translation":[
				-1.4714488983154297,
				2.5112464427948,
				-1.4509730339050293
			]
		},
		{
			"extensions":{
				"KHR_physics_rigid_bodies":{
					"collider":{
						"geometry":{
							"shape":7
						},
						"physicsMaterial":0,
						"collisionFilter":0
					}
				}
			},
			"extras":{
				"khr_physics_extra_props":{
					"non_renderable":1
				}
			},
			"name":"static_child_1",
			"rotation":[
				0.8595296740531921,
				0,
				0,
				0.5110859274864197
			],
			"translation":[
				3.156442642211914,
				1.0527262687683105,
				-1.7286813259124756
			]
		},
		{
			"children":[
				103,
				104
			],
			"extensions":{},
			"extras":{
				"khr_physics_extra_props":{
					"non_renderable":0
				}
			},
			"mesh":63,
			"name":"static_parent",
			"translation":[
				25.347766876220703,
				-1.2611281871795654,
				-1.3059720993041992
			]
		},
		{
			"extensions":{
				"KHR_physics_rigid_bodies":{
					"collider":{
						"geometry":{
							"shape":8
						},
						"physicsMaterial":2,
						"collisionFilter":0
					}
				}
			},
			"extras":{
				"khr_physics_extra_props":{
					"non_renderable":0
				}
			},
			"mesh":64,
			"name":"static_trivial_cylinder",
			"rotation":[
				-0.5448734164237976,
				0.366555392742157,
				0.7178477048873901,
				0.23118147253990173
			],
			"translation":[
				20.047826766967773,
				2.549140453338623,
				6.191908836364746
			]
		},
		{
			"mesh":65,
			"name":"physicsMeshDataNode",
			"rotation":[
				0,
				0,
				0,
				1
			],
			"translation":[
				0,
				0,
				0
			]
		},
		{
			"extensions":{
				"KHR_physics_rigid_bodies":{
					"collider":{
						"geometry":{
							"convexHull":true,
							"node":107
						},
						"physicsMaterial":0,
						"collisionFilter":0
					}
				}
			},
			"extras":{
				"khr_physics_extra_props":{
					"non_renderable":0
				}
			},
			"mesh":65,
			"name":"static_trivial_convexhull",
			"rotation":[
				0,
				0,
				-0.277937650680542,
				0.9605991244316101
			],
			"translation":[
				15.981066703796387,
				1.7466635704040527,
				0.3689413368701935
			]
		}
	],
	"meshes":[
		{
			"name":"Cube.001",
			"primitives":[
				{
					"attributes":{
						"POSITION":0,
						"NORMAL":1,
						"TEXCOORD_0":2
					},
					"indices":3
				}
			]
		},
		{
			"name":"Cube.002",
			"primitives":[
				{
					"attributes":{
						"POSITION":4,
						"NORMAL":5,
						"TEXCOORD_0":6
					},
					"indices":3
				}
			]
		},
		{
			"name":"Cube.003",
			"primitives":[
				{
					"attributes":{
						"POSITION":7,
						"NORMAL":8,
						"TEXCOORD_0":9
					},
					"indices":10
				}
			]
		},
		{
			"name":"Cube.004",
			"primitives":[
				{
					"attributes":{
						"POSITION":11,
						"NORMAL":12,
						"TEXCOORD_0":13
					},
					"indices":10
				}
			]
		},
		{
			"name":"Cube.005",
			"primitives":[
				{
					"attributes":{
						"POSITION":14,
						"NORMAL":15,
						"TEXCOORD_0":16
					},
					"indices":10
				}
			]
		},
		{
			"name":"Cube.006",
			"primitives":[
				{
					"attributes":{
						"POSITION":17,
						"NORMAL":18,
						"TEXCOORD_0":19
					},
					"indices":10
				}
			]
		},
		{
			"name":"Cube.007",
			"primitives":[
				{
					"attributes":{
						"POSITION":20,
						"NORMAL":21,
						"TEXCOORD_0":22
					},
					"indices":10
				}
			]
		},
		{
			"name":"Cube.008",
			"primitives":[
				{
					"attributes":{
						"POSITION":23,
						"NORMAL":24,
						"TEXCOORD_0":25
					},
					"indices":10
				}
			]
		},
		{
			"name":"Cube.009",
			"primitives":[
				{
					"attributes":{
						"POSITION":26,
						"NORMAL":27,
						"TEXCOORD_0":28
					},
					"indices":10
				}
			]
		},
		{
			"name":"Cube.010",
			"primitives":[
				{
					"attributes":{
						"POSITION":29,
						"NORMAL":30,
						"TEXCOORD_0":31
					},
					"indices":10
				}
			]
		},
		{
			"name":"Cube.014",
			"primitives":[
				{
					"attributes":{
						"POSITION":32,
						"NORMAL":33,
						"TEXCOORD_0":34
					},
					"indices":10
				}
			]
		},
		{
			"name":"Cube.015",
			"primitives":[
				{
					"attributes":{
						"POSITION":35,
						"NORMAL":36,
						"TEXCOORD_0":37
					},
					"indices":10
				}
			]
		},
		{
			"name":"Cube.016",
			"primitives":[
				{
					"attributes":{
						"POSITION":38,
						"NORMAL":39,
						"TEXCOORD_0":40
					},
					"indices":10
				}
			]
		},
		{
			"name":"Cube.019",
			"primitives":[
				{
					"attributes":{
						"POSITION":41,
						"NORMAL":42,
						"TEXCOORD_0":43
					},
					"indices":10
				}
			]
		},
		{
			"name":"Cube.020",
			"primitives":[
				{
					"attributes":{
						"POSITION":44,
						"NORMAL":45,
						"TEXCOORD_0":46
					},
					"indices":10
				}
			]
		},
		{
			"name":"Cube.021",
			"primitives":[
				{
					"attributes":{
						"POSITION":47,
						"NORMAL":48,
						"TEXCOORD_0":49
					},
					"indices":10
				}
			]
		},
		{
			"name":"Cube.064",
			"primitives":[
				{
					"attributes":{
						"POSITION":50,
						"NORMAL":51
					},
					"indices":52
				}
			]
		},
		{
			"name":"Cube.065",
			"primitives":[
				{
					"attributes":{
						"POSITION":53,
						"NORMAL":54
					},
					"indices":55
				}
			]
		},
		{
			"name":"Cube.066",
			"primitives":[
				{
					"attributes":{
						"POSITION":56,
						"NORMAL":57
					},
					"indices":58
				}
			]
		},
		{
			"name":"Cube.067",
			"primitives":[
				{
					"attributes":{
						"POSITION":59,
						"NORMAL":60
					},
					"indices":61
				}
			]
		},
		{
			"name":"Cube.068",
			"primitives":[
				{
					"attributes":{
						"POSITION":62,
						"NORMAL":63
					},
					"indices":64
				}
			]
		},
		{
			"name":"Cube.069",
			"primitives":[
				{
					"attributes":{
						"POSITION":65,
						"NORMAL":66
					},
					"indices":67
				}
			]
		},
		{
			"name":"Cube.070",
			"primitives":[
				{
					"attributes":{
						"POSITION":68,
						"NORMAL":69
					},
					"indices":70
				}
			]
		},
		{
			"name":"Cube.071",
			"primitives":[
				{
					"attributes":{
						"POSITION":71,
						"NORMAL":72
					},
					"indices":73
				}
			]
		},
		{
			"name":"Torus.003",
			"primitives":[
				{
					"attributes":{
						"POSITION":74,
						"NORMAL":75,
						"TEXCOORD_0":76
					},
					"indices":77
				}
			]
		},
		{
			"name":"Cube.072",
			"primitives":[
				{
					"attributes":{
						"POSITION":78,
						"NORMAL":79
					},
					"indices":73
				}
			]
		},
		{
			"name":"Cube.073",
			"primitives":[
				{
					"attributes":{
						"POSITION":80,
						"NORMAL":81
					},
					"indices":70
				}
			]
		},
		{
			"name":"Cube.074",
			"primitives":[
				{
					"attributes":{
						"POSITION":82,
						"NORMAL":83
					},
					"indices":67
				}
			]
		},
		{
			"name":"Cube.075",
			"primitives":[
				{
					"attributes":{
						"POSITION":84,
						"NORMAL":85
					},
					"indices":64
				}
			]
		},
		{
			"name":"Cube.076",
			"primitives":[
				{
					"attributes":{
						"POSITION":86,
						"NORMAL":87
					},
					"indices":61
				}
			]
		},
		{
			"name":"Cube.077",
			"primitives":[
				{
					"attributes":{
						"POSITION":88,
						"NORMAL":89
					},
					"indices":58
				}
			]
		},
		{
			"name":"Cube.078",
			"primitives":[
				{
					"attributes":{
						"POSITION":90,
						"NORMAL":91
					},
					"indices":55
				}
			]
		},
		{
			"name":"Cube.079",
			"primitives":[
				{
					"attributes":{
						"POSITION":92,
						"NORMAL":93
					},
					"indices":52
				}
			]
		},
		{
			"name":"Torus.004",
			"primitives":[
				{
					"attributes":{
						"POSITION":94,
						"NORMAL":95,
						"TEXCOORD_0":96
					},
					"indices":77
				}
			]
		},
		{
			"name":"Cube.080",
			"primitives":[
				{
					"attributes":{
						"POSITION":97,
						"NORMAL":98
					},
					"indices":52
				}
			]
		},
		{
			"name":"Cube.081",
			"primitives":[
				{
					"attributes":{
						"POSITION":99,
						"NORMAL":100
					},
					"indices":55
				}
			]
		},
		{
			"name":"Cube.082",
			"primitives":[
				{
					"attributes":{
						"POSITION":101,
						"NORMAL":102
					},
					"indices":58
				}
			]
		},
		{
			"name":"Cube.083",
			"primitives":[
				{
					"attributes":{
						"POSITION":103,
						"NORMAL":104
					},
					"indices":61
				}
			]
		},
		{
			"name":"Cube.084",
			"primitives":[
				{
					"attributes":{
						"POSITION":105,
						"NORMAL":106
					},
					"indices":64
				}
			]
		},
		{
			"name":"Cube.085",
			"primitives":[
				{
					"attributes":{
						"POSITION":107,
						"NORMAL":108
					},
					"indices":67
				}
			]
		},
		{
			"name":"Cube.086",
			"primitives":[
				{
					"attributes":{
						"POSITION":109,
						"NORMAL":110
					},
					"indices":70
				}
			]
		},
		{
			"name":"Cube.087",
			"primitives":[
				{
					"attributes":{
						"POSITION":111,
						"NORMAL":112
					},
					"indices":73
				}
			]
		},
		{
			"name":"Torus.005",
			"primitives":[
				{
					"attributes":{
						"POSITION":113,
						"NORMAL":114,
						"TEXCOORD_0":115
					},
					"indices":77
				}
			]
		},
		{
			"name":"Cube.088",
			"primitives":[
				{
					"attributes":{
						"POSITION":116,
						"NORMAL":117
					},
					"indices":73
				}
			]
		},
		{
			"name":"Cube.089",
			"primitives":[
				{
					"attributes":{
						"POSITION":118,
						"NORMAL":119
					},
					"indices":70
				}
			]
		},
		{
			"name":"Cube.090",
			"primitives":[
				{
					"attributes":{
						"POSITION":120,
						"NORMAL":121
					},
					"indices":67
				}
			]
		},
		{
			"name":"Cube.091",
			"primitives":[
				{
					"attributes":{
						"POSITION":122,
						"NORMAL":123
					},
					"indices":64
				}
			]
		},
		{
			"name":"Cube.092",
			"primitives":[
				{
					"attributes":{
						"POSITION":124,
						"NORMAL":125
					},
					"indices":61
				}
			]
		},
		{
			"name":"Cube.093",
			"primitives":[
				{
					"attributes":{
						"POSITION":126,
						"NORMAL":127
					},
					"indices":58
				}
			]
		},
		{
			"name":"Cube.094",
			"primitives":[
				{
					"attributes":{
						"POSITION":128,
						"NORMAL":129
					},
					"indices":55
				}
			]
		},
		{
			"name":"Cube.095",
			"primitives":[
				{
					"attributes":{
						"POSITION":130,
						"NORMAL":131
					},
					"indices":52
				}
			]
		},
		{
			"name":"Torus.006",
			"primitives":[
				{
					"attributes":{
						"POSITION":132,
						"NORMAL":133,
						"TEXCOORD_0":134
					},
					"indices":77
				}
			]
		},
		{
			"name":"Cube.109",
			"primitives":[
				{
					"attributes":{
						"POSITION":135,
						"NORMAL":136
					},
					"indices":73
				}
			]
		},
		{
			"name":"Cube.110",
			"primitives":[
				{
					"attributes":{
						"POSITION":137,
						"NORMAL":138
					},
					"indices":70
				}
			]
		},
		{
			"name":"Cube.111",
			"primitives":[
				{
					"attributes":{
						"POSITION":139,
						"NORMAL":140
					},
					"indices":67
				}
			]
		},
		{
			"name":"Cube.112",
			"primitives":[
				{
					"attributes":{
						"POSITION":141,
						"NORMAL":142
					},
					"indices":64
				}
			]
		},
		{
			"name":"Cube.113",
			"primitives":[
				{
					"attributes":{
						"POSITION":143,
						"NORMAL":144
					},
					"indices":61
				}
			]
		},
		{
			"name":"Cube.114",
			"primitives":[
				{
					"attributes":{
						"POSITION":145,
						"NORMAL":146
					},
					"indices":58
				}
			]
		},
		{
			"name":"Cube.115",
			"primitives":[
				{
					"attributes":{
						"POSITION":147,
						"NORMAL":148
					},
					"indices":55
				}
			]
		},
		{
			"name":"Cube.116",
			"primitives":[
				{
					"attributes":{
						"POSITION":149,
						"NORMAL":150
					},
					"indices":52
				}
			]
		},
		{
			"name":"Torus.012",
			"primitives":[
				{
					"attributes":{
						"POSITION":151,
						"NORMAL":152,
						"TEXCOORD_0":153
					},
					"indices":77
				}
			]
		},
		{
			"name":"Suzanne",
			"primitives":[
				{
					"attributes":{
						"POSITION":154,
						"NORMAL":155,
						"TEXCOORD_0":156
					},
					"indices":157
				}
			]
		},
		{
			"name":"Cube",
			"primitives":[
				{
					"attributes":{
						"POSITION":158,
						"NORMAL":159
					},
					"indices":160
				}
			]
		},
		{
			"name":"Cube.012",
			"primitives":[
				{
					"attributes":{
						"POSITION":161,
						"NORMAL":162,
						"TEXCOORD_0":163
					},
					"indices":3
				}
			]
		},
		{
			"name":"Cylinder",
			"primitives":[
				{
					"attributes":{
						"POSITION":164,
						"NORMAL":165,
						"TEXCOORD_0":166
					},
					"indices":167
				}
			]
		},
		{
			"name":"Torus",
			"primitives":[
				{
					"attributes":{
						"POSITION":168,
						"NORMAL":169,
						"TEXCOORD_0":170
					},
					"indices":171
				}
			]
		}
	],
	"accessors":[
		{
			"bufferView":0,
			"componentType":5126,
			"count":24,
			"max":[
				1,
				1,
				1
			],
			"min":[
				-1,
				-1,
				-1
			],
			"type":"VEC3"
		},
		{
			"bufferView":1,
			"componentType":5126,
			"count":24,
			"type":"VEC3"
		},
		{
			"bufferView":2,
			"componentType":5126,
			"count":24,
			"type":"VEC2"
		},
		{
			"bufferView":3,
			"componentType":5123,
			"count":36,
			"type":"SCALAR"
		},
		{
			"bufferView":4,
			"componentType":5126,
			"count":24,
			"max":[
				12.871797561645508,
				1,
				13.485719680786133
			],
			"min":[
				-12.871797561645508,
				-1,
				-13.485719680786133
			],
			"type":"VEC3"
		},
		{
			"bufferView":5,
			"componentType":5126,
			"count":24,
			"type":"VEC3"
		},
		{
			"bufferView":6,
			"componentType":5126,
			"count":24,
			"type":"VEC2"
		},
		{
			"bufferView":7,
			"componentType":5126,
			"count":24,
			"max":[
				1,
				1,
				1
			],
			"min":[
				-1,
				-1,
				-1
			],
			"type":"VEC3"
		},
		{
			"bufferView":8,
			"componentType":5126,
			"count":24,
			"type":"VEC3"
		},
		{
			"bufferView":9,
			"componentType":5126,
			"count":24,
			"type":"VEC2"
		},
		{
			"bufferView":10,
			"componentType":5123,
			"count":36,
			"type":"SCALAR"
		},
		{
			"bufferView":11,
			"componentType":5126,
			"count":24,
			"max":[
				1,
				1,
				1
			],
			"min":[
				-1,
				-1,
				-1
			],
			"type":"VEC3"
		},
		{
			"bufferView":12,
			"componentType":5126,
			"count":24,
			"type":"VEC3"
		},
		{
			"bufferView":13,
			"componentType":5126,
			"count":24,
			"type":"VEC2"
		},
		{
			"bufferView":14,
			"componentType":5126,
			"count":24,
			"max":[
				1.0000009536743164,
				1,
				0.9999990463256836
			],
			"min":[
				-0.9999990463256836,
				-1,
				-1.0000009536743164
			],
			"type":"VEC3"
		},
		{
			"bufferView":15,
			"componentType":5126,
			"count":24,
			"type":"VEC3"
		},
		{
			"bufferView":16,
			"componentType":5126,
			"count":24,
			"type":"VEC2"
		},
		{
			"bufferView":17,
			"componentType":5126,
			"count":24,
			"max":[
				1,
				1,
				1
			],
			"min":[
				-1,
				-1,
				-1
			],
			"type":"VEC3"
		},
		{
			"bufferView":18,
			"componentType":5126,
			"count":24,
			"type":"VEC3"
		},
		{
			"bufferView":19,
			"componentType":5126,
			"count":24,
			"type":"VEC2"
		},
		{
			"bufferView":20,
			"componentType":5126,
			"count":24,
			"max":[
				1,
				1,
				1
			],
			"min":[
				-0.9999998807907104,
				-1,
				-1
			],
			"type":"VEC3"
		},
		{
			"bufferView":21,
			"componentType":5126,
			"count":24,
			"type":"VEC3"
		},
		{
			"bufferView":22,
			"componentType":5126,
			"count":24,
			"type":"VEC2"
		},
		{
			"bufferView":23,
			"componentType":5126,
			"count":24,
			"max":[
				0.9999997615814209,
				1,
				0.9999997615814209
			],
			"min":[
				-1.000000238418579,
				-1,
				-1
			],
			"type":"VEC3"
		},
		{
			"bufferView":24,
			"componentType":5126,
			"count":24,
			"type":"VEC3"
		},
		{
			"bufferView":25,
			"componentType":5126,
			"count":24,
			"type":"VEC2"
		},
		{
			"bufferView":26,
			"componentType":5126,
			"count":24,
			"max":[
				1,
				1,
				1
			],
			"min":[
				-1,
				-1,
				-1
			],
			"type":"VEC3"
		},
		{
			"bufferView":27,
			"componentType":5126,
			"count":24,
			"type":"VEC3"
		},
		{
			"bufferView":28,
			"componentType":5126,
			"count":24,
			"type":"VEC2"
		},
		{
			"bufferView":29,
			"componentType":5126,
			"count":24,
			"max":[
				1,
				1,
				1
			],
			"min":[
				-1,
				-1,
				-1
			],
			"type":"VEC3"
		},
		{
			"bufferView":30,
			"componentType":5126,
			"count":24,
			"type":"VEC3"
		},
		{
			"bufferView":31,
			"componentType":5126,
			"count":24,
			"type":"VEC2"
		},
		{
			"bufferView":32,
			"componentType":5126,
			"count":24,
			"max":[
				1,
				1,
				1
			],
			"min":[
				-1,
				-1,
				-1
			],
			"type":"VEC3"
		},
		{
			"bufferView":33,
			"componentType":5126,
			"count":24,
			"type":"VEC3"
		},
		{
			"bufferView":34,
			"componentType":5126,
			"count":24,
			"type":"VEC2"
		},
		{
			"bufferView":35,
			"componentType":5126,
			"count":24,
			"max":[
				1,
				1,
				1
			],
			"min":[
				-0.9999997615814209,
				-1,
				-1
			],
			"type":"VEC3"
		},
		{
			"bufferView":36,
			"componentType":5126,
			"count":24,
			"type":"VEC3"
		},
		{
			"bufferView":37,
			"componentType":5126,
			"count":24,
			"type":"VEC2"
		},
		{
			"bufferView":38,
			"componentType":5126,
			"count":24,
			"max":[
				1,
				1,
				1
			],
			"min":[
				-1,
				-1,
				-1
			],
			"type":"VEC3"
		},
		{
			"bufferView":39,
			"componentType":5126,
			"count":24,
			"type":"VEC3"
		},
		{
			"bufferView":40,
			"componentType":5126,
			"count":24,
			"type":"VEC2"
		},
		{
			"bufferView":41,
			"componentType":5126,
			"count":24,
			"max":[
				1,
				0.9999995231628418,
				1
			],
			"min":[
				-1.000000238418579,
				-1.0000004768371582,
				-1
			],
			"type":"VEC3"
		},
		{
			"bufferView":42,
			"componentType":5126,
			"count":24,
			"type":"VEC3"
		},
		{
			"bufferView":43,
			"componentType":5126,
			"count":24,
			"type":"VEC2"
		},
		{
			"bufferView":44,
			"componentType":5126,
			"count":24,
			"max":[
				0.9999995231628418,
				0.9999995231628418,
				1
			],
			"min":[
				-1.0000004768371582,
				-1.0000004768371582,
				-1
			],
			"type":"VEC3"
		},
		{
			"bufferView":45,
			"componentType":5126,
			"count":24,
			"type":"VEC3"
		},
		{
			"bufferView":46,
			"componentType":5126,
			"count":24,
			"type":"VEC2"
		},
		{
			"bufferView":47,
			"componentType":5126,
			"count":24,
			"max":[
				4.500004291534424,
				0.18604527413845062,
				1.4999992847442627
			],
			"min":[
				-4.499995708465576,
				-0.18604545295238495,
				-1.5
			],
			"type":"VEC3"
		},
		{
			"bufferView":48,
			"componentType":5126,
			"count":24,
			"type":"VEC3"
		},
		{
			"bufferView":49,
			"componentType":5126,
			"count":24,
			"type":"VEC2"
		},
		{
			"bufferView":50,
			"componentType":5126,
			"count":8,
			"max":[
				0.8654723763465881,
				1.0685988664627075,
				0.27186593413352966
			],
			"min":[
				0.5407409071922302,
				-1.0685988664627075,
				-0.27186593413352966
			],
			"type":"VEC3"
		},
		{
			"bufferView":51,
			"componentType":5126,
			"count":8,
			"type":"VEC3"
		},
		{
			"bufferView":52,
			"componentType":5123,
			"count":36,
			"type":"SCALAR"
		},
		{
			"bufferView":53,
			"componentType":5126,
			"count":8,
			"max":[
				0.8654723763465881,
				-0.9340906739234924,
				0.27186593413352966
			],
			"min":[
				0.206600159406662,
				-1.5929628610610962,
				-0.27186593413352966
			],
			"type":"VEC3"
		},
		{
			"bufferView":54,
			"componentType":5126,
			"count":8,
			"type":"VEC3"
		},
		{
			"bufferView":55,
			"componentType":5123,
			"count":36,
			"type":"SCALAR"
		},
		{
			"bufferView":56,
			"componentType":5126,
			"count":8,
			"max":[
				-0.206600159406662,
				1.5929628610610962,
				0.27186593413352966
			],
			"min":[
				-0.8654723763465881,
				0.9340906739234924,
				-0.27186593413352966
			],
			"type":"VEC3"
		},
		{
			"bufferView":57,
			"componentType":5126,
			"count":8,
			"type":"VEC3"
		},
		{
			"bufferView":58,
			"componentType":5123,
			"count":36,
			"type":"SCALAR"
		},
		{
			"bufferView":59,
			"componentType":5126,
			"count":8,
			"max":[
				0.3411083221435547,
				1.5929628610610962,
				0.27186593413352966
			],
			"min":[
				-0.3411083221435547,
				1.2682313919067383,
				-0.27186593413352966
			],
			"type":"VEC3"
		},
		{
			"bufferView":60,
			"componentType":5126,
			"count":8,
			"type":"VEC3"
		},
		{
			"bufferView":61,
			"componentType":5123,
			"count":36,
			"type":"SCALAR"
		},
		{
			"bufferView":62,
			"componentType":5126,
			"count":8,
			"max":[
				0.8654723763465881,
				1.5929628610610962,
				0.27186593413352966
			],
			"min":[
				0.206600159406662,
				0.9340906739234924,
				-0.27186593413352966
			],
			"type":"VEC3"
		},
		{
			"bufferView":63,
			"componentType":5126,
			"count":8,
			"type":"VEC3"
		},
		{
			"bufferView":64,
			"componentType":5123,
			"count":36,
			"type":"SCALAR"
		},
		{
			"bufferView":65,
			"componentType":5126,
			"count":8,
			"max":[
				-0.5407409071922302,
				1.0685988664627075,
				0.27186593413352966
			],
			"min":[
				-0.8654723763465881,
				-1.0685988664627075,
				-0.27186593413352966
			],
			"type":"VEC3"
		},
		{
			"bufferView":66,
			"componentType":5126,
			"count":8,
			"type":"VEC3"
		},
		{
			"bufferView":67,
			"componentType":5123,
			"count":36,
			"type":"SCALAR"
		},
		{
			"bufferView":68,
			"componentType":5126,
			"count":8,
			"max":[
				-0.206600159406662,
				-0.9340906739234924,
				0.27186593413352966
			],
			"min":[
				-0.8654723763465881,
				-1.5929628610610962,
				-0.27186593413352966
			],
			"type":"VEC3"
		},
		{
			"bufferView":69,
			"componentType":5126,
			"count":8,
			"type":"VEC3"
		},
		{
			"bufferView":70,
			"componentType":5123,
			"count":36,
			"type":"SCALAR"
		},
		{
			"bufferView":71,
			"componentType":5126,
			"count":8,
			"max":[
				0.3411083221435547,
				-1.2682313919067383,
				0.27186593413352966
			],
			"min":[
				-0.3411083221435547,
				-1.5929628610610962,
				-0.27186593413352966
			],
			"type":"VEC3"
		},
		{
			"bufferView":72,
			"componentType":5126,
			"count":8,
			"type":"VEC3"
		},
		{
			"bufferView":73,
			"componentType":5123,
			"count":36,
			"type":"SCALAR"
		},
		{
			"bufferView":74,
			"componentType":5126,
			"count":1127,
			"max":[
				0.8579999804496765,
				0.24356400966644287,
				1.5878950357437134
			],
			"min":[
				-0.8579999804496765,
				-0.24356400966644287,
				-1.5862550735473633
			],
			"type":"VEC3"
		},
		{
			"bufferView":75,
			"componentType":5126,
			"count":1127,
			"type":"VEC3"
		},
		{
			"bufferView":76,
			"componentType":5126,
			"count":1127,
			"type":"VEC2"
		},
		{
			"bufferView":77,
			"componentType":5123,
			"count":6336,
			"type":"SCALAR"
		},
		{
			"bufferView":78,
			"componentType":5126,
			"count":8,
			"max":[
				0.3411083221435547,
				-1.2682313919067383,
				0.27186593413352966
			],
			"min":[
				-0.3411083221435547,
				-1.5929628610610962,
				-0.27186593413352966
			],
			"type":"VEC3"
		},
		{
			"bufferView":79,
			"componentType":5126,
			"count":8,
			"type":"VEC3"
		},
		{
			"bufferView":80,
			"componentType":5126,
			"count":8,
			"max":[
				-0.206600159406662,
				-0.9340906739234924,
				0.27186593413352966
			],
			"min":[
				-0.8654723763465881,
				-1.5929628610610962,
				-0.27186593413352966
			],
			"type":"VEC3"
		},
		{
			"bufferView":81,
			"componentType":5126,
			"count":8,
			"type":"VEC3"
		},
		{
			"bufferView":82,
			"componentType":5126,
			"count":8,
			"max":[
				-0.5407409071922302,
				1.0685988664627075,
				0.27186593413352966
			],
			"min":[
				-0.8654723763465881,
				-1.0685988664627075,
				-0.27186593413352966
			],
			"type":"VEC3"
		},
		{
			"bufferView":83,
			"componentType":5126,
			"count":8,
			"type":"VEC3"
		},
		{
			"bufferView":84,
			"componentType":5126,
			"count":8,
			"max":[
				0.8654723763465881,
				1.5929628610610962,
				0.27186593413352966
			],
			"min":[
				0.206600159406662,
				0.9340906739234924,
				-0.27186593413352966
			],
			"type":"VEC3"
		},
		{
			"bufferView":85,
			"componentType":5126,
			"count":8,
			"type":"VEC3"
		},
		{
			"bufferView":86,
			"componentType":5126,
			"count":8,
			"max":[
				0.3411083221435547,
				1.5929628610610962,
				0.27186593413352966
			],
			"min":[
				-0.3411083221435547,
				1.2682313919067383,
				-0.27186593413352966
			],
			"type":"VEC3"
		},
		{
			"bufferView":87,
			"componentType":5126,
			"count":8,
			"type":"VEC3"
		},
		{
			"bufferView":88,
			"componentType":5126,
			"count":8,
			"max":[
				-0.206600159406662,
				1.5929628610610962,
				0.27186593413352966
			],
			"min":[
				-0.8654723763465881,
				0.9340906739234924,
				-0.27186593413352966
			],
			"type":"VEC3"
		},
		{
			"bufferView":89,
			"componentType":5126,
			"count":8,
			"type":"VEC3"
		},
		{
			"bufferView":90,
			"componentType":5126,
			"count":8,
			"max":[
				0.8654723763465881,
				-0.9340906739234924,
				0.27186593413352966
			],
			"min":[
				0.206600159406662,
				-1.5929628610610962,
				-0.27186593413352966
			],
			"type":"VEC3"
		},
		{
			"bufferView":91,
			"componentType":5126,
			"count":8,
			"type":"VEC3"
		},
		{
			"bufferView":92,
			"componentType":5126,
			"count":8,
			"max":[
				0.8654723763465881,
				1.0685988664627075,
				0.27186593413352966
			],
			"min":[
				0.5407409071922302,
				-1.0685988664627075,
				-0.27186593413352966
			],
			"type":"VEC3"
		},
		{
			"bufferView":93,
			"componentType":5126,
			"count":8,
			"type":"VEC3"
		},
		{
			"bufferView":94,
			"componentType":5126,
			"count":1127,
			"max":[
				0.8579999804496765,
				0.24356400966644287,
				1.5878950357437134
			],
			"min":[
				-0.8579999804496765,
				-0.24356400966644287,
				-1.5862550735473633
			],
			"type":"VEC3"
		},
		{
			"bufferView":95,
			"componentType":5126,
			"count":1127,
			"type":"VEC3"
		},
		{
			"bufferView":96,
			"componentType":5126,
			"count":1127,
			"type":"VEC2"
		},
		{
			"bufferView":97,
			"componentType":5126,
			"count":8,
			"max":[
				0.8654723763465881,
				1.0685988664627075,
				0.27186593413352966
			],
			"min":[
				0.5407409071922302,
				-1.0685988664627075,
				-0.27186593413352966
			],
			"type":"VEC3"
		},
		{
			"bufferView":98,
			"componentType":5126,
			"count":8,
			"type":"VEC3"
		},
		{
			"bufferView":99,
			"componentType":5126,
			"count":8,
			"max":[
				0.8654723763465881,
				-0.9340906739234924,
				0.27186593413352966
			],
			"min":[
				0.206600159406662,
				-1.5929628610610962,
				-0.27186593413352966
			],
			"type":"VEC3"
		},
		{
			"bufferView":100,
			"componentType":5126,
			"count":8,
			"type":"VEC3"
		},
		{
			"bufferView":101,
			"componentType":5126,
			"count":8,
			"max":[
				-0.206600159406662,
				1.5929628610610962,
				0.27186593413352966
			],
			"min":[
				-0.8654723763465881,
				0.9340906739234924,
				-0.27186593413352966
			],
			"type":"VEC3"
		},
		{
			"bufferView":102,
			"componentType":5126,
			"count":8,
			"type":"VEC3"
		},
		{
			"bufferView":103,
			"componentType":5126,
			"count":8,
			"max":[
				0.3411083221435547,
				1.5929628610610962,
				0.27186593413352966
			],
			"min":[
				-0.3411083221435547,
				1.2682313919067383,
				-0.27186593413352966
			],
			"type":"VEC3"
		},
		{
			"bufferView":104,
			"componentType":5126,
			"count":8,
			"type":"VEC3"
		},
		{
			"bufferView":105,
			"componentType":5126,
			"count":8,
			"max":[
				0.8654723763465881,
				1.5929628610610962,
				0.27186593413352966
			],
			"min":[
				0.206600159406662,
				0.9340906739234924,
				-0.27186593413352966
			],
			"type":"VEC3"
		},
		{
			"bufferView":106,
			"componentType":5126,
			"count":8,
			"type":"VEC3"
		},
		{
			"bufferView":107,
			"componentType":5126,
			"count":8,
			"max":[
				-0.5407409071922302,
				1.0685988664627075,
				0.27186593413352966
			],
			"min":[
				-0.8654723763465881,
				-1.0685988664627075,
				-0.27186593413352966
			],
			"type":"VEC3"
		},
		{
			"bufferView":108,
			"componentType":5126,
			"count":8,
			"type":"VEC3"
		},
		{
			"bufferView":109,
			"componentType":5126,
			"count":8,
			"max":[
				-0.206600159406662,
				-0.9340906739234924,
				0.27186593413352966
			],
			"min":[
				-0.8654723763465881,
				-1.5929628610610962,
				-0.27186593413352966
			],
			"type":"VEC3"
		},
		{
			"bufferView":110,
			"componentType":5126,
			"count":8,
			"type":"VEC3"
		},
		{
			"bufferView":111,
			"componentType":5126,
			"count":8,
			"max":[
				0.3411083221435547,
				-1.2682313919067383,
				0.27186593413352966
			],
			"min":[
				-0.3411083221435547,
				-1.5929628610610962,
				-0.27186593413352966
			],
			"type":"VEC3"
		},
		{
			"bufferView":112,
			"componentType":5126,
			"count":8,
			"type":"VEC3"
		},
		{
			"bufferView":113,
			"componentType":5126,
			"count":1127,
			"max":[
				0.8579999804496765,
				0.24356400966644287,
				1.5878950357437134
			],
			"min":[
				-0.8579999804496765,
				-0.24356400966644287,
				-1.5862550735473633
			],
			"type":"VEC3"
		},
		{
			"bufferView":114,
			"componentType":5126,
			"count":1127,
			"type":"VEC3"
		},
		{
			"bufferView":115,
			"componentType":5126,
			"count":1127,
			"type":"VEC2"
		},
		{
			"bufferView":116,
			"componentType":5126,
			"count":8,
			"max":[
				0.3411083221435547,
				-1.2682313919067383,
				0.27186593413352966
			],
			"min":[
				-0.3411083221435547,
				-1.5929628610610962,
				-0.27186593413352966
			],
			"type":"VEC3"
		},
		{
			"bufferView":117,
			"componentType":5126,
			"count":8,
			"type":"VEC3"
		},
		{
			"bufferView":118,
			"componentType":5126,
			"count":8,
			"max":[
				-0.206600159406662,
				-0.9340906739234924,
				0.27186593413352966
			],
			"min":[
				-0.8654723763465881,
				-1.5929628610610962,
				-0.27186593413352966
			],
			"type":"VEC3"
		},
		{
			"bufferView":119,
			"componentType":5126,
			"count":8,
			"type":"VEC3"
		},
		{
			"bufferView":120,
			"componentType":5126,
			"count":8,
			"max":[
				-0.5407409071922302,
				1.0685988664627075,
				0.27186593413352966
			],
			"min":[
				-0.8654723763465881,
				-1.0685988664627075,
				-0.27186593413352966
			],
			"type":"VEC3"
		},
		{
			"bufferView":121,
			"componentType":5126,
			"count":8,
			"type":"VEC3"
		},
		{
			"bufferView":122,
			"componentType":5126,
			"count":8,
			"max":[
				0.8654723763465881,
				1.5929628610610962,
				0.27186593413352966
			],
			"min":[
				0.206600159406662,
				0.9340906739234924,
				-0.27186593413352966
			],
			"type":"VEC3"
		},
		{
			"bufferView":123,
			"componentType":5126,
			"count":8,
			"type":"VEC3"
		},
		{
			"bufferView":124,
			"componentType":5126,
			"count":8,
			"max":[
				0.3411083221435547,
				1.5929628610610962,
				0.27186593413352966
			],
			"min":[
				-0.3411083221435547,
				1.2682313919067383,
				-0.27186593413352966
			],
			"type":"VEC3"
		},
		{
			"bufferView":125,
			"componentType":5126,
			"count":8,
			"type":"VEC3"
		},
		{
			"bufferView":126,
			"componentType":5126,
			"count":8,
			"max":[
				-0.206600159406662,
				1.5929628610610962,
				0.27186593413352966
			],
			"min":[
				-0.8654723763465881,
				0.9340906739234924,
				-0.27186593413352966
			],
			"type":"VEC3"
		},
		{
			"bufferView":127,
			"componentType":5126,
			"count":8,
			"type":"VEC3"
		},
		{
			"bufferView":128,
			"componentType":5126,
			"count":8,
			"max":[
				0.8654723763465881,
				-0.9340906739234924,
				0.27186593413352966
			],
			"min":[
				0.206600159406662,
				-1.5929628610610962,
				-0.27186593413352966
			],
			"type":"VEC3"
		},
		{
			"bufferView":129,
			"componentType":5126,
			"count":8,
			"type":"VEC3"
		},
		{
			"bufferView":130,
			"componentType":5126,
			"count":8,
			"max":[
				0.8654723763465881,
				1.0685988664627075,
				0.27186593413352966
			],
			"min":[
				0.5407409071922302,
				-1.0685988664627075,
				-0.27186593413352966
			],
			"type":"VEC3"
		},
		{
			"bufferView":131,
			"componentType":5126,
			"count":8,
			"type":"VEC3"
		},
		{
			"bufferView":132,
			"componentType":5126,
			"count":1127,
			"max":[
				0.8579999804496765,
				0.24356400966644287,
				1.5878950357437134
			],
			"min":[
				-0.8579999804496765,
				-0.24356400966644287,
				-1.5862550735473633
			],
			"type":"VEC3"
		},
		{
			"bufferView":133,
			"componentType":5126,
			"count":1127,
			"type":"VEC3"
		},
		{
			"bufferView":134,
			"componentType":5126,
			"count":1127,
			"type":"VEC2"
		},
		{
			"bufferView":135,
			"componentType":5126,
			"count":8,
			"max":[
				0.3411083221435547,
				-1.2682313919067383,
				0.27186593413352966
			],
			"min":[
				-0.3411083221435547,
				-1.5929628610610962,
				-0.27186593413352966
			],
			"type":"VEC3"
		},
		{
			"bufferView":136,
			"componentType":5126,
			"count":8,
			"type":"VEC3"
		},
		{
			"bufferView":137,
			"componentType":5126,
			"count":8,
			"max":[
				-0.206600159406662,
				-0.9340906739234924,
				0.27186593413352966
			],
			"min":[
				-0.8654723763465881,
				-1.5929628610610962,
				-0.27186593413352966
			],
			"type":"VEC3"
		},
		{
			"bufferView":138,
			"componentType":5126,
			"count":8,
			"type":"VEC3"
		},
		{
			"bufferView":139,
			"componentType":5126,
			"count":8,
			"max":[
				-0.5407409071922302,
				1.0685988664627075,
				0.27186593413352966
			],
			"min":[
				-0.8654723763465881,
				-1.0685988664627075,
				-0.27186593413352966
			],
			"type":"VEC3"
		},
		{
			"bufferView":140,
			"componentType":5126,
			"count":8,
			"type":"VEC3"
		},
		{
			"bufferView":141,
			"componentType":5126,
			"count":8,
			"max":[
				0.8654723763465881,
				1.5929628610610962,
				0.27186593413352966
			],
			"min":[
				0.206600159406662,
				0.9340906739234924,
				-0.27186593413352966
			],
			"type":"VEC3"
		},
		{
			"bufferView":142,
			"componentType":5126,
			"count":8,
			"type":"VEC3"
		},
		{
			"bufferView":143,
			"componentType":5126,
			"count":8,
			"max":[
				0.3411083221435547,
				1.5929628610610962,
				0.27186593413352966
			],
			"min":[
				-0.3411083221435547,
				1.2682313919067383,
				-0.27186593413352966
			],
			"type":"VEC3"
		},
		{
			"bufferView":144,
			"componentType":5126,
			"count":8,
			"type":"VEC3"
		},
		{
			"bufferView":145,
			"componentType":5126,
			"count":8,
			"max":[
				-0.206600159406662,
				1.5929628610610962,
				0.27186593413352966
			],
			"min":[
				-0.8654723763465881,
				0.9340906739234924,
				-0.27186593413352966
			],
			"type":"VEC3"
		},
		{
			"bufferView":146,
			"componentType":5126,
			"count":8,
			"type":"VEC3"
		},
		{
			"bufferView":147,
			"componentType":5126,
			"count":8,
			"max":[
				0.8654723763465881,
				-0.9340906739234924,
				0.27186593413352966
			],
			"min":[
				0.206600159406662,
				-1.5929628610610962,
				-0.27186593413352966
			],
			"type":"VEC3"
		},
		{
			"bufferView":148,
			"componentType":5126,
			"count":8,
			"type":"VEC3"
		},
		{
			"bufferView":149,
			"componentType":5126,
			"count":8,
			"max":[
				0.8654723763465881,
				1.0685988664627075,
				0.27186593413352966
			],
			"min":[
				0.5407409071922302,
				-1.0685988664627075,
				-0.27186593413352966
			],
			"type":"VEC3"
		},
		{
			"bufferView":150,
			"componentType":5126,
			"count":8,
			"type":"VEC3"
		},
		{
			"bufferView":151,
			"componentType":5126,
			"count":1127,
			"max":[
				0.8579999804496765,
				0.24356400966644287,
				1.5878950357437134
			],
			"min":[
				-0.8579999804496765,
				-0.24356400966644287,
				-1.5862550735473633
			],
			"type":"VEC3"
		},
		{
			"bufferView":152,
			"componentType":5126,
			"count":1127,
			"type":"VEC3"
		},
		{
			"bufferView":153,
			"componentType":5126,
			"count":1127,
			"type":"VEC2"
		},
		{
			"bufferView":154,
			"componentType":5126,
			"count":1966,
			"max":[
				1.3671875,
				0.984375,
				0.8515625
			],
			"min":[
				-1.3671875,
				-0.984375,
				-0.8515625
			],
			"type":"VEC3"
		},
		{
			"bufferView":155,
			"componentType":5126,
			"count":1966,
			"type":"VEC3"
		},
		{
			"bufferView":156,
			"componentType":5126,
			"count":1966,
			"type":"VEC2"
		},
		{
			"bufferView":157,
			"componentType":5123,
			"count":2904,
			"type":"SCALAR"
		},
		{
			"bufferView":158,
			"componentType":5126,
			"count":8,
			"max":[
				1,
				1,
				1
			],
			"min":[
				-1,
				-1,
				-1
			],
			"type":"VEC3"
		},
		{
			"bufferView":159,
			"componentType":5126,
			"count":8,
			"type":"VEC3"
		},
		{
			"bufferView":160,
			"componentType":5123,
			"count":36,
			"type":"SCALAR"
		},
		{
			"bufferView":161,
			"componentType":5126,
			"count":24,
			"max":[
				1,
				1,
				1
			],
			"min":[
				-1,
				-1,
				-1
			],
			"type":"VEC3"
		},
		{
			"bufferView":162,
			"componentType":5126,
			"count":24,
			"type":"VEC3"
		},
		{
			"bufferView":163,
			"componentType":5126,
			"count":24,
			"type":"VEC2"
		},
		{
			"bufferView":164,
			"componentType":5126,
			"count":136,
			"max":[
				1,
				2.204690933227539,
				1
			],
			"min":[
				-1,
				-2.204690933227539,
				-1
			],
			"type":"VEC3"
		},
		{
			"bufferView":165,
			"componentType":5126,
			"count":136,
			"type":"VEC3"
		},
		{
			"bufferView":166,
			"componentType":5126,
			"count":136,
			"type":"VEC2"
		},
		{
			"bufferView":167,
			"componentType":5123,
			"count":372,
			"type":"SCALAR"
		},
		{
			"bufferView":168,
			"componentType":5126,
			"count":2304,
			"max":[
				1.25,
				0.25,
				1.25
			],
			"min":[
				-1.25,
				-0.25,
				-1.25
			],
			"type":"VEC3"
		},
		{
			"bufferView":169,
			"componentType":5126,
			"count":2304,
			"type":"VEC3"
		},
		{
			"bufferView":170,
			"componentType":5126,
			"count":2304,
			"type":"VEC2"
		},
		{
			"bufferView":171,
			"componentType":5123,
			"count":3456,
			"type":"SCALAR"
		}
	],
	"bufferViews":[
		{
			"buffer":0,
			"byteLength":288,
			"byteOffset":0,
			"target":34962
		},
		{
			"buffer":0,
			"byteLength":288,
			"byteOffset":288,
			"target":34962
		},
		{
			"buffer":0,
			"byteLength":192,
			"byteOffset":576,
			"target":34962
		},
		{
			"buffer":0,
			"byteLength":72,
			"byteOffset":768,
			"target":34963
		},
		{
			"buffer":0,
			"byteLength":288,
			"byteOffset":840,
			"target":34962
		},
		{
			"buffer":0,
			"byteLength":288,
			"byteOffset":1128,
			"target":34962
		},
		{
			"buffer":0,
			"byteLength":192,
			"byteOffset":1416,
			"target":34962
		},
		{
			"buffer":0,
			"byteLength":288,
			"byteOffset":1608,
			"target":34962
		},
		{
			"buffer":0,
			"byteLength":288,
			"byteOffset":1896,
			"target":34962
		},
		{
			"buffer":0,
			"byteLength":192,
			"byteOffset":2184,
			"target":34962
		},
		{
			"buffer":0,
			"byteLength":72,
			"byteOffset":2376,
			"target":34963
		},
		{
			"buffer":0,
			"byteLength":288,
			"byteOffset":2448,
			"target":34962
		},
		{
			"buffer":0,
			"byteLength":288,
			"byteOffset":2736,
			"target":34962
		},
		{
			"buffer":0,
			"byteLength":192,
			"byteOffset":3024,
			"target":34962
		},
		{
			"buffer":0,
			"byteLength":288,
			"byteOffset":3216,
			"target":34962
		},
		{
			"buffer":0,
			"byteLength":288,
			"byteOffset":3504,
			"target":34962
		},
		{
			"buffer":0,
			"byteLength":192,
			"byteOffset":3792,
			"target":34962
		},
		{
			"buffer":0,
			"byteLength":288,
			"byteOffset":3984,
			"target":34962
		},
		{
			"buffer":0,
			"byteLength":288,
			"byteOffset":4272,
			"target":34962
		},
		{
			"buffer":0,
			"byteLength":192,
			"byteOffset":4560,
			"target":34962
		},
		{
			"buffer":0,
			"byteLength":288,
			"byteOffset":4752,
			"target":34962
		},
		{
			"buffer":0,
			"byteLength":288,
			"byteOffset":5040,
			"target":34962
		},
		{
			"buffer":0,
			"byteLength":192,
			"byteOffset":5328,
			"target":34962
		},
		{
			"buffer":0,
			"byteLength":288,
			"byteOffset":5520,
			"target":34962
		},
		{
			"buffer":0,
			"byteLength":288,
			"byteOffset":5808,
			"target":34962
		},
		{
			"buffer":0,
			"byteLength":192,
			"byteOffset":6096,
			"target":34962
		},
		{
			"buffer":0,
			"byteLength":288,
			"byteOffset":6288,
			"target":34962
		},
		{
			"buffer":0,
			"byteLength":288,
			"byteOffset":6576,
			"target":34962
		},
		{
			"buffer":0,
			"byteLength":192,
			"byteOffset":6864,
			"target":34962
		},
		{
			"buffer":0,
			"byteLength":288,
			"byteOffset":7056,
			"target":34962
		},
		{
			"buffer":0,
			"byteLength":288,
			"byteOffset":7344,
			"target":34962
		},
		{
			"buffer":0,
			"byteLength":192,
			"byteOffset":7632,
			"target":34962
		},
		{
			"buffer":0,
			"byteLength":288,
			"byteOffset":7824,
			"target":34962
		},
		{
			"buffer":0,
			"byteLength":288,
			"byteOffset":8112,
			"target":34962
		},
		{
			"buffer":0,
			"byteLength":192,
			"byteOffset":8400,
			"target":34962
		},
		{
			"buffer":0,
			"byteLength":288,
			"byteOffset":8592,
			"target":34962
		},
		{
			"buffer":0,
			"byteLength":288,
			"byteOffset":8880,
			"target":34962
		},
		{
			"buffer":0,
			"byteLength":192,
			"byteOffset":9168,
			"target":34962
		},
		{
			"buffer":0,
			"byteLength":288,
			"byteOffset":9360,
			"target":34962
		},
		{
			"buffer":0,
			"byteLength":288,
			"byteOffset":9648,
			"target":34962
		},
		{
			"buffer":0,
			"byteLength":192,
			"byteOffset":9936,
			"target":34962
		},
		{
			"buffer":0,
			"byteLength":288,
			"byteOffset":10128,
			"target":34962
		},
		{
			"buffer":0,
			"byteLength":288,
			"byteOffset":10416,
			"target":34962
		},
		{
			"buffer":0,
			"byteLength":192,
			"byteOffset":10704,
			"target":34962
		},
		{
			"buffer":0,
			"byteLength":288,
			"byteOffset":10896,
			"target":34962
		},
		{
			"buffer":0,
			"byteLength":288,
			"byteOffset":11184,
			"target":34962
		},
		{
			"buffer":0,
			"byteLength":192,
			"byteOffset":11472,
			"target":34962
		},
		{
			"buffer":0,
			"byteLength":288,
			"byteOffset":11664,
			"target":34962
		},
		{
			"buffer":0,
			"byteLength":288,
			"byteOffset":11952,
			"target":34962
		},
		{
			"buffer":0,
			"byteLength":192,
			"byteOffset":12240,
			"target":34962
		},
		{
			"buffer":0,
			"byteLength":96,
			"byteOffset":12432,
			"target":34962
		},
		{
			"buffer":0,
			"byteLength":96,
			"byteOffset":12528,
			"target":34962
		},
		{
			"buffer":0,
			"byteLength":72,
			"byteOffset":12624,
			"target":34963
		},
		{
			"buffer":0,
			"byteLength":96,
			"byteOffset":12696,
			"target":34962
		},
		{
			"buffer":0,
			"byteLength":96,
			"byteOffset":12792,
			"target":34962
		},
		{
			"buffer":0,
			"byteLength":72,
			"byteOffset":12888,
			"target":34963
		},
		{
			"buffer":0,
			"byteLength":96,
			"byteOffset":12960,
			"target":34962
		},
		{
			"buffer":0,
			"byteLength":96,
			"byteOffset":13056,
			"target":34962
		},
		{
			"buffer":0,
			"byteLength":72,
			"byteOffset":13152,
			"target":34963
		},
		{
			"buffer":0,
			"byteLength":96,
			"byteOffset":13224,
			"target":34962
		},
		{
			"buffer":0,
			"byteLength":96,
			"byteOffset":13320,
			"target":34962
		},
		{
			"buffer":0,
			"byteLength":72,
			"byteOffset":13416,
			"target":34963
		},
		{
			"buffer":0,
			"byteLength":96,
			"byteOffset":13488,
			"target":34962
		},
		{
			"buffer":0,
			"byteLength":96,
			"byteOffset":13584,
			"target":34962
		},
		{
			"buffer":0,
			"byteLength":72,
			"byteOffset":13680,
			"target":34963
		},
		{
			"buffer":0,
			"byteLength":96,
			"byteOffset":13752,
			"target":34962
		},
		{
			"buffer":0,
			"byteLength":96,
			"byteOffset":13848,
			"target":34962
		},
		{
			"buffer":0,
			"byteLength":72,
			"byteOffset":13944,
			"target":34963
		},
		{
			"buffer":0,
			"byteLength":96,
			"byteOffset":14016,
			"target":34962
		},
		{
			"buffer":0,
			"byteLength":96,
			"byteOffset":14112,
			"target":34962
		},
		{
			"buffer":0,
			"byteLength":72,
			"byteOffset":14208,
			"target":34963
		},
		{
			"buffer":0,
			"byteLength":96,
			"byteOffset":14280,
			"target":34962
		},
		{
			"buffer":0,
			"byteLength":96,
			"byteOffset":14376,
			"target":34962
		},
		{
			"buffer":0,
			"byteLength":72,
			"byteOffset":14472,
			"target":34963
		},
		{
			"buffer":0,
			"byteLength":13524,
			"byteOffset":14544,
			"target":34962
		},
		{
			"buffer":0,
			"byteLength":13524,
			"byteOffset":28068,
			"target":34962
		},
		{
			"buffer":0,
			"byteLength":9016,
			"byteOffset":41592,
			"target":34962
		},
		{
			"buffer":0,
			"byteLength":12672,
			"byteOffset":50608,
			"target":34963
		},
		{
			"buffer":0,
			"byteLength":96,
			"byteOffset":63280,
			"target":34962
		},
		{
			"buffer":0,
			"byteLength":96,
			"byteOffset":63376,
			"target":34962
		},
		{
			"buffer":0,
			"byteLength":96,
			"byteOffset":63472,
			"target":34962
		},
		{
			"buffer":0,
			"byteLength":96,
			"byteOffset":63568,
			"target":34962
		},
		{
			"buffer":0,
			"byteLength":96,
			"byteOffset":63664,
			"target":34962
		},
		{
			"buffer":0,
			"byteLength":96,
			"byteOffset":63760,
			"target":34962
		},
		{
			"buffer":0,
			"byteLength":96,
			"byteOffset":63856,
			"target":34962
		},
		{
			"buffer":0,
			"byteLength":96,
			"byteOffset":63952,
			"target":34962
		},
		{
			"buffer":0,
			"byteLength":96,
			"byteOffset":64048,
			"target":34962
		},
		{
			"buffer":0,
			"byteLength":96,
			"byteOffset":64144,
			"target":34962
		},
		{
			"buffer":0,
			"byteLength":96,
			"byteOffset":64240,
			"target":34962
		},
		{
			"buffer":0,
			"byteLength":96,
			"byteOffset":64336,
			"target":34962
		},
		{
			"buffer":0,
			"byteLength":96,
			"byteOffset":64432,
			"target":34962
		},
		{
			"buffer":0,
			"byteLength":96,
			"byteOffset":64528,
			"target":34962
		},
		{
			"buffer":0,
			"byteLength":96,
			"byteOffset":64624,
			"target":34962
		},
		{
			"buffer":0,
			"byteLength":96,
			"byteOffset":64720,
			"target":34962
		},
		{
			"buffer":0,
			"byteLength":13524,
			"byteOffset":64816,
			"target":34962
		},
		{
			"buffer":0,
			"byteLength":13524,
			"byteOffset":78340,
			"target":34962
		},
		{
			"buffer":0,
			"byteLength":9016,
			"byteOffset":91864,
			"target":34962
		},
		{
			"buffer":0,
			"byteLength":96,
			"byteOffset":100880,
			"target":34962
		},
		{
			"buffer":0,
			"byteLength":96,
			"byteOffset":100976,
			"target":34962
		},
		{
			"buffer":0,
			"byteLength":96,
			"byteOffset":101072,
			"target":34962
		},
		{
			"buffer":0,
			"byteLength":96,
			"byteOffset":101168,
			"target":34962
		},
		{
			"buffer":0,
			"byteLength":96,
			"byteOffset":101264,
			"target":34962
		},
		{
			"buffer":0,
			"byteLength":96,
			"byteOffset":101360,
			"target":34962
		},
		{
			"buffer":0,
			"byteLength":96,
			"byteOffset":101456,
			"target":34962
		},
		{
			"buffer":0,
			"byteLength":96,
			"byteOffset":101552,
			"target":34962
		},
		{
			"buffer":0,
			"byteLength":96,
			"byteOffset":101648,
			"target":34962
		},
		{
			"buffer":0,
			"byteLength":96,
			"byteOffset":101744,
			"target":34962
		},
		{
			"buffer":0,
			"byteLength":96,
			"byteOffset":101840,
			"target":34962
		},
		{
			"buffer":0,
			"byteLength":96,
			"byteOffset":101936,
			"target":34962
		},
		{
			"buffer":0,
			"byteLength":96,
			"byteOffset":102032,
			"target":34962
		},
		{
			"buffer":0,
			"byteLength":96,
			"byteOffset":102128,
			"target":34962
		},
		{
			"buffer":0,
			"byteLength":96,
			"byteOffset":102224,
			"target":34962
		},
		{
			"buffer":0,
			"byteLength":96,
			"byteOffset":102320,
			"target":34962
		},
		{
			"buffer":0,
			"byteLength":13524,
			"byteOffset":102416,
			"target":34962
		},
		{
			"buffer":0,
			"byteLength":13524,
			"byteOffset":115940,
			"target":34962
		},
		{
			"buffer":0,
			"byteLength":9016,
			"byteOffset":129464,
			"target":34962
		},
		{
			"buffer":0,
			"byteLength":96,
			"byteOffset":138480,
			"target":34962
		},
		{
			"buffer":0,
			"byteLength":96,
			"byteOffset":138576,
			"target":34962
		},
		{
			"buffer":0,
			"byteLength":96,
			"byteOffset":138672,
			"target":34962
		},
		{
			"buffer":0,
			"byteLength":96,
			"byteOffset":138768,
			"target":34962
		},
		{
			"buffer":0,
			"byteLength":96,
			"byteOffset":138864,
			"target":34962
		},
		{
			"buffer":0,
			"byteLength":96,
			"byteOffset":138960,
			"target":34962
		},
		{
			"buffer":0,
			"byteLength":96,
			"byteOffset":139056,
			"target":34962
		},
		{
			"buffer":0,
			"byteLength":96,
			"byteOffset":139152,
			"target":34962
		},
		{
			"buffer":0,
			"byteLength":96,
			"byteOffset":139248,
			"target":34962
		},
		{
			"buffer":0,
			"byteLength":96,
			"byteOffset":139344,
			"target":34962
		},
		{
			"buffer":0,
			"byteLength":96,
			"byteOffset":139440,
			"target":34962
		},
		{
			"buffer":0,
			"byteLength":96,
			"byteOffset":139536,
			"target":34962
		},
		{
			"buffer":0,
			"byteLength":96,
			"byteOffset":139632,
			"target":34962
		},
		{
			"buffer":0,
			"byteLength":96,
			"byteOffset":139728,
			"target":34962
		},
		{
			"buffer":0,
			"byteLength":96,
			"byteOffset":139824,
			"target":34962
		},
		{
			"buffer":0,
			"byteLength":96,
			"byteOffset":139920,
			"target":34962
		},
		{
			"buffer":0,
			"byteLength":13524,
			"byteOffset":140016,
			"target":34962
		},
		{
			"buffer":0,
			"byteLength":13524,
			"byteOffset":153540,
			"target":34962
		},
		{
			"buffer":0,
			"byteLength":9016,
			"byteOffset":167064,
			"target":34962
		},
		{
			"buffer":0,
			"byteLength":96,
			"byteOffset":176080,
			"target":34962
		},
		{
			"buffer":0,
			"byteLength":96,
			"byteOffset":176176,
			"target":34962
		},
		{
			"buffer":0,
			"byteLength":96,
			"byteOffset":176272,
			"target":34962
		},
		{
			"buffer":0,
			"byteLength":96,
			"byteOffset":176368,
			"target":34962
		},
		{
			"buffer":0,
			"byteLength":96,
			"byteOffset":176464,
			"target":34962
		},
		{
			"buffer":0,
			"byteLength":96,
			"byteOffset":176560,
			"target":34962
		},
		{
			"buffer":0,
			"byteLength":96,
			"byteOffset":176656,
			"target":34962
		},
		{
			"buffer":0,
			"byteLength":96,
			"byteOffset":176752,
			"target":34962
		},
		{
			"buffer":0,
			"byteLength":96,
			"byteOffset":176848,
			"target":34962
		},
		{
			"buffer":0,
			"byteLength":96,
			"byteOffset":176944,
			"target":34962
		},
		{
			"buffer":0,
			"byteLength":96,
			"byteOffset":177040,
			"target":34962
		},
		{
			"buffer":0,
			"byteLength":96,
			"byteOffset":177136,
			"target":34962
		},
		{
			"buffer":0,
			"byteLength":96,
			"byteOffset":177232,
			"target":34962
		},
		{
			"buffer":0,
			"byteLength":96,
			"byteOffset":177328,
			"target":34962
		},
		{
			"buffer":0,
			"byteLength":96,
			"byteOffset":177424,
			"target":34962
		},
		{
			"buffer":0,
			"byteLength":96,
			"byteOffset":177520,
			"target":34962
		},
		{
			"buffer":0,
			"byteLength":13524,
			"byteOffset":177616,
			"target":34962
		},
		{
			"buffer":0,
			"byteLength":13524,
			"byteOffset":191140,
			"target":34962
		},
		{
			"buffer":0,
			"byteLength":9016,
			"byteOffset":204664,
			"target":34962
		},
		{
			"buffer":0,
			"byteLength":23592,
			"byteOffset":213680,
			"target":34962
		},
		{
			"buffer":0,
			"byteLength":23592,
			"byteOffset":237272,
			"target":34962
		},
		{
			"buffer":0,
			"byteLength":15728,
			"byteOffset":260864,
			"target":34962
		},
		{
			"buffer":0,
			"byteLength":5808,
			"byteOffset":276592,
			"target":34963
		},
		{
			"buffer":0,
			"byteLength":96,
			"byteOffset":282400,
			"target":34962
		},
		{
			"buffer":0,
			"byteLength":96,
			"byteOffset":282496,
			"target":34962
		},
		{
			"buffer":0,
			"byteLength":72,
			"byteOffset":282592,
			"target":34963
		},
		{
			"buffer":0,
			"byteLength":288,
			"byteOffset":282664,
			"target":34962
		},
		{
			"buffer":0,
			"byteLength":288,
			"byteOffset":282952,
			"target":34962
		},
		{
			"buffer":0,
			"byteLength":192,
			"byteOffset":283240,
			"target":34962
		},
		{
			"buffer":0,
			"byteLength":1632,
			"byteOffset":283432,
			"target":34962
		},
		{
			"buffer":0,
			"byteLength":1632,
			"byteOffset":285064,
			"target":34962
		},
		{
			"buffer":0,
			"byteLength":1088,
			"byteOffset":286696,
			"target":34962
		},
		{
			"buffer":0,
			"byteLength":744,
			"byteOffset":287784,
			"target":34963
		},
		{
			"buffer":0,
			"byteLength":27648,
			"byteOffset":288528,
			"target":34962
		},
		{
			"buffer":0,
			"byteLength":27648,
			"byteOffset":316176,
			"target":34962
		},
		{
			"buffer":0,
			"byteLength":18432,
			"byteOffset":343824,
			"target":34962
		},
		{
			"buffer":0,
			"byteLength":6912,
			"byteOffset":362256,
			"target":34963
		}
	],
	"buffers":[
		{
			"byteLength":369168,
			"uri":"wrecking_ball.bin"
		}
	]
}
