{
	"asset":{
		"generator":"Khronos glTF Blender I/O v4.5.48",
		"version":"2.0"
	},
	"extensionsUsed":[
		"KHR_implicit_shapes",
		"KHR_physics_rigid_bodies"
	],
	"extensions":{
		"KHR_implicit_shapes":{
			"shapes":[
				{
					"type":"box",
					"box":{
						"size":[
							2,
							2,
							2
						]
					}
				},
				{
					"type":"box",
					"box":{
						"size":[
							2.000001907348633,
							2,
							2.000001907348633
						]
					}
				},
				{
					"type":"box",
					"box":{
						"size":[
							2.000000476837158,
							2,
							2
						]
					}
				},
				{
					"type":"box",
					"box":{
						"size":[
							2.000000476837158,
							2.0000009536743164,
							2
						]
					}
				},
				{
					"type":"box",
					"box":{
						"size":[
							2.0000009536743164,
							2.0000009536743164,
							2
						]
					}
				},
				{
					"type":"box",
					"box":{
						"size":[
							9.000008583068848,
							0.3720909059047699,
							3
						]
					}
				},
				{
					"type":"box",
					"box":{
						"size":[
							31.029760360717773,
							2,
							33.432472229003906
						]
					}
				},
				{
					"type":"box",
					"box":{
						"size":[
							15.174158096313477,
							2,
							33.432472229003906
						]
					}
				},
				{
					"type":"box",
					"box":{
						"size":[
							1.95909583568573,
							0.8405771255493164,
							33.432472229003906
						]
					}
				},
				{
					"type":"box",
					"box":{
						"size":[
							1.95909583568573,
							0.8405771255493164,
							20.801528930664062
						]
					}
				},
				{
					"type":"box",
					"box":{
						"size":[
							6.987595081329346,
							0.5788940191268921,
							1.5161186456680298
						]
					}
				},
				{
					"type":"box",
					"box":{
						"size":[
							6.987595081329346,
							0.9153382182121277,
							1.5161186456680298
						]
					}
				},
				{
					"type":"box",
					"box":{
						"size":[
							6.987595081329346,
							0.9153382182121277,
							0.47822025418281555
						]
					}
				},
				{
					"type":"box",
					"box":{
						"size":[
							14.002091407775879,
							0.5788940191268921,
							0.45897039771080017
						]
					}
				},
				{
					"type":"box",
					"box":{
						"size":[
							1.4361435174942017,
							0.5788939595222473,
							1.5161182880401611
						]
					}
				}
			]
		},
		"KHR_physics_rigid_bodies":{
			"physicsMaterials":[
				{
					"staticFriction":0.5,
					"dynamicFriction":0.5,
					"restitution":0.22065725922584534
				},
				{
					"staticFriction":0.5,
					"dynamicFriction":0.5,
					"restitution":0.18779343366622925
				},
				{
					"staticFriction":0.5,
					"dynamicFriction":0.5,
					"restitution":0.23943662643432617
				},
				{
					"staticFriction":0.5,
					"dynamicFriction":0.5,
					"restitution":0.22065728902816772
				},
				{
					"staticFriction":0.5,
					"dynamicFriction":0.5,
					"restitution":0.35211271047592163
				},
				{
					"staticFriction":0.5,
					"dynamicFriction":0.5,
					"restitution":0.2629108130931854
				},
				{
					"staticFriction":0.5,
					"dynamicFriction":0.5,
					"restitution":0.2863849699497223
				},
				{
					"staticFriction":0.5,
					"dynamicFriction":0.5,
					"restitution":0.22535210847854614
				},
				{
					"staticFriction":0.27763551473617554,
					"dynamicFriction":0.27763551473617554,
					"restitution":0.4084506928920746
				},
				{
					"staticFriction":0.28898847103118896,
					"dynamicFriction":0.28898847103118896,
					"restitution":0.3755868375301361
				},
				{
					"staticFriction":0.3406743109226227,
					"dynamicFriction":0.3406743109226227,
					"restitution":0.35680752992630005
				},
				{
					"staticFriction":0.3697396516799927,
					"dynamicFriction":0.3697396516799927,
					"restitution":0.3755868077278137
				},
				{
					"staticFriction":0.32991889119148254,
					"dynamicFriction":0.32991889119148254,
					"restitution":0.3802816867828369
				},
				{
					"staticFriction":0.2608621418476105,
					"dynamicFriction":0.2608621418476105,
					"restitution":0.31924885511398315
				},
				{
					"staticFriction":0.3779342770576477,
					"dynamicFriction":0.3779342770576477,
					"restitution":0.6807511448860168
				},
				{
					"staticFriction":0.762910783290863,
					"dynamicFriction":0.762910783290863,
					"restitution":0.45446011424064636
				},
				{
					"staticFriction":0.5563380122184753,
					"dynamicFriction":0.5563380122184753,
					"restitution":0.7267605662345886
				},
				{
					"staticFriction":0.5563380122184753,
					"dynamicFriction":0.5563380122184753,
					"restitution":0.468544602394104
				},
				{
					"staticFriction":0.4577464759349823,
					"dynamicFriction":0.4577464759349823,
					"restitution":0.3708920180797577
				},
				{
					"staticFriction":0.3315834105014801,
					"dynamicFriction":0.3315834105014801,
					"restitution":0.35680752992630005
				},
				{
					"staticFriction":0.30414000153541565,
					"dynamicFriction":0.30414000153541565,
					"restitution":0.3755868375301361
				},
				{
					"staticFriction":0.35642340779304504,
					"dynamicFriction":0.35642340779304504,
					"restitution":0.4084506928920746
				},
				{
					"staticFriction":0.24242399632930756,
					"dynamicFriction":0.24242399632930756,
					"restitution":0.22535210847854614
				},
				{
					"staticFriction":0.30909091234207153,
					"dynamicFriction":0.30909091234207153,
					"restitution":0.2863849699497223
				},
				{
					"staticFriction":0.3060606122016907,
					"dynamicFriction":0.3060606122016907,
					"restitution":0.2629108130931854
				},
				{
					"staticFriction":0.31515151262283325,
					"dynamicFriction":0.31515151262283325,
					"restitution":0.35211271047592163
				},
				{
					"staticFriction":0.24242424964904785,
					"dynamicFriction":0.24242424964904785,
					"restitution":0.22065728902816772
				},
				{
					"staticFriction":0.2909091114997864,
					"dynamicFriction":0.2909091114997864,
					"restitution":0.23943662643432617
				},
				{
					"staticFriction":0.26363635063171387,
					"dynamicFriction":0.26363635063171387,
					"restitution":0.18779343366622925
				},
				{
					"staticFriction":0.28787878155708313,
					"dynamicFriction":0.28787878155708313,
					"restitution":0.22065725922584534
				},
				{
					"staticFriction":0.27272725105285645,
					"dynamicFriction":0.27272725105285645,
					"restitution":0.22065725922584534
				},
				{
					"staticFriction":0.3032863736152649,
					"dynamicFriction":0.3032863736152649,
					"restitution":0.31924885511398315
				}
			],
			"collisionFilters":[
				{
					"collisionSystems":[
						"System_0"
					],
					"collideWithSystems":[
						"System_0"
					]
				}
			],
			"physicsJoints":[
				{
					"limits":[
						{
							"linearAxes":[
								0,
								2,
								1
							],
							"min":0,
							"max":0
						},
						{
							"angularAxes":[
								0,
								2
							],
							"min":0,
							"max":0
						}
					]
				},
				{
					"limits":[
						{
							"angularAxes":[
								0,
								2,
								1
							],
							"min":0,
							"max":0
						},
						{
							"linearAxes":[
								2,
								1
							],
							"min":0,
							"max":0
						}
					]
				}
			]
		}
	},
	"scene":0,
	"scenes":[
		{
			"extras":{
				"khr_physics_importer_props":{},
				"khr_physics_exporter_props":{},
				"khr_physics_scene_viewer_props":{}
			},
			"name":"Scene",
			"nodes":[
				0,
				1,
				2,
				3,
				4,
				5,
				6,
				7,
				8,
				9,
				10,
				11,
				12,
				13,
				14,
				15,
				16,
				17,
				18,
				19,
				20,
				22,
				28,
				30,
				31,
				32,
				33,
				34,
				35,
				36,
				37,
				38,
				39,
				40,
				41,
				42,
				43,
				48,
				55,
				56,
				57,
				61,
				66
			]
		}
	],
	"nodes":[
		{
			"extensions":{
				"KHR_physics_rigid_bodies":{
					"motion":{
						"mass":1
					},
					"collider":{
						"geometry":{
							"shape":0
						},
						"physicsMaterial":0,
						"collisionFilter":0
					}
				}
			},
			"extras":{
				"khr_physics_extra_props":{}
			},
			"mesh":0,
			"name":"Cube.001",
			"rotation":[
				0,
				0.1736481487751007,
				0,
				0.9848077893257141
			],
			"translation":[
				1.7766413688659668,
				1.239538311958313,
				1.7999999523162842
			]
		},
		{
			"extensions":{
				"KHR_physics_rigid_bodies":{
					"motion":{
						"mass":1
					},
					"collider":{
						"geometry":{
							"shape":0
						},
						"physicsMaterial":1,
						"collisionFilter":0
					}
				}
			},
			"extras":{
				"khr_physics_extra_props":{}
			},
			"mesh":1,
			"name":"Cube.002",
			"translation":[
				3.9766414165496826,
				1.239538311958313,
				-0.40000009536743164
			]
		},
		{
			"extensions":{
				"KHR_physics_rigid_bodies":{
					"motion":{
						"mass":1
					},
					"collider":{
						"geometry":{
							"shape":1
						},
						"physicsMaterial":2,
						"collisionFilter":0
					}
				}
			},
			"extras":{
				"khr_physics_extra_props":{}
			},
			"mesh":2,
			"name":"Cube.003",
			"rotation":[
				0,
				0.2588190734386444,
				0,
				0.965925931930542
			],
			"translation":[
				6.176640510559082,
				1.239538311958313,
				-2.59999942779541
			]
		},
		{
			"extensions":{
				"KHR_physics_rigid_bodies":{
					"motion":{
						"mass":1
					},
					"collider":{
						"geometry":{
							"shape":0
						},
						"physicsMaterial":3,
						"collisionFilter":0
					}
				}
			},
			"extras":{
				"khr_physics_extra_props":{}
			},
			"mesh":3,
			"name":"Cube.004",
			"rotation":[
				0,
				-0.1736481487751007,
				0,
				0.9848077893257141
			],
			"translation":[
				8.376642227172852,
				1.239538311958313,
				-4.800000190734863
			]
		},
		{
			"extensions":{
				"KHR_physics_rigid_bodies":{
					"motion":{
						"mass":1
					},
					"collider":{
						"geometry":{
							"shape":0
						},
						"physicsMaterial":4,
						"collisionFilter":0
					}
				}
			},
			"extras":{
				"khr_physics_extra_props":{}
			},
			"mesh":4,
			"name":"Cube.005",
			"rotation":[
				0,
				-0.1736481487751007,
				0,
				0.9848077893257141
			],
			"translation":[
				0.6566412448883057,
				3.4395384788513184,
				2.9200000762939453
			]
		},
		{
			"extensions":{
				"KHR_physics_rigid_bodies":{
					"motion":{
						"mass":1
					},
					"collider":{
						"geometry":{
							"shape":2
						},
						"physicsMaterial":5,
						"collisionFilter":0
					}
				}
			},
			"extras":{
				"khr_physics_extra_props":{}
			},
			"mesh":5,
			"name":"Cube.006",
			"translation":[
				2.8566417694091797,
				3.4395384788513184,
				0.7200002670288086
			]
		},
		{
			"extensions":{
				"KHR_physics_rigid_bodies":{
					"motion":{
						"mass":1
					},
					"collider":{
						"geometry":{
							"shape":0
						},
						"physicsMaterial":6,
						"collisionFilter":0
					}
				}
			},
			"extras":{
				"khr_physics_extra_props":{}
			},
			"mesh":6,
			"name":"Cube.007",
			"rotation":[
				0,
				-0.3420201539993286,
				0,
				0.9396927356719971
			],
			"translation":[
				5.056641578674316,
				3.4395384788513184,
				-1.4800000190734863
			]
		},
		{
			"extensions":{
				"KHR_physics_rigid_bodies":{
					"motion":{
						"mass":1
					},
					"collider":{
						"geometry":{
							"shape":0
						},
						"physicsMaterial":7,
						"collisionFilter":0
					}
				}
			},
			"extras":{
				"khr_physics_extra_props":{}
			},
			"mesh":7,
			"name":"Cube.008",
			"translation":[
				7.256641387939453,
				3.4395384788513184,
				-3.6800003051757812
			]
		},
		{
			"extensions":{
				"KHR_physics_rigid_bodies":{
					"motion":{
						"mass":0.5
					},
					"collider":{
						"geometry":{
							"shape":0
						},
						"physicsMaterial":8,
						"collisionFilter":0
					}
				}
			},
			"extras":{
				"khr_physics_extra_props":{}
			},
			"mesh":8,
			"name":"Cube.012",
			"rotation":[
				0,
				0.1736481487751007,
				0,
				0.9848077893257141
			],
			"translation":[
				1.6006412506103516,
				5.649537563323975,
				1.9759998321533203
			]
		},
		{
			"extensions":{
				"KHR_physics_rigid_bodies":{
					"motion":{
						"mass":0.5
					},
					"collider":{
						"geometry":{
							"shape":0
						},
						"physicsMaterial":9,
						"collisionFilter":0
					}
				}
			},
			"extras":{
				"khr_physics_extra_props":{}
			},
			"mesh":9,
			"name":"Cube.013",
			"translation":[
				3.8006412982940674,
				5.649537563323975,
				-0.2240004539489746
			]
		},
		{
			"extensions":{
				"KHR_physics_rigid_bodies":{
					"motion":{
						"mass":0.5
					},
					"collider":{
						"geometry":{
							"shape":0
						},
						"physicsMaterial":10,
						"collisionFilter":0
					}
				}
			},
			"extras":{
				"khr_physics_extra_props":{}
			},
			"mesh":10,
			"name":"Cube.014",
			"rotation":[
				0,
				0.1736481487751007,
				0,
				0.9848077893257141
			],
			"translation":[
				6.000640869140625,
				5.649537563323975,
				-2.4240002632141113
			]
		},
		{
			"extensions":{
				"KHR_physics_rigid_bodies":{
					"motion":{
						"mass":0.30000001192092896
					},
					"collider":{
						"geometry":{
							"shape":3
						},
						"physicsMaterial":11,
						"collisionFilter":0
					}
				}
			},
			"extras":{
				"khr_physics_extra_props":{}
			},
			"mesh":11,
			"name":"Cube.017",
			"translation":[
				2.6806414127349854,
				7.849538326263428,
				0.8959999084472656
			]
		},
		{
			"extensions":{
				"KHR_physics_rigid_bodies":{
					"motion":{
						"mass":0.30000001192092896
					},
					"collider":{
						"geometry":{
							"shape":4
						},
						"physicsMaterial":12,
						"collisionFilter":0
					}
				}
			},
			"extras":{
				"khr_physics_extra_props":{}
			},
			"mesh":12,
			"name":"Cube.018",
			"rotation":[
				0,
				0.21643957495689392,
				0,
				0.9762960076332092
			],
			"translation":[
				4.880641937255859,
				7.849538326263428,
				-1.3040003776550293
			]
		},
		{
			"extensions":{
				"KHR_physics_rigid_bodies":{
					"motion":{
						"mass":0.699999988079071
					},
					"collider":{
						"geometry":{
							"shape":5
						},
						"physicsMaterial":13,
						"collisionFilter":0
					}
				}
			},
			"extras":{
				"khr_physics_extra_props":{}
			},
			"mesh":13,
			"name":"Cube.019",
			"rotation":[
				0,
				0.3826834559440613,
				0,
				0.9238795638084412
			],
			"translation":[
				3.5473380088806152,
				9.358386039733887,
				-0.2750561237335205
			]
		},
		{
			"extras":{
				"khr_physics_extra_props":{}
			},
			"mesh":14,
			"name":"non_physical.002",
			"translation":[
				-7.499446868896484,
				16.27577018737793,
				15.462864875793457
			]
		},
		{
			"extras":{
				"khr_physics_extra_props":{}
			},
			"mesh":15,
			"name":"non_physical.004",
			"translation":[
				-7.464477062225342,
				16.302146911621094,
				11.132447242736816
			]
		},
		{
			"extras":{
				"khr_physics_extra_props":{}
			},
			"mesh":16,
			"name":"non_physical.008",
			"translation":[
				-7.499446868896484,
				16.27577018737793,
				6.703568458557129
			]
		},
		{
			"extras":{
				"khr_physics_extra_props":{}
			},
			"mesh":17,
			"name":"non_physical.011",
			"translation":[
				-7.499446868896484,
				16.27577018737793,
				2.323916435241699
			]
		},
		{
			"extras":{
				"khr_physics_extra_props":{}
			},
			"mesh":18,
			"name":"non_physical.015",
			"translation":[
				-7.6536173820495605,
				16.234067916870117,
				15.245820045471191
			]
		},
		{
			"extras":{
				"khr_physics_extra_props":{}
			},
			"mesh":19,
			"name":"non_physical.019",
			"translation":[
				-7.6536173820495605,
				16.234067916870117,
				15.245820045471191
			]
		},
		{
			"extras":{
				"khr_physics_extra_props":{}
			},
			"mesh":20,
			"name":"non_physical.022",
			"translation":[
				-7.6536173820495605,
				16.234067916870117,
				15.245820045471191
			]
		},
		{
			"mesh":21,
			"name":"physicsMeshDataNode",
			"rotation":[
				0,
				0,
				0,
				1
			],
			"translation":[
				0,
				0,
				0
			]
		},
		{
			"extensions":{
				"KHR_physics_rigid_bodies":{
					"motion":{
						"mass":0.5
					},
					"collider":{
						"geometry":{
							"convexHull":true,
							"node":21
						},
						"physicsMaterial":14,
						"collisionFilter":0
					}
				}
			},
			"extras":{
				"khr_physics_extra_props":{
					"non_renderable":0
				}
			},
			"mesh":21,
			"name":"static_trivial_convexhull.003",
			"rotation":[
				0,
				0,
				-0.5127989053726196,
				0.8585087656974792
			],
			"translation":[
				4.208103656768799,
				9.943605422973633,
				-0.9150757789611816
			]
		},
		{
			"extensions":{
				"KHR_physics_rigid_bodies":{
					"collider":{
						"geometry":{
							"shape":6
						},
						"physicsMaterial":15,
						"collisionFilter":0
					}
				}
			},
			"extras":{
				"khr_physics_extra_props":{
					"non_renderable":1
				}
			},
			"name":"ground",
			"rotation":[
				0.5,
				-0.5,
				0.5,
				0.5
			],
			"translation":[
				1.9901829957962036,
				-0.3420677185058594,
				-3.1845662593841553
			]
		},
		{
			"extensions":{
				"KHR_physics_rigid_bodies":{
					"collider":{
						"geometry":{
							"shape":7
						},
						"physicsMaterial":16,
						"collisionFilter":0
					}
				}
			},
			"extras":{
				"khr_physics_extra_props":{
					"non_renderable":1
				}
			},
			"name":"ground.001",
			"rotation":[
				0.7071068286895752,
				0,
				0,
				0.7071068286895752
			],
			"translation":[
				-6.596897125244141,
				-0.3420677185058594,
				-10.248783111572266
			]
		},
		{
			"extensions":{
				"KHR_physics_rigid_bodies":{
					"collider":{
						"geometry":{
							"shape":8
						},
						"physicsMaterial":17,
						"collisionFilter":0
					}
				}
			},
			"extras":{
				"khr_physics_extra_props":{
					"non_renderable":1
				}
			},
			"name":"ground.002",
			"rotation":[
				0.7071068286895752,
				0,
				0,
				0.7071068286895752
			],
			"translation":[
				0.02066481113433838,
				-0.3420677185058594,
				11.910025596618652
			]
		},
		{
			"extensions":{
				"KHR_physics_rigid_bodies":{
					"collider":{
						"geometry":{
							"shape":9
						},
						"physicsMaterial":18,
						"collisionFilter":0
					}
				}
			},
			"extras":{
				"khr_physics_extra_props":{
					"non_renderable":1
				}
			},
			"name":"ground.003",
			"translation":[
				0.010635077953338623,
				15.953880310058594,
				1.151979684829712
			]
		},
		{
			"extensions":{
				"KHR_physics_rigid_bodies":{
					"collider":{
						"geometry":{
							"shape":9
						},
						"physicsMaterial":18,
						"collisionFilter":0
					}
				}
			},
			"extras":{
				"khr_physics_extra_props":{
					"non_renderable":1
				}
			},
			"name":"ground.004",
			"translation":[
				0.010635077953338623,
				-16.638015747070312,
				1.151979684829712
			]
		},
		{
			"children":[
				23,
				24,
				25,
				26,
				27
			],
			"extensions":{},
			"extras":{
				"khr_physics_extra_props":{}
			},
			"mesh":22,
			"name":"ground.005",
			"rotation":[
				-0.5,
				0.5,
				-0.5,
				0.5
			],
			"translation":[
				2.4068005084991455,
				0.9901829957962036,
				-0.3420677185058594
			]
		},
		{
			"mesh":23,
			"name":"physicsMeshDataNode",
			"rotation":[
				0,
				0,
				0,
				1
			],
			"translation":[
				0,
				0,
				0
			]
		},
		{
			"extensions":{
				"KHR_physics_rigid_bodies":{
					"motion":{
						"mass":0.5
					},
					"collider":{
						"geometry":{
							"convexHull":true,
							"node":29
						},
						"physicsMaterial":14,
						"collisionFilter":0
					}
				}
			},
			"extras":{
				"khr_physics_extra_props":{
					"non_renderable":0
				}
			},
			"mesh":23,
			"name":"static_trivial_convexhull.004",
			"rotation":[
				0,
				0,
				-0.5127989053726196,
				0.8585087656974792
			],
			"translation":[
				1.947373628616333,
				9.943605422973633,
				1.9891705513000488
			]
		},
		{
			"extensions":{
				"KHR_physics_rigid_bodies":{
					"motion":{
						"mass":0.5
					},
					"collider":{
						"geometry":{
							"shape":0
						},
						"physicsMaterial":19,
						"collisionFilter":0
					}
				}
			},
			"extras":{
				"khr_physics_extra_props":{}
			},
			"mesh":24,
			"name":"Cube.025",
			"rotation":[
				0,
				-0.3963785171508789,
				0,
				0.9180871844291687
			],
			"translation":[
				9.52105712890625,
				5.649537563323975,
				-0.6871669292449951
			]
		},
		{
			"extensions":{
				"KHR_physics_rigid_bodies":{
					"motion":{
						"mass":0.5
					},
					"collider":{
						"geometry":{
							"shape":0
						},
						"physicsMaterial":20,
						"collisionFilter":0
					}
				}
			},
			"extras":{
				"khr_physics_extra_props":{}
			},
			"mesh":25,
			"name":"Cube.026",
			"translation":[
				7.3210577964782715,
				5.649537563323975,
				1.5128328800201416
			]
		},
		{
			"extensions":{
				"KHR_physics_rigid_bodies":{
					"motion":{
						"mass":0.5
					},
					"collider":{
						"geometry":{
							"shape":0
						},
						"physicsMaterial":21,
						"collisionFilter":0
					}
				}
			},
			"extras":{
				"khr_physics_extra_props":{}
			},
			"mesh":26,
			"name":"Cube.027",
			"rotation":[
				0,
				-0.28801265358924866,
				0,
				0.9576265811920166
			],
			"translation":[
				5.121057510375977,
				5.649537563323975,
				3.7128331661224365
			]
		},
		{
			"extensions":{
				"KHR_physics_rigid_bodies":{
					"motion":{
						"mass":1
					},
					"collider":{
						"geometry":{
							"shape":0
						},
						"physicsMaterial":22,
						"collisionFilter":0
					}
				}
			},
			"extras":{
				"khr_physics_extra_props":{}
			},
			"mesh":27,
			"name":"Cube.028",
			"rotation":[
				0,
				-0.17191947996616364,
				0,
				0.9851109981536865
			],
			"translation":[
				10.777057647705078,
				3.4395384788513184,
				-1.943166971206665
			]
		},
		{
			"extensions":{
				"KHR_physics_rigid_bodies":{
					"motion":{
						"mass":1
					},
					"collider":{
						"geometry":{
							"shape":0
						},
						"physicsMaterial":23,
						"collisionFilter":0
					}
				}
			},
			"extras":{
				"khr_physics_extra_props":{}
			},
			"mesh":28,
			"name":"Cube.029",
			"rotation":[
				0,
				-0.9468766450881958,
				0,
				0.32159700989723206
			],
			"translation":[
				8.577057838439941,
				3.4395384788513184,
				0.2568333148956299
			]
		},
		{
			"extensions":{
				"KHR_physics_rigid_bodies":{
					"motion":{
						"mass":1
					},
					"collider":{
						"geometry":{
							"shape":2
						},
						"physicsMaterial":24,
						"collisionFilter":0
					}
				}
			},
			"extras":{
				"khr_physics_extra_props":{}
			},
			"mesh":29,
			"name":"Cube.030",
			"translation":[
				6.377058029174805,
				3.4395384788513184,
				2.456833600997925
			]
		},
		{
			"extensions":{
				"KHR_physics_rigid_bodies":{
					"motion":{
						"mass":1
					},
					"collider":{
						"geometry":{
							"shape":0
						},
						"physicsMaterial":25,
						"collisionFilter":0
					}
				}
			},
			"extras":{
				"khr_physics_extra_props":{}
			},
			"mesh":30,
			"name":"Cube.036",
			"rotation":[
				0,
				-0.1736481487751007,
				0,
				0.9848077893257141
			],
			"translation":[
				4.17705774307251,
				3.4395384788513184,
				4.656833648681641
			]
		},
		{
			"extensions":{
				"KHR_physics_rigid_bodies":{
					"motion":{
						"mass":1
					},
					"collider":{
						"geometry":{
							"shape":0
						},
						"physicsMaterial":26,
						"collisionFilter":0
					}
				}
			},
			"extras":{
				"khr_physics_extra_props":{}
			},
			"mesh":31,
			"name":"Cube.037",
			"rotation":[
				0,
				-0.1736481487751007,
				0,
				0.9848077893257141
			],
			"translation":[
				11.897058486938477,
				1.239538311958313,
				-3.063166856765747
			]
		},
		{
			"extensions":{
				"KHR_physics_rigid_bodies":{
					"motion":{
						"mass":1
					},
					"collider":{
						"geometry":{
							"shape":1
						},
						"physicsMaterial":27,
						"collisionFilter":0
					}
				}
			},
			"extras":{
				"khr_physics_extra_props":{}
			},
			"mesh":32,
			"name":"Cube.038",
			"rotation":[
				0,
				0.2588190734386444,
				0,
				0.965925931930542
			],
			"translation":[
				9.697056770324707,
				1.239538311958313,
				-0.863166093826294
			]
		},
		{
			"extensions":{
				"KHR_physics_rigid_bodies":{
					"motion":{
						"mass":1
					},
					"collider":{
						"geometry":{
							"shape":0
						},
						"physicsMaterial":28,
						"collisionFilter":0
					}
				}
			},
			"extras":{
				"khr_physics_extra_props":{}
			},
			"mesh":33,
			"name":"Cube.039",
			"rotation":[
				0,
				-0.3909032940864563,
				0,
				0.9204317927360535
			],
			"translation":[
				7.497057914733887,
				1.239538311958313,
				1.3368332386016846
			]
		},
		{
			"extensions":{
				"KHR_physics_rigid_bodies":{
					"motion":{
						"mass":1
					},
					"collider":{
						"geometry":{
							"shape":0
						},
						"physicsMaterial":29,
						"collisionFilter":0
					}
				}
			},
			"extras":{
				"khr_physics_extra_props":{}
			},
			"mesh":34,
			"name":"Cube.040",
			"rotation":[
				0,
				0.1736481487751007,
				0,
				0.9848077893257141
			],
			"translation":[
				5.29705810546875,
				1.239538311958313,
				3.5368332862854004
			]
		},
		{
			"extensions":{
				"KHR_physics_rigid_bodies":{
					"motion":{
						"mass":1
					},
					"collider":{
						"geometry":{
							"shape":0
						},
						"physicsMaterial":30,
						"collisionFilter":0
					}
				}
			},
			"extras":{
				"khr_physics_extra_props":{}
			},
			"mesh":35,
			"name":"Cube.041",
			"rotation":[
				0,
				0.529832124710083,
				0,
				0.8481025695800781
			],
			"translation":[
				3.097057819366455,
				1.239538311958313,
				5.736833572387695
			]
		},
		{
			"extensions":{
				"KHR_physics_rigid_bodies":{
					"motion":{
						"mass":0.699999988079071
					},
					"collider":{
						"geometry":{
							"shape":5
						},
						"physicsMaterial":31,
						"collisionFilter":0
					}
				}
			},
			"extras":{
				"khr_physics_extra_props":{}
			},
			"mesh":36,
			"name":"Cube.015",
			"rotation":[
				0,
				0.3826834559440613,
				0,
				0.9238795638084412
			],
			"translation":[
				7.925289154052734,
				7.517909526824951,
				1.2932028770446777
			]
		},
		{
			"extensions":{},
			"extras":{
				"khr_physics_extra_constraint_props":{}
			},
			"name":"rev3",
			"translation":[
				2.934567451477051,
				0.45979613065719604,
				-2.477153884683503e-06
			]
		},
		{
			"name":"jointSpaceB",
			"rotation":[
				-2.5065935993495714e-09,
				9.400206835152858e-09,
				-1.1175872671742582e-08,
				1
			],
			"translation":[
				-2.836946725845337,
				-0.6001937389373779,
				-9.611118002794683e-06
			]
		},
		{
			"extensions":{
				"KHR_physics_rigid_bodies":{
					"joint":{
						"connectedNode":45,
						"joint":0
					}
				}
			},
			"name":"jointSpaceA",
			"rotation":[
				7.884523256507237e-09,
				1.4563642736220572e-08,
				-9.313226634333205e-09,
				1
			],
			"translation":[
				2.934567451477051,
				0.45979613065719604,
				-2.477153884683503e-06
			]
		},
		{
			"name":"jointSpaceB",
			"rotation":[
				0.22948643565177917,
				0.6688318252563477,
				-0.2294864058494568,
				0.6688318252563477
			],
			"translation":[
				-4.256891250610352,
				0.5299956798553467,
				0.0263025164604187
			]
		},
		{
			"children":[
				44,
				46,
				47
			],
			"extensions":{
				"KHR_physics_rigid_bodies":{
					"motion":{
						"mass":0.699999988079071
					},
					"collider":{
						"geometry":{
							"shape":10
						},
						"physicsMaterial":31,
						"collisionFilter":0
					}
				}
			},
			"extras":{
				"khr_physics_extra_props":{}
			},
			"mesh":37,
			"name":"articulated.001",
			"rotation":[
				-0.5323159694671631,
				0.18264570832252502,
				-0.7818644046783447,
				0.26826950907707214
			],
			"translation":[
				4.038112163543701,
				19.412416458129883,
				5.855774879455566
			]
		},
		{
			"extensions":{},
			"extras":{
				"khr_physics_extra_constraint_props":{}
			},
			"name":"rev4",
			"rotation":[
				0.7071068286895752,
				0,
				0,
				0.7071068286895752
			],
			"translation":[
				2.530198097229004,
				0,
				0.9149693846702576
			]
		},
		{
			"extensions":{},
			"extras":{
				"khr_physics_extra_constraint_props":{}
			},
			"name":"rev5",
			"rotation":[
				0.7071068286895752,
				0,
				0,
				0.7071068286895752
			],
			"translation":[
				2.530198812484741,
				0,
				-0.8904997706413269
			]
		},
		{
			"name":"jointSpaceB",
			"rotation":[
				0.7071067690849304,
				1.1065289129419398e-08,
				1.0303875086492553e-08,
				0.7071067690849304
			],
			"translation":[
				-2.061781883239746,
				3.6954879760742188e-06,
				-0.3886004388332367
			]
		},
		{
			"extensions":{
				"KHR_physics_rigid_bodies":{
					"joint":{
						"connectedNode":51,
						"joint":0
					}
				}
			},
			"name":"jointSpaceA",
			"rotation":[
				0.7071067690849304,
				1.1065289129419398e-08,
				1.0303875086492553e-08,
				0.7071067690849304
			],
			"translation":[
				2.530198097229004,
				-1.1920928955078125e-07,
				0.9149693846702576
			]
		},
		{
			"name":"jointSpaceB",
			"rotation":[
				0.7071067690849304,
				1.1065289129419398e-08,
				1.0303875086492553e-08,
				0.7071067690849304
			],
			"translation":[
				-2.0617847442626953,
				7.450580596923828e-06,
				0.40384605526924133
			]
		},
		{
			"extensions":{
				"KHR_physics_rigid_bodies":{
					"joint":{
						"connectedNode":53,
						"joint":0
					}
				}
			},
			"name":"jointSpaceA",
			"rotation":[
				0.7071067690849304,
				1.1065289129419398e-08,
				1.0303875086492553e-08,
				0.7071067690849304
			],
			"translation":[
				2.530198812484741,
				-1.7881393432617188e-07,
				-0.8904997706413269
			]
		},
		{
			"children":[
				49,
				50,
				45,
				52,
				54
			],
			"extensions":{
				"KHR_physics_rigid_bodies":{
					"motion":{
						"mass":0.699999988079071
					},
					"collider":{
						"geometry":{
							"shape":11
						},
						"physicsMaterial":31,
						"collisionFilter":0
					}
				}
			},
			"extras":{
				"khr_physics_extra_props":{}
			},
			"mesh":38,
			"name":"articulated.002",
			"rotation":[
				-0.5323159694671631,
				0.18264570832252502,
				-0.7818644046783447,
				0.26826950907707214
			],
			"translation":[
				2.6067261695861816,
				15.032291412353516,
				9.488900184631348
			]
		},
		{
			"children":[
				51
			],
			"extensions":{
				"KHR_physics_rigid_bodies":{
					"motion":{
						"mass":4
					},
					"collider":{
						"geometry":{
							"shape":12
						},
						"physicsMaterial":31,
						"collisionFilter":0
					}
				}
			},
			"extras":{
				"khr_physics_extra_props":{}
			},
			"mesh":39,
			"name":"articulated.003",
			"rotation":[
				-0.5323159694671631,
				0.18264570832252502,
				-0.7818644046783447,
				0.26826950907707214
			],
			"translation":[
				2.490903615951538,
				12.213043212890625,
				13.339095115661621
			]
		},
		{
			"children":[
				53
			],
			"extensions":{
				"KHR_physics_rigid_bodies":{
					"motion":{
						"mass":4
					},
					"collider":{
						"geometry":{
							"shape":12
						},
						"physicsMaterial":31,
						"collisionFilter":0
					}
				}
			},
			"extras":{
				"khr_physics_extra_props":{}
			},
			"mesh":40,
			"name":"articulated.004",
			"rotation":[
				-0.5323159694671631,
				0.18264570832252502,
				-0.7818644046783447,
				0.26826950907707214
			],
			"translation":[
				0.07381653785705566,
				12.213043212890625,
				12.386805534362793
			]
		},
		{
			"extensions":{},
			"extras":{
				"khr_physics_extra_constraint_props":{
					"use_ang_drive_z":0,
					"ang_z_drive_vel_target":0.0
				}
			},
			"name":"rev1",
			"rotation":[
				0,
				0,
				-0.7071068286895752,
				0.7071068286895752
			]
		},
		{
			"name":"jointSpaceB",
			"rotation":[
				0.31066420674324036,
				0.31066417694091797,
				-0.6352068185806274,
				0.6352068781852722
			],
			"translation":[
				8.465311793770525e-07,
				1.7316200733184814,
				0.17612099647521973
			]
		},
		{
			"extensions":{
				"KHR_physics_rigid_bodies":{
					"joint":{
						"connectedNode":59,
						"joint":0
					}
				}
			},
			"name":"jointSpaceA",
			"rotation":[
				0,
				0,
				-0.7071067690849304,
				0.7071067690849304
			],
			"translation":[
				9.238719940185547e-07,
				0,
				-2.384185791015625e-07
			]
		},
		{
			"children":[
				58,
				60
			],
			"extensions":{
				"KHR_physics_rigid_bodies":{
					"collider":{
						"geometry":{
							"shape":13
						},
						"physicsMaterial":31,
						"collisionFilter":0
					}
				}
			},
			"extras":{
				"khr_physics_extra_props":{}
			},
			"mesh":41,
			"name":"articulated.006",
			"rotation":[
				0,
				-0.186555415391922,
				0,
				0.9824444651603699
			],
			"translation":[
				5.874957084655762,
				22.809738159179688,
				1.2653098106384277
			]
		},
		{
			"extensions":{
				"KHR_physics_rigid_bodies":{
					"collider":{
						"geometry":{
							"shape":14
						},
						"physicsMaterial":31,
						"collisionFilter":0
					}
				}
			},
			"extras":{
				"khr_physics_extra_props":{
					"non_renderable":1
				}
			},
			"name":"articulated.005",
			"rotation":[
				0,
				0,
				-0.7071068286895752,
				0.7071068286895752
			],
			"translation":[
				2.000000238418579,
				-0.42862534523010254,
				0
			]
		},
		{
			"extensions":{
				"KHR_physics_rigid_bodies":{
					"collider":{
						"geometry":{
							"shape":14
						},
						"physicsMaterial":31,
						"collisionFilter":0
					}
				}
			},
			"extras":{
				"khr_physics_extra_props":{
					"non_renderable":1
				}
			},
			"name":"articulated.008",
			"rotation":[
				0,
				0,
				-0.7071068286895752,
				0.7071068286895752
			],
			"translation":[
				-1.9999998807907104,
				-0.4286254644393921,
				0
			]
		},
		{
			"extensions":{},
			"extras":{
				"khr_physics_extra_constraint_props":{}
			},
			"name":"pris2",
			"rotation":[
				0,
				-0.4393453896045685,
				0.8983182311058044,
				4.504119033299503e-08
			],
			"translation":[
				-3.373509798620944e-06,
				0,
				2.5033950805664062e-06
			]
		},
		{
			"extensions":{
				"KHR_physics_rigid_bodies":{
					"joint":{
						"connectedNode":47,
						"joint":1,
						"enableCollision":true
					}
				}
			},
			"name":"jointSpaceA",
			"rotation":[
				1.9204399848149478e-08,
				-0.4393453896045685,
				0.8983182311058044,
				4.504119033299503e-08
			],
			"translation":[
				-3.373509798620944e-06,
				9.5367431640625e-07,
				2.5033950805664062e-06
			]
		},
		{
			"children":[
				62,
				63,
				64,
				59,
				65
			],
			"extensions":{
				"KHR_physics_rigid_bodies":{
					"motion":{
						"mass":0.699999988079071
					}
				}
			},
			"extras":{
				"khr_physics_extra_props":{}
			},
			"mesh":42,
			"name":"articulated.007",
			"rotation":[
				-0.43163254857063293,
				-0.16758613288402557,
				-0.08196227997541428,
				0.8825477361679077
			],
			"translation":[
				5.413561820983887,
				21.607587814331055,
				2.436410903930664
			]
		}
	],
	"meshes":[
		{
			"name":"Cube.003",
			"primitives":[
				{
					"attributes":{
						"POSITION":0,
						"NORMAL":1,
						"TEXCOORD_0":2
					},
					"indices":3
				}
			]
		},
		{
			"name":"Cube.004",
			"primitives":[
				{
					"attributes":{
						"POSITION":4,
						"NORMAL":5,
						"TEXCOORD_0":6
					},
					"indices":3
				}
			]
		},
		{
			"name":"Cube.005",
			"primitives":[
				{
					"attributes":{
						"POSITION":7,
						"NORMAL":8,
						"TEXCOORD_0":9
					},
					"indices":3
				}
			]
		},
		{
			"name":"Cube.006",
			"primitives":[
				{
					"attributes":{
						"POSITION":10,
						"NORMAL":11,
						"TEXCOORD_0":12
					},
					"indices":3
				}
			]
		},
		{
			"name":"Cube.007",
			"primitives":[
				{
					"attributes":{
						"POSITION":13,
						"NORMAL":14,
						"TEXCOORD_0":15
					},
					"indices":3
				}
			]
		},
		{
			"name":"Cube.008",
			"primitives":[
				{
					"attributes":{
						"POSITION":16,
						"NORMAL":17,
						"TEXCOORD_0":18
					},
					"indices":3
				}
			]
		},
		{
			"name":"Cube.009",
			"primitives":[
				{
					"attributes":{
						"POSITION":19,
						"NORMAL":20,
						"TEXCOORD_0":21
					},
					"indices":3
				}
			]
		},
		{
			"name":"Cube.010",
			"primitives":[
				{
					"attributes":{
						"POSITION":22,
						"NORMAL":23,
						"TEXCOORD_0":24
					},
					"indices":3
				}
			]
		},
		{
			"name":"Cube.014",
			"primitives":[
				{
					"attributes":{
						"POSITION":25,
						"NORMAL":26,
						"TEXCOORD_0":27
					},
					"indices":3
				}
			]
		},
		{
			"name":"Cube.015",
			"primitives":[
				{
					"attributes":{
						"POSITION":28,
						"NORMAL":29,
						"TEXCOORD_0":30
					},
					"indices":3
				}
			]
		},
		{
			"name":"Cube.016",
			"primitives":[
				{
					"attributes":{
						"POSITION":31,
						"NORMAL":32,
						"TEXCOORD_0":33
					},
					"indices":3
				}
			]
		},
		{
			"name":"Cube.019",
			"primitives":[
				{
					"attributes":{
						"POSITION":34,
						"NORMAL":35,
						"TEXCOORD_0":36
					},
					"indices":3
				}
			]
		},
		{
			"name":"Cube.020",
			"primitives":[
				{
					"attributes":{
						"POSITION":37,
						"NORMAL":38,
						"TEXCOORD_0":39
					},
					"indices":3
				}
			]
		},
		{
			"name":"Cube.021",
			"primitives":[
				{
					"attributes":{
						"POSITION":40,
						"NORMAL":41,
						"TEXCOORD_0":42
					},
					"indices":3
				}
			]
		},
		{
			"name":"Suzanne.002",
			"primitives":[
				{
					"attributes":{
						"POSITION":43,
						"NORMAL":44,
						"TEXCOORD_0":45
					},
					"indices":46
				}
			]
		},
		{
			"name":"Suzanne.004",
			"primitives":[
				{
					"attributes":{
						"POSITION":47,
						"NORMAL":48,
						"TEXCOORD_0":49
					},
					"indices":50
				}
			]
		},
		{
			"name":"Suzanne.008",
			"primitives":[
				{
					"attributes":{
						"POSITION":51,
						"NORMAL":52,
						"TEXCOORD_0":53
					},
					"indices":54
				}
			]
		},
		{
			"name":"Suzanne.011",
			"primitives":[
				{
					"attributes":{
						"POSITION":55,
						"NORMAL":56,
						"TEXCOORD_0":57
					},
					"indices":54
				}
			]
		},
		{
			"name":"Suzanne.015",
			"primitives":[
				{
					"attributes":{
						"POSITION":58,
						"NORMAL":59,
						"TEXCOORD_0":60
					},
					"indices":61
				}
			]
		},
		{
			"name":"Suzanne.019",
			"primitives":[
				{
					"attributes":{
						"POSITION":62,
						"NORMAL":63,
						"TEXCOORD_0":64
					},
					"indices":50
				}
			]
		},
		{
			"name":"Suzanne.022",
			"primitives":[
				{
					"attributes":{
						"POSITION":65,
						"NORMAL":66,
						"TEXCOORD_0":67
					},
					"indices":50
				}
			]
		},
		{
			"name":"Torus.037",
			"primitives":[
				{
					"attributes":{
						"POSITION":68,
						"NORMAL":69,
						"TEXCOORD_0":70
					},
					"indices":71
				}
			]
		},
		{
			"name":"Cube.011",
			"primitives":[
				{
					"attributes":{
						"POSITION":72,
						"NORMAL":73,
						"TEXCOORD_0":74
					},
					"indices":75
				}
			]
		},
		{
			"name":"Torus.002",
			"primitives":[
				{
					"attributes":{
						"POSITION":76,
						"NORMAL":77,
						"TEXCOORD_0":78
					},
					"indices":71
				}
			]
		},
		{
			"name":"Cube.024",
			"primitives":[
				{
					"attributes":{
						"POSITION":79,
						"NORMAL":80,
						"TEXCOORD_0":81
					},
					"indices":3
				}
			]
		},
		{
			"name":"Cube.025",
			"primitives":[
				{
					"attributes":{
						"POSITION":82,
						"NORMAL":83,
						"TEXCOORD_0":84
					},
					"indices":3
				}
			]
		},
		{
			"name":"Cube.026",
			"primitives":[
				{
					"attributes":{
						"POSITION":85,
						"NORMAL":86,
						"TEXCOORD_0":87
					},
					"indices":3
				}
			]
		},
		{
			"name":"Cube.027",
			"primitives":[
				{
					"attributes":{
						"POSITION":88,
						"NORMAL":89,
						"TEXCOORD_0":90
					},
					"indices":3
				}
			]
		},
		{
			"name":"Cube.028",
			"primitives":[
				{
					"attributes":{
						"POSITION":91,
						"NORMAL":92,
						"TEXCOORD_0":93
					},
					"indices":3
				}
			]
		},
		{
			"name":"Cube.029",
			"primitives":[
				{
					"attributes":{
						"POSITION":94,
						"NORMAL":95,
						"TEXCOORD_0":96
					},
					"indices":3
				}
			]
		},
		{
			"name":"Cube.030",
			"primitives":[
				{
					"attributes":{
						"POSITION":97,
						"NORMAL":98,
						"TEXCOORD_0":99
					},
					"indices":3
				}
			]
		},
		{
			"name":"Cube.031",
			"primitives":[
				{
					"attributes":{
						"POSITION":100,
						"NORMAL":101,
						"TEXCOORD_0":102
					},
					"indices":3
				}
			]
		},
		{
			"name":"Cube.032",
			"primitives":[
				{
					"attributes":{
						"POSITION":103,
						"NORMAL":104,
						"TEXCOORD_0":105
					},
					"indices":3
				}
			]
		},
		{
			"name":"Cube.033",
			"primitives":[
				{
					"attributes":{
						"POSITION":106,
						"NORMAL":107,
						"TEXCOORD_0":108
					},
					"indices":3
				}
			]
		},
		{
			"name":"Cube.034",
			"primitives":[
				{
					"attributes":{
						"POSITION":109,
						"NORMAL":110,
						"TEXCOORD_0":111
					},
					"indices":3
				}
			]
		},
		{
			"name":"Cube.035",
			"primitives":[
				{
					"attributes":{
						"POSITION":112,
						"NORMAL":113,
						"TEXCOORD_0":114
					},
					"indices":115
				}
			]
		},
		{
			"name":"Cube.036",
			"primitives":[
				{
					"attributes":{
						"POSITION":116,
						"NORMAL":117,
						"TEXCOORD_0":118
					},
					"indices":3
				}
			]
		},
		{
			"name":"Cube.012",
			"primitives":[
				{
					"attributes":{
						"POSITION":119,
						"NORMAL":120,
						"TEXCOORD_0":121
					},
					"indices":3
				}
			]
		},
		{
			"name":"Cube.017",
			"primitives":[
				{
					"attributes":{
						"POSITION":122,
						"NORMAL":123,
						"TEXCOORD_0":124
					},
					"indices":3
				}
			]
		},
		{
			"name":"Cube.018",
			"primitives":[
				{
					"attributes":{
						"POSITION":125,
						"NORMAL":126,
						"TEXCOORD_0":127
					},
					"indices":3
				}
			]
		},
		{
			"name":"Cube.022",
			"primitives":[
				{
					"attributes":{
						"POSITION":128,
						"NORMAL":129,
						"TEXCOORD_0":130
					},
					"indices":3
				}
			]
		},
		{
			"name":"Cube.037",
			"primitives":[
				{
					"attributes":{
						"POSITION":131,
						"NORMAL":132,
						"TEXCOORD_0":133
					},
					"indices":3
				}
			]
		},
		{
			"name":"Cube.038",
			"primitives":[
				{
					"attributes":{
						"POSITION":134,
						"NORMAL":135,
						"TEXCOORD_0":136
					},
					"indices":137
				}
			]
		}
	],
	"accessors":[
		{
			"bufferView":0,
			"componentType":5126,
			"count":24,
			"max":[
				1,
				1,
				1
			],
			"min":[
				-1,
				-1,
				-1
			],
			"type":"VEC3"
		},
		{
			"bufferView":1,
			"componentType":5126,
			"count":24,
			"type":"VEC3"
		},
		{
			"bufferView":2,
			"componentType":5126,
			"count":24,
			"type":"VEC2"
		},
		{
			"bufferView":3,
			"componentType":5123,
			"count":36,
			"type":"SCALAR"
		},
		{
			"bufferView":4,
			"componentType":5126,
			"count":24,
			"max":[
				1,
				1,
				1
			],
			"min":[
				-1,
				-1,
				-1
			],
			"type":"VEC3"
		},
		{
			"bufferView":5,
			"componentType":5126,
			"count":24,
			"type":"VEC3"
		},
		{
			"bufferView":6,
			"componentType":5126,
			"count":24,
			"type":"VEC2"
		},
		{
			"bufferView":7,
			"componentType":5126,
			"count":24,
			"max":[
				1.0000009536743164,
				1,
				0.9999990463256836
			],
			"min":[
				-0.9999990463256836,
				-1,
				-1.0000009536743164
			],
			"type":"VEC3"
		},
		{
			"bufferView":8,
			"componentType":5126,
			"count":24,
			"type":"VEC3"
		},
		{
			"bufferView":9,
			"componentType":5126,
			"count":24,
			"type":"VEC2"
		},
		{
			"bufferView":10,
			"componentType":5126,
			"count":24,
			"max":[
				1,
				1,
				1
			],
			"min":[
				-1,
				-1,
				-1
			],
			"type":"VEC3"
		},
		{
			"bufferView":11,
			"componentType":5126,
			"count":24,
			"type":"VEC3"
		},
		{
			"bufferView":12,
			"componentType":5126,
			"count":24,
			"type":"VEC2"
		},
		{
			"bufferView":13,
			"componentType":5126,
			"count":24,
			"max":[
				1,
				1,
				1
			],
			"min":[
				-0.9999998807907104,
				-1,
				-1
			],
			"type":"VEC3"
		},
		{
			"bufferView":14,
			"componentType":5126,
			"count":24,
			"type":"VEC3"
		},
		{
			"bufferView":15,
			"componentType":5126,
			"count":24,
			"type":"VEC2"
		},
		{
			"bufferView":16,
			"componentType":5126,
			"count":24,
			"max":[
				0.9999997615814209,
				1,
				0.9999997615814209
			],
			"min":[
				-1.000000238418579,
				-1,
				-1
			],
			"type":"VEC3"
		},
		{
			"bufferView":17,
			"componentType":5126,
			"count":24,
			"type":"VEC3"
		},
		{
			"bufferView":18,
			"componentType":5126,
			"count":24,
			"type":"VEC2"
		},
		{
			"bufferView":19,
			"componentType":5126,
			"count":24,
			"max":[
				1,
				1,
				1
			],
			"min":[
				-1,
				-1,
				-1
			],
			"type":"VEC3"
		},
		{
			"bufferView":20,
			"componentType":5126,
			"count":24,
			"type":"VEC3"
		},
		{
			"bufferView":21,
			"componentType":5126,
			"count":24,
			"type":"VEC2"
		},
		{
			"bufferView":22,
			"componentType":5126,
			"count":24,
			"max":[
				1,
				1,
				1
			],
			"min":[
				-1,
				-1,
				-1
			],
			"type":"VEC3"
		},
		{
			"bufferView":23,
			"componentType":5126,
			"count":24,
			"type":"VEC3"
		},
		{
			"bufferView":24,
			"componentType":5126,
			"count":24,
			"type":"VEC2"
		},
		{
			"bufferView":25,
			"componentType":5126,
			"count":24,
			"max":[
				1,
				1,
				1
			],
			"min":[
				-1,
				-1,
				-1
			],
			"type":"VEC3"
		},
		{
			"bufferView":26,
			"componentType":5126,
			"count":24,
			"type":"VEC3"
		},
		{
			"bufferView":27,
			"componentType":5126,
			"count":24,
			"type":"VEC2"
		},
		{
			"bufferView":28,
			"componentType":5126,
			"count":24,
			"max":[
				1,
				1,
				1
			],
			"min":[
				-0.9999997615814209,
				-1,
				-1
			],
			"type":"VEC3"
		},
		{
			"bufferView":29,
			"componentType":5126,
			"count":24,
			"type":"VEC3"
		},
		{
			"bufferView":30,
			"componentType":5126,
			"count":24,
			"type":"VEC2"
		},
		{
			"bufferView":31,
			"componentType":5126,
			"count":24,
			"max":[
				1,
				1,
				1
			],
			"min":[
				-1,
				-1,
				-1
			],
			"type":"VEC3"
		},
		{
			"bufferView":32,
			"componentType":5126,
			"count":24,
			"type":"VEC3"
		},
		{
			"bufferView":33,
			"componentType":5126,
			"count":24,
			"type":"VEC2"
		},
		{
			"bufferView":34,
			"componentType":5126,
			"count":24,
			"max":[
				1,
				0.9999995231628418,
				1
			],
			"min":[
				-1.000000238418579,
				-1.0000004768371582,
				-1
			],
			"type":"VEC3"
		},
		{
			"bufferView":35,
			"componentType":5126,
			"count":24,
			"type":"VEC3"
		},
		{
			"bufferView":36,
			"componentType":5126,
			"count":24,
			"type":"VEC2"
		},
		{
			"bufferView":37,
			"componentType":5126,
			"count":24,
			"max":[
				0.9999995231628418,
				0.9999995231628418,
				1
			],
			"min":[
				-1.0000004768371582,
				-1.0000004768371582,
				-1
			],
			"type":"VEC3"
		},
		{
			"bufferView":38,
			"componentType":5126,
			"count":24,
			"type":"VEC3"
		},
		{
			"bufferView":39,
			"componentType":5126,
			"count":24,
			"type":"VEC2"
		},
		{
			"bufferView":40,
			"componentType":5126,
			"count":24,
			"max":[
				4.500004291534424,
				0.18604527413845062,
				1.4999992847442627
			],
			"min":[
				-4.499995708465576,
				-0.18604545295238495,
				-1.5
			],
			"type":"VEC3"
		},
		{
			"bufferView":41,
			"componentType":5126,
			"count":24,
			"type":"VEC3"
		},
		{
			"bufferView":42,
			"componentType":5126,
			"count":24,
			"type":"VEC2"
		},
		{
			"bufferView":43,
			"componentType":5126,
			"count":1198,
			"max":[
				0.8902814388275146,
				0.9426729083061218,
				0.7734200358390808
			],
			"min":[
				-1.5583322048187256,
				-1.026077151298523,
				-1.4164042472839355
			],
			"type":"VEC3"
		},
		{
			"bufferView":44,
			"componentType":5126,
			"count":1198,
			"type":"VEC3"
		},
		{
			"bufferView":45,
			"componentType":5126,
			"count":1198,
			"type":"VEC2"
		},
		{
			"bufferView":46,
			"componentType":5123,
			"count":2904,
			"type":"SCALAR"
		},
		{
			"bufferView":47,
			"componentType":5126,
			"count":1198,
			"max":[
				0.8553114533424377,
				0.9162970185279846,
				0.724189043045044
			],
			"min":[
				-1.5933022499084473,
				-1.0524530410766602,
				-1.4656352996826172
			],
			"type":"VEC3"
		},
		{
			"bufferView":48,
			"componentType":5126,
			"count":1198,
			"type":"VEC3"
		},
		{
			"bufferView":49,
			"componentType":5126,
			"count":1198,
			"type":"VEC2"
		},
		{
			"bufferView":50,
			"componentType":5123,
			"count":2904,
			"type":"SCALAR"
		},
		{
			"bufferView":51,
			"componentType":5126,
			"count":1198,
			"max":[
				0.8902814388275146,
				0.9426729083061218,
				0.7734189033508301
			],
			"min":[
				-1.5583322048187256,
				-1.026077151298523,
				-1.4164047241210938
			],
			"type":"VEC3"
		},
		{
			"bufferView":52,
			"componentType":5126,
			"count":1198,
			"type":"VEC3"
		},
		{
			"bufferView":53,
			"componentType":5126,
			"count":1198,
			"type":"VEC2"
		},
		{
			"bufferView":54,
			"componentType":5123,
			"count":2904,
			"type":"SCALAR"
		},
		{
			"bufferView":55,
			"componentType":5126,
			"count":1198,
			"max":[
				0.8902814388275146,
				0.9426729083061218,
				0.7734222412109375
			],
			"min":[
				-1.5583322048187256,
				-1.026077151298523,
				-1.416402816772461
			],
			"type":"VEC3"
		},
		{
			"bufferView":56,
			"componentType":5126,
			"count":1198,
			"type":"VEC3"
		},
		{
			"bufferView":57,
			"componentType":5126,
			"count":1198,
			"type":"VEC2"
		},
		{
			"bufferView":58,
			"componentType":5126,
			"count":1198,
			"max":[
				1.0444519519805908,
				0.9843751788139343,
				-20.907777786254883
			],
			"min":[
				-1.4041616916656494,
				-0.9843748807907104,
				-23.09760284423828
			],
			"type":"VEC3"
		},
		{
			"bufferView":59,
			"componentType":5126,
			"count":1198,
			"type":"VEC3"
		},
		{
			"bufferView":60,
			"componentType":5126,
			"count":1198,
			"type":"VEC2"
		},
		{
			"bufferView":61,
			"componentType":5123,
			"count":2904,
			"type":"SCALAR"
		},
		{
			"bufferView":62,
			"componentType":5126,
			"count":1198,
			"max":[
				1.0444519519805908,
				0.9843751788139343,
				-25.287425994873047
			],
			"min":[
				-1.4041616916656494,
				-0.9843748807907104,
				-27.477251052856445
			],
			"type":"VEC3"
		},
		{
			"bufferView":63,
			"componentType":5126,
			"count":1198,
			"type":"VEC3"
		},
		{
			"bufferView":64,
			"componentType":5126,
			"count":1198,
			"type":"VEC2"
		},
		{
			"bufferView":65,
			"componentType":5126,
			"count":1198,
			"max":[
				1.0444519519805908,
				0.9843751788139343,
				-29.66707420349121
			],
			"min":[
				-1.4041616916656494,
				-0.9843748807907104,
				-31.85689926147461
			],
			"type":"VEC3"
		},
		{
			"bufferView":66,
			"componentType":5126,
			"count":1198,
			"type":"VEC3"
		},
		{
			"bufferView":67,
			"componentType":5126,
			"count":1198,
			"type":"VEC2"
		},
		{
			"bufferView":68,
			"componentType":5126,
			"count":144,
			"max":[
				0.9488435387611389,
				1.5209531784057617,
				1.7009642124176025
			],
			"min":[
				-0.9488434195518494,
				-1.5209541320800781,
				-1.7009642124176025
			],
			"type":"VEC3"
		},
		{
			"bufferView":69,
			"componentType":5126,
			"count":144,
			"type":"VEC3"
		},
		{
			"bufferView":70,
			"componentType":5126,
			"count":144,
			"type":"VEC2"
		},
		{
			"bufferView":71,
			"componentType":5123,
			"count":864,
			"type":"SCALAR"
		},
		{
			"bufferView":72,
			"componentType":5126,
			"count":265,
			"max":[
				2.9901812076568604,
				16.374168395996094,
				12.330317497253418
			],
			"min":[
				-14.183975219726562,
				-17.058303833007812,
				-18.699445724487305
			],
			"type":"VEC3"
		},
		{
			"bufferView":73,
			"componentType":5126,
			"count":265,
			"type":"VEC3"
		},
		{
			"bufferView":74,
			"componentType":5126,
			"count":265,
			"type":"VEC2"
		},
		{
			"bufferView":75,
			"componentType":5123,
			"count":651,
			"type":"SCALAR"
		},
		{
			"bufferView":76,
			"componentType":5126,
			"count":144,
			"max":[
				0.9488435387611389,
				1.5209531784057617,
				1.7009642124176025
			],
			"min":[
				-0.9488434195518494,
				-1.5209541320800781,
				-1.7009642124176025
			],
			"type":"VEC3"
		},
		{
			"bufferView":77,
			"componentType":5126,
			"count":144,
			"type":"VEC3"
		},
		{
			"bufferView":78,
			"componentType":5126,
			"count":144,
			"type":"VEC2"
		},
		{
			"bufferView":79,
			"componentType":5126,
			"count":24,
			"max":[
				1,
				1,
				1
			],
			"min":[
				-1,
				-1,
				-1
			],
			"type":"VEC3"
		},
		{
			"bufferView":80,
			"componentType":5126,
			"count":24,
			"type":"VEC3"
		},
		{
			"bufferView":81,
			"componentType":5126,
			"count":24,
			"type":"VEC2"
		},
		{
			"bufferView":82,
			"componentType":5126,
			"count":24,
			"max":[
				1,
				1,
				1
			],
			"min":[
				-0.9999997615814209,
				-1,
				-1
			],
			"type":"VEC3"
		},
		{
			"bufferView":83,
			"componentType":5126,
			"count":24,
			"type":"VEC3"
		},
		{
			"bufferView":84,
			"componentType":5126,
			"count":24,
			"type":"VEC2"
		},
		{
			"bufferView":85,
			"componentType":5126,
			"count":24,
			"max":[
				1,
				1,
				1
			],
			"min":[
				-1,
				-1,
				-1
			],
			"type":"VEC3"
		},
		{
			"bufferView":86,
			"componentType":5126,
			"count":24,
			"type":"VEC3"
		},
		{
			"bufferView":87,
			"componentType":5126,
			"count":24,
			"type":"VEC2"
		},
		{
			"bufferView":88,
			"componentType":5126,
			"count":24,
			"max":[
				1,
				1,
				1
			],
			"min":[
				-1,
				-1,
				-1
			],
			"type":"VEC3"
		},
		{
			"bufferView":89,
			"componentType":5126,
			"count":24,
			"type":"VEC3"
		},
		{
			"bufferView":90,
			"componentType":5126,
			"count":24,
			"type":"VEC2"
		},
		{
			"bufferView":91,
			"componentType":5126,
			"count":24,
			"max":[
				1,
				1,
				1
			],
			"min":[
				-1,
				-1,
				-1
			],
			"type":"VEC3"
		},
		{
			"bufferView":92,
			"componentType":5126,
			"count":24,
			"type":"VEC3"
		},
		{
			"bufferView":93,
			"componentType":5126,
			"count":24,
			"type":"VEC2"
		},
		{
			"bufferView":94,
			"componentType":5126,
			"count":24,
			"max":[
				0.9999997615814209,
				1,
				0.9999997615814209
			],
			"min":[
				-1.000000238418579,
				-1,
				-1
			],
			"type":"VEC3"
		},
		{
			"bufferView":95,
			"componentType":5126,
			"count":24,
			"type":"VEC3"
		},
		{
			"bufferView":96,
			"componentType":5126,
			"count":24,
			"type":"VEC2"
		},
		{
			"bufferView":97,
			"componentType":5126,
			"count":24,
			"max":[
				1,
				1,
				1
			],
			"min":[
				-0.9999998807907104,
				-1,
				-1
			],
			"type":"VEC3"
		},
		{
			"bufferView":98,
			"componentType":5126,
			"count":24,
			"type":"VEC3"
		},
		{
			"bufferView":99,
			"componentType":5126,
			"count":24,
			"type":"VEC2"
		},
		{
			"bufferView":100,
			"componentType":5126,
			"count":24,
			"max":[
				1,
				1,
				1
			],
			"min":[
				-1,
				-1,
				-1
			],
			"type":"VEC3"
		},
		{
			"bufferView":101,
			"componentType":5126,
			"count":24,
			"type":"VEC3"
		},
		{
			"bufferView":102,
			"componentType":5126,
			"count":24,
			"type":"VEC2"
		},
		{
			"bufferView":103,
			"componentType":5126,
			"count":24,
			"max":[
				1.0000009536743164,
				1,
				0.9999990463256836
			],
			"min":[
				-0.9999990463256836,
				-1,
				-1.0000009536743164
			],
			"type":"VEC3"
		},
		{
			"bufferView":104,
			"componentType":5126,
			"count":24,
			"type":"VEC3"
		},
		{
			"bufferView":105,
			"componentType":5126,
			"count":24,
			"type":"VEC2"
		},
		{
			"bufferView":106,
			"componentType":5126,
			"count":24,
			"max":[
				1,
				1,
				1
			],
			"min":[
				-1,
				-1,
				-1
			],
			"type":"VEC3"
		},
		{
			"bufferView":107,
			"componentType":5126,
			"count":24,
			"type":"VEC3"
		},
		{
			"bufferView":108,
			"componentType":5126,
			"count":24,
			"type":"VEC2"
		},
		{
			"bufferView":109,
			"componentType":5126,
			"count":24,
			"max":[
				1,
				1,
				1
			],
			"min":[
				-1,
				-1,
				-1
			],
			"type":"VEC3"
		},
		{
			"bufferView":110,
			"componentType":5126,
			"count":24,
			"type":"VEC3"
		},
		{
			"bufferView":111,
			"componentType":5126,
			"count":24,
			"type":"VEC2"
		},
		{
			"bufferView":112,
			"componentType":5126,
			"count":24,
			"max":[
				1,
				1,
				1
			],
			"min":[
				-1,
				-1,
				-1
			],
			"type":"VEC3"
		},
		{
			"bufferView":113,
			"componentType":5126,
			"count":24,
			"type":"VEC3"
		},
		{
			"bufferView":114,
			"componentType":5126,
			"count":24,
			"type":"VEC2"
		},
		{
			"bufferView":115,
			"componentType":5123,
			"count":36,
			"type":"SCALAR"
		},
		{
			"bufferView":116,
			"componentType":5126,
			"count":24,
			"max":[
				4.500004291534424,
				0.18604527413845062,
				1.4999992847442627
			],
			"min":[
				-4.499995708465576,
				-0.18604545295238495,
				-1.5
			],
			"type":"VEC3"
		},
		{
			"bufferView":117,
			"componentType":5126,
			"count":24,
			"type":"VEC3"
		},
		{
			"bufferView":118,
			"componentType":5126,
			"count":24,
			"type":"VEC2"
		},
		{
			"bufferView":119,
			"componentType":5126,
			"count":24,
			"max":[
				3.493797540664673,
				0.28944671154022217,
				0.7580589652061462
			],
			"min":[
				-3.493791341781616,
				-0.28944700956344604,
				-0.7580593228340149
			],
			"type":"VEC3"
		},
		{
			"bufferView":120,
			"componentType":5126,
			"count":24,
			"type":"VEC3"
		},
		{
			"bufferView":121,
			"componentType":5126,
			"count":24,
			"type":"VEC2"
		},
		{
			"bufferView":122,
			"componentType":5126,
			"count":24,
			"max":[
				3.493797540664673,
				0.457668662071228,
				0.7580589652061462
			],
			"min":[
				-3.493791341781616,
				-0.45766910910606384,
				-0.7580593228340149
			],
			"type":"VEC3"
		},
		{
			"bufferView":123,
			"componentType":5126,
			"count":24,
			"type":"VEC3"
		},
		{
			"bufferView":124,
			"componentType":5126,
			"count":24,
			"type":"VEC2"
		},
		{
			"bufferView":125,
			"componentType":5126,
			"count":24,
			"max":[
				3.493797540664673,
				0.457668662071228,
				0.23911000788211823
			],
			"min":[
				-3.493791341781616,
				-0.45766910910606384,
				-0.23911012709140778
			],
			"type":"VEC3"
		},
		{
			"bufferView":126,
			"componentType":5126,
			"count":24,
			"type":"VEC3"
		},
		{
			"bufferView":127,
			"componentType":5126,
			"count":24,
			"type":"VEC2"
		},
		{
			"bufferView":128,
			"componentType":5126,
			"count":24,
			"max":[
				3.493797540664673,
				0.457668662071228,
				0.23911000788211823
			],
			"min":[
				-3.493791341781616,
				-0.45766910910606384,
				-0.23911012709140778
			],
			"type":"VEC3"
		},
		{
			"bufferView":129,
			"componentType":5126,
			"count":24,
			"type":"VEC3"
		},
		{
			"bufferView":130,
			"componentType":5126,
			"count":24,
			"type":"VEC2"
		},
		{
			"bufferView":131,
			"componentType":5126,
			"count":24,
			"max":[
				7.0010457038879395,
				0.28944671154022217,
				0.22948507964611053
			],
			"min":[
				-7.00103235244751,
				-0.28944700956344604,
				-0.22948519885540009
			],
			"type":"VEC3"
		},
		{
			"bufferView":132,
			"componentType":5126,
			"count":24,
			"type":"VEC3"
		},
		{
			"bufferView":133,
			"componentType":5126,
			"count":24,
			"type":"VEC2"
		},
		{
			"bufferView":134,
			"componentType":5126,
			"count":160,
			"max":[
				7.0010457038879395,
				0.28944671154022217,
				0.7580597996711731
			],
			"min":[
				-7.00103235244751,
				-1.1466953754425049,
				-0.7580593228340149
			],
			"type":"VEC3"
		},
		{
			"bufferView":135,
			"componentType":5126,
			"count":160,
			"type":"VEC3"
		},
		{
			"bufferView":136,
			"componentType":5126,
			"count":160,
			"type":"VEC2"
		},
		{
			"bufferView":137,
			"componentType":5123,
			"count":348,
			"type":"SCALAR"
		}
	],
	"bufferViews":[
		{
			"buffer":0,
			"byteLength":288,
			"byteOffset":0,
			"target":34962
		},
		{
			"buffer":0,
			"byteLength":288,
			"byteOffset":288,
			"target":34962
		},
		{
			"buffer":0,
			"byteLength":192,
			"byteOffset":576,
			"target":34962
		},
		{
			"buffer":0,
			"byteLength":72,
			"byteOffset":768,
			"target":34963
		},
		{
			"buffer":0,
			"byteLength":288,
			"byteOffset":840,
			"target":34962
		},
		{
			"buffer":0,
			"byteLength":288,
			"byteOffset":1128,
			"target":34962
		},
		{
			"buffer":0,
			"byteLength":192,
			"byteOffset":1416,
			"target":34962
		},
		{
			"buffer":0,
			"byteLength":288,
			"byteOffset":1608,
			"target":34962
		},
		{
			"buffer":0,
			"byteLength":288,
			"byteOffset":1896,
			"target":34962
		},
		{
			"buffer":0,
			"byteLength":192,
			"byteOffset":2184,
			"target":34962
		},
		{
			"buffer":0,
			"byteLength":288,
			"byteOffset":2376,
			"target":34962
		},
		{
			"buffer":0,
			"byteLength":288,
			"byteOffset":2664,
			"target":34962
		},
		{
			"buffer":0,
			"byteLength":192,
			"byteOffset":2952,
			"target":34962
		},
		{
			"buffer":0,
			"byteLength":288,
			"byteOffset":3144,
			"target":34962
		},
		{
			"buffer":0,
			"byteLength":288,
			"byteOffset":3432,
			"target":34962
		},
		{
			"buffer":0,
			"byteLength":192,
			"byteOffset":3720,
			"target":34962
		},
		{
			"buffer":0,
			"byteLength":288,
			"byteOffset":3912,
			"target":34962
		},
		{
			"buffer":0,
			"byteLength":288,
			"byteOffset":4200,
			"target":34962
		},
		{
			"buffer":0,
			"byteLength":192,
			"byteOffset":4488,
			"target":34962
		},
		{
			"buffer":0,
			"byteLength":288,
			"byteOffset":4680,
			"target":34962
		},
		{
			"buffer":0,
			"byteLength":288,
			"byteOffset":4968,
			"target":34962
		},
		{
			"buffer":0,
			"byteLength":192,
			"byteOffset":5256,
			"target":34962
		},
		{
			"buffer":0,
			"byteLength":288,
			"byteOffset":5448,
			"target":34962
		},
		{
			"buffer":0,
			"byteLength":288,
			"byteOffset":5736,
			"target":34962
		},
		{
			"buffer":0,
			"byteLength":192,
			"byteOffset":6024,
			"target":34962
		},
		{
			"buffer":0,
			"byteLength":288,
			"byteOffset":6216,
			"target":34962
		},
		{
			"buffer":0,
			"byteLength":288,
			"byteOffset":6504,
			"target":34962
		},
		{
			"buffer":0,
			"byteLength":192,
			"byteOffset":6792,
			"target":34962
		},
		{
			"buffer":0,
			"byteLength":288,
			"byteOffset":6984,
			"target":34962
		},
		{
			"buffer":0,
			"byteLength":288,
			"byteOffset":7272,
			"target":34962
		},
		{
			"buffer":0,
			"byteLength":192,
			"byteOffset":7560,
			"target":34962
		},
		{
			"buffer":0,
			"byteLength":288,
			"byteOffset":7752,
			"target":34962
		},
		{
			"buffer":0,
			"byteLength":288,
			"byteOffset":8040,
			"target":34962
		},
		{
			"buffer":0,
			"byteLength":192,
			"byteOffset":8328,
			"target":34962
		},
		{
			"buffer":0,
			"byteLength":288,
			"byteOffset":8520,
			"target":34962
		},
		{
			"buffer":0,
			"byteLength":288,
			"byteOffset":8808,
			"target":34962
		},
		{
			"buffer":0,
			"byteLength":192,
			"byteOffset":9096,
			"target":34962
		},
		{
			"buffer":0,
			"byteLength":288,
			"byteOffset":9288,
			"target":34962
		},
		{
			"buffer":0,
			"byteLength":288,
			"byteOffset":9576,
			"target":34962
		},
		{
			"buffer":0,
			"byteLength":192,
			"byteOffset":9864,
			"target":34962
		},
		{
			"buffer":0,
			"byteLength":288,
			"byteOffset":10056,
			"target":34962
		},
		{
			"buffer":0,
			"byteLength":288,
			"byteOffset":10344,
			"target":34962
		},
		{
			"buffer":0,
			"byteLength":192,
			"byteOffset":10632,
			"target":34962
		},
		{
			"buffer":0,
			"byteLength":14376,
			"byteOffset":10824,
			"target":34962
		},
		{
			"buffer":0,
			"byteLength":14376,
			"byteOffset":25200,
			"target":34962
		},
		{
			"buffer":0,
			"byteLength":9584,
			"byteOffset":39576,
			"target":34962
		},
		{
			"buffer":0,
			"byteLength":5808,
			"byteOffset":49160,
			"target":34963
		},
		{
			"buffer":0,
			"byteLength":14376,
			"byteOffset":54968,
			"target":34962
		},
		{
			"buffer":0,
			"byteLength":14376,
			"byteOffset":69344,
			"target":34962
		},
		{
			"buffer":0,
			"byteLength":9584,
			"byteOffset":83720,
			"target":34962
		},
		{
			"buffer":0,
			"byteLength":5808,
			"byteOffset":93304,
			"target":34963
		},
		{
			"buffer":0,
			"byteLength":14376,
			"byteOffset":99112,
			"target":34962
		},
		{
			"buffer":0,
			"byteLength":14376,
			"byteOffset":113488,
			"target":34962
		},
		{
			"buffer":0,
			"byteLength":9584,
			"byteOffset":127864,
			"target":34962
		},
		{
			"buffer":0,
			"byteLength":5808,
			"byteOffset":137448,
			"target":34963
		},
		{
			"buffer":0,
			"byteLength":14376,
			"byteOffset":143256,
			"target":34962
		},
		{
			"buffer":0,
			"byteLength":14376,
			"byteOffset":157632,
			"target":34962
		},
		{
			"buffer":0,
			"byteLength":9584,
			"byteOffset":172008,
			"target":34962
		},
		{
			"buffer":0,
			"byteLength":14376,
			"byteOffset":181592,
			"target":34962
		},
		{
			"buffer":0,
			"byteLength":14376,
			"byteOffset":195968,
			"target":34962
		},
		{
			"buffer":0,
			"byteLength":9584,
			"byteOffset":210344,
			"target":34962
		},
		{
			"buffer":0,
			"byteLength":5808,
			"byteOffset":219928,
			"target":34963
		},
		{
			"buffer":0,
			"byteLength":14376,
			"byteOffset":225736,
			"target":34962
		},
		{
			"buffer":0,
			"byteLength":14376,
			"byteOffset":240112,
			"target":34962
		},
		{
			"buffer":0,
			"byteLength":9584,
			"byteOffset":254488,
			"target":34962
		},
		{
			"buffer":0,
			"byteLength":14376,
			"byteOffset":264072,
			"target":34962
		},
		{
			"buffer":0,
			"byteLength":14376,
			"byteOffset":278448,
			"target":34962
		},
		{
			"buffer":0,
			"byteLength":9584,
			"byteOffset":292824,
			"target":34962
		},
		{
			"buffer":0,
			"byteLength":1728,
			"byteOffset":302408,
			"target":34962
		},
		{
			"buffer":0,
			"byteLength":1728,
			"byteOffset":304136,
			"target":34962
		},
		{
			"buffer":0,
			"byteLength":1152,
			"byteOffset":305864,
			"target":34962
		},
		{
			"buffer":0,
			"byteLength":1728,
			"byteOffset":307016,
			"target":34963
		},
		{
			"buffer":0,
			"byteLength":3180,
			"byteOffset":308744,
			"target":34962
		},
		{
			"buffer":0,
			"byteLength":3180,
			"byteOffset":311924,
			"target":34962
		},
		{
			"buffer":0,
			"byteLength":2120,
			"byteOffset":315104,
			"target":34962
		},
		{
			"buffer":0,
			"byteLength":1302,
			"byteOffset":317224,
			"target":34963
		},
		{
			"buffer":0,
			"byteLength":1728,
			"byteOffset":318528,
			"target":34962
		},
		{
			"buffer":0,
			"byteLength":1728,
			"byteOffset":320256,
			"target":34962
		},
		{
			"buffer":0,
			"byteLength":1152,
			"byteOffset":321984,
			"target":34962
		},
		{
			"buffer":0,
			"byteLength":288,
			"byteOffset":323136,
			"target":34962
		},
		{
			"buffer":0,
			"byteLength":288,
			"byteOffset":323424,
			"target":34962
		},
		{
			"buffer":0,
			"byteLength":192,
			"byteOffset":323712,
			"target":34962
		},
		{
			"buffer":0,
			"byteLength":288,
			"byteOffset":323904,
			"target":34962
		},
		{
			"buffer":0,
			"byteLength":288,
			"byteOffset":324192,
			"target":34962
		},
		{
			"buffer":0,
			"byteLength":192,
			"byteOffset":324480,
			"target":34962
		},
		{
			"buffer":0,
			"byteLength":288,
			"byteOffset":324672,
			"target":34962
		},
		{
			"buffer":0,
			"byteLength":288,
			"byteOffset":324960,
			"target":34962
		},
		{
			"buffer":0,
			"byteLength":192,
			"byteOffset":325248,
			"target":34962
		},
		{
			"buffer":0,
			"byteLength":288,
			"byteOffset":325440,
			"target":34962
		},
		{
			"buffer":0,
			"byteLength":288,
			"byteOffset":325728,
			"target":34962
		},
		{
			"buffer":0,
			"byteLength":192,
			"byteOffset":326016,
			"target":34962
		},
		{
			"buffer":0,
			"byteLength":288,
			"byteOffset":326208,
			"target":34962
		},
		{
			"buffer":0,
			"byteLength":288,
			"byteOffset":326496,
			"target":34962
		},
		{
			"buffer":0,
			"byteLength":192,
			"byteOffset":326784,
			"target":34962
		},
		{
			"buffer":0,
			"byteLength":288,
			"byteOffset":326976,
			"target":34962
		},
		{
			"buffer":0,
			"byteLength":288,
			"byteOffset":327264,
			"target":34962
		},
		{
			"buffer":0,
			"byteLength":192,
			"byteOffset":327552,
			"target":34962
		},
		{
			"buffer":0,
			"byteLength":288,
			"byteOffset":327744,
			"target":34962
		},
		{
			"buffer":0,
			"byteLength":288,
			"byteOffset":328032,
			"target":34962
		},
		{
			"buffer":0,
			"byteLength":192,
			"byteOffset":328320,
			"target":34962
		},
		{
			"buffer":0,
			"byteLength":288,
			"byteOffset":328512,
			"target":34962
		},
		{
			"buffer":0,
			"byteLength":288,
			"byteOffset":328800,
			"target":34962
		},
		{
			"buffer":0,
			"byteLength":192,
			"byteOffset":329088,
			"target":34962
		},
		{
			"buffer":0,
			"byteLength":288,
			"byteOffset":329280,
			"target":34962
		},
		{
			"buffer":0,
			"byteLength":288,
			"byteOffset":329568,
			"target":34962
		},
		{
			"buffer":0,
			"byteLength":192,
			"byteOffset":329856,
			"target":34962
		},
		{
			"buffer":0,
			"byteLength":288,
			"byteOffset":330048,
			"target":34962
		},
		{
			"buffer":0,
			"byteLength":288,
			"byteOffset":330336,
			"target":34962
		},
		{
			"buffer":0,
			"byteLength":192,
			"byteOffset":330624,
			"target":34962
		},
		{
			"buffer":0,
			"byteLength":288,
			"byteOffset":330816,
			"target":34962
		},
		{
			"buffer":0,
			"byteLength":288,
			"byteOffset":331104,
			"target":34962
		},
		{
			"buffer":0,
			"byteLength":192,
			"byteOffset":331392,
			"target":34962
		},
		{
			"buffer":0,
			"byteLength":288,
			"byteOffset":331584,
			"target":34962
		},
		{
			"buffer":0,
			"byteLength":288,
			"byteOffset":331872,
			"target":34962
		},
		{
			"buffer":0,
			"byteLength":192,
			"byteOffset":332160,
			"target":34962
		},
		{
			"buffer":0,
			"byteLength":72,
			"byteOffset":332352,
			"target":34963
		},
		{
			"buffer":0,
			"byteLength":288,
			"byteOffset":332424,
			"target":34962
		},
		{
			"buffer":0,
			"byteLength":288,
			"byteOffset":332712,
			"target":34962
		},
		{
			"buffer":0,
			"byteLength":192,
			"byteOffset":333000,
			"target":34962
		},
		{
			"buffer":0,
			"byteLength":288,
			"byteOffset":333192,
			"target":34962
		},
		{
			"buffer":0,
			"byteLength":288,
			"byteOffset":333480,
			"target":34962
		},
		{
			"buffer":0,
			"byteLength":192,
			"byteOffset":333768,
			"target":34962
		},
		{
			"buffer":0,
			"byteLength":288,
			"byteOffset":333960,
			"target":34962
		},
		{
			"buffer":0,
			"byteLength":288,
			"byteOffset":334248,
			"target":34962
		},
		{
			"buffer":0,
			"byteLength":192,
			"byteOffset":334536,
			"target":34962
		},
		{
			"buffer":0,
			"byteLength":288,
			"byteOffset":334728,
			"target":34962
		},
		{
			"buffer":0,
			"byteLength":288,
			"byteOffset":335016,
			"target":34962
		},
		{
			"buffer":0,
			"byteLength":192,
			"byteOffset":335304,
			"target":34962
		},
		{
			"buffer":0,
			"byteLength":288,
			"byteOffset":335496,
			"target":34962
		},
		{
			"buffer":0,
			"byteLength":288,
			"byteOffset":335784,
			"target":34962
		},
		{
			"buffer":0,
			"byteLength":192,
			"byteOffset":336072,
			"target":34962
		},
		{
			"buffer":0,
			"byteLength":288,
			"byteOffset":336264,
			"target":34962
		},
		{
			"buffer":0,
			"byteLength":288,
			"byteOffset":336552,
			"target":34962
		},
		{
			"buffer":0,
			"byteLength":192,
			"byteOffset":336840,
			"target":34962
		},
		{
			"buffer":0,
			"byteLength":1920,
			"byteOffset":337032,
			"target":34962
		},
		{
			"buffer":0,
			"byteLength":1920,
			"byteOffset":338952,
			"target":34962
		},
		{
			"buffer":0,
			"byteLength":1280,
			"byteOffset":340872,
			"target":34962
		},
		{
			"buffer":0,
			"byteLength":696,
			"byteOffset":342152,
			"target":34963
		}
	],
	"buffers":[
		{
			"byteLength":342848,
			"uri":"articulated.bin"
		}
	]
}
