{
	"asset":{
		"generator":"Khronos glTF Blender I/O v4.5.48",
		"version":"2.0"
	},
	"extensionsUsed":[
		"KHR_implicit_shapes",
		"KHR_physics_rigid_bodies"
	],
	"extensions":{
		"KHR_implicit_shapes":{
			"shapes":[
				{
					"type":"box",
					"box":{
						"size":[
							1.436143398284912,
							0.5788938999176025,
							1.5161182880401611
						]
					}
				},
				{
					"type":"box",
					"box":{
						"size":[
							14.002091407775879,
							0.5788940191268921,
							0.45897039771080017
						]
					}
				},
				{
					"type":"box",
					"box":{
						"size":[
							6.987595081329346,
							0.9153382182121277,
							1.5161186456680298
						]
					}
				},
				{
					"type":"box",
					"box":{
						"size":[
							6.987595081329346,
							0.5788940191268921,
							1.5161186456680298
						]
					}
				},
				{
					"type":"box",
					"box":{
						"size":[
							20,
							2,
							66.54318237304688
						]
					}
				},
				{
					"type":"box",
					"box":{
						"size":[
							6.512679100036621,
							0.8351471424102783,
							8.351470947265625
						]
					}
				},
				{
					"type":"box",
					"box":{
						"size":[
							6.512679100036621,
							0.8351469039916992,
							8.351470947265625
						]
					}
				},
				{
					"type":"box",
					"box":{
						"size":[
							6.512679100036621,
							0.8351478576660156,
							8.351470947265625
						]
					}
				},
				{
					"type":"box",
					"box":{
						"size":[
							6.512679100036621,
							0.8351516723632812,
							8.351470947265625
						]
					}
				},
				{
					"type":"box",
					"box":{
						"size":[
							6.512679100036621,
							0.83514404296875,
							8.351470947265625
						]
					}
				},
				{
					"type":"box",
					"box":{
						"size":[
							9.753198623657227,
							0.9153382182121277,
							1.5161186456680298
						]
					}
				}
			]
		},
		"KHR_physics_rigid_bodies":{
			"physicsMaterials":[
				{
					"staticFriction":0.3032863736152649,
					"dynamicFriction":0.3032863736152649,
					"restitution":0.31924885511398315
				},
				{
					"staticFriction":0.5,
					"dynamicFriction":0.5,
					"restitution":0
				},
				{
					"staticFriction":0.15870806574821472,
					"dynamicFriction":0.15870806574821472,
					"restitution":0.600373387336731
				},
				{
					"staticFriction":0.7570281028747559,
					"dynamicFriction":0.7570281028747559,
					"restitution":0.1983935832977295
				},
				{
					"staticFriction":0.5923694372177124,
					"dynamicFriction":0.5923694372177124,
					"restitution":0.32289159297943115
				}
			],
			"collisionFilters":[
				{
					"collisionSystems":[
						"System_0"
					],
					"collideWithSystems":[
						"System_0"
					]
				}
			],
			"physicsJoints":[
				{
					"limits":[
						{
							"angularAxes":[
								0,
								2,
								1
							],
							"min":0,
							"max":0
						},
						{
							"linearAxes":[
								2,
								1
							],
							"min":0,
							"max":0
						}
					]
				},
				{
					"limits":[
						{
							"linearAxes":[
								0,
								2,
								1
							],
							"min":0,
							"max":0
						},
						{
							"angularAxes":[
								0,
								2
							],
							"min":0,
							"max":0
						}
					]
				}
			]
		}
	},
	"scene":0,
	"scenes":[
		{
			"extras":{
				"khr_physics_importer_props":{},
				"khr_physics_exporter_props":{},
				"khr_physics_scene_viewer_props":{}
			},
			"name":"Scene",
			"nodes":[
				6,
				9,
				14,
				18,
				19,
				20,
				21,
				22,
				23,
				24,
				25,
				26,
				27,
				28,
				29,
				30,
				34,
				37
			]
		}
	],
	"nodes":[
		{
			"extensions":{
				"KHR_physics_rigid_bodies":{
					"collider":{
						"geometry":{
							"shape":0
						},
						"physicsMaterial":0,
						"collisionFilter":0
					}
				}
			},
			"extras":{
				"khr_physics_extra_props":{
					"non_renderable":1
				}
			},
			"name":"articulated.009",
			"rotation":[
				0,
				0,
				-0.7071068286895752,
				0.7071068286895752
			],
			"translation":[
				-1.9943532943725586,
				-0.4286224842071533,
				6.660819053649902e-06
			]
		},
		{
			"extensions":{
				"KHR_physics_rigid_bodies":{
					"collider":{
						"geometry":{
							"shape":0
						},
						"physicsMaterial":0,
						"collisionFilter":0
					}
				}
			},
			"extras":{
				"khr_physics_extra_props":{
					"non_renderable":1
				}
			},
			"name":"articulated.012",
			"rotation":[
				0,
				0,
				-0.7071068286895752,
				0.7071068286895752
			],
			"translation":[
				2.014538288116455,
				-0.4286247193813324,
				5.066394805908203e-06
			]
		},
		{
			"extensions":{},
			"extras":{
				"khr_physics_extra_constraint_props":{}
			},
			"name":"pris2.001",
			"rotation":[
				0,
				-0.4393453896045685,
				0.8983182311058044,
				8.708615695240951e-08
			],
			"translation":[
				-4.649162292480469e-06,
				0,
				0
			]
		},
		{
			"name":"jointSpaceB",
			"rotation":[
				0.6349042654037476,
				0.6355089545249939,
				0.31004613637924194,
				0.31128183007240295
			],
			"translation":[
				-4.256890773773193,
				0.7704849243164062,
				-0.26263970136642456
			]
		},
		{
			"extensions":{
				"KHR_physics_rigid_bodies":{
					"joint":{
						"connectedNode":3,
						"joint":0,
						"enableCollision":true
					}
				}
			},
			"name":"jointSpaceA",
			"rotation":[
				3.317568086913525e-08,
				-0.4393453896045685,
				0.8983182311058044,
				8.708615695240951e-08
			],
			"translation":[
				-4.649162292480469e-06,
				9.238719940185547e-07,
				1.1026859283447266e-06
			]
		},
		{
			"name":"jointSpaceB",
			"rotation":[
				0.31066417694091797,
				0.31066420674324036,
				-0.6352068185806274,
				0.635206937789917
			],
			"translation":[
				-1.1920928955078125e-06,
				1.7316211462020874,
				0.1761181354522705
			]
		},
		{
			"children":[
				0,
				1,
				2,
				4,
				5
			],
			"extensions":{
				"KHR_physics_rigid_bodies":{
					"motion":{
						"mass":0.699999988079071
					}
				}
			},
			"extras":{
				"khr_physics_extra_props":{}
			},
			"mesh":0,
			"name":"articulated.010",
			"rotation":[
				0.008018240332603455,
				0.838553786277771,
				0.5334506034851074,
				0.11042536050081253
			],
			"translation":[
				-2.513657331466675,
				15.174407005310059,
				-17.479764938354492
			]
		},
		{
			"extensions":{},
			"extras":{
				"khr_physics_extra_constraint_props":{
					"use_ang_drive_z":0,
					"ang_z_drive_vel_target":0.0
				}
			},
			"name":"rev1.001",
			"rotation":[
				0,
				0,
				-0.7071067094802856,
				0.7071068286895752
			],
			"translation":[
				0,
				0,
				-3.2186508178710938e-06
			]
		},
		{
			"extensions":{
				"KHR_physics_rigid_bodies":{
					"joint":{
						"connectedNode":5,
						"joint":1
					}
				}
			},
			"name":"jointSpaceA",
			"rotation":[
				-2.1731967336791058e-08,
				6.717153411273102e-08,
				-0.7071067094802856,
				0.7071068286895752
			],
			"translation":[
				-1.1920928955078125e-06,
				-8.493661880493164e-07,
				-3.2186508178710938e-06
			]
		},
		{
			"children":[
				7,
				8
			],
			"extensions":{
				"KHR_physics_rigid_bodies":{
					"collider":{
						"geometry":{
							"shape":1
						},
						"physicsMaterial":1,
						"collisionFilter":0
					}
				}
			},
			"extras":{
				"khr_physics_extra_props":{}
			},
			"mesh":1,
			"name":"articulated.011",
			"rotation":[
				0.05571781471371651,
				0.9876571893692017,
				0.1107935979962349,
				0.09567432850599289
			],
			"translation":[
				-2.6602554321289062,
				16.077526092529297,
				-15.999083518981934
			]
		},
		{
			"extensions":{},
			"extras":{
				"khr_physics_extra_constraint_props":{}
			},
			"name":"rev3.002",
			"translation":[
				2.9220752716064453,
				-0.5954550504684448,
				0.5225472450256348
			]
		},
		{
			"name":"jointSpaceB",
			"rotation":[
				-1.6293411064793872e-08,
				-0.5263841152191162,
				5.257706803263318e-08,
				0.8502469062805176
			],
			"translation":[
				3.4194424152374268,
				0.5530974864959717,
				0.002079530619084835
			]
		},
		{
			"extensions":{
				"KHR_physics_rigid_bodies":{
					"joint":{
						"connectedNode":11,
						"joint":1
					}
				}
			},
			"name":"jointSpaceA",
			"rotation":[
				1.4901161193847656e-08,
				2.0489094865183688e-08,
				6.798654794692993e-08,
				1
			],
			"translation":[
				2.9220752716064453,
				-0.5954550504684448,
				0.5225472450256348
			]
		},
		{
			"name":"jointSpaceB",
			"rotation":[
				5.029142258194952e-08,
				1.5832481992106295e-08,
				1.0617077350616455e-07,
				1
			],
			"translation":[
				-2.8369436264038086,
				-0.6001940965652466,
				-8.851289749145508e-06
			]
		},
		{
			"children":[
				10,
				12,
				13
			],
			"extensions":{
				"KHR_physics_rigid_bodies":{
					"motion":{
						"mass":0.5
					},
					"collider":{
						"geometry":{
							"shape":2
						},
						"physicsMaterial":2,
						"collisionFilter":0
					}
				}
			},
			"extras":{
				"khr_physics_extra_props":{}
			},
			"mesh":2,
			"name":"articulated.015",
			"rotation":[
				0.45586004853248596,
				0.29854169487953186,
				-0.5989075899124146,
				0.5868340730667114
			],
			"translation":[
				-1.2361197471618652,
				10.581900596618652,
				-26.311439514160156
			]
		},
		{
			"extensions":{},
			"extras":{
				"khr_physics_extra_constraint_props":{}
			},
			"name":"rev3.001",
			"translation":[
				2.9345693588256836,
				0.4598006010055542,
				-3.129243850708008e-06
			]
		},
		{
			"extensions":{
				"KHR_physics_rigid_bodies":{
					"joint":{
						"connectedNode":13,
						"joint":1
					}
				}
			},
			"name":"jointSpaceA",
			"rotation":[
				5.029142258194952e-08,
				1.5832481992106295e-08,
				1.0617077350616455e-07,
				1
			],
			"translation":[
				2.9345693588256836,
				0.4598006010055542,
				-3.129243850708008e-06
			]
		},
		{
			"name":"jointSpaceB",
			"rotation":[
				1.4901161193847656e-08,
				2.0023438906946467e-08,
				7.078051567077637e-08,
				1
			],
			"translation":[
				-1.5402004718780518,
				0.4172818660736084,
				0.6338996887207031
			]
		},
		{
			"children":[
				15,
				3,
				16,
				17
			],
			"extensions":{
				"KHR_physics_rigid_bodies":{
					"motion":{
						"mass":0.699999988079071
					},
					"collider":{
						"geometry":{
							"shape":3
						},
						"physicsMaterial":0,
						"collisionFilter":0
					}
				}
			},
			"extras":{
				"khr_physics_extra_props":{}
			},
			"mesh":3,
			"name":"articulated.016",
			"rotation":[
				0.45586004853248596,
				0.29854169487953186,
				-0.5989075899124146,
				0.5868340730667114
			],
			"translation":[
				-2.872069835662842,
				13.20885944366455,
				-21.325786590576172
			]
		},
		{
			"extensions":{
				"KHR_physics_rigid_bodies":{
					"collider":{
						"geometry":{
							"shape":4
						},
						"physicsMaterial":3,
						"collisionFilter":0
					}
				}
			},
			"extras":{
				"khr_physics_extra_props":{}
			},
			"mesh":4,
			"name":"Cube.001",
			"translation":[
				-2.030658483505249,
				1.9911917448043823,
				19.251035690307617
			]
		},
		{
			"extensions":{
				"KHR_physics_rigid_bodies":{
					"motion":{
						"mass":3
					},
					"collider":{
						"geometry":{
							"shape":5
						},
						"physicsMaterial":4,
						"collisionFilter":0
					}
				}
			},
			"extras":{
				"khr_physics_extra_props":{}
			},
			"mesh":5,
			"name":"Cube.002",
			"rotation":[
				0.5,
				-0.5,
				-0.5,
				0.5000000596046448
			],
			"translation":[
				-2.2384443283081055,
				8.328068733215332,
				-13.07510757446289
			]
		},
		{
			"extensions":{
				"KHR_physics_rigid_bodies":{
					"motion":{
						"mass":3
					},
					"collider":{
						"geometry":{
							"shape":6
						},
						"physicsMaterial":4,
						"collisionFilter":0
					}
				}
			},
			"extras":{
				"khr_physics_extra_props":{}
			},
			"mesh":6,
			"name":"Cube.003",
			"rotation":[
				0.5,
				-0.5,
				-0.5,
				0.5000000596046448
			],
			"translation":[
				-2.2384445667266846,
				8.328068733215332,
				-7.229076385498047
			]
		},
		{
			"extensions":{
				"KHR_physics_rigid_bodies":{
					"motion":{
						"mass":3
					},
					"collider":{
						"geometry":{
							"shape":7
						},
						"physicsMaterial":4,
						"collisionFilter":0
					}
				}
			},
			"extras":{
				"khr_physics_extra_props":{}
			},
			"mesh":7,
			"name":"Cube.004",
			"rotation":[
				0.5,
				-0.5,
				-0.5,
				0.5000000596046448
			],
			"translation":[
				-2.2384448051452637,
				8.328068733215332,
				-1.3830451965332031
			]
		},
		{
			"extensions":{
				"KHR_physics_rigid_bodies":{
					"motion":{
						"mass":3
					},
					"collider":{
						"geometry":{
							"shape":7
						},
						"physicsMaterial":4,
						"collisionFilter":0
					}
				}
			},
			"extras":{
				"khr_physics_extra_props":{}
			},
			"mesh":8,
			"name":"Cube.005",
			"rotation":[
				0.5,
				-0.5,
				-0.5,
				0.5000000596046448
			],
			"translation":[
				-2.2384450435638428,
				8.328068733215332,
				4.462983131408691
			]
		},
		{
			"extensions":{
				"KHR_physics_rigid_bodies":{
					"motion":{
						"mass":3
					},
					"collider":{
						"geometry":{
							"shape":7
						},
						"physicsMaterial":4,
						"collisionFilter":0
					}
				}
			},
			"extras":{
				"khr_physics_extra_props":{}
			},
			"mesh":9,
			"name":"Cube.006",
			"rotation":[
				0.5,
				-0.5,
				-0.5,
				0.5000000596046448
			],
			"translation":[
				-2.238445281982422,
				8.328068733215332,
				10.309014320373535
			]
		},
		{
			"extensions":{
				"KHR_physics_rigid_bodies":{
					"motion":{
						"mass":3
					},
					"collider":{
						"geometry":{
							"shape":8
						},
						"physicsMaterial":4,
						"collisionFilter":0
					}
				}
			},
			"extras":{
				"khr_physics_extra_props":{}
			},
			"mesh":10,
			"name":"Cube.007",
			"rotation":[
				0.5,
				-0.5,
				-0.5,
				0.5000000596046448
			],
			"translation":[
				-2.238445520401001,
				8.328068733215332,
				16.155044555664062
			]
		},
		{
			"extensions":{
				"KHR_physics_rigid_bodies":{
					"motion":{
						"mass":3
					},
					"collider":{
						"geometry":{
							"shape":9
						},
						"physicsMaterial":4,
						"collisionFilter":0
					}
				}
			},
			"extras":{
				"khr_physics_extra_props":{}
			},
			"mesh":11,
			"name":"Cube.008",
			"rotation":[
				0.5,
				-0.5,
				-0.5,
				0.5000000596046448
			],
			"translation":[
				-2.23844575881958,
				8.328068733215332,
				22.001075744628906
			]
		},
		{
			"extensions":{
				"KHR_physics_rigid_bodies":{
					"motion":{
						"mass":3
					},
					"collider":{
						"geometry":{
							"shape":9
						},
						"physicsMaterial":4,
						"collisionFilter":0
					}
				}
			},
			"extras":{
				"khr_physics_extra_props":{}
			},
			"mesh":12,
			"name":"Cube.009",
			"rotation":[
				0.5,
				-0.5,
				-0.5,
				0.5000000596046448
			],
			"translation":[
				-2.2384462356567383,
				8.328068733215332,
				27.84710693359375
			]
		},
		{
			"extensions":{
				"KHR_physics_rigid_bodies":{
					"motion":{
						"mass":3
					},
					"collider":{
						"geometry":{
							"shape":9
						},
						"physicsMaterial":4,
						"collisionFilter":0
					}
				}
			},
			"extras":{
				"khr_physics_extra_props":{}
			},
			"mesh":13,
			"name":"Cube.010",
			"rotation":[
				0.5,
				-0.5,
				-0.5,
				0.5000000596046448
			],
			"translation":[
				-2.2384464740753174,
				8.328068733215332,
				33.693138122558594
			]
		},
		{
			"extensions":{
				"KHR_physics_rigid_bodies":{
					"motion":{
						"mass":3
					},
					"collider":{
						"geometry":{
							"shape":8
						},
						"physicsMaterial":4,
						"collisionFilter":0
					}
				}
			},
			"extras":{
				"khr_physics_extra_props":{}
			},
			"mesh":14,
			"name":"Cube.011",
			"rotation":[
				0.5,
				-0.5,
				-0.5,
				0.5000000596046448
			],
			"translation":[
				-2.2384467124938965,
				8.328068733215332,
				39.5391731262207
			]
		},
		{
			"extensions":{
				"KHR_physics_rigid_bodies":{
					"motion":{
						"mass":3
					},
					"collider":{
						"geometry":{
							"shape":8
						},
						"physicsMaterial":4,
						"collisionFilter":0
					}
				}
			},
			"extras":{
				"khr_physics_extra_props":{}
			},
			"mesh":15,
			"name":"Cube.012",
			"rotation":[
				0.5,
				-0.5,
				-0.5,
				0.5000000596046448
			],
			"translation":[
				-2.2384469509124756,
				8.328068733215332,
				45.385196685791016
			]
		},
		{
			"extensions":{},
			"extras":{
				"khr_physics_extra_constraint_props":{}
			},
			"name":"rev3.004",
			"rotation":[
				0,
				-0.5263841152191162,
				0,
				0.8502469062805176
			],
			"translation":[
				-3.7300524711608887,
				0.6207956671714783,
				-0.3206764757633209
			]
		},
		{
			"name":"jointSpaceB",
			"rotation":[
				5.1535050005213634e-08,
				-0.9397251009941101,
				3.2704935648553146e-08,
				0.34193098545074463
			],
			"translation":[
				-4.508945941925049,
				-0.5399335622787476,
				-0.031794846057891846
			]
		},
		{
			"extensions":{
				"KHR_physics_rigid_bodies":{
					"joint":{
						"connectedNode":32,
						"joint":1
					}
				}
			},
			"name":"jointSpaceA",
			"rotation":[
				-1.41027003408567e-08,
				-0.5263841152191162,
				5.038635109144707e-08,
				0.8502469062805176
			],
			"translation":[
				-3.7300524711608887,
				0.6207956671714783,
				-0.3206764757633209
			]
		},
		{
			"children":[
				31,
				11,
				33
			],
			"extensions":{
				"KHR_physics_rigid_bodies":{
					"motion":{
						"mass":0.5
					},
					"collider":{
						"geometry":{
							"shape":2
						},
						"physicsMaterial":2,
						"collisionFilter":0
					}
				}
			},
			"extras":{
				"khr_physics_extra_props":{}
			},
			"mesh":16,
			"name":"articulated.001",
			"rotation":[
				0.7028489708900452,
				0.5627343058586121,
				-0.26926180720329285,
				0.3418062627315521
			],
			"translation":[
				-2.911306381225586,
				6.935734748840332,
				-26.311439514160156
			]
		},
		{
			"extensions":{},
			"extras":{
				"khr_physics_extra_constraint_props":{}
			},
			"name":"rev3.003",
			"rotation":[
				0,
				-0.9397251009941101,
				0,
				0.34193098545074463
			],
			"translation":[
				4.616940021514893,
				-0.6548874378204346,
				0.33324533700942993
			]
		},
		{
			"extensions":{
				"KHR_physics_rigid_bodies":{
					"joint":{
						"connectedNode":17,
						"joint":1
					}
				}
			},
			"name":"jointSpaceA",
			"rotation":[
				4.3606576127785956e-08,
				-0.9397251009941101,
				4.1624463875677975e-08,
				0.34193098545074463
			],
			"translation":[
				4.616940021514893,
				-0.6548874378204346,
				0.33324533700942993
			]
		},
		{
			"children":[
				35,
				32,
				36
			],
			"extensions":{
				"KHR_physics_rigid_bodies":{
					"motion":{
						"mass":0.5
					},
					"collider":{
						"geometry":{
							"shape":10
						},
						"physicsMaterial":2,
						"collisionFilter":0
					}
				}
			},
			"extras":{
				"khr_physics_extra_props":{}
			},
			"mesh":17,
			"name":"articulated.002",
			"rotation":[
				-0.7186810970306396,
				-0.6535433530807495,
				-0.22359809279441833,
				0.07989031821489334
			],
			"translation":[
				-2.394976854324341,
				8.856073379516602,
				-21.167724609375
			]
		}
	],
	"meshes":[
		{
			"name":"Cube.002",
			"primitives":[
				{
					"attributes":{
						"POSITION":0,
						"NORMAL":1,
						"TEXCOORD_0":2
					},
					"indices":3
				}
			]
		},
		{
			"name":"Cube.003",
			"primitives":[
				{
					"attributes":{
						"POSITION":4,
						"NORMAL":5,
						"TEXCOORD_0":6
					},
					"indices":7
				}
			]
		},
		{
			"name":"Cube.007",
			"primitives":[
				{
					"attributes":{
						"POSITION":8,
						"NORMAL":9,
						"TEXCOORD_0":10
					},
					"indices":7
				}
			]
		},
		{
			"name":"Cube.008",
			"primitives":[
				{
					"attributes":{
						"POSITION":11,
						"NORMAL":12,
						"TEXCOORD_0":13
					},
					"indices":7
				}
			]
		},
		{
			"name":"Cube.011",
			"primitives":[
				{
					"attributes":{
						"POSITION":14,
						"NORMAL":15,
						"TEXCOORD_0":16
					},
					"indices":17
				}
			]
		},
		{
			"name":"Cube.012",
			"primitives":[
				{
					"attributes":{
						"POSITION":18,
						"NORMAL":19,
						"TEXCOORD_0":20
					},
					"indices":17
				}
			]
		},
		{
			"name":"Cube.013",
			"primitives":[
				{
					"attributes":{
						"POSITION":21,
						"NORMAL":22,
						"TEXCOORD_0":23
					},
					"indices":7
				}
			]
		},
		{
			"name":"Cube.014",
			"primitives":[
				{
					"attributes":{
						"POSITION":24,
						"NORMAL":25,
						"TEXCOORD_0":26
					},
					"indices":7
				}
			]
		},
		{
			"name":"Cube.015",
			"primitives":[
				{
					"attributes":{
						"POSITION":27,
						"NORMAL":28,
						"TEXCOORD_0":29
					},
					"indices":7
				}
			]
		},
		{
			"name":"Cube.016",
			"primitives":[
				{
					"attributes":{
						"POSITION":30,
						"NORMAL":31,
						"TEXCOORD_0":32
					},
					"indices":7
				}
			]
		},
		{
			"name":"Cube.017",
			"primitives":[
				{
					"attributes":{
						"POSITION":33,
						"NORMAL":34,
						"TEXCOORD_0":35
					},
					"indices":7
				}
			]
		},
		{
			"name":"Cube.018",
			"primitives":[
				{
					"attributes":{
						"POSITION":36,
						"NORMAL":37,
						"TEXCOORD_0":38
					},
					"indices":7
				}
			]
		},
		{
			"name":"Cube.019",
			"primitives":[
				{
					"attributes":{
						"POSITION":39,
						"NORMAL":40,
						"TEXCOORD_0":41
					},
					"indices":7
				}
			]
		},
		{
			"name":"Cube.020",
			"primitives":[
				{
					"attributes":{
						"POSITION":42,
						"NORMAL":43,
						"TEXCOORD_0":44
					},
					"indices":7
				}
			]
		},
		{
			"name":"Cube.021",
			"primitives":[
				{
					"attributes":{
						"POSITION":45,
						"NORMAL":46,
						"TEXCOORD_0":47
					},
					"indices":7
				}
			]
		},
		{
			"name":"Cube.022",
			"primitives":[
				{
					"attributes":{
						"POSITION":48,
						"NORMAL":49,
						"TEXCOORD_0":50
					},
					"indices":7
				}
			]
		},
		{
			"name":"Cube.023",
			"primitives":[
				{
					"attributes":{
						"POSITION":51,
						"NORMAL":52,
						"TEXCOORD_0":53
					},
					"indices":7
				}
			]
		},
		{
			"name":"Cube.026",
			"primitives":[
				{
					"attributes":{
						"POSITION":54,
						"NORMAL":55,
						"TEXCOORD_0":56
					},
					"indices":7
				}
			]
		}
	],
	"accessors":[
		{
			"bufferView":0,
			"componentType":5126,
			"count":160,
			"max":[
				7.0010457038879395,
				0.2894466817378998,
				0.7580597400665283
			],
			"min":[
				-7.00103235244751,
				-1.1466952562332153,
				-0.7580592632293701
			],
			"type":"VEC3"
		},
		{
			"bufferView":1,
			"componentType":5126,
			"count":160,
			"type":"VEC3"
		},
		{
			"bufferView":2,
			"componentType":5126,
			"count":160,
			"type":"VEC2"
		},
		{
			"bufferView":3,
			"componentType":5123,
			"count":348,
			"type":"SCALAR"
		},
		{
			"bufferView":4,
			"componentType":5126,
			"count":24,
			"max":[
				7.0010457038879395,
				0.28944671154022217,
				0.22948507964611053
			],
			"min":[
				-7.00103235244751,
				-0.28944700956344604,
				-0.22948519885540009
			],
			"type":"VEC3"
		},
		{
			"bufferView":5,
			"componentType":5126,
			"count":24,
			"type":"VEC3"
		},
		{
			"bufferView":6,
			"componentType":5126,
			"count":24,
			"type":"VEC2"
		},
		{
			"bufferView":7,
			"componentType":5123,
			"count":36,
			"type":"SCALAR"
		},
		{
			"bufferView":8,
			"componentType":5126,
			"count":24,
			"max":[
				3.493797540664673,
				0.457668662071228,
				0.7580589652061462
			],
			"min":[
				-3.493791341781616,
				-0.45766910910606384,
				-0.7580593228340149
			],
			"type":"VEC3"
		},
		{
			"bufferView":9,
			"componentType":5126,
			"count":24,
			"type":"VEC3"
		},
		{
			"bufferView":10,
			"componentType":5126,
			"count":24,
			"type":"VEC2"
		},
		{
			"bufferView":11,
			"componentType":5126,
			"count":24,
			"max":[
				3.493797540664673,
				0.28944671154022217,
				0.7580589652061462
			],
			"min":[
				-3.493791341781616,
				-0.28944700956344604,
				-0.7580593228340149
			],
			"type":"VEC3"
		},
		{
			"bufferView":12,
			"componentType":5126,
			"count":24,
			"type":"VEC3"
		},
		{
			"bufferView":13,
			"componentType":5126,
			"count":24,
			"type":"VEC2"
		},
		{
			"bufferView":14,
			"componentType":5126,
			"count":24,
			"max":[
				10,
				1,
				33.27159118652344
			],
			"min":[
				-10,
				-1,
				-33.27159118652344
			],
			"type":"VEC3"
		},
		{
			"bufferView":15,
			"componentType":5126,
			"count":24,
			"type":"VEC3"
		},
		{
			"bufferView":16,
			"componentType":5126,
			"count":24,
			"type":"VEC2"
		},
		{
			"bufferView":17,
			"componentType":5123,
			"count":36,
			"type":"SCALAR"
		},
		{
			"bufferView":18,
			"componentType":5126,
			"count":24,
			"max":[
				3.2563395500183105,
				0.41757357120513916,
				4.1757354736328125
			],
			"min":[
				-3.2563395500183105,
				-0.41757357120513916,
				-4.1757354736328125
			],
			"type":"VEC3"
		},
		{
			"bufferView":19,
			"componentType":5126,
			"count":24,
			"type":"VEC3"
		},
		{
			"bufferView":20,
			"componentType":5126,
			"count":24,
			"type":"VEC2"
		},
		{
			"bufferView":21,
			"componentType":5126,
			"count":24,
			"max":[
				3.2563395500183105,
				0.4175734519958496,
				4.1757354736328125
			],
			"min":[
				-3.2563395500183105,
				-0.4175734519958496,
				-4.1757354736328125
			],
			"type":"VEC3"
		},
		{
			"bufferView":22,
			"componentType":5126,
			"count":24,
			"type":"VEC3"
		},
		{
			"bufferView":23,
			"componentType":5126,
			"count":24,
			"type":"VEC2"
		},
		{
			"bufferView":24,
			"componentType":5126,
			"count":24,
			"max":[
				3.2563395500183105,
				0.4175739288330078,
				4.1757354736328125
			],
			"min":[
				-3.2563395500183105,
				-0.4175739288330078,
				-4.1757354736328125
			],
			"type":"VEC3"
		},
		{
			"bufferView":25,
			"componentType":5126,
			"count":24,
			"type":"VEC3"
		},
		{
			"bufferView":26,
			"componentType":5126,
			"count":24,
			"type":"VEC2"
		},
		{
			"bufferView":27,
			"componentType":5126,
			"count":24,
			"max":[
				3.2563395500183105,
				0.4175739288330078,
				4.1757354736328125
			],
			"min":[
				-3.2563395500183105,
				-0.4175739288330078,
				-4.1757354736328125
			],
			"type":"VEC3"
		},
		{
			"bufferView":28,
			"componentType":5126,
			"count":24,
			"type":"VEC3"
		},
		{
			"bufferView":29,
			"componentType":5126,
			"count":24,
			"type":"VEC2"
		},
		{
			"bufferView":30,
			"componentType":5126,
			"count":24,
			"max":[
				3.2563395500183105,
				0.4175739288330078,
				4.1757354736328125
			],
			"min":[
				-3.2563395500183105,
				-0.4175739288330078,
				-4.1757354736328125
			],
			"type":"VEC3"
		},
		{
			"bufferView":31,
			"componentType":5126,
			"count":24,
			"type":"VEC3"
		},
		{
			"bufferView":32,
			"componentType":5126,
			"count":24,
			"type":"VEC2"
		},
		{
			"bufferView":33,
			"componentType":5126,
			"count":24,
			"max":[
				3.2563395500183105,
				0.4175758361816406,
				4.1757354736328125
			],
			"min":[
				-3.2563395500183105,
				-0.417572021484375,
				-4.1757354736328125
			],
			"type":"VEC3"
		},
		{
			"bufferView":34,
			"componentType":5126,
			"count":24,
			"type":"VEC3"
		},
		{
			"bufferView":35,
			"componentType":5126,
			"count":24,
			"type":"VEC2"
		},
		{
			"bufferView":36,
			"componentType":5126,
			"count":24,
			"max":[
				3.2563395500183105,
				0.417572021484375,
				4.1757354736328125
			],
			"min":[
				-3.2563395500183105,
				-0.417572021484375,
				-4.1757354736328125
			],
			"type":"VEC3"
		},
		{
			"bufferView":37,
			"componentType":5126,
			"count":24,
			"type":"VEC3"
		},
		{
			"bufferView":38,
			"componentType":5126,
			"count":24,
			"type":"VEC2"
		},
		{
			"bufferView":39,
			"componentType":5126,
			"count":24,
			"max":[
				3.2563395500183105,
				0.417572021484375,
				4.1757354736328125
			],
			"min":[
				-3.2563395500183105,
				-0.417572021484375,
				-4.1757354736328125
			],
			"type":"VEC3"
		},
		{
			"bufferView":40,
			"componentType":5126,
			"count":24,
			"type":"VEC3"
		},
		{
			"bufferView":41,
			"componentType":5126,
			"count":24,
			"type":"VEC2"
		},
		{
			"bufferView":42,
			"componentType":5126,
			"count":24,
			"max":[
				3.2563395500183105,
				0.417572021484375,
				4.1757354736328125
			],
			"min":[
				-3.2563395500183105,
				-0.417572021484375,
				-4.1757354736328125
			],
			"type":"VEC3"
		},
		{
			"bufferView":43,
			"componentType":5126,
			"count":24,
			"type":"VEC3"
		},
		{
			"bufferView":44,
			"componentType":5126,
			"count":24,
			"type":"VEC2"
		},
		{
			"bufferView":45,
			"componentType":5126,
			"count":24,
			"max":[
				3.2563395500183105,
				0.4175682067871094,
				4.1757354736328125
			],
			"min":[
				-3.2563395500183105,
				-0.4175758361816406,
				-4.1757354736328125
			],
			"type":"VEC3"
		},
		{
			"bufferView":46,
			"componentType":5126,
			"count":24,
			"type":"VEC3"
		},
		{
			"bufferView":47,
			"componentType":5126,
			"count":24,
			"type":"VEC2"
		},
		{
			"bufferView":48,
			"componentType":5126,
			"count":24,
			"max":[
				3.2563395500183105,
				0.4175758361816406,
				4.1757354736328125
			],
			"min":[
				-3.2563395500183105,
				-0.4175682067871094,
				-4.1757354736328125
			],
			"type":"VEC3"
		},
		{
			"bufferView":49,
			"componentType":5126,
			"count":24,
			"type":"VEC3"
		},
		{
			"bufferView":50,
			"componentType":5126,
			"count":24,
			"type":"VEC2"
		},
		{
			"bufferView":51,
			"componentType":5126,
			"count":24,
			"max":[
				3.493797540664673,
				0.457668662071228,
				0.7580589652061462
			],
			"min":[
				-3.493791341781616,
				-0.45766910910606384,
				-0.7580593228340149
			],
			"type":"VEC3"
		},
		{
			"bufferView":52,
			"componentType":5126,
			"count":24,
			"type":"VEC3"
		},
		{
			"bufferView":53,
			"componentType":5126,
			"count":24,
			"type":"VEC2"
		},
		{
			"bufferView":54,
			"componentType":5126,
			"count":24,
			"max":[
				4.876599311828613,
				0.457668662071228,
				0.7580589652061462
			],
			"min":[
				-4.876590728759766,
				-0.45766910910606384,
				-0.7580593228340149
			],
			"type":"VEC3"
		},
		{
			"bufferView":55,
			"componentType":5126,
			"count":24,
			"type":"VEC3"
		},
		{
			"bufferView":56,
			"componentType":5126,
			"count":24,
			"type":"VEC2"
		}
	],
	"bufferViews":[
		{
			"buffer":0,
			"byteLength":1920,
			"byteOffset":0,
			"target":34962
		},
		{
			"buffer":0,
			"byteLength":1920,
			"byteOffset":1920,
			"target":34962
		},
		{
			"buffer":0,
			"byteLength":1280,
			"byteOffset":3840,
			"target":34962
		},
		{
			"buffer":0,
			"byteLength":696,
			"byteOffset":5120,
			"target":34963
		},
		{
			"buffer":0,
			"byteLength":288,
			"byteOffset":5816,
			"target":34962
		},
		{
			"buffer":0,
			"byteLength":288,
			"byteOffset":6104,
			"target":34962
		},
		{
			"buffer":0,
			"byteLength":192,
			"byteOffset":6392,
			"target":34962
		},
		{
			"buffer":0,
			"byteLength":72,
			"byteOffset":6584,
			"target":34963
		},
		{
			"buffer":0,
			"byteLength":288,
			"byteOffset":6656,
			"target":34962
		},
		{
			"buffer":0,
			"byteLength":288,
			"byteOffset":6944,
			"target":34962
		},
		{
			"buffer":0,
			"byteLength":192,
			"byteOffset":7232,
			"target":34962
		},
		{
			"buffer":0,
			"byteLength":288,
			"byteOffset":7424,
			"target":34962
		},
		{
			"buffer":0,
			"byteLength":288,
			"byteOffset":7712,
			"target":34962
		},
		{
			"buffer":0,
			"byteLength":192,
			"byteOffset":8000,
			"target":34962
		},
		{
			"buffer":0,
			"byteLength":288,
			"byteOffset":8192,
			"target":34962
		},
		{
			"buffer":0,
			"byteLength":288,
			"byteOffset":8480,
			"target":34962
		},
		{
			"buffer":0,
			"byteLength":192,
			"byteOffset":8768,
			"target":34962
		},
		{
			"buffer":0,
			"byteLength":72,
			"byteOffset":8960,
			"target":34963
		},
		{
			"buffer":0,
			"byteLength":288,
			"byteOffset":9032,
			"target":34962
		},
		{
			"buffer":0,
			"byteLength":288,
			"byteOffset":9320,
			"target":34962
		},
		{
			"buffer":0,
			"byteLength":192,
			"byteOffset":9608,
			"target":34962
		},
		{
			"buffer":0,
			"byteLength":288,
			"byteOffset":9800,
			"target":34962
		},
		{
			"buffer":0,
			"byteLength":288,
			"byteOffset":10088,
			"target":34962
		},
		{
			"buffer":0,
			"byteLength":192,
			"byteOffset":10376,
			"target":34962
		},
		{
			"buffer":0,
			"byteLength":288,
			"byteOffset":10568,
			"target":34962
		},
		{
			"buffer":0,
			"byteLength":288,
			"byteOffset":10856,
			"target":34962
		},
		{
			"buffer":0,
			"byteLength":192,
			"byteOffset":11144,
			"target":34962
		},
		{
			"buffer":0,
			"byteLength":288,
			"byteOffset":11336,
			"target":34962
		},
		{
			"buffer":0,
			"byteLength":288,
			"byteOffset":11624,
			"target":34962
		},
		{
			"buffer":0,
			"byteLength":192,
			"byteOffset":11912,
			"target":34962
		},
		{
			"buffer":0,
			"byteLength":288,
			"byteOffset":12104,
			"target":34962
		},
		{
			"buffer":0,
			"byteLength":288,
			"byteOffset":12392,
			"target":34962
		},
		{
			"buffer":0,
			"byteLength":192,
			"byteOffset":12680,
			"target":34962
		},
		{
			"buffer":0,
			"byteLength":288,
			"byteOffset":12872,
			"target":34962
		},
		{
			"buffer":0,
			"byteLength":288,
			"byteOffset":13160,
			"target":34962
		},
		{
			"buffer":0,
			"byteLength":192,
			"byteOffset":13448,
			"target":34962
		},
		{
			"buffer":0,
			"byteLength":288,
			"byteOffset":13640,
			"target":34962
		},
		{
			"buffer":0,
			"byteLength":288,
			"byteOffset":13928,
			"target":34962
		},
		{
			"buffer":0,
			"byteLength":192,
			"byteOffset":14216,
			"target":34962
		},
		{
			"buffer":0,
			"byteLength":288,
			"byteOffset":14408,
			"target":34962
		},
		{
			"buffer":0,
			"byteLength":288,
			"byteOffset":14696,
			"target":34962
		},
		{
			"buffer":0,
			"byteLength":192,
			"byteOffset":14984,
			"target":34962
		},
		{
			"buffer":0,
			"byteLength":288,
			"byteOffset":15176,
			"target":34962
		},
		{
			"buffer":0,
			"byteLength":288,
			"byteOffset":15464,
			"target":34962
		},
		{
			"buffer":0,
			"byteLength":192,
			"byteOffset":15752,
			"target":34962
		},
		{
			"buffer":0,
			"byteLength":288,
			"byteOffset":15944,
			"target":34962
		},
		{
			"buffer":0,
			"byteLength":288,
			"byteOffset":16232,
			"target":34962
		},
		{
			"buffer":0,
			"byteLength":192,
			"byteOffset":16520,
			"target":34962
		},
		{
			"buffer":0,
			"byteLength":288,
			"byteOffset":16712,
			"target":34962
		},
		{
			"buffer":0,
			"byteLength":288,
			"byteOffset":17000,
			"target":34962
		},
		{
			"buffer":0,
			"byteLength":192,
			"byteOffset":17288,
			"target":34962
		},
		{
			"buffer":0,
			"byteLength":288,
			"byteOffset":17480,
			"target":34962
		},
		{
			"buffer":0,
			"byteLength":288,
			"byteOffset":17768,
			"target":34962
		},
		{
			"buffer":0,
			"byteLength":192,
			"byteOffset":18056,
			"target":34962
		},
		{
			"buffer":0,
			"byteLength":288,
			"byteOffset":18248,
			"target":34962
		},
		{
			"buffer":0,
			"byteLength":288,
			"byteOffset":18536,
			"target":34962
		},
		{
			"buffer":0,
			"byteLength":192,
			"byteOffset":18824,
			"target":34962
		}
	],
	"buffers":[
		{
			"byteLength":19016,
			"uri":"articulated_simplified.bin"
		}
	]
}
