{
	"asset":{
		"generator":"Khronos glTF Blender I/O v4.5.48",
		"version":"2.0"
	},
	"extensionsUsed":[
		"KHR_implicit_shapes",
		"KHR_physics_rigid_bodies"
	],
	"extensions":{
		"KHR_implicit_shapes":{
			"shapes":[
				{
					"type":"box",
					"box":{
						"size":[
							20,
							2,
							20
						]
					}
				},
				{
					"type":"box",
					"box":{
						"size":[
							1.4361435174942017,
							0.5788939595222473,
							1.5161182880401611
						]
					}
				},
				{
					"type":"box",
					"box":{
						"size":[
							14.002091407775879,
							0.5788940191268921,
							0.45897039771080017
						]
					}
				},
				{
					"type":"box",
					"box":{
						"size":[
							6.987595081329346,
							0.9153382182121277,
							0.47822025418281555
						]
					}
				},
				{
					"type":"box",
					"box":{
						"size":[
							6.987595081329346,
							0.9153382182121277,
							1.5161186456680298
						]
					}
				},
				{
					"type":"box",
					"box":{
						"size":[
							6.987595081329346,
							0.5788940191268921,
							1.5161186456680298
						]
					}
				}
			]
		},
		"KHR_physics_rigid_bodies":{
			"physicsMaterials":[
				{
					"staticFriction":0.5,
					"dynamicFriction":0.5,
					"restitution":0.6000000238418579
				},
				{
					"staticFriction":0.3032863736152649,
					"dynamicFriction":0.3032863736152649,
					"restitution":0.31924885511398315
				},
				{
					"staticFriction":0.5,
					"dynamicFriction":0.5,
					"restitution":0
				},
				{
					"staticFriction":0.3032863736152649,
					"dynamicFriction":0.3032863736152649,
					"restitution":0.44999998807907104
				}
			],
			"collisionFilters":[
				{
					"collisionSystems":[
						"System_0"
					],
					"collideWithSystems":[
						"System_0"
					]
				}
			],
			"physicsJoints":[
				{
					"limits":[
						{
							"angularAxes":[
								0,
								2,
								1
							],
							"min":0,
							"max":0
						},
						{
							"linearAxes":[
								2,
								1
							],
							"min":0,
							"max":0
						}
					]
				},
				{
					"limits":[
						{
							"linearAxes":[
								0,
								2,
								1
							],
							"min":0,
							"max":0
						},
						{
							"angularAxes":[
								0,
								2
							],
							"min":0,
							"max":0
						}
					]
				}
			]
		}
	},
	"scene":0,
	"scenes":[
		{
			"extras":{
				"khr_physics_importer_props":{},
				"khr_physics_exporter_props":{},
				"khr_physics_scene_viewer_props":{}
			},
			"name":"Scene",
			"nodes":[
				0,
				1,
				2,
				9,
				12,
				14,
				16,
				22,
				25
			]
		}
	],
	"nodes":[
		{
			"extensions":{
				"KHR_physics_rigid_bodies":{
					"collider":{
						"geometry":{
							"shape":0
						},
						"physicsMaterial":0,
						"collisionFilter":0
					}
				}
			},
			"extras":{
				"khr_physics_extra_props":{}
			},
			"mesh":0,
			"name":"Cube",
			"translation":[
				-2.030658483505249,
				-0.9257420301437378,
				-3.2028751373291016
			]
		},
		{
			"mesh":1,
			"name":"Suzanne",
			"translation":[
				-5.89115047454834,
				12.998873710632324,
				0
			]
		},
		{
			"mesh":2,
			"name":"Suzanne.001",
			"rotation":[
				0,
				-1,
				0,
				7.549790126404332e-08
			],
			"translation":[
				-5.89115047454834,
				12.998873710632324,
				-4.139207363128662
			]
		},
		{
			"extensions":{
				"KHR_physics_rigid_bodies":{
					"collider":{
						"geometry":{
							"shape":1
						},
						"physicsMaterial":1,
						"collisionFilter":0
					}
				}
			},
			"extras":{
				"khr_physics_extra_props":{
					"non_renderable":1
				}
			},
			"name":"articulated.009",
			"rotation":[
				0,
				0,
				-0.7071068286895752,
				0.7071068286895752
			],
			"translation":[
				-1.9943536520004272,
				-0.4286230802536011,
				0
			]
		},
		{
			"extensions":{
				"KHR_physics_rigid_bodies":{
					"collider":{
						"geometry":{
							"shape":1
						},
						"physicsMaterial":1,
						"collisionFilter":0
					}
				}
			},
			"extras":{
				"khr_physics_extra_props":{
					"non_renderable":1
				}
			},
			"name":"articulated.012",
			"rotation":[
				0,
				0,
				-0.7071068286895752,
				0.7071068286895752
			],
			"translation":[
				1.996644377708435,
				-0.42862313985824585,
				0
			]
		},
		{
			"extensions":{},
			"extras":{
				"khr_physics_extra_constraint_props":{}
			},
			"name":"pris2.001",
			"rotation":[
				0,
				-0.4393453896045685,
				0.8983182311058044,
				4.023706878797384e-08
			],
			"translation":[
				-2.920796532634995e-06,
				0,
				-2.2649765014648438e-06
			]
		},
		{
			"name":"jointSpaceB",
			"rotation":[
				0.22948648035526276,
				0.6688318252563477,
				-0.22948643565177917,
				0.6688317060470581
			],
			"translation":[
				-4.256890296936035,
				0.5299978256225586,
				0.02630406618118286
			]
		},
		{
			"extensions":{
				"KHR_physics_rigid_bodies":{
					"joint":{
						"connectedNode":6,
						"joint":0,
						"enableCollision":true
					}
				}
			},
			"name":"jointSpaceA",
			"rotation":[
				1.0910481407222505e-08,
				-0.4393453896045685,
				0.8983182311058044,
				4.023706878797384e-08
			],
			"translation":[
				-2.920796532634995e-06,
				8.344650268554688e-07,
				-2.2649765014648438e-06
			]
		},
		{
			"name":"jointSpaceB",
			"rotation":[
				0.31066420674324036,
				0.31066420674324036,
				-0.6352068185806274,
				0.6352068781852722
			],
			"translation":[
				-6.199931021910743e-07,
				1.7316203117370605,
				0.17612040042877197
			]
		},
		{
			"children":[
				3,
				4,
				5,
				7,
				8
			],
			"extensions":{
				"KHR_physics_rigid_bodies":{
					"motion":{
						"mass":0.699999988079071
					}
				}
			},
			"extras":{
				"khr_physics_extra_props":{}
			},
			"mesh":3,
			"name":"articulated.010",
			"rotation":[
				-0.4220813810825348,
				-0.2493479996919632,
				-0.12195003777742386,
				0.8630185723304749
			],
			"translation":[
				5.675503730773926,
				17.99432945251465,
				-2.7087345123291016
			]
		},
		{
			"extensions":{},
			"extras":{
				"khr_physics_extra_constraint_props":{
					"use_ang_drive_z":0,
					"ang_z_drive_vel_target":0.0
				}
			},
			"name":"rev1.001",
			"rotation":[
				0,
				0,
				-0.7071068286895752,
				0.7071068286895752
			]
		},
		{
			"extensions":{
				"KHR_physics_rigid_bodies":{
					"joint":{
						"connectedNode":8,
						"joint":1
					}
				}
			},
			"name":"jointSpaceA",
			"rotation":[
				0,
				0,
				-0.7071067690849304,
				0.7071067690849304
			],
			"translation":[
				-9.5367431640625e-07,
				0,
				4.76837158203125e-07
			]
		},
		{
			"children":[
				10,
				11
			],
			"extensions":{
				"KHR_physics_rigid_bodies":{
					"collider":{
						"geometry":{
							"shape":2
						},
						"physicsMaterial":2,
						"collisionFilter":0
					}
				}
			},
			"extras":{
				"khr_physics_extra_props":{}
			},
			"mesh":4,
			"name":"articulated.011",
			"rotation":[
				0,
				-0.27757206559181213,
				0,
				0.9607048034667969
			],
			"translation":[
				6.346814155578613,
				19.19647979736328,
				-3.7734909057617188
			]
		},
		{
			"name":"jointSpaceB",
			"rotation":[
				-0.70710688829422,
				-2.5759798738533846e-09,
				-2.4013377952769588e-09,
				0.7071066498756409
			],
			"translation":[
				-2.0617868900299072,
				9.469687938690186e-06,
				0.4038470387458801
			]
		},
		{
			"children":[
				13
			],
			"extensions":{
				"KHR_physics_rigid_bodies":{
					"motion":{
						"mass":3
					},
					"collider":{
						"geometry":{
							"shape":3
						},
						"physicsMaterial":3,
						"collisionFilter":0
					}
				}
			},
			"extras":{
				"khr_physics_extra_props":{}
			},
			"mesh":5,
			"name":"articulated.013",
			"rotation":[
				-0.45690101385116577,
				0.15676970779895782,
				-0.8281990885734558,
				0.28416764736175537
			],
			"translation":[
				-1.423001766204834,
				8.599783897399902,
				6.073887825012207
			]
		},
		{
			"name":"jointSpaceB",
			"rotation":[
				0.7071067690849304,
				2.8670177343315117e-09,
				7.373959221013138e-09,
				0.7071067690849304
			],
			"translation":[
				-2.0617830753326416,
				5.9604644775390625e-06,
				-0.3885993957519531
			]
		},
		{
			"children":[
				15
			],
			"extensions":{
				"KHR_physics_rigid_bodies":{
					"motion":{
						"mass":3
					},
					"collider":{
						"geometry":{
							"shape":3
						},
						"physicsMaterial":1,
						"collisionFilter":0
					}
				}
			},
			"extras":{
				"khr_physics_extra_props":{}
			},
			"mesh":6,
			"name":"articulated.014",
			"rotation":[
				-0.45690101385116577,
				0.15676970779895782,
				-0.8281990885734558,
				0.28416764736175537
			],
			"translation":[
				0.7745969295501709,
				8.599783897399902,
				7.459428787231445
			]
		},
		{
			"extensions":{},
			"extras":{
				"khr_physics_extra_constraint_props":{}
			},
			"name":"rev4.001",
			"rotation":[
				0.7071068286895752,
				0,
				0,
				0.7071068286895752
			],
			"translation":[
				2.530195713043213,
				0,
				0.9149701595306396
			]
		},
		{
			"extensions":{},
			"extras":{
				"khr_physics_extra_constraint_props":{}
			},
			"name":"rev5.001",
			"rotation":[
				-0.70710688829422,
				0,
				0,
				0.7071066498756409
			],
			"translation":[
				2.530195951461792,
				0,
				-0.8904988169670105
			]
		},
		{
			"extensions":{
				"KHR_physics_rigid_bodies":{
					"joint":{
						"connectedNode":15,
						"joint":1
					}
				}
			},
			"name":"jointSpaceA",
			"rotation":[
				0.7071067690849304,
				2.8670177343315117e-09,
				7.373959221013138e-09,
				0.7071067690849304
			],
			"translation":[
				2.530195713043213,
				1.1920928955078125e-06,
				0.9149701595306396
			]
		},
		{
			"extensions":{
				"KHR_physics_rigid_bodies":{
					"joint":{
						"connectedNode":13,
						"joint":1
					}
				}
			},
			"name":"jointSpaceA",
			"rotation":[
				-0.70710688829422,
				-2.5759798738533846e-09,
				-2.4013377952769588e-09,
				0.7071066498756409
			],
			"translation":[
				2.530195951461792,
				8.866190910339355e-07,
				-0.8904988169670105
			]
		},
		{
			"name":"jointSpaceB",
			"rotation":[
				-3.230891820749093e-08,
				1.6850790984790365e-08,
				1.1175872671742582e-08,
				1
			],
			"translation":[
				-2.836949348449707,
				-0.6001952290534973,
				-9.753378435561899e-06
			]
		},
		{
			"children":[
				17,
				18,
				19,
				20,
				21
			],
			"extensions":{
				"KHR_physics_rigid_bodies":{
					"motion":{
						"mass":0.699999988079071
					},
					"collider":{
						"geometry":{
							"shape":4
						},
						"physicsMaterial":1,
						"collisionFilter":0
					}
				}
			},
			"extras":{
				"khr_physics_extra_props":{}
			},
			"mesh":7,
			"name":"articulated.015",
			"rotation":[
				-0.45690101385116577,
				0.15676970779895782,
				-0.8281990885734558,
				0.28416764736175537
			],
			"translation":[
				1.6050331592559814,
				11.419031143188477,
				3.6980743408203125
			]
		},
		{
			"extensions":{},
			"extras":{
				"khr_physics_extra_constraint_props":{}
			},
			"name":"rev3.001",
			"translation":[
				2.9345664978027344,
				0.4597971439361572,
				-4.437673851498403e-06
			]
		},
		{
			"extensions":{
				"KHR_physics_rigid_bodies":{
					"joint":{
						"connectedNode":21,
						"joint":1
					}
				}
			},
			"name":"jointSpaceA",
			"rotation":[
				1.0825059959529426e-08,
				2.7177659234212115e-08,
				1.862645149230957e-08,
				1
			],
			"translation":[
				2.9345664978027344,
				0.4597971439361572,
				-4.437673851498403e-06
			]
		},
		{
			"children":[
				23,
				6,
				24
			],
			"extensions":{
				"KHR_physics_rigid_bodies":{
					"motion":{
						"mass":0.699999988079071
					},
					"collider":{
						"geometry":{
							"shape":5
						},
						"physicsMaterial":1,
						"collisionFilter":0
					}
				}
			},
			"extras":{
				"khr_physics_extra_props":{}
			},
			"mesh":8,
			"name":"articulated.016",
			"rotation":[
				-0.45690101385116577,
				0.15676969289779663,
				-0.8281989693641663,
				0.284167617559433
			],
			"translation":[
				3.6876423358917236,
				15.799159049987793,
				0.3948631286621094
			]
		}
	],
	"meshes":[
		{
			"name":"Cube",
			"primitives":[
				{
					"attributes":{
						"POSITION":0,
						"NORMAL":1,
						"TEXCOORD_0":2
					},
					"indices":3
				}
			]
		},
		{
			"name":"Suzanne",
			"primitives":[
				{
					"attributes":{
						"POSITION":4,
						"NORMAL":5,
						"TEXCOORD_0":6
					},
					"indices":7
				}
			]
		},
		{
			"name":"Suzanne.001",
			"primitives":[
				{
					"attributes":{
						"POSITION":8,
						"NORMAL":9,
						"TEXCOORD_0":10
					},
					"indices":7
				}
			]
		},
		{
			"name":"Cube.002",
			"primitives":[
				{
					"attributes":{
						"POSITION":11,
						"NORMAL":12,
						"TEXCOORD_0":13
					},
					"indices":14
				}
			]
		},
		{
			"name":"Cube.003",
			"primitives":[
				{
					"attributes":{
						"POSITION":15,
						"NORMAL":16,
						"TEXCOORD_0":17
					},
					"indices":18
				}
			]
		},
		{
			"name":"Cube.005",
			"primitives":[
				{
					"attributes":{
						"POSITION":19,
						"NORMAL":20,
						"TEXCOORD_0":21
					},
					"indices":18
				}
			]
		},
		{
			"name":"Cube.006",
			"primitives":[
				{
					"attributes":{
						"POSITION":22,
						"NORMAL":23,
						"TEXCOORD_0":24
					},
					"indices":18
				}
			]
		},
		{
			"name":"Cube.007",
			"primitives":[
				{
					"attributes":{
						"POSITION":25,
						"NORMAL":26,
						"TEXCOORD_0":27
					},
					"indices":18
				}
			]
		},
		{
			"name":"Cube.008",
			"primitives":[
				{
					"attributes":{
						"POSITION":28,
						"NORMAL":29,
						"TEXCOORD_0":30
					},
					"indices":18
				}
			]
		}
	],
	"accessors":[
		{
			"bufferView":0,
			"componentType":5126,
			"count":24,
			"max":[
				10,
				1,
				10
			],
			"min":[
				-10,
				-1,
				-10
			],
			"type":"VEC3"
		},
		{
			"bufferView":1,
			"componentType":5126,
			"count":24,
			"type":"VEC3"
		},
		{
			"bufferView":2,
			"componentType":5126,
			"count":24,
			"type":"VEC2"
		},
		{
			"bufferView":3,
			"componentType":5123,
			"count":36,
			"type":"SCALAR"
		},
		{
			"bufferView":4,
			"componentType":5126,
			"count":1966,
			"max":[
				2.680386781692505,
				1.9298784732818604,
				1.669498085975647
			],
			"min":[
				-2.680386781692505,
				-1.9298784732818604,
				-1.669498085975647
			],
			"type":"VEC3"
		},
		{
			"bufferView":5,
			"componentType":5126,
			"count":1966,
			"type":"VEC3"
		},
		{
			"bufferView":6,
			"componentType":5126,
			"count":1966,
			"type":"VEC2"
		},
		{
			"bufferView":7,
			"componentType":5123,
			"count":2904,
			"type":"SCALAR"
		},
		{
			"bufferView":8,
			"componentType":5126,
			"count":1966,
			"max":[
				2.680386781692505,
				1.9298784732818604,
				1.669498085975647
			],
			"min":[
				-2.680386781692505,
				-1.9298784732818604,
				-1.669498085975647
			],
			"type":"VEC3"
		},
		{
			"bufferView":9,
			"componentType":5126,
			"count":1966,
			"type":"VEC3"
		},
		{
			"bufferView":10,
			"componentType":5126,
			"count":1966,
			"type":"VEC2"
		},
		{
			"bufferView":11,
			"componentType":5126,
			"count":160,
			"max":[
				7.0010457038879395,
				0.28944671154022217,
				0.7580597996711731
			],
			"min":[
				-7.00103235244751,
				-1.1466953754425049,
				-0.7580593228340149
			],
			"type":"VEC3"
		},
		{
			"bufferView":12,
			"componentType":5126,
			"count":160,
			"type":"VEC3"
		},
		{
			"bufferView":13,
			"componentType":5126,
			"count":160,
			"type":"VEC2"
		},
		{
			"bufferView":14,
			"componentType":5123,
			"count":348,
			"type":"SCALAR"
		},
		{
			"bufferView":15,
			"componentType":5126,
			"count":24,
			"max":[
				7.0010457038879395,
				0.28944671154022217,
				0.22948507964611053
			],
			"min":[
				-7.00103235244751,
				-0.28944700956344604,
				-0.22948519885540009
			],
			"type":"VEC3"
		},
		{
			"bufferView":16,
			"componentType":5126,
			"count":24,
			"type":"VEC3"
		},
		{
			"bufferView":17,
			"componentType":5126,
			"count":24,
			"type":"VEC2"
		},
		{
			"bufferView":18,
			"componentType":5123,
			"count":36,
			"type":"SCALAR"
		},
		{
			"bufferView":19,
			"componentType":5126,
			"count":24,
			"max":[
				3.493797540664673,
				0.457668662071228,
				0.23911000788211823
			],
			"min":[
				-3.493791341781616,
				-0.45766910910606384,
				-0.23911012709140778
			],
			"type":"VEC3"
		},
		{
			"bufferView":20,
			"componentType":5126,
			"count":24,
			"type":"VEC3"
		},
		{
			"bufferView":21,
			"componentType":5126,
			"count":24,
			"type":"VEC2"
		},
		{
			"bufferView":22,
			"componentType":5126,
			"count":24,
			"max":[
				3.493797540664673,
				0.457668662071228,
				0.23911000788211823
			],
			"min":[
				-3.493791341781616,
				-0.45766910910606384,
				-0.23911012709140778
			],
			"type":"VEC3"
		},
		{
			"bufferView":23,
			"componentType":5126,
			"count":24,
			"type":"VEC3"
		},
		{
			"bufferView":24,
			"componentType":5126,
			"count":24,
			"type":"VEC2"
		},
		{
			"bufferView":25,
			"componentType":5126,
			"count":24,
			"max":[
				3.493797540664673,
				0.457668662071228,
				0.7580589652061462
			],
			"min":[
				-3.493791341781616,
				-0.45766910910606384,
				-0.7580593228340149
			],
			"type":"VEC3"
		},
		{
			"bufferView":26,
			"componentType":5126,
			"count":24,
			"type":"VEC3"
		},
		{
			"bufferView":27,
			"componentType":5126,
			"count":24,
			"type":"VEC2"
		},
		{
			"bufferView":28,
			"componentType":5126,
			"count":24,
			"max":[
				3.493797540664673,
				0.28944671154022217,
				0.7580589652061462
			],
			"min":[
				-3.493791341781616,
				-0.28944700956344604,
				-0.7580593228340149
			],
			"type":"VEC3"
		},
		{
			"bufferView":29,
			"componentType":5126,
			"count":24,
			"type":"VEC3"
		},
		{
			"bufferView":30,
			"componentType":5126,
			"count":24,
			"type":"VEC2"
		}
	],
	"bufferViews":[
		{
			"buffer":0,
			"byteLength":288,
			"byteOffset":0,
			"target":34962
		},
		{
			"buffer":0,
			"byteLength":288,
			"byteOffset":288,
			"target":34962
		},
		{
			"buffer":0,
			"byteLength":192,
			"byteOffset":576,
			"target":34962
		},
		{
			"buffer":0,
			"byteLength":72,
			"byteOffset":768,
			"target":34963
		},
		{
			"buffer":0,
			"byteLength":23592,
			"byteOffset":840,
			"target":34962
		},
		{
			"buffer":0,
			"byteLength":23592,
			"byteOffset":24432,
			"target":34962
		},
		{
			"buffer":0,
			"byteLength":15728,
			"byteOffset":48024,
			"target":34962
		},
		{
			"buffer":0,
			"byteLength":5808,
			"byteOffset":63752,
			"target":34963
		},
		{
			"buffer":0,
			"byteLength":23592,
			"byteOffset":69560,
			"target":34962
		},
		{
			"buffer":0,
			"byteLength":23592,
			"byteOffset":93152,
			"target":34962
		},
		{
			"buffer":0,
			"byteLength":15728,
			"byteOffset":116744,
			"target":34962
		},
		{
			"buffer":0,
			"byteLength":1920,
			"byteOffset":132472,
			"target":34962
		},
		{
			"buffer":0,
			"byteLength":1920,
			"byteOffset":134392,
			"target":34962
		},
		{
			"buffer":0,
			"byteLength":1280,
			"byteOffset":136312,
			"target":34962
		},
		{
			"buffer":0,
			"byteLength":696,
			"byteOffset":137592,
			"target":34963
		},
		{
			"buffer":0,
			"byteLength":288,
			"byteOffset":138288,
			"target":34962
		},
		{
			"buffer":0,
			"byteLength":288,
			"byteOffset":138576,
			"target":34962
		},
		{
			"buffer":0,
			"byteLength":192,
			"byteOffset":138864,
			"target":34962
		},
		{
			"buffer":0,
			"byteLength":72,
			"byteOffset":139056,
			"target":34963
		},
		{
			"buffer":0,
			"byteLength":288,
			"byteOffset":139128,
			"target":34962
		},
		{
			"buffer":0,
			"byteLength":288,
			"byteOffset":139416,
			"target":34962
		},
		{
			"buffer":0,
			"byteLength":192,
			"byteOffset":139704,
			"target":34962
		},
		{
			"buffer":0,
			"byteLength":288,
			"byteOffset":139896,
			"target":34962
		},
		{
			"buffer":0,
			"byteLength":288,
			"byteOffset":140184,
			"target":34962
		},
		{
			"buffer":0,
			"byteLength":192,
			"byteOffset":140472,
			"target":34962
		},
		{
			"buffer":0,
			"byteLength":288,
			"byteOffset":140664,
			"target":34962
		},
		{
			"buffer":0,
			"byteLength":288,
			"byteOffset":140952,
			"target":34962
		},
		{
			"buffer":0,
			"byteLength":192,
			"byteOffset":141240,
			"target":34962
		},
		{
			"buffer":0,
			"byteLength":288,
			"byteOffset":141432,
			"target":34962
		},
		{
			"buffer":0,
			"byteLength":288,
			"byteOffset":141720,
			"target":34962
		},
		{
			"buffer":0,
			"byteLength":192,
			"byteOffset":142008,
			"target":34962
		}
	],
	"buffers":[
		{
			"byteLength":142200,
			"uri":"articulated_simplified_inner_collision_bug.bin"
		}
	]
}
