{
	"asset":{
		"generator":"Khronos glTF Blender I/O v4.5.48",
		"version":"2.0"
	},
	"extensionsUsed":[
		"KHR_physics_rigid_bodies",
		"KHR_implicit_shapes"
	],
	"extensions":{
		"KHR_physics_rigid_bodies":{
			"physicsJoints":[
				{
					"limits":[
						{
							"linearAxes":[
								0,
								2,
								1
							],
							"min":0,
							"max":0
						},
						{
							"angularAxes":[
								0,
								2
							],
							"min":0,
							"max":0
						}
					]
				}
			],
			"physicsMaterials":[
				{
					"staticFriction":0.3674698770046234,
					"dynamicFriction":0.3674698770046234,
					"restitution":0.34939759969711304
				},
				{
					"staticFriction":0.5,
					"dynamicFriction":0.5,
					"restitution":0
				},
				{
					"staticFriction":0.27108433842658997,
					"dynamicFriction":0.27108433842658997,
					"restitution":0.20883534848690033
				}
			],
			"collisionFilters":[
				{
					"collisionSystems":[
						"System_0"
					],
					"collideWithSystems":[
						"System_0"
					]
				}
			]
		},
		"KHR_implicit_shapes":{
			"shapes":[
				{
					"type":"box",
					"box":{
						"size":[
							12.02254581451416,
							6.01127290725708,
							20.569515228271484
						]
					}
				},
				{
					"type":"box",
					"box":{
						"size":[
							1.1197898387908936,
							12.31024169921875,
							1.599699854850769
						]
					}
				},
				{
					"type":"box",
					"box":{
						"size":[
							12.02254581451416,
							3,
							15.000000953674316
						]
					}
				},
				{
					"type":"sphere",
					"sphere":{
						"radius":1
					}
				}
			]
		}
	},
	"scene":0,
	"scenes":[
		{
			"extras":{
				"khr_physics_importer_props":{},
				"khr_physics_exporter_props":{},
				"khr_physics_scene_viewer_props":{}
			},
			"name":"Scene",
			"nodes":[
				6,
				11,
				12,
				14,
				17,
				20,
				21,
				22,
				23
			]
		}
	],
	"nodes":[
		{
			"extensions":{},
			"extras":{
				"khr_physics_extra_constraint_props":{}
			},
			"name":"Empty.001",
			"rotation":[
				0,
				0,
				0.7071068286895752,
				0.7071068286895752
			],
			"translation":[
				3.285881280899048,
				3.156928062438965,
				-4.506562232971191
			]
		},
		{
			"extensions":{},
			"extras":{
				"khr_physics_extra_constraint_props":{}
			},
			"name":"Empty.008",
			"rotation":[
				0,
				0,
				0.7071068286895752,
				0.7071068286895752
			],
			"translation":[
				-5.427750110626221,
				3.156928539276123,
				-4.506562232971191
			]
		},
		{
			"name":"jointSpaceB",
			"rotation":[
				-0.1830127090215683,
				0.1830126941204071,
				0.6830126643180847,
				0.6830127239227295
			],
			"translation":[
				-0.02413201332092285,
				-6.159593105316162,
				0.8066444396972656
			]
		},
		{
			"extensions":{
				"KHR_physics_rigid_bodies":{
					"joint":{
						"connectedNode":2,
						"joint":0
					}
				}
			},
			"name":"jointSpaceA",
			"rotation":[
				0,
				0,
				0.7071067690849304,
				0.7071067690849304
			],
			"translation":[
				3.285881280899048,
				3.156928062438965,
				-4.506562232971191
			]
		},
		{
			"name":"jointSpaceB",
			"rotation":[
				-0.1830127090215683,
				0.1830126941204071,
				0.6830126643180847,
				0.6830127239227295
			],
			"translation":[
				-0.10206270217895508,
				-6.159592628479004,
				0.8066442012786865
			]
		},
		{
			"extensions":{
				"KHR_physics_rigid_bodies":{
					"joint":{
						"connectedNode":4,
						"joint":0
					}
				}
			},
			"name":"jointSpaceA",
			"rotation":[
				0,
				0,
				0.7071067690849304,
				0.7071067690849304
			],
			"translation":[
				-5.427750110626221,
				3.156928539276123,
				-4.506562232971191
			]
		},
		{
			"children":[
				0,
				1,
				3,
				5
			],
			"extensions":{
				"KHR_physics_rigid_bodies":{
					"collider":{
						"geometry":{
							"shape":0
						},
						"physicsMaterial":0,
						"collisionFilter":0
					}
				}
			},
			"extras":{
				"khr_physics_extra_props":{}
			},
			"mesh":0,
			"name":"Cube",
			"translation":[
				-2.156787395477295,
				3.189406394958496,
				1.134577989578247
			]
		},
		{
			"extensions":{},
			"extras":{
				"khr_physics_extra_constraint_props":{}
			},
			"name":"Empty",
			"rotation":[
				-0.1830127090215683,
				-0.1830126941204071,
				-0.6830126643180847,
				0.6830127239227295
			],
			"translation":[
				0.7949445247650146,
				0,
				0
			]
		},
		{
			"extensions":{},
			"extras":{
				"khr_physics_extra_constraint_props":{}
			},
			"name":"Empty.003",
			"rotation":[
				-0.1830127090215683,
				-0.1830126941204071,
				-0.6830126643180847,
				0.6830127239227295
			],
			"translation":[
				0.7949442863464355,
				5.320672035217285,
				0.07651519775390625
			]
		},
		{
			"name":"jointSpaceB",
			"rotation":[
				0.1830127090215683,
				0.1830126941204071,
				-0.6830126643180847,
				0.6830127239227295
			],
			"translation":[
				-0.6654050350189209,
				1.1920928955078125e-07,
				-2.980232238769531e-07
			]
		},
		{
			"extensions":{
				"KHR_physics_rigid_bodies":{
					"joint":{
						"connectedNode":9,
						"joint":0
					}
				}
			},
			"name":"jointSpaceA",
			"rotation":[
				-0.1830127090215683,
				-0.1830126941204071,
				-0.6830126643180847,
				0.6830127239227295
			],
			"translation":[
				0.7949445247650146,
				-1.1920928955078125e-07,
				-2.980232238769531e-07
			]
		},
		{
			"children":[
				7,
				8,
				2,
				10
			],
			"extensions":{
				"KHR_physics_rigid_bodies":{
					"motion":{
						"mass":1
					},
					"collider":{
						"geometry":{
							"shape":1
						},
						"physicsMaterial":1,
						"collisionFilter":0
					}
				}
			},
			"extras":{
				"khr_physics_extra_props":{}
			},
			"mesh":1,
			"name":"Cube.001",
			"rotation":[
				0.2588190734386444,
				0,
				0,
				0.965925931930542
			],
			"translation":[
				1.1532258987426758,
				12.084020614624023,
				-0.9907628297805786
			]
		},
		{
			"children":[
				9
			],
			"extensions":{
				"KHR_physics_rigid_bodies":{
					"motion":{
						"mass":1
					},
					"collider":{
						"geometry":{
							"shape":1
						},
						"physicsMaterial":2,
						"collisionFilter":0
					}
				}
			},
			"extras":{
				"khr_physics_extra_props":{}
			},
			"mesh":2,
			"name":"Cube.002",
			"rotation":[
				-0.2588190734386444,
				0,
				0,
				0.965925931930542
			],
			"translation":[
				2.6135754585266113,
				12.084020614624023,
				-0.9907628297805786
			]
		},
		{
			"extensions":{},
			"extras":{
				"khr_physics_extra_constraint_props":{}
			},
			"name":"Empty.013",
			"rotation":[
				0.1830126792192459,
				0.1830127090215683,
				-0.6830126047134399,
				0.683012843132019
			],
			"translation":[
				0.6305451393127441,
				-2.652406692504883e-06,
				0
			]
		},
		{
			"children":[
				13
			],
			"extensions":{
				"KHR_physics_rigid_bodies":{
					"motion":{
						"mass":1
					},
					"collider":{
						"geometry":{
							"shape":1
						},
						"physicsMaterial":2,
						"collisionFilter":0
					}
				}
			},
			"extras":{
				"khr_physics_extra_props":{}
			},
			"mesh":3,
			"name":"Cube.007",
			"rotation":[
				-0.2588190734386444,
				0,
				0,
				0.965925931930542
			],
			"translation":[
				-6.022125720977783,
				12.084020614624023,
				-0.9907628297805786
			]
		},
		{
			"extensions":{},
			"extras":{
				"khr_physics_extra_constraint_props":{}
			},
			"name":"Empty.006",
			"rotation":[
				-0.1830127090215683,
				-0.1830126941204071,
				-0.6830126643180847,
				0.6830127239227295
			],
			"translation":[
				0.7949433326721191,
				5.320672035217285,
				0.07651519775390625
			]
		},
		{
			"extensions":{},
			"extras":{
				"khr_physics_extra_constraint_props":{}
			},
			"name":"Empty.009",
			"rotation":[
				-0.1830127090215683,
				-0.1830126941204071,
				-0.6830126643180847,
				0.6830127239227295
			],
			"translation":[
				0.7949438095092773,
				0,
				0
			]
		},
		{
			"children":[
				15,
				16,
				4
			],
			"extensions":{
				"KHR_physics_rigid_bodies":{
					"motion":{
						"mass":1
					},
					"collider":{
						"geometry":{
							"shape":1
						},
						"physicsMaterial":1,
						"collisionFilter":0
					}
				}
			},
			"extras":{
				"khr_physics_extra_props":{}
			},
			"mesh":4,
			"name":"Cube.008",
			"rotation":[
				0.2588190734386444,
				0,
				0,
				0.965925931930542
			],
			"translation":[
				-7.482475280761719,
				12.084020614624023,
				-0.9907628297805786
			]
		},
		{
			"extensions":{},
			"extras":{
				"khr_physics_extra_constraint_props":{}
			},
			"name":"Empty.012",
			"rotation":[
				0,
				0,
				-1,
				1.9470718370939721e-07
			],
			"translation":[
				0,
				-2.978095531463623,
				0
			]
		},
		{
			"mesh":5,
			"name":"physicsMeshDataNode",
			"rotation":[
				0,
				0,
				0,
				1
			],
			"translation":[
				0,
				0,
				0
			]
		},
		{
			"children":[
				18
			],
			"extensions":{
				"KHR_physics_rigid_bodies":{
					"motion":{
						"mass":0.6000000238418579
					},
					"collider":{
						"geometry":{
							"convexHull":true,
							"node":19
						},
						"physicsMaterial":1,
						"collisionFilter":0
					}
				}
			},
			"extras":{
				"khr_physics_extra_props":{}
			},
			"mesh":5,
			"name":"Cylinder.001",
			"rotation":[
				0,
				0,
				0.7071068286895752,
				0.7071068286895752
			],
			"translation":[
				-2.430295467376709,
				12.084020614624023,
				-0.9907629489898682
			]
		},
		{
			"extensions":{
				"KHR_physics_rigid_bodies":{
					"motion":{
						"mass":1
					},
					"collider":{
						"geometry":{
							"shape":2
						},
						"physicsMaterial":0,
						"collisionFilter":0
					}
				}
			},
			"extras":{
				"khr_physics_extra_props":{}
			},
			"mesh":6,
			"name":"Cube.009",
			"translation":[
				-2.4399051666259766,
				31.951553344726562,
				-0.5662788152694702
			]
		},
		{
			"extensions":{
				"KHR_physics_rigid_bodies":{
					"collider":{
						"geometry":{
							"shape":3
						},
						"physicsMaterial":1,
						"collisionFilter":0
					}
				}
			},
			"extras":{
				"khr_physics_extra_props":{}
			},
			"mesh":7,
			"name":"Sphere",
			"translation":[
				-6.023619174957275,
				7.549118995666504,
				8.485081672668457
			]
		},
		{
			"extensions":{
				"KHR_physics_rigid_bodies":{
					"collider":{
						"geometry":{
							"shape":3
						},
						"physicsMaterial":1,
						"collisionFilter":0
					}
				}
			},
			"extras":{
				"khr_physics_extra_props":{}
			},
			"mesh":8,
			"name":"Sphere.001",
			"translation":[
				2.6294312477111816,
				7.549118995666504,
				8.485081672668457
			]
		}
	],
	"meshes":[
		{
			"name":"Cube",
			"primitives":[
				{
					"attributes":{
						"POSITION":0,
						"NORMAL":1,
						"TEXCOORD_0":2
					},
					"indices":3
				}
			]
		},
		{
			"name":"Cube.005",
			"primitives":[
				{
					"attributes":{
						"POSITION":4,
						"NORMAL":5,
						"TEXCOORD_0":6
					},
					"indices":3
				}
			]
		},
		{
			"name":"Cube.006",
			"primitives":[
				{
					"attributes":{
						"POSITION":7,
						"NORMAL":8,
						"TEXCOORD_0":9
					},
					"indices":3
				}
			]
		},
		{
			"name":"Cube.014",
			"primitives":[
				{
					"attributes":{
						"POSITION":10,
						"NORMAL":11,
						"TEXCOORD_0":12
					},
					"indices":3
				}
			]
		},
		{
			"name":"Cube.015",
			"primitives":[
				{
					"attributes":{
						"POSITION":13,
						"NORMAL":14,
						"TEXCOORD_0":15
					},
					"indices":3
				}
			]
		},
		{
			"name":"Cylinder.002",
			"primitives":[
				{
					"attributes":{
						"POSITION":16,
						"NORMAL":17,
						"TEXCOORD_0":18
					},
					"indices":19
				}
			]
		},
		{
			"name":"Cube.017",
			"primitives":[
				{
					"attributes":{
						"POSITION":20,
						"NORMAL":21,
						"TEXCOORD_0":22
					},
					"indices":3
				}
			]
		},
		{
			"name":"Sphere",
			"primitives":[
				{
					"attributes":{
						"POSITION":23,
						"NORMAL":24,
						"TEXCOORD_0":25
					},
					"indices":26
				}
			]
		},
		{
			"name":"Sphere.002",
			"primitives":[
				{
					"attributes":{
						"POSITION":27,
						"NORMAL":28,
						"TEXCOORD_0":29
					},
					"indices":26
				}
			]
		}
	],
	"accessors":[
		{
			"bufferView":0,
			"componentType":5126,
			"count":24,
			"max":[
				6.01127290725708,
				3.00563645362854,
				10.284757614135742
			],
			"min":[
				-6.01127290725708,
				-3.00563645362854,
				-10.284757614135742
			],
			"type":"VEC3"
		},
		{
			"bufferView":1,
			"componentType":5126,
			"count":24,
			"type":"VEC3"
		},
		{
			"bufferView":2,
			"componentType":5126,
			"count":24,
			"type":"VEC2"
		},
		{
			"bufferView":3,
			"componentType":5123,
			"count":36,
			"type":"SCALAR"
		},
		{
			"bufferView":4,
			"componentType":5126,
			"count":24,
			"max":[
				0.5598949193954468,
				6.155120849609375,
				0.7998499274253845
			],
			"min":[
				-0.5598949193954468,
				-6.155120849609375,
				-0.7998499274253845
			],
			"type":"VEC3"
		},
		{
			"bufferView":5,
			"componentType":5126,
			"count":24,
			"type":"VEC3"
		},
		{
			"bufferView":6,
			"componentType":5126,
			"count":24,
			"type":"VEC2"
		},
		{
			"bufferView":7,
			"componentType":5126,
			"count":24,
			"max":[
				0.5598949193954468,
				6.155120849609375,
				0.7998499274253845
			],
			"min":[
				-0.5598949193954468,
				-6.155120849609375,
				-0.7998499274253845
			],
			"type":"VEC3"
		},
		{
			"bufferView":8,
			"componentType":5126,
			"count":24,
			"type":"VEC3"
		},
		{
			"bufferView":9,
			"componentType":5126,
			"count":24,
			"type":"VEC2"
		},
		{
			"bufferView":10,
			"componentType":5126,
			"count":24,
			"max":[
				0.5598949193954468,
				6.155120849609375,
				0.7998499274253845
			],
			"min":[
				-0.5598949193954468,
				-6.155120849609375,
				-0.7998499274253845
			],
			"type":"VEC3"
		},
		{
			"bufferView":11,
			"componentType":5126,
			"count":24,
			"type":"VEC3"
		},
		{
			"bufferView":12,
			"componentType":5126,
			"count":24,
			"type":"VEC2"
		},
		{
			"bufferView":13,
			"componentType":5126,
			"count":24,
			"max":[
				0.5598949193954468,
				6.155120849609375,
				0.7998499274253845
			],
			"min":[
				-0.5598949193954468,
				-6.155120849609375,
				-0.7998499274253845
			],
			"type":"VEC3"
		},
		{
			"bufferView":14,
			"componentType":5126,
			"count":24,
			"type":"VEC3"
		},
		{
			"bufferView":15,
			"componentType":5126,
			"count":24,
			"type":"VEC2"
		},
		{
			"bufferView":16,
			"componentType":5126,
			"count":192,
			"max":[
				0.414165735244751,
				2.892580509185791,
				0.414165735244751
			],
			"min":[
				-0.414165735244751,
				-2.892580509185791,
				-0.414165735244751
			],
			"type":"VEC3"
		},
		{
			"bufferView":17,
			"componentType":5126,
			"count":192,
			"type":"VEC3"
		},
		{
			"bufferView":18,
			"componentType":5126,
			"count":192,
			"type":"VEC2"
		},
		{
			"bufferView":19,
			"componentType":5123,
			"count":372,
			"type":"SCALAR"
		},
		{
			"bufferView":20,
			"componentType":5126,
			"count":24,
			"max":[
				6.01127290725708,
				1.5,
				7.500000476837158
			],
			"min":[
				-6.01127290725708,
				-1.5,
				-7.500000476837158
			],
			"type":"VEC3"
		},
		{
			"bufferView":21,
			"componentType":5126,
			"count":24,
			"type":"VEC3"
		},
		{
			"bufferView":22,
			"componentType":5126,
			"count":24,
			"type":"VEC2"
		},
		{
			"bufferView":23,
			"componentType":5126,
			"count":1984,
			"max":[
				0.9999997019767761,
				1,
				0.9999993443489075
			],
			"min":[
				-0.9999990463256836,
				-1,
				-1
			],
			"type":"VEC3"
		},
		{
			"bufferView":24,
			"componentType":5126,
			"count":1984,
			"type":"VEC3"
		},
		{
			"bufferView":25,
			"componentType":5126,
			"count":1984,
			"type":"VEC2"
		},
		{
			"bufferView":26,
			"componentType":5123,
			"count":2880,
			"type":"SCALAR"
		},
		{
			"bufferView":27,
			"componentType":5126,
			"count":1984,
			"max":[
				0.9999997019767761,
				1,
				0.9999993443489075
			],
			"min":[
				-0.9999990463256836,
				-1,
				-1
			],
			"type":"VEC3"
		},
		{
			"bufferView":28,
			"componentType":5126,
			"count":1984,
			"type":"VEC3"
		},
		{
			"bufferView":29,
			"componentType":5126,
			"count":1984,
			"type":"VEC2"
		}
	],
	"bufferViews":[
		{
			"buffer":0,
			"byteLength":288,
			"byteOffset":0,
			"target":34962
		},
		{
			"buffer":0,
			"byteLength":288,
			"byteOffset":288,
			"target":34962
		},
		{
			"buffer":0,
			"byteLength":192,
			"byteOffset":576,
			"target":34962
		},
		{
			"buffer":0,
			"byteLength":72,
			"byteOffset":768,
			"target":34963
		},
		{
			"buffer":0,
			"byteLength":288,
			"byteOffset":840,
			"target":34962
		},
		{
			"buffer":0,
			"byteLength":288,
			"byteOffset":1128,
			"target":34962
		},
		{
			"buffer":0,
			"byteLength":192,
			"byteOffset":1416,
			"target":34962
		},
		{
			"buffer":0,
			"byteLength":288,
			"byteOffset":1608,
			"target":34962
		},
		{
			"buffer":0,
			"byteLength":288,
			"byteOffset":1896,
			"target":34962
		},
		{
			"buffer":0,
			"byteLength":192,
			"byteOffset":2184,
			"target":34962
		},
		{
			"buffer":0,
			"byteLength":288,
			"byteOffset":2376,
			"target":34962
		},
		{
			"buffer":0,
			"byteLength":288,
			"byteOffset":2664,
			"target":34962
		},
		{
			"buffer":0,
			"byteLength":192,
			"byteOffset":2952,
			"target":34962
		},
		{
			"buffer":0,
			"byteLength":288,
			"byteOffset":3144,
			"target":34962
		},
		{
			"buffer":0,
			"byteLength":288,
			"byteOffset":3432,
			"target":34962
		},
		{
			"buffer":0,
			"byteLength":192,
			"byteOffset":3720,
			"target":34962
		},
		{
			"buffer":0,
			"byteLength":2304,
			"byteOffset":3912,
			"target":34962
		},
		{
			"buffer":0,
			"byteLength":2304,
			"byteOffset":6216,
			"target":34962
		},
		{
			"buffer":0,
			"byteLength":1536,
			"byteOffset":8520,
			"target":34962
		},
		{
			"buffer":0,
			"byteLength":744,
			"byteOffset":10056,
			"target":34963
		},
		{
			"buffer":0,
			"byteLength":288,
			"byteOffset":10800,
			"target":34962
		},
		{
			"buffer":0,
			"byteLength":288,
			"byteOffset":11088,
			"target":34962
		},
		{
			"buffer":0,
			"byteLength":192,
			"byteOffset":11376,
			"target":34962
		},
		{
			"buffer":0,
			"byteLength":23808,
			"byteOffset":11568,
			"target":34962
		},
		{
			"buffer":0,
			"byteLength":23808,
			"byteOffset":35376,
			"target":34962
		},
		{
			"buffer":0,
			"byteLength":15872,
			"byteOffset":59184,
			"target":34962
		},
		{
			"buffer":0,
			"byteLength":5760,
			"byteOffset":75056,
			"target":34963
		},
		{
			"buffer":0,
			"byteLength":23808,
			"byteOffset":80816,
			"target":34962
		},
		{
			"buffer":0,
			"byteLength":23808,
			"byteOffset":104624,
			"target":34962
		},
		{
			"buffer":0,
			"byteLength":15872,
			"byteOffset":128432,
			"target":34962
		}
	],
	"buffers":[
		{
			"byteLength":144304,
			"uri":"articulated_looped_bug.bin"
		}
	]
}
