{
	"asset":{
		"generator":"Khronos glTF Blender I/O v4.5.48",
		"version":"2.0"
	},
	"extensionsUsed":[
		"KHR_physics_rigid_bodies",
		"KHR_implicit_shapes"
	],
	"extensions":{
		"KHR_physics_rigid_bodies":{
			"physicsMaterials":[
				{
					"staticFriction":0.5,
					"dynamicFriction":0.5,
					"restitution":0.763052225112915
				},
				{
					"staticFriction":0.5,
					"dynamicFriction":0.5,
					"restitution":0.7068272829055786
				},
				{
					"staticFriction":0.5,
					"dynamicFriction":0.5,
					"restitution":0.650602400302887
				},
				{
					"staticFriction":0.21084338426589966,
					"dynamicFriction":0.21084338426589966,
					"restitution":0.6184738874435425
				},
				{
					"staticFriction":0.20281124114990234,
					"dynamicFriction":0.20281124114990234,
					"restitution":0.5983935594558716
				},
				{
					"staticFriction":0.15060240030288696,
					"dynamicFriction":0.15060240030288696,
					"restitution":0.6987951993942261
				},
				{
					"staticFriction":0.1867469847202301,
					"dynamicFriction":0.1867469847202301,
					"restitution":0.7349397540092468
				},
				{
					"staticFriction":0.13453814387321472,
					"dynamicFriction":0.13453814387321472,
					"restitution":0.5983935594558716
				},
				{
					"staticFriction":0.13453814387321472,
					"dynamicFriction":0.13453814387321472,
					"restitution":0.6184738874435425
				},
				{
					"staticFriction":0.13052210211753845,
					"dynamicFriction":0.13052210211753845,
					"restitution":0.7349397540092468
				},
				{
					"staticFriction":0.11847388744354248,
					"dynamicFriction":0.11847388744354248,
					"restitution":0.6987951993942261
				},
				{
					"staticFriction":0.1064257025718689,
					"dynamicFriction":0.1064257025718689,
					"restitution":0.7991967797279358
				},
				{
					"staticFriction":0.11445784568786621,
					"dynamicFriction":0.11445784568786621,
					"restitution":0.8232932090759277
				},
				{
					"staticFriction":0.13453814387321472,
					"dynamicFriction":0.13453814387321472,
					"restitution":0.7710843086242676
				},
				{
					"staticFriction":0.11044174432754517,
					"dynamicFriction":0.11044174432754517,
					"restitution":0.1204819306731224
				},
				{
					"staticFriction":0.5,
					"dynamicFriction":0.5,
					"restitution":0.8995983600616455
				},
				{
					"staticFriction":0.5,
					"dynamicFriction":0.5,
					"restitution":0.7791164517402649
				},
				{
					"staticFriction":0.5,
					"dynamicFriction":0.5,
					"restitution":0
				},
				{
					"staticFriction":0.10240963101387024,
					"dynamicFriction":0.10240963101387024,
					"restitution":0.11646586656570435
				},
				{
					"staticFriction":0.15863454341888428,
					"dynamicFriction":0.15863454341888428,
					"restitution":0.1927710771560669
				},
				{
					"staticFriction":0.13052210211753845,
					"dynamicFriction":0.13052210211753845,
					"restitution":0.21686747670173645
				},
				{
					"staticFriction":0.1465863585472107,
					"dynamicFriction":0.1465863585472107,
					"restitution":0.0602409653365612
				},
				{
					"staticFriction":0.36345380544662476,
					"dynamicFriction":0.36345380544662476,
					"restitution":0.06425702571868896
				},
				{
					"staticFriction":0.5803213119506836,
					"dynamicFriction":0.5803213119506836,
					"restitution":0.06425702571868896
				},
				{
					"staticFriction":0.5,
					"dynamicFriction":0.5,
					"restitution":0.03614457696676254
				}
			],
			"collisionFilters":[
				{
					"collisionSystems":[
						"System_0"
					],
					"collideWithSystems":[
						"System_0"
					]
				}
			],
			"physicsJoints":[
				{
					"limits":[
						{
							"linearAxes":[
								0,
								2,
								1
							],
							"min":0,
							"max":0
						},
						{
							"angularAxes":[
								0,
								2
							],
							"min":0,
							"max":0
						}
					]
				},
				{
					"limits":[
						{
							"angularAxes":[
								0,
								2,
								1
							],
							"min":0,
							"max":0
						},
						{
							"linearAxes":[
								2,
								1
							],
							"min":0,
							"max":0
						}
					]
				}
			]
		},
		"KHR_implicit_shapes":{
			"shapes":[
				{
					"type":"box",
					"box":{
						"size":[
							4,
							0.2608366012573242,
							3
						]
					}
				},
				{
					"type":"box",
					"box":{
						"size":[
							4.604246616363525,
							0.8000001907348633,
							3.000000238418579
						]
					}
				},
				{
					"type":"box",
					"box":{
						"size":[
							26.52733612060547,
							0.30850228667259216,
							4.204495429992676
						]
					}
				},
				{
					"type":"sphere",
					"sphere":{
						"radius":1.0000001266598622
					}
				},
				{
					"type":"box",
					"box":{
						"size":[
							9.57708740234375,
							0.30850228667259216,
							4.204495429992676
						]
					}
				}
			]
		}
	},
	"scene":0,
	"scenes":[
		{
			"extras":{
				"khr_physics_importer_props":{},
				"khr_physics_exporter_props":{},
				"khr_physics_scene_viewer_props":{}
			},
			"name":"Scene",
			"nodes":[
				11,
				24,
				39,
				48,
				49,
				57,
				65,
				67,
				69,
				71,
				73,
				75,
				76,
				77,
				78
			]
		}
	],
	"nodes":[
		{
			"mesh":0,
			"name":"physicsMeshDataNode",
			"rotation":[
				0,
				0,
				0,
				1
			],
			"translation":[
				0,
				0,
				0
			]
		},
		{
			"extensions":{
				"KHR_physics_rigid_bodies":{
					"collider":{
						"geometry":{
							"convexHull":true,
							"node":0
						},
						"physicsMaterial":0,
						"collisionFilter":0
					}
				}
			},
			"extras":{
				"khr_physics_extra_props":{
					"non_renderable":1
				}
			},
			"name":"Cube.001",
			"translation":[
				0,
				1.3400003910064697,
				-1.0499999523162842
			]
		},
		{
			"mesh":1,
			"name":"physicsMeshDataNode",
			"rotation":[
				0,
				0,
				0,
				1
			],
			"translation":[
				0,
				0,
				0
			]
		},
		{
			"extensions":{
				"KHR_physics_rigid_bodies":{
					"collider":{
						"geometry":{
							"convexHull":true,
							"node":2
						},
						"physicsMaterial":1,
						"collisionFilter":0
					}
				}
			},
			"extras":{
				"khr_physics_extra_props":{
					"non_renderable":1
				}
			},
			"name":"Cube.003",
			"translation":[
				0,
				1.3400003910064697,
				1.0500003099441528
			]
		},
		{
			"mesh":2,
			"name":"physicsMeshDataNode",
			"rotation":[
				0,
				0,
				0,
				1
			],
			"translation":[
				0,
				0,
				0
			]
		},
		{
			"extensions":{
				"KHR_physics_rigid_bodies":{
					"collider":{
						"geometry":{
							"convexHull":true,
							"node":4
						},
						"physicsMaterial":2,
						"collisionFilter":0
					}
				}
			},
			"extras":{
				"khr_physics_extra_props":{
					"non_renderable":1
				}
			},
			"name":"Cylinder",
			"rotation":[
				0.6829373240470886,
				0.1832936853170395,
				0.18329371511936188,
				0.6829373836517334
			],
			"translation":[
				0,
				1.3400003910064697,
				0
			]
		},
		{
			"extensions":{},
			"extras":{
				"khr_physics_extra_constraint_props":{}
			},
			"name":"Empty.002",
			"rotation":[
				-0.6829373240470886,
				-0.1832936853170395,
				0.18329371511936188,
				0.6829373836517334
			],
			"translation":[
				0,
				2.680000066757202,
				0
			]
		},
		{
			"name":"jointSpaceB",
			"rotation":[
				-0.9659258127212524,
				-1.54268171570493e-08,
				-0.258819043636322,
				1.53517056844521e-08
			],
			"translation":[
				1.3322676295501878e-15,
				8.996440925557181e-08,
				6.040029632004007e-08
			]
		},
		{
			"extensions":{
				"KHR_physics_rigid_bodies":{
					"joint":{
						"connectedNode":7,
						"joint":0
					}
				}
			},
			"name":"jointSpaceA",
			"rotation":[
				-0.6829373240470886,
				-0.1832936853170395,
				0.18329371511936188,
				0.6829373836517334
			],
			"translation":[
				0,
				2.680000066757202,
				0
			]
		},
		{
			"name":"jointSpaceB",
			"rotation":[
				-0.6829373240470886,
				-0.1832936853170395,
				0.18329371511936188,
				0.6829373836517334
			],
			"translation":[
				1.0500771168153733e-06,
				1.3399991989135742,
				-1.3709068298339844e-06
			]
		},
		{
			"name":"jointSpaceB",
			"rotation":[
				-0.6829373240470886,
				-0.1832936853170395,
				0.18329371511936188,
				0.6829373836517334
			],
			"translation":[
				-5.960464477539063e-08,
				0,
				0
			]
		},
		{
			"children":[
				1,
				3,
				5,
				6,
				8,
				9,
				10
			],
			"extensions":{
				"KHR_physics_rigid_bodies":{
					"motion":{
						"mass":3
					}
				}
			},
			"extras":{
				"khr_physics_extra_props":{}
			},
			"mesh":3,
			"name":"narrow_frame",
			"rotation":[
				0,
				0,
				-0.25921645760536194,
				0.9658193588256836
			],
			"translation":[
				-0.6709546446800232,
				-1.1599223613739014,
				-0.6999999284744263
			]
		},
		{
			"mesh":4,
			"name":"physicsMeshDataNode",
			"rotation":[
				0,
				0,
				0,
				1
			],
			"translation":[
				0,
				0,
				0
			]
		},
		{
			"extensions":{
				"KHR_physics_rigid_bodies":{
					"collider":{
						"geometry":{
							"convexHull":true,
							"node":12
						},
						"physicsMaterial":3,
						"collisionFilter":0
					}
				}
			},
			"extras":{
				"khr_physics_extra_props":{
					"non_renderable":1
				}
			},
			"name":"Cube.005",
			"rotation":[
				-0.7071068286895752,
				0,
				0,
				0.7071068286895752
			],
			"translation":[
				0,
				1.3499996662139893,
				-1.339998483657837
			]
		},
		{
			"mesh":5,
			"name":"physicsMeshDataNode",
			"rotation":[
				0,
				0,
				0,
				1
			],
			"translation":[
				0,
				0,
				0
			]
		},
		{
			"extensions":{
				"KHR_physics_rigid_bodies":{
					"collider":{
						"geometry":{
							"convexHull":true,
							"node":14
						},
						"physicsMaterial":4,
						"collisionFilter":0
					}
				}
			},
			"extras":{
				"khr_physics_extra_props":{
					"non_renderable":1
				}
			},
			"name":"Cube.008",
			"rotation":[
				-0.7071068286895752,
				0,
				0,
				0.7071068286895752
			],
			"translation":[
				0,
				-1.3500001430511475,
				-1.339998483657837
			]
		},
		{
			"mesh":6,
			"name":"physicsMeshDataNode",
			"rotation":[
				0,
				0,
				0,
				1
			],
			"translation":[
				0,
				0,
				0
			]
		},
		{
			"extensions":{
				"KHR_physics_rigid_bodies":{
					"collider":{
						"geometry":{
							"convexHull":true,
							"node":16
						},
						"physicsMaterial":5,
						"collisionFilter":0
					}
				}
			},
			"extras":{
				"khr_physics_extra_props":{
					"non_renderable":1
				}
			},
			"name":"Cylinder.003",
			"translation":[
				0,
				0,
				-2.6799986362457275
			]
		},
		{
			"mesh":7,
			"name":"physicsMeshDataNode",
			"rotation":[
				0,
				0,
				0,
				1
			],
			"translation":[
				0,
				0,
				0
			]
		},
		{
			"extensions":{
				"KHR_physics_rigid_bodies":{
					"collider":{
						"geometry":{
							"convexHull":true,
							"node":18
						},
						"physicsMaterial":6,
						"collisionFilter":0
					}
				}
			},
			"extras":{
				"khr_physics_extra_props":{
					"non_renderable":1
				}
			},
			"name":"Cylinder.004"
		},
		{
			"extensions":{},
			"extras":{
				"khr_physics_extra_constraint_props":{}
			},
			"name":"Empty",
			"rotation":[
				-0.965925931930542,
				0,
				-0.2588190734386444,
				1.5116013329929956e-08
			],
			"translation":[
				0,
				0,
				-1.339998483657837
			]
		},
		{
			"extensions":{
				"KHR_physics_rigid_bodies":{
					"joint":{
						"connectedNode":9,
						"joint":0
					}
				}
			},
			"name":"jointSpaceA",
			"rotation":[
				-0.9659258127212524,
				-1.6306444194924552e-08,
				-0.258819043636322,
				1.5116011553573117e-08
			],
			"translation":[
				-1.1134807209600694e-07,
				-1.5497206504733185e-06,
				-1.339998483657837
			]
		},
		{
			"name":"jointSpaceB",
			"rotation":[
				-0.9659258127212524,
				-1.54268171570493e-08,
				-0.258819043636322,
				1.53517056844521e-08
			],
			"translation":[
				1.2212453270876722e-15,
				7.758917490718886e-07,
				-2.679999828338623
			]
		},
		{
			"name":"jointSpaceB",
			"rotation":[
				-0.9659258127212524,
				-1.54268171570493e-08,
				-0.258819043636322,
				1.53517056844521e-08
			],
			"translation":[
				1.2212453270876722e-15,
				-1.0313829790220552e-09,
				9.020260449688067e-08
			]
		},
		{
			"children":[
				13,
				15,
				17,
				19,
				20,
				21,
				22,
				23
			],
			"extensions":{
				"KHR_physics_rigid_bodies":{
					"motion":{
						"mass":3
					}
				}
			},
			"extras":{
				"khr_physics_extra_props":{}
			},
			"mesh":8,
			"name":"wide_frame",
			"rotation":[
				0.6830127239227295,
				0.1830126941204071,
				0.1830126941204071,
				0.6830126643180847
			],
			"translation":[
				0.6699999570846558,
				-1.1604740619659424,
				-0.6999998092651367
			]
		},
		{
			"mesh":9,
			"name":"physicsMeshDataNode",
			"rotation":[
				0,
				0,
				0,
				1
			],
			"translation":[
				0,
				0,
				0
			]
		},
		{
			"extensions":{
				"KHR_physics_rigid_bodies":{
					"collider":{
						"geometry":{
							"convexHull":true,
							"node":25
						},
						"physicsMaterial":7,
						"collisionFilter":0
					}
				}
			},
			"extras":{
				"khr_physics_extra_props":{
					"non_renderable":1
				}
			},
			"name":"Cube.004",
			"rotation":[
				-0.7071068286895752,
				0,
				0,
				0.7071068286895752
			],
			"translation":[
				0,
				-1.350000262260437,
				-1.3399999141693115
			]
		},
		{
			"mesh":10,
			"name":"physicsMeshDataNode",
			"rotation":[
				0,
				0,
				0,
				1
			],
			"translation":[
				0,
				0,
				0
			]
		},
		{
			"extensions":{
				"KHR_physics_rigid_bodies":{
					"collider":{
						"geometry":{
							"convexHull":true,
							"node":27
						},
						"physicsMaterial":8,
						"collisionFilter":0
					}
				}
			},
			"extras":{
				"khr_physics_extra_props":{
					"non_renderable":1
				}
			},
			"name":"Cube.006",
			"rotation":[
				-0.7071068286895752,
				0,
				0,
				0.7071068286895752
			],
			"translation":[
				0,
				1.3500003814697266,
				-1.340000033378601
			]
		},
		{
			"mesh":11,
			"name":"physicsMeshDataNode",
			"rotation":[
				0,
				0,
				0,
				1
			],
			"translation":[
				0,
				0,
				0
			]
		},
		{
			"extensions":{
				"KHR_physics_rigid_bodies":{
					"collider":{
						"geometry":{
							"convexHull":true,
							"node":29
						},
						"physicsMaterial":9,
						"collisionFilter":0
					}
				}
			},
			"extras":{
				"khr_physics_extra_props":{
					"non_renderable":1
				}
			},
			"name":"Cylinder.001"
		},
		{
			"mesh":12,
			"name":"physicsMeshDataNode",
			"rotation":[
				0,
				0,
				0,
				1
			],
			"translation":[
				0,
				0,
				0
			]
		},
		{
			"extensions":{
				"KHR_physics_rigid_bodies":{
					"collider":{
						"geometry":{
							"convexHull":true,
							"node":31
						},
						"physicsMaterial":10,
						"collisionFilter":0
					}
				}
			},
			"extras":{
				"khr_physics_extra_props":{
					"non_renderable":1
				}
			},
			"name":"Cylinder.002",
			"translation":[
				0,
				0,
				-2.680000066757202
			]
		},
		{
			"extensions":{},
			"extras":{
				"khr_physics_extra_constraint_props":{}
			},
			"name":"Empty.003",
			"rotation":[
				-0.965925931930542,
				0,
				-0.2588190734386444,
				1.5116013329929956e-08
			],
			"translation":[
				0,
				0,
				-1.340000033378601
			]
		},
		{
			"extensions":{},
			"extras":{
				"khr_physics_extra_constraint_props":{}
			},
			"name":"Empty.005",
			"rotation":[
				-0.965925931930542,
				0,
				-0.2588190734386444,
				1.5116013329929956e-08
			],
			"translation":[
				0,
				0,
				-2.680000066757202
			]
		},
		{
			"name":"jointSpaceB",
			"rotation":[
				-0.6829373240470886,
				-0.1832936853170395,
				0.18329371511936188,
				0.6829373836517334
			],
			"translation":[
				-1.2258533388376236e-07,
				1.340000033378601,
				1.5497207641601562e-06
			]
		},
		{
			"extensions":{
				"KHR_physics_rigid_bodies":{
					"joint":{
						"connectedNode":35,
						"joint":0
					}
				}
			},
			"name":"jointSpaceA",
			"rotation":[
				-0.9659258127212524,
				-1.6306444194924552e-08,
				-0.258819043636322,
				1.5116011553573117e-08
			],
			"translation":[
				-2.064625732600689e-07,
				1.6407165048804018e-06,
				-1.340000033378601
			]
		},
		{
			"name":"jointSpaceB",
			"rotation":[
				-0.7013189196586609,
				0.09028731286525726,
				-0.09028732031583786,
				0.7013189196586609
			],
			"translation":[
				-1.509803056716919,
				-0.3263200521469116,
				1.5497207641601562e-06
			]
		},
		{
			"extensions":{
				"KHR_physics_rigid_bodies":{
					"joint":{
						"connectedNode":37,
						"joint":0
					}
				}
			},
			"name":"jointSpaceA",
			"rotation":[
				-0.9659258127212524,
				-1.6306444194924552e-08,
				-0.258819043636322,
				1.5116011553573117e-08
			],
			"translation":[
				-1.1920928955078125e-07,
				6.284689675339905e-07,
				-2.680000066757202
			]
		},
		{
			"children":[
				26,
				28,
				30,
				32,
				33,
				34,
				7,
				36,
				38
			],
			"extensions":{
				"KHR_physics_rigid_bodies":{
					"motion":{
						"mass":2
					}
				}
			},
			"extras":{
				"khr_physics_extra_props":{}
			},
			"mesh":13,
			"name":"wide_frame.001",
			"rotation":[
				0.6830127239227295,
				0.1830126941204071,
				0.1830126941204071,
				0.6830126643180847
			],
			"translation":[
				0.6709547638893127,
				1.1599223613739014,
				-0.699999988079071
			]
		},
		{
			"mesh":14,
			"name":"physicsMeshDataNode",
			"rotation":[
				0,
				0,
				0,
				1
			],
			"translation":[
				0,
				0,
				0
			]
		},
		{
			"extensions":{
				"KHR_physics_rigid_bodies":{
					"collider":{
						"geometry":{
							"convexHull":true,
							"node":40
						},
						"physicsMaterial":11,
						"collisionFilter":0
					}
				}
			},
			"extras":{
				"khr_physics_extra_props":{
					"non_renderable":1
				}
			},
			"name":"Cube.007",
			"translation":[
				0,
				1.340000033378601,
				1.0500010251998901
			]
		},
		{
			"mesh":15,
			"name":"physicsMeshDataNode",
			"rotation":[
				0,
				0,
				0,
				1
			],
			"translation":[
				0,
				0,
				0
			]
		},
		{
			"extensions":{
				"KHR_physics_rigid_bodies":{
					"collider":{
						"geometry":{
							"convexHull":true,
							"node":42
						},
						"physicsMaterial":12,
						"collisionFilter":0
					}
				}
			},
			"extras":{
				"khr_physics_extra_props":{
					"non_renderable":1
				}
			},
			"name":"Cube.009",
			"translation":[
				0,
				1.340000033378601,
				-1.049999475479126
			]
		},
		{
			"mesh":16,
			"name":"physicsMeshDataNode",
			"rotation":[
				0,
				0,
				0,
				1
			],
			"translation":[
				0,
				0,
				0
			]
		},
		{
			"extensions":{
				"KHR_physics_rigid_bodies":{
					"collider":{
						"geometry":{
							"convexHull":true,
							"node":44
						},
						"physicsMaterial":13,
						"collisionFilter":0
					}
				}
			},
			"extras":{
				"khr_physics_extra_props":{
					"non_renderable":1
				}
			},
			"name":"Cylinder.005",
			"rotation":[
				0.6829373240470886,
				0.1832936853170395,
				0.18329371511936188,
				0.6829373836517334
			],
			"translation":[
				0,
				1.340000033378601,
				0
			]
		},
		{
			"extensions":{},
			"extras":{
				"khr_physics_extra_constraint_props":{}
			},
			"name":"Empty.004",
			"rotation":[
				-0.6829373240470886,
				-0.1832936853170395,
				0.18329371511936188,
				0.6829373836517334
			]
		},
		{
			"extensions":{
				"KHR_physics_rigid_bodies":{
					"joint":{
						"connectedNode":22,
						"joint":0
					}
				}
			},
			"name":"jointSpaceA",
			"rotation":[
				-0.6829373240470886,
				-0.1832936853170395,
				0.18329371511936188,
				0.6829373836517334
			],
			"translation":[
				0,
				2.9802322387695312e-08,
				9.5367431640625e-07
			]
		},
		{
			"children":[
				41,
				43,
				45,
				46,
				35,
				47
			],
			"extensions":{
				"KHR_physics_rigid_bodies":{
					"motion":{
						"mass":2
					}
				}
			},
			"extras":{
				"khr_physics_extra_props":{}
			},
			"mesh":17,
			"name":"narrow_frame.002",
			"rotation":[
				0,
				0,
				-0.25921645760536194,
				0.9658193588256836
			],
			"translation":[
				-0.6700001358985901,
				1.1604740619659424,
				-0.6999998092651367
			]
		},
		{
			"children":[
				37
			],
			"extensions":{
				"KHR_physics_rigid_bodies":{
					"motion":{
						"mass":0.5
					},
					"collider":{
						"geometry":{
							"shape":0
						},
						"physicsMaterial":14,
						"collisionFilter":0
					}
				}
			},
			"extras":{
				"khr_physics_extra_props":{}
			},
			"mesh":18,
			"name":"platform",
			"rotation":[
				0,
				0,
				0.127685546875,
				0.9918147325515747
			],
			"translation":[
				0.7088766098022461,
				4.178954124450684,
				-0.7000008225440979
			]
		},
		{
			"mesh":19,
			"name":"physicsMeshDataNode",
			"rotation":[
				0,
				0,
				0,
				1
			],
			"translation":[
				0,
				0,
				0
			]
		},
		{
			"extensions":{
				"KHR_physics_rigid_bodies":{
					"collider":{
						"geometry":{
							"convexHull":true,
							"node":50
						},
						"physicsMaterial":15,
						"collisionFilter":0
					}
				}
			},
			"extras":{
				"khr_physics_extra_props":{
					"non_renderable":1
				}
			},
			"name":"Cylinder.006",
			"rotation":[
				-0.5,
				-0.5,
				-0.5,
				0.5000000596046448
			],
			"translation":[
				2.304218292236328,
				0,
				0
			]
		},
		{
			"extensions":{},
			"extras":{
				"khr_physics_extra_constraint_props":{}
			},
			"name":"Empty.007",
			"rotation":[
				-1,
				0,
				0,
				1.5893256488652696e-08
			]
		},
		{
			"mesh":20,
			"name":"physicsMeshDataNode",
			"rotation":[
				0,
				0,
				0,
				1
			],
			"translation":[
				0,
				0,
				0
			]
		},
		{
			"extensions":{
				"KHR_physics_rigid_bodies":{
					"collider":{
						"geometry":{
							"convexHull":true,
							"node":53
						},
						"physicsMaterial":16,
						"collisionFilter":0
					}
				}
			},
			"extras":{
				"khr_physics_extra_props":{
					"non_renderable":1
				}
			},
			"name":"wheel.002"
		},
		{
			"extensions":{
				"KHR_physics_rigid_bodies":{
					"joint":{
						"connectedNode":23,
						"joint":0
					}
				}
			},
			"name":"jointSpaceA",
			"rotation":[
				-1,
				0,
				0,
				1.5893256488652696e-08
			],
			"translation":[
				0,
				-8.87871109966909e-09,
				3.059796327420372e-08
			]
		},
		{
			"name":"jointSpaceB",
			"rotation":[
				-0.7071067690849304,
				0,
				0,
				0.7071067690849304
			],
			"translation":[
				2.418519973754883,
				-8.87871109966909e-09,
				3.059796327420372e-08
			]
		},
		{
			"children":[
				51,
				52,
				54,
				55,
				56
			],
			"extensions":{
				"KHR_physics_rigid_bodies":{
					"motion":{
						"mass":1
					}
				}
			},
			"extras":{
				"khr_physics_extra_props":{}
			},
			"mesh":21,
			"name":"pusher",
			"rotation":[
				0.7071068286895752,
				0,
				0,
				0.7071068286895752
			],
			"translation":[
				0.6699999570846558,
				-1.1604740619659424,
				-0.6999998092651367
			]
		},
		{
			"extensions":{},
			"extras":{
				"khr_physics_extra_constraint_props":{}
			},
			"name":"actuation",
			"translation":[
				-0.04075884819030762,
				0.23952603340148926,
				0
			]
		},
		{
			"extensions":{
				"KHR_physics_rigid_bodies":{
					"collider":{
						"geometry":{
							"shape":1
						},
						"physicsMaterial":17,
						"collisionFilter":0
					}
				}
			},
			"extras":{
				"khr_physics_extra_props":{
					"non_renderable":1
				}
			},
			"name":"Cube",
			"translation":[
				-1.8504202365875244,
				-0.4000002145767212,
				0
			]
		},
		{
			"mesh":22,
			"name":"physicsMeshDataNode",
			"rotation":[
				0,
				0,
				0,
				1
			],
			"translation":[
				0,
				0,
				0
			]
		},
		{
			"extensions":{
				"KHR_physics_rigid_bodies":{
					"collider":{
						"geometry":{
							"convexHull":true,
							"node":60
						},
						"physicsMaterial":17,
						"collisionFilter":0
					}
				}
			},
			"extras":{
				"khr_physics_extra_props":{
					"non_renderable":1
				}
			},
			"name":"Cube.012"
		},
		{
			"extensions":{},
			"extras":{
				"khr_physics_extra_constraint_props":{}
			},
			"name":"Empty.001",
			"rotation":[
				-0.7071068286895752,
				0,
				0,
				0.7071068286895752
			],
			"translation":[
				-3.8002336025238037,
				0.24007773399353027,
				0
			]
		},
		{
			"extensions":{
				"KHR_physics_rigid_bodies":{
					"joint":{
						"connectedNode":56,
						"joint":1
					}
				}
			},
			"name":"jointSpaceA",
			"rotation":[
				0,
				0,
				0,
				1
			],
			"translation":[
				-0.04075884819030762,
				0.23952603340148926,
				0
			]
		},
		{
			"extensions":{
				"KHR_physics_rigid_bodies":{
					"joint":{
						"connectedNode":10,
						"joint":0
					}
				}
			},
			"name":"jointSpaceA",
			"rotation":[
				-0.7071067690849304,
				0,
				0,
				0.7071067690849304
			],
			"translation":[
				-3.8002336025238037,
				0.24007773399353027,
				-1.1920928955078125e-07
			]
		},
		{
			"children":[
				58,
				59,
				61,
				62,
				63,
				64
			],
			"extensions":{},
			"extras":{
				"khr_physics_extra_props":{}
			},
			"mesh":23,
			"name":"base",
			"translation":[
				3.1292788982391357,
				-1.4000000953674316,
				-0.6999998092651367
			]
		},
		{
			"mesh":24,
			"name":"physicsMeshDataNode",
			"rotation":[
				0,
				0,
				0,
				1
			],
			"translation":[
				0,
				0,
				0
			]
		},
		{
			"extensions":{
				"KHR_physics_rigid_bodies":{
					"motion":{
						"mass":0.5
					},
					"collider":{
						"geometry":{
							"convexHull":true,
							"node":66
						},
						"physicsMaterial":18,
						"collisionFilter":0
					}
				}
			},
			"extras":{
				"khr_physics_extra_props":{}
			},
			"mesh":24,
			"name":"Cube.002",
			"translation":[
				1.565519094467163,
				5.597549915313721,
				-0.10000079870223999
			]
		},
		{
			"mesh":25,
			"name":"physicsMeshDataNode",
			"rotation":[
				0,
				0,
				0,
				1
			],
			"translation":[
				0,
				0,
				0
			]
		},
		{
			"extensions":{
				"KHR_physics_rigid_bodies":{
					"motion":{
						"mass":0.5
					},
					"collider":{
						"geometry":{
							"convexHull":true,
							"node":68
						},
						"physicsMaterial":19,
						"collisionFilter":0
					}
				}
			},
			"extras":{
				"khr_physics_extra_props":{}
			},
			"mesh":25,
			"name":"Cube.011",
			"translation":[
				1.565519094467163,
				5.597549915313721,
				-1.2731459140777588
			]
		},
		{
			"mesh":26,
			"name":"physicsMeshDataNode",
			"rotation":[
				0,
				0,
				0,
				1
			],
			"translation":[
				0,
				0,
				0
			]
		},
		{
			"extensions":{
				"KHR_physics_rigid_bodies":{
					"motion":{
						"mass":0.5
					},
					"collider":{
						"geometry":{
							"convexHull":true,
							"node":70
						},
						"physicsMaterial":20,
						"collisionFilter":0
					}
				}
			},
			"extras":{
				"khr_physics_extra_props":{}
			},
			"mesh":26,
			"name":"Cube.013",
			"translation":[
				0.07147002220153809,
				5.597549915313721,
				-1.2731459140777588
			]
		},
		{
			"mesh":27,
			"name":"physicsMeshDataNode",
			"rotation":[
				0,
				0,
				0,
				1
			],
			"translation":[
				0,
				0,
				0
			]
		},
		{
			"extensions":{
				"KHR_physics_rigid_bodies":{
					"motion":{
						"mass":0.5
					},
					"collider":{
						"geometry":{
							"convexHull":true,
							"node":72
						},
						"physicsMaterial":21,
						"collisionFilter":0
					}
				}
			},
			"extras":{
				"khr_physics_extra_props":{}
			},
			"mesh":27,
			"name":"Cube.014",
			"translation":[
				0.07147002220153809,
				5.597549915313721,
				-0.07223165035247803
			]
		},
		{
			"mesh":28,
			"name":"physicsMeshDataNode",
			"rotation":[
				0,
				0,
				0,
				1
			],
			"translation":[
				0,
				0,
				0
			]
		},
		{
			"extensions":{
				"KHR_physics_rigid_bodies":{
					"collider":{
						"geometry":{
							"convexHull":true,
							"node":74
						},
						"physicsMaterial":17,
						"collisionFilter":0
					}
				}
			},
			"extras":{
				"khr_physics_extra_props":{}
			},
			"mesh":28,
			"name":"Cube.015",
			"translation":[
				1.804710030555725,
				-1.1604740619659424,
				0.4622236490249634
			]
		},
		{
			"extensions":{
				"KHR_physics_rigid_bodies":{
					"collider":{
						"geometry":{
							"shape":2
						},
						"physicsMaterial":22,
						"collisionFilter":0
					}
				}
			},
			"extras":{
				"khr_physics_extra_props":{}
			},
			"mesh":29,
			"name":"Cube.010",
			"rotation":[
				0,
				0,
				0.2777491509914398,
				0.9606537222862244
			],
			"translation":[
				22.797758102416992,
				4.848584175109863,
				-0.6999998092651367
			]
		},
		{
			"extensions":{
				"KHR_physics_rigid_bodies":{
					"motion":{
						"mass":15
					},
					"collider":{
						"geometry":{
							"shape":3
						},
						"physicsMaterial":23,
						"collisionFilter":0
					}
				}
			},
			"extras":{
				"khr_physics_extra_props":{}
			},
			"mesh":30,
			"name":"Icosphere",
			"translation":[
				27.723041534423828,
				12.820158958435059,
				-0.6999998092651367
			]
		},
		{
			"extensions":{
				"KHR_physics_rigid_bodies":{
					"collider":{
						"geometry":{
							"shape":4
						},
						"physicsMaterial":24,
						"collisionFilter":0
					}
				}
			},
			"extras":{
				"khr_physics_extra_props":{}
			},
			"mesh":31,
			"name":"Cube.016",
			"rotation":[
				0,
				0,
				-0.01845986396074295,
				0.9998296499252319
			],
			"translation":[
				8.787195205688477,
				-2.5524728298187256,
				-0.6999998092651367
			]
		}
	],
	"meshes":[
		{
			"name":"Cube.027",
			"primitives":[
				{
					"attributes":{
						"POSITION":0,
						"NORMAL":1,
						"TEXCOORD_0":2
					},
					"indices":3
				}
			]
		},
		{
			"name":"Cube.026",
			"primitives":[
				{
					"attributes":{
						"POSITION":4,
						"NORMAL":5,
						"TEXCOORD_0":6
					},
					"indices":3
				}
			]
		},
		{
			"name":"Cylinder.005",
			"primitives":[
				{
					"attributes":{
						"POSITION":7,
						"NORMAL":8,
						"TEXCOORD_0":9
					},
					"indices":10
				}
			]
		},
		{
			"name":"Cube.024",
			"primitives":[
				{
					"attributes":{
						"POSITION":11,
						"NORMAL":12,
						"TEXCOORD_0":13
					},
					"indices":14
				}
			]
		},
		{
			"name":"Cube.030",
			"primitives":[
				{
					"attributes":{
						"POSITION":15,
						"NORMAL":16,
						"TEXCOORD_0":17
					},
					"indices":3
				}
			]
		},
		{
			"name":"Cube.033",
			"primitives":[
				{
					"attributes":{
						"POSITION":18,
						"NORMAL":19,
						"TEXCOORD_0":20
					},
					"indices":3
				}
			]
		},
		{
			"name":"Cylinder.008",
			"primitives":[
				{
					"attributes":{
						"POSITION":21,
						"NORMAL":22,
						"TEXCOORD_0":23
					},
					"indices":10
				}
			]
		},
		{
			"name":"Cylinder.009",
			"primitives":[
				{
					"attributes":{
						"POSITION":24,
						"NORMAL":25,
						"TEXCOORD_0":26
					},
					"indices":10
				}
			]
		},
		{
			"name":"Cylinder.007",
			"primitives":[
				{
					"attributes":{
						"POSITION":27,
						"NORMAL":28,
						"TEXCOORD_0":29
					},
					"indices":30
				}
			]
		},
		{
			"name":"Cube.042",
			"primitives":[
				{
					"attributes":{
						"POSITION":31,
						"NORMAL":32,
						"TEXCOORD_0":33
					},
					"indices":3
				}
			]
		},
		{
			"name":"Cube.043",
			"primitives":[
				{
					"attributes":{
						"POSITION":34,
						"NORMAL":35,
						"TEXCOORD_0":36
					},
					"indices":3
				}
			]
		},
		{
			"name":"Cylinder.015",
			"primitives":[
				{
					"attributes":{
						"POSITION":37,
						"NORMAL":38,
						"TEXCOORD_0":39
					},
					"indices":10
				}
			]
		},
		{
			"name":"Cylinder.016",
			"primitives":[
				{
					"attributes":{
						"POSITION":40,
						"NORMAL":41,
						"TEXCOORD_0":42
					},
					"indices":10
				}
			]
		},
		{
			"name":"Cylinder.014",
			"primitives":[
				{
					"attributes":{
						"POSITION":43,
						"NORMAL":44,
						"TEXCOORD_0":45
					},
					"indices":46
				}
			]
		},
		{
			"name":"Cube.045",
			"primitives":[
				{
					"attributes":{
						"POSITION":47,
						"NORMAL":48,
						"TEXCOORD_0":49
					},
					"indices":50
				}
			]
		},
		{
			"name":"Cube.046",
			"primitives":[
				{
					"attributes":{
						"POSITION":51,
						"NORMAL":52,
						"TEXCOORD_0":53
					},
					"indices":3
				}
			]
		},
		{
			"name":"Cylinder.017",
			"primitives":[
				{
					"attributes":{
						"POSITION":54,
						"NORMAL":55,
						"TEXCOORD_0":56
					},
					"indices":10
				}
			]
		},
		{
			"name":"Cube.044",
			"primitives":[
				{
					"attributes":{
						"POSITION":57,
						"NORMAL":58,
						"TEXCOORD_0":59
					},
					"indices":14
				}
			]
		},
		{
			"name":"Cube.047",
			"primitives":[
				{
					"attributes":{
						"POSITION":60,
						"NORMAL":61,
						"TEXCOORD_0":62
					},
					"indices":63
				}
			]
		},
		{
			"name":"Cylinder",
			"primitives":[
				{
					"attributes":{
						"POSITION":64,
						"NORMAL":65,
						"TEXCOORD_0":66
					},
					"indices":10
				}
			]
		},
		{
			"name":"Cylinder.002",
			"primitives":[
				{
					"attributes":{
						"POSITION":67,
						"NORMAL":68
					},
					"indices":69
				}
			]
		},
		{
			"name":"Cylinder.001",
			"primitives":[
				{
					"attributes":{
						"POSITION":70,
						"NORMAL":71,
						"TEXCOORD_0":72
					},
					"indices":73
				}
			]
		},
		{
			"name":"Cube.004",
			"primitives":[
				{
					"attributes":{
						"POSITION":74,
						"NORMAL":75,
						"TEXCOORD_0":76
					},
					"indices":77
				}
			]
		},
		{
			"name":"Cube.003",
			"primitives":[
				{
					"attributes":{
						"POSITION":78,
						"NORMAL":79,
						"TEXCOORD_0":80
					},
					"indices":81
				}
			]
		},
		{
			"name":"Cube.001",
			"primitives":[
				{
					"attributes":{
						"POSITION":82,
						"NORMAL":83,
						"TEXCOORD_0":84
					},
					"indices":63
				}
			]
		},
		{
			"name":"Cube.005",
			"primitives":[
				{
					"attributes":{
						"POSITION":85,
						"NORMAL":86,
						"TEXCOORD_0":87
					},
					"indices":63
				}
			]
		},
		{
			"name":"Cube.006",
			"primitives":[
				{
					"attributes":{
						"POSITION":88,
						"NORMAL":89,
						"TEXCOORD_0":90
					},
					"indices":63
				}
			]
		},
		{
			"name":"Cube.007",
			"primitives":[
				{
					"attributes":{
						"POSITION":91,
						"NORMAL":92,
						"TEXCOORD_0":93
					},
					"indices":63
				}
			]
		},
		{
			"name":"Cube.008",
			"primitives":[
				{
					"attributes":{
						"POSITION":94,
						"NORMAL":95,
						"TEXCOORD_0":96
					},
					"indices":63
				}
			]
		},
		{
			"name":"Cube.009",
			"primitives":[
				{
					"attributes":{
						"POSITION":97,
						"NORMAL":98,
						"TEXCOORD_0":99
					},
					"indices":63
				}
			]
		},
		{
			"name":"Icosphere",
			"primitives":[
				{
					"attributes":{
						"POSITION":100,
						"NORMAL":101,
						"TEXCOORD_0":102
					},
					"indices":103
				}
			]
		},
		{
			"name":"Cube.010",
			"primitives":[
				{
					"attributes":{
						"POSITION":104,
						"NORMAL":105,
						"TEXCOORD_0":106
					},
					"indices":63
				}
			]
		}
	],
	"accessors":[
		{
			"bufferView":0,
			"componentType":5126,
			"count":164,
			"max":[
				0.1599999964237213,
				1.5,
				-0.06000036746263504
			],
			"min":[
				-0.1599999964237213,
				-1.5,
				-0.11999999731779099
			],
			"type":"VEC3"
		},
		{
			"bufferView":1,
			"componentType":5126,
			"count":164,
			"type":"VEC3"
		},
		{
			"bufferView":2,
			"componentType":5126,
			"count":164,
			"type":"VEC2"
		},
		{
			"bufferView":3,
			"componentType":5123,
			"count":468,
			"type":"SCALAR"
		},
		{
			"bufferView":4,
			"componentType":5126,
			"count":164,
			"max":[
				0.1599999964237213,
				1.5,
				0.11999999731779099
			],
			"min":[
				-0.1599999964237213,
				-1.5,
				0.059999775141477585
			],
			"type":"VEC3"
		},
		{
			"bufferView":5,
			"componentType":5126,
			"count":164,
			"type":"VEC3"
		},
		{
			"bufferView":6,
			"componentType":5126,
			"count":164,
			"type":"VEC2"
		},
		{
			"bufferView":7,
			"componentType":5126,
			"count":192,
			"max":[
				0.05000000074505806,
				1.109999418258667,
				0.05000000447034836
			],
			"min":[
				-0.05000000074505806,
				-1.1099988222122192,
				-0.05000000447034836
			],
			"type":"VEC3"
		},
		{
			"bufferView":8,
			"componentType":5126,
			"count":192,
			"type":"VEC3"
		},
		{
			"bufferView":9,
			"componentType":5126,
			"count":192,
			"type":"VEC2"
		},
		{
			"bufferView":10,
			"componentType":5123,
			"count":372,
			"type":"SCALAR"
		},
		{
			"bufferView":11,
			"componentType":5126,
			"count":516,
			"max":[
				0.15999993681907654,
				2.8400001525878906,
				1.1699998378753662
			],
			"min":[
				-0.1600000560283661,
				-0.15999996662139893,
				-1.1700000762939453
			],
			"type":"VEC3"
		},
		{
			"bufferView":12,
			"componentType":5126,
			"count":516,
			"type":"VEC3"
		},
		{
			"bufferView":13,
			"componentType":5126,
			"count":516,
			"type":"VEC2"
		},
		{
			"bufferView":14,
			"componentType":5123,
			"count":1260,
			"type":"SCALAR"
		},
		{
			"bufferView":15,
			"componentType":5126,
			"count":164,
			"max":[
				0.1599999964237213,
				1.5,
				-0.05999978631734848
			],
			"min":[
				-0.1599999964237213,
				-1.5,
				-0.11999999731779099
			],
			"type":"VEC3"
		},
		{
			"bufferView":16,
			"componentType":5126,
			"count":164,
			"type":"VEC3"
		},
		{
			"bufferView":17,
			"componentType":5126,
			"count":164,
			"type":"VEC2"
		},
		{
			"bufferView":18,
			"componentType":5126,
			"count":164,
			"max":[
				0.1599999964237213,
				1.5,
				0.11999999731779099
			],
			"min":[
				-0.1599999964237213,
				-1.5,
				0.06000036746263504
			],
			"type":"VEC3"
		},
		{
			"bufferView":19,
			"componentType":5126,
			"count":164,
			"type":"VEC3"
		},
		{
			"bufferView":20,
			"componentType":5126,
			"count":164,
			"type":"VEC2"
		},
		{
			"bufferView":21,
			"componentType":5126,
			"count":192,
			"max":[
				0.05000000074505806,
				1.2300001382827759,
				0.05000000074505806
			],
			"min":[
				-0.05000000074505806,
				-1.2300001382827759,
				-0.05000000074505806
			],
			"type":"VEC3"
		},
		{
			"bufferView":22,
			"componentType":5126,
			"count":192,
			"type":"VEC3"
		},
		{
			"bufferView":23,
			"componentType":5126,
			"count":192,
			"type":"VEC2"
		},
		{
			"bufferView":24,
			"componentType":5126,
			"count":192,
			"max":[
				0.05000000074505806,
				1.2300001382827759,
				0.05000000074505806
			],
			"min":[
				-0.05000000074505806,
				-1.2300001382827759,
				-0.05000000074505806
			],
			"type":"VEC3"
		},
		{
			"bufferView":25,
			"componentType":5126,
			"count":192,
			"type":"VEC3"
		},
		{
			"bufferView":26,
			"componentType":5126,
			"count":192,
			"type":"VEC2"
		},
		{
			"bufferView":27,
			"componentType":5126,
			"count":708,
			"max":[
				0.1600000560283661,
				1.2900004386901855,
				0.16000008583068848
			],
			"min":[
				-0.15999993681907654,
				-1.2900006771087646,
				-2.8400001525878906
			],
			"type":"VEC3"
		},
		{
			"bufferView":28,
			"componentType":5126,
			"count":708,
			"type":"VEC3"
		},
		{
			"bufferView":29,
			"componentType":5126,
			"count":708,
			"type":"VEC2"
		},
		{
			"bufferView":30,
			"componentType":5123,
			"count":1680,
			"type":"SCALAR"
		},
		{
			"bufferView":31,
			"componentType":5126,
			"count":164,
			"max":[
				0.1599999964237213,
				1.5,
				0.11999999731779099
			],
			"min":[
				-0.1599999964237213,
				-1.5,
				0.06000000983476639
			],
			"type":"VEC3"
		},
		{
			"bufferView":32,
			"componentType":5126,
			"count":164,
			"type":"VEC3"
		},
		{
			"bufferView":33,
			"componentType":5126,
			"count":164,
			"type":"VEC2"
		},
		{
			"bufferView":34,
			"componentType":5126,
			"count":164,
			"max":[
				0.1599999964237213,
				1.5,
				-0.05999978631734848
			],
			"min":[
				-0.1599999964237213,
				-1.5,
				-0.11999999731779099
			],
			"type":"VEC3"
		},
		{
			"bufferView":35,
			"componentType":5126,
			"count":164,
			"type":"VEC3"
		},
		{
			"bufferView":36,
			"componentType":5126,
			"count":164,
			"type":"VEC2"
		},
		{
			"bufferView":37,
			"componentType":5126,
			"count":192,
			"max":[
				0.05000000074505806,
				1.2300001382827759,
				0.05000000074505806
			],
			"min":[
				-0.05000000074505806,
				-1.2300001382827759,
				-0.05000000074505806
			],
			"type":"VEC3"
		},
		{
			"bufferView":38,
			"componentType":5126,
			"count":192,
			"type":"VEC3"
		},
		{
			"bufferView":39,
			"componentType":5126,
			"count":192,
			"type":"VEC2"
		},
		{
			"bufferView":40,
			"componentType":5126,
			"count":192,
			"max":[
				0.05000000074505806,
				1.2300001382827759,
				0.05000000074505806
			],
			"min":[
				-0.05000000074505806,
				-1.2300001382827759,
				-0.05000000074505806
			],
			"type":"VEC3"
		},
		{
			"bufferView":41,
			"componentType":5126,
			"count":192,
			"type":"VEC3"
		},
		{
			"bufferView":42,
			"componentType":5126,
			"count":192,
			"type":"VEC2"
		},
		{
			"bufferView":43,
			"componentType":5126,
			"count":708,
			"max":[
				0.1600000560283661,
				1.2900004386901855,
				0.16000008583068848
			],
			"min":[
				-0.15999993681907654,
				-1.2900015115737915,
				-2.8400001525878906
			],
			"type":"VEC3"
		},
		{
			"bufferView":44,
			"componentType":5126,
			"count":708,
			"type":"VEC3"
		},
		{
			"bufferView":45,
			"componentType":5126,
			"count":708,
			"type":"VEC2"
		},
		{
			"bufferView":46,
			"componentType":5123,
			"count":1680,
			"type":"SCALAR"
		},
		{
			"bufferView":47,
			"componentType":5126,
			"count":154,
			"max":[
				0.1599999964237213,
				1.5,
				0.11999999731779099
			],
			"min":[
				-0.1599999964237213,
				-1.5,
				0.05999959632754326
			],
			"type":"VEC3"
		},
		{
			"bufferView":48,
			"componentType":5126,
			"count":154,
			"type":"VEC3"
		},
		{
			"bufferView":49,
			"componentType":5126,
			"count":154,
			"type":"VEC2"
		},
		{
			"bufferView":50,
			"componentType":5123,
			"count":444,
			"type":"SCALAR"
		},
		{
			"bufferView":51,
			"componentType":5126,
			"count":164,
			"max":[
				0.1599999964237213,
				1.5,
				-0.060000188648700714
			],
			"min":[
				-0.1599999964237213,
				-1.5,
				-0.11999999731779099
			],
			"type":"VEC3"
		},
		{
			"bufferView":52,
			"componentType":5126,
			"count":164,
			"type":"VEC3"
		},
		{
			"bufferView":53,
			"componentType":5126,
			"count":164,
			"type":"VEC2"
		},
		{
			"bufferView":54,
			"componentType":5126,
			"count":192,
			"max":[
				0.05000000074505806,
				1.109999418258667,
				0.05000000447034836
			],
			"min":[
				-0.05000000074505806,
				-1.1099988222122192,
				-0.05000000447034836
			],
			"type":"VEC3"
		},
		{
			"bufferView":55,
			"componentType":5126,
			"count":192,
			"type":"VEC3"
		},
		{
			"bufferView":56,
			"componentType":5126,
			"count":192,
			"type":"VEC2"
		},
		{
			"bufferView":57,
			"componentType":5126,
			"count":516,
			"max":[
				0.15999993681907654,
				2.8400001525878906,
				1.1699998378753662
			],
			"min":[
				-0.1600000560283661,
				-0.15999996662139893,
				-1.1700000762939453
			],
			"type":"VEC3"
		},
		{
			"bufferView":58,
			"componentType":5126,
			"count":516,
			"type":"VEC3"
		},
		{
			"bufferView":59,
			"componentType":5126,
			"count":516,
			"type":"VEC2"
		},
		{
			"bufferView":60,
			"componentType":5126,
			"count":24,
			"max":[
				2,
				0.1304183006286621,
				1.5
			],
			"min":[
				-2,
				-0.1304183006286621,
				-1.5
			],
			"type":"VEC3"
		},
		{
			"bufferView":61,
			"componentType":5126,
			"count":24,
			"type":"VEC3"
		},
		{
			"bufferView":62,
			"componentType":5126,
			"count":24,
			"type":"VEC2"
		},
		{
			"bufferView":63,
			"componentType":5123,
			"count":36,
			"type":"SCALAR"
		},
		{
			"bufferView":64,
			"componentType":5126,
			"count":192,
			"max":[
				0.1356239914894104,
				2.143850326538086,
				0.1356239914894104
			],
			"min":[
				-0.1356239914894104,
				-2.143850326538086,
				-0.1356239914894104
			],
			"type":"VEC3"
		},
		{
			"bufferView":65,
			"componentType":5126,
			"count":192,
			"type":"VEC3"
		},
		{
			"bufferView":66,
			"componentType":5126,
			"count":192,
			"type":"VEC2"
		},
		{
			"bufferView":67,
			"componentType":5126,
			"count":960,
			"max":[
				0.23277242481708527,
				0.31424275040626526,
				0.23277242481708527
			],
			"min":[
				-0.23277242481708527,
				-0.31424275040626526,
				-0.23277242481708527
			],
			"type":"VEC3"
		},
		{
			"bufferView":68,
			"componentType":5126,
			"count":960,
			"type":"VEC3"
		},
		{
			"bufferView":69,
			"componentType":5123,
			"count":1524,
			"type":"SCALAR"
		},
		{
			"bufferView":70,
			"componentType":5126,
			"count":1382,
			"max":[
				4.448068618774414,
				0.31424275040626526,
				0.23277242481708527
			],
			"min":[
				-0.23277242481708527,
				-0.31424275040626526,
				-0.23277242481708527
			],
			"type":"VEC3"
		},
		{
			"bufferView":71,
			"componentType":5126,
			"count":1382,
			"type":"VEC3"
		},
		{
			"bufferView":72,
			"componentType":5126,
			"count":1382,
			"type":"VEC2"
		},
		{
			"bufferView":73,
			"componentType":5123,
			"count":2376,
			"type":"SCALAR"
		},
		{
			"bufferView":74,
			"componentType":5126,
			"count":120,
			"max":[
				0.2621973752975464,
				0.5119984745979309,
				0.2621973752975464
			],
			"min":[
				-0.2621973752975464,
				5.960464477539063e-08,
				-0.2621973752975464
			],
			"type":"VEC3"
		},
		{
			"bufferView":75,
			"componentType":5126,
			"count":120,
			"type":"VEC3"
		},
		{
			"bufferView":76,
			"componentType":5126,
			"count":120,
			"type":"VEC2"
		},
		{
			"bufferView":77,
			"componentType":5123,
			"count":228,
			"type":"SCALAR"
		},
		{
			"bufferView":78,
			"componentType":5126,
			"count":330,
			"max":[
				0.4517030715942383,
				0.5119984745979309,
				1.5
			],
			"min":[
				-4.152543544769287,
				-0.8000000715255737,
				-1.5
			],
			"type":"VEC3"
		},
		{
			"bufferView":79,
			"componentType":5126,
			"count":330,
			"type":"VEC3"
		},
		{
			"bufferView":80,
			"componentType":5126,
			"count":330,
			"type":"VEC2"
		},
		{
			"bufferView":81,
			"componentType":5123,
			"count":648,
			"type":"SCALAR"
		},
		{
			"bufferView":82,
			"componentType":5126,
			"count":24,
			"max":[
				0.5260714888572693,
				0.5260714888572693,
				0.5260714888572693
			],
			"min":[
				-0.5260714888572693,
				-0.5260714888572693,
				-0.5260714888572693
			],
			"type":"VEC3"
		},
		{
			"bufferView":83,
			"componentType":5126,
			"count":24,
			"type":"VEC3"
		},
		{
			"bufferView":84,
			"componentType":5126,
			"count":24,
			"type":"VEC2"
		},
		{
			"bufferView":85,
			"componentType":5126,
			"count":24,
			"max":[
				0.5260714888572693,
				0.5260714888572693,
				0.5260714888572693
			],
			"min":[
				-0.5260714888572693,
				-0.5260714888572693,
				-0.5260714888572693
			],
			"type":"VEC3"
		},
		{
			"bufferView":86,
			"componentType":5126,
			"count":24,
			"type":"VEC3"
		},
		{
			"bufferView":87,
			"componentType":5126,
			"count":24,
			"type":"VEC2"
		},
		{
			"bufferView":88,
			"componentType":5126,
			"count":24,
			"max":[
				0.5260714888572693,
				0.5260714888572693,
				0.5260714888572693
			],
			"min":[
				-0.5260714888572693,
				-0.5260714888572693,
				-0.5260714888572693
			],
			"type":"VEC3"
		},
		{
			"bufferView":89,
			"componentType":5126,
			"count":24,
			"type":"VEC3"
		},
		{
			"bufferView":90,
			"componentType":5126,
			"count":24,
			"type":"VEC2"
		},
		{
			"bufferView":91,
			"componentType":5126,
			"count":24,
			"max":[
				0.5260714888572693,
				0.5260714888572693,
				0.5260714888572693
			],
			"min":[
				-0.5260714888572693,
				-0.5260714888572693,
				-0.5260714888572693
			],
			"type":"VEC3"
		},
		{
			"bufferView":92,
			"componentType":5126,
			"count":24,
			"type":"VEC3"
		},
		{
			"bufferView":93,
			"componentType":5126,
			"count":24,
			"type":"VEC2"
		},
		{
			"bufferView":94,
			"componentType":5126,
			"count":24,
			"max":[
				0.21912464499473572,
				0.21912464499473572,
				0.21912464499473572
			],
			"min":[
				-0.21912464499473572,
				-0.21912464499473572,
				-0.21912464499473572
			],
			"type":"VEC3"
		},
		{
			"bufferView":95,
			"componentType":5126,
			"count":24,
			"type":"VEC3"
		},
		{
			"bufferView":96,
			"componentType":5126,
			"count":24,
			"type":"VEC2"
		},
		{
			"bufferView":97,
			"componentType":5126,
			"count":24,
			"max":[
				13.263668060302734,
				0.15425114333629608,
				2.102247714996338
			],
			"min":[
				-13.263668060302734,
				-0.15425114333629608,
				-2.102247714996338
			],
			"type":"VEC3"
		},
		{
			"bufferView":98,
			"componentType":5126,
			"count":24,
			"type":"VEC3"
		},
		{
			"bufferView":99,
			"componentType":5126,
			"count":24,
			"type":"VEC2"
		},
		{
			"bufferView":100,
			"componentType":5126,
			"count":3840,
			"max":[
				1,
				1,
				0.9999999403953552
			],
			"min":[
				-0.9999999403953552,
				-1,
				-0.9999999403953552
			],
			"type":"VEC3"
		},
		{
			"bufferView":101,
			"componentType":5126,
			"count":3840,
			"type":"VEC3"
		},
		{
			"bufferView":102,
			"componentType":5126,
			"count":3840,
			"type":"VEC2"
		},
		{
			"bufferView":103,
			"componentType":5123,
			"count":3840,
			"type":"SCALAR"
		},
		{
			"bufferView":104,
			"componentType":5126,
			"count":24,
			"max":[
				4.788543701171875,
				0.15425114333629608,
				2.102247714996338
			],
			"min":[
				-4.788543701171875,
				-0.15425114333629608,
				-2.102247714996338
			],
			"type":"VEC3"
		},
		{
			"bufferView":105,
			"componentType":5126,
			"count":24,
			"type":"VEC3"
		},
		{
			"bufferView":106,
			"componentType":5126,
			"count":24,
			"type":"VEC2"
		}
	],
	"bufferViews":[
		{
			"buffer":0,
			"byteLength":1968,
			"byteOffset":0,
			"target":34962
		},
		{
			"buffer":0,
			"byteLength":1968,
			"byteOffset":1968,
			"target":34962
		},
		{
			"buffer":0,
			"byteLength":1312,
			"byteOffset":3936,
			"target":34962
		},
		{
			"buffer":0,
			"byteLength":936,
			"byteOffset":5248,
			"target":34963
		},
		{
			"buffer":0,
			"byteLength":1968,
			"byteOffset":6184,
			"target":34962
		},
		{
			"buffer":0,
			"byteLength":1968,
			"byteOffset":8152,
			"target":34962
		},
		{
			"buffer":0,
			"byteLength":1312,
			"byteOffset":10120,
			"target":34962
		},
		{
			"buffer":0,
			"byteLength":2304,
			"byteOffset":11432,
			"target":34962
		},
		{
			"buffer":0,
			"byteLength":2304,
			"byteOffset":13736,
			"target":34962
		},
		{
			"buffer":0,
			"byteLength":1536,
			"byteOffset":16040,
			"target":34962
		},
		{
			"buffer":0,
			"byteLength":744,
			"byteOffset":17576,
			"target":34963
		},
		{
			"buffer":0,
			"byteLength":6192,
			"byteOffset":18320,
			"target":34962
		},
		{
			"buffer":0,
			"byteLength":6192,
			"byteOffset":24512,
			"target":34962
		},
		{
			"buffer":0,
			"byteLength":4128,
			"byteOffset":30704,
			"target":34962
		},
		{
			"buffer":0,
			"byteLength":2520,
			"byteOffset":34832,
			"target":34963
		},
		{
			"buffer":0,
			"byteLength":1968,
			"byteOffset":37352,
			"target":34962
		},
		{
			"buffer":0,
			"byteLength":1968,
			"byteOffset":39320,
			"target":34962
		},
		{
			"buffer":0,
			"byteLength":1312,
			"byteOffset":41288,
			"target":34962
		},
		{
			"buffer":0,
			"byteLength":1968,
			"byteOffset":42600,
			"target":34962
		},
		{
			"buffer":0,
			"byteLength":1968,
			"byteOffset":44568,
			"target":34962
		},
		{
			"buffer":0,
			"byteLength":1312,
			"byteOffset":46536,
			"target":34962
		},
		{
			"buffer":0,
			"byteLength":2304,
			"byteOffset":47848,
			"target":34962
		},
		{
			"buffer":0,
			"byteLength":2304,
			"byteOffset":50152,
			"target":34962
		},
		{
			"buffer":0,
			"byteLength":1536,
			"byteOffset":52456,
			"target":34962
		},
		{
			"buffer":0,
			"byteLength":2304,
			"byteOffset":53992,
			"target":34962
		},
		{
			"buffer":0,
			"byteLength":2304,
			"byteOffset":56296,
			"target":34962
		},
		{
			"buffer":0,
			"byteLength":1536,
			"byteOffset":58600,
			"target":34962
		},
		{
			"buffer":0,
			"byteLength":8496,
			"byteOffset":60136,
			"target":34962
		},
		{
			"buffer":0,
			"byteLength":8496,
			"byteOffset":68632,
			"target":34962
		},
		{
			"buffer":0,
			"byteLength":5664,
			"byteOffset":77128,
			"target":34962
		},
		{
			"buffer":0,
			"byteLength":3360,
			"byteOffset":82792,
			"target":34963
		},
		{
			"buffer":0,
			"byteLength":1968,
			"byteOffset":86152,
			"target":34962
		},
		{
			"buffer":0,
			"byteLength":1968,
			"byteOffset":88120,
			"target":34962
		},
		{
			"buffer":0,
			"byteLength":1312,
			"byteOffset":90088,
			"target":34962
		},
		{
			"buffer":0,
			"byteLength":1968,
			"byteOffset":91400,
			"target":34962
		},
		{
			"buffer":0,
			"byteLength":1968,
			"byteOffset":93368,
			"target":34962
		},
		{
			"buffer":0,
			"byteLength":1312,
			"byteOffset":95336,
			"target":34962
		},
		{
			"buffer":0,
			"byteLength":2304,
			"byteOffset":96648,
			"target":34962
		},
		{
			"buffer":0,
			"byteLength":2304,
			"byteOffset":98952,
			"target":34962
		},
		{
			"buffer":0,
			"byteLength":1536,
			"byteOffset":101256,
			"target":34962
		},
		{
			"buffer":0,
			"byteLength":2304,
			"byteOffset":102792,
			"target":34962
		},
		{
			"buffer":0,
			"byteLength":2304,
			"byteOffset":105096,
			"target":34962
		},
		{
			"buffer":0,
			"byteLength":1536,
			"byteOffset":107400,
			"target":34962
		},
		{
			"buffer":0,
			"byteLength":8496,
			"byteOffset":108936,
			"target":34962
		},
		{
			"buffer":0,
			"byteLength":8496,
			"byteOffset":117432,
			"target":34962
		},
		{
			"buffer":0,
			"byteLength":5664,
			"byteOffset":125928,
			"target":34962
		},
		{
			"buffer":0,
			"byteLength":3360,
			"byteOffset":131592,
			"target":34963
		},
		{
			"buffer":0,
			"byteLength":1848,
			"byteOffset":134952,
			"target":34962
		},
		{
			"buffer":0,
			"byteLength":1848,
			"byteOffset":136800,
			"target":34962
		},
		{
			"buffer":0,
			"byteLength":1232,
			"byteOffset":138648,
			"target":34962
		},
		{
			"buffer":0,
			"byteLength":888,
			"byteOffset":139880,
			"target":34963
		},
		{
			"buffer":0,
			"byteLength":1968,
			"byteOffset":140768,
			"target":34962
		},
		{
			"buffer":0,
			"byteLength":1968,
			"byteOffset":142736,
			"target":34962
		},
		{
			"buffer":0,
			"byteLength":1312,
			"byteOffset":144704,
			"target":34962
		},
		{
			"buffer":0,
			"byteLength":2304,
			"byteOffset":146016,
			"target":34962
		},
		{
			"buffer":0,
			"byteLength":2304,
			"byteOffset":148320,
			"target":34962
		},
		{
			"buffer":0,
			"byteLength":1536,
			"byteOffset":150624,
			"target":34962
		},
		{
			"buffer":0,
			"byteLength":6192,
			"byteOffset":152160,
			"target":34962
		},
		{
			"buffer":0,
			"byteLength":6192,
			"byteOffset":158352,
			"target":34962
		},
		{
			"buffer":0,
			"byteLength":4128,
			"byteOffset":164544,
			"target":34962
		},
		{
			"buffer":0,
			"byteLength":288,
			"byteOffset":168672,
			"target":34962
		},
		{
			"buffer":0,
			"byteLength":288,
			"byteOffset":168960,
			"target":34962
		},
		{
			"buffer":0,
			"byteLength":192,
			"byteOffset":169248,
			"target":34962
		},
		{
			"buffer":0,
			"byteLength":72,
			"byteOffset":169440,
			"target":34963
		},
		{
			"buffer":0,
			"byteLength":2304,
			"byteOffset":169512,
			"target":34962
		},
		{
			"buffer":0,
			"byteLength":2304,
			"byteOffset":171816,
			"target":34962
		},
		{
			"buffer":0,
			"byteLength":1536,
			"byteOffset":174120,
			"target":34962
		},
		{
			"buffer":0,
			"byteLength":11520,
			"byteOffset":175656,
			"target":34962
		},
		{
			"buffer":0,
			"byteLength":11520,
			"byteOffset":187176,
			"target":34962
		},
		{
			"buffer":0,
			"byteLength":3048,
			"byteOffset":198696,
			"target":34963
		},
		{
			"buffer":0,
			"byteLength":16584,
			"byteOffset":201744,
			"target":34962
		},
		{
			"buffer":0,
			"byteLength":16584,
			"byteOffset":218328,
			"target":34962
		},
		{
			"buffer":0,
			"byteLength":11056,
			"byteOffset":234912,
			"target":34962
		},
		{
			"buffer":0,
			"byteLength":4752,
			"byteOffset":245968,
			"target":34963
		},
		{
			"buffer":0,
			"byteLength":1440,
			"byteOffset":250720,
			"target":34962
		},
		{
			"buffer":0,
			"byteLength":1440,
			"byteOffset":252160,
			"target":34962
		},
		{
			"buffer":0,
			"byteLength":960,
			"byteOffset":253600,
			"target":34962
		},
		{
			"buffer":0,
			"byteLength":456,
			"byteOffset":254560,
			"target":34963
		},
		{
			"buffer":0,
			"byteLength":3960,
			"byteOffset":255016,
			"target":34962
		},
		{
			"buffer":0,
			"byteLength":3960,
			"byteOffset":258976,
			"target":34962
		},
		{
			"buffer":0,
			"byteLength":2640,
			"byteOffset":262936,
			"target":34962
		},
		{
			"buffer":0,
			"byteLength":1296,
			"byteOffset":265576,
			"target":34963
		},
		{
			"buffer":0,
			"byteLength":288,
			"byteOffset":266872,
			"target":34962
		},
		{
			"buffer":0,
			"byteLength":288,
			"byteOffset":267160,
			"target":34962
		},
		{
			"buffer":0,
			"byteLength":192,
			"byteOffset":267448,
			"target":34962
		},
		{
			"buffer":0,
			"byteLength":288,
			"byteOffset":267640,
			"target":34962
		},
		{
			"buffer":0,
			"byteLength":288,
			"byteOffset":267928,
			"target":34962
		},
		{
			"buffer":0,
			"byteLength":192,
			"byteOffset":268216,
			"target":34962
		},
		{
			"buffer":0,
			"byteLength":288,
			"byteOffset":268408,
			"target":34962
		},
		{
			"buffer":0,
			"byteLength":288,
			"byteOffset":268696,
			"target":34962
		},
		{
			"buffer":0,
			"byteLength":192,
			"byteOffset":268984,
			"target":34962
		},
		{
			"buffer":0,
			"byteLength":288,
			"byteOffset":269176,
			"target":34962
		},
		{
			"buffer":0,
			"byteLength":288,
			"byteOffset":269464,
			"target":34962
		},
		{
			"buffer":0,
			"byteLength":192,
			"byteOffset":269752,
			"target":34962
		},
		{
			"buffer":0,
			"byteLength":288,
			"byteOffset":269944,
			"target":34962
		},
		{
			"buffer":0,
			"byteLength":288,
			"byteOffset":270232,
			"target":34962
		},
		{
			"buffer":0,
			"byteLength":192,
			"byteOffset":270520,
			"target":34962
		},
		{
			"buffer":0,
			"byteLength":288,
			"byteOffset":270712,
			"target":34962
		},
		{
			"buffer":0,
			"byteLength":288,
			"byteOffset":271000,
			"target":34962
		},
		{
			"buffer":0,
			"byteLength":192,
			"byteOffset":271288,
			"target":34962
		},
		{
			"buffer":0,
			"byteLength":46080,
			"byteOffset":271480,
			"target":34962
		},
		{
			"buffer":0,
			"byteLength":46080,
			"byteOffset":317560,
			"target":34962
		},
		{
			"buffer":0,
			"byteLength":30720,
			"byteOffset":363640,
			"target":34962
		},
		{
			"buffer":0,
			"byteLength":7680,
			"byteOffset":394360,
			"target":34963
		},
		{
			"buffer":0,
			"byteLength":288,
			"byteOffset":402040,
			"target":34962
		},
		{
			"buffer":0,
			"byteLength":288,
			"byteOffset":402328,
			"target":34962
		},
		{
			"buffer":0,
			"byteLength":192,
			"byteOffset":402616,
			"target":34962
		}
	],
	"buffers":[
		{
			"byteLength":402808,
			"uri":"forklift.bin"
		}
	]
}
