{
	"asset":{
		"generator":"Khronos glTF Blender I/O v4.5.48",
		"version":"2.0"
	},
	"extensionsUsed":[
		"KHR_physics_rigid_bodies",
		"KHR_implicit_shapes"
	],
	"extensions":{
		"KHR_physics_rigid_bodies":{
			"physicsMaterials":[
				{
					"staticFriction":0.5,
					"dynamicFriction":0.5,
					"restitution":0
				},
				{
					"staticFriction":0.5,
					"dynamicFriction":0.5,
					"restitution":0.2714286148548126
				},
				{
					"staticFriction":0.5,
					"dynamicFriction":0.5,
					"restitution":0.1952381134033203
				},
				{
					"staticFriction":0.5,
					"dynamicFriction":0.5,
					"restitution":0.18571430444717407
				},
				{
					"staticFriction":0.5,
					"dynamicFriction":0.5,
					"restitution":0.1904761791229248
				},
				{
					"staticFriction":0.5,
					"dynamicFriction":0.5,
					"restitution":0.8317612409591675
				},
				{
					"staticFriction":0.5,
					"dynamicFriction":0.5,
					"restitution":0.7428571581840515
				},
				{
					"staticFriction":0.5,
					"dynamicFriction":0.5,
					"restitution":0.6095238327980042
				},
				{
					"staticFriction":0.5,
					"dynamicFriction":0.5,
					"restitution":0.6952381134033203
				}
			],
			"collisionFilters":[
				{
					"collisionSystems":[
						"System_0"
					],
					"collideWithSystems":[
						"System_0"
					]
				}
			],
			"physicsJoints":[
				{
					"limits":[
						{
							"linearAxes":[
								0,
								2,
								1
							],
							"min":0,
							"max":0
						},
						{
							"angularAxes":[
								0,
								2
							],
							"min":0,
							"max":0
						}
					]
				},
				{
					"limits":[
						{
							"angularAxes":[
								0,
								2,
								1
							],
							"min":0,
							"max":0
						},
						{
							"linearAxes":[
								2,
								1
							],
							"min":0,
							"max":0
						}
					]
				}
			]
		},
		"KHR_implicit_shapes":{
			"shapes":[
				{
					"type":"box",
					"box":{
						"size":[
							2,
							2,
							2
						]
					}
				},
				{
					"type":"box",
					"box":{
						"size":[
							1.3070383071899414,
							3.6563425064086914,
							6.149166107177734
						]
					}
				},
				{
					"type":"box",
					"box":{
						"size":[
							2,
							3.6600000858306885,
							13.600000381469727
						]
					}
				}
			]
		}
	},
	"scene":0,
	"scenes":[
		{
			"extras":{
				"khr_physics_scene_viewer_props":{},
				"khr_physics_exporter_props":{
					"reparent_bones":0
				}
			},
			"name":"Scene",
			"nodes":[
				5,
				18,
				19,
				24,
				29,
				32,
				41,
				43,
				45
			]
		}
	],
	"nodes":[
		{
			"mesh":0,
			"name":"physicsMeshDataNode",
			"rotation":[
				0,
				0,
				0,
				1
			],
			"translation":[
				0,
				0,
				0
			]
		},
		{
			"extensions":{
				"KHR_physics_rigid_bodies":{
					"collider":{
						"geometry":{
							"convexHull":true,
							"node":0
						},
						"physicsMaterial":0,
						"collisionFilter":0
					}
				}
			},
			"extras":{
				"khr_physics_extra_props":{
					"non_renderable":1
				}
			},
			"name":"handle",
			"rotation":[
				0,
				0,
				1,
				7.549790126404332e-08
			],
			"translation":[
				0,
				0.3040718138217926,
				0
			]
		},
		{
			"mesh":1,
			"name":"physicsMeshDataNode",
			"rotation":[
				0,
				0,
				0,
				1
			],
			"translation":[
				0,
				0,
				0
			]
		},
		{
			"extensions":{
				"KHR_physics_rigid_bodies":{
					"collider":{
						"geometry":{
							"convexHull":true,
							"node":2
						},
						"physicsMaterial":0,
						"collisionFilter":0
					}
				}
			},
			"extras":{
				"khr_physics_extra_props":{
					"non_renderable":1
				}
			},
			"name":"pinion",
			"translation":[
				0,
				0.45407187938690186,
				0
			]
		},
		{
			"name":"jointSpaceB",
			"rotation":[
				0,
				0,
				0,
				1
			],
			"translation":[
				-3.4281463001661905e-08,
				1.0134158401342575e-08,
				0
			]
		},
		{
			"children":[
				1,
				3,
				4
			],
			"extensions":{
				"KHR_physics_rigid_bodies":{
					"motion":{
						"mass":1
					}
				}
			},
			"extras":{
				"khr_physics_extra_props":{}
			},
			"mesh":2,
			"name":"driving_gear",
			"rotation":[
				0,
				0,
				-0.7071068286895752,
				0.7071068286895752
			],
			"translation":[
				-0.4540717303752899,
				-1.0500001907348633,
				-10.149552345275879
			]
		},
		{
			"mesh":3,
			"name":"physicsMeshDataNode",
			"rotation":[
				0,
				0,
				0,
				1
			],
			"translation":[
				0,
				0,
				0
			]
		},
		{
			"extensions":{
				"KHR_physics_rigid_bodies":{
					"collider":{
						"geometry":{
							"convexHull":true,
							"node":6
						},
						"physicsMaterial":1,
						"collisionFilter":0
					}
				}
			},
			"extras":{
				"khr_physics_extra_props":{
					"non_renderable":1
				}
			},
			"name":"axis0",
			"rotation":[
				0,
				0,
				-1,
				3.774895773744902e-08
			]
		},
		{
			"mesh":4,
			"name":"physicsMeshDataNode",
			"rotation":[
				0,
				0,
				0,
				1
			],
			"translation":[
				0,
				0,
				0
			]
		},
		{
			"extensions":{
				"KHR_physics_rigid_bodies":{
					"collider":{
						"geometry":{
							"convexHull":true,
							"node":8
						},
						"physicsMaterial":2,
						"collisionFilter":0
					}
				}
			},
			"extras":{
				"khr_physics_extra_props":{
					"non_renderable":1
				}
			},
			"name":"axis1",
			"rotation":[
				0,
				0,
				-1,
				3.774895773744902e-08
			],
			"translation":[
				0,
				0.7265140414237976,
				0
			]
		},
		{
			"mesh":5,
			"name":"physicsMeshDataNode",
			"rotation":[
				0,
				0,
				0,
				1
			],
			"translation":[
				0,
				0,
				0
			]
		},
		{
			"extensions":{
				"KHR_physics_rigid_bodies":{
					"collider":{
						"geometry":{
							"convexHull":true,
							"node":10
						},
						"physicsMaterial":3,
						"collisionFilter":0
					}
				}
			},
			"extras":{
				"khr_physics_extra_props":{
					"non_renderable":1
				}
			},
			"name":"bar",
			"rotation":[
				0,
				0,
				-0.7071068286895752,
				0.7071068286895752
			],
			"translation":[
				2.1745412349700928,
				-0.3729104995727539,
				0
			]
		},
		{
			"mesh":6,
			"name":"physicsMeshDataNode",
			"rotation":[
				0,
				0,
				0,
				1
			],
			"translation":[
				0,
				0,
				0
			]
		},
		{
			"extensions":{
				"KHR_physics_rigid_bodies":{
					"collider":{
						"geometry":{
							"convexHull":true,
							"node":12
						},
						"physicsMaterial":4,
						"collisionFilter":0
					}
				}
			},
			"extras":{
				"khr_physics_extra_props":{
					"non_renderable":1
				}
			},
			"name":"cog_flywheel",
			"translation":[
				0,
				0.06000000983476639,
				0
			]
		},
		{
			"extensions":{},
			"extras":{
				"khr_physics_extra_constraint_props":{}
			},
			"name":"Empty",
			"rotation":[
				0,
				0,
				-1,
				3.774895773744902e-08
			],
			"translation":[
				4.4545745849609375,
				-0.6342102885246277,
				0
			]
		},
		{
			"name":"jointSpaceB",
			"rotation":[
				-0.5000000596046448,
				-0.5,
				-0.4999999701976776,
				0.5
			],
			"translation":[
				6.694085641356651e-08,
				-4.480929851531982,
				3.053593218282913e-07
			]
		},
		{
			"extensions":{
				"KHR_physics_rigid_bodies":{
					"joint":{
						"connectedNode":15,
						"joint":0
					}
				}
			},
			"name":"jointSpaceA",
			"rotation":[
				2.1855694143368964e-08,
				-8.250295194439162e-16,
				-1,
				3.774895773744902e-08
			],
			"translation":[
				4.4545745849609375,
				-0.6342102885246277,
				1.9471563916795276e-07
			]
		},
		{
			"name":"jointSpaceB",
			"rotation":[
				2.1855694143368964e-08,
				-8.250295194439162e-16,
				-1,
				3.774895773744902e-08
			],
			"translation":[
				1.0571672525013995e-14,
				-7.450580596923828e-09,
				0
			]
		},
		{
			"children":[
				7,
				9,
				11,
				13,
				14,
				16,
				17
			],
			"extensions":{
				"KHR_physics_rigid_bodies":{
					"motion":{
						"mass":0.5
					}
				}
			},
			"extras":{
				"khr_physics_extra_props":{}
			},
			"mesh":7,
			"name":"following_gear",
			"rotation":[
				0,
				0,
				0.7071068286895752,
				0.7071068286895752
			],
			"translation":[
				-0.007011532783508301,
				0,
				-6.985806941986084
			]
		},
		{
			"extensions":{
				"KHR_physics_rigid_bodies":{
					"motion":{
						"mass":1
					},
					"collider":{
						"geometry":{
							"shape":0
						},
						"physicsMaterial":5,
						"collisionFilter":0
					}
				}
			},
			"extras":{
				"khr_physics_extra_props":{}
			},
			"mesh":8,
			"name":"Cube",
			"rotation":[
				-0.9814682006835938,
				0.11519606411457062,
				-0.001530356239527464,
				0.1531265825033188
			],
			"translation":[
				0.4287092685699463,
				10.534409523010254,
				1.0295963287353516
			]
		},
		{
			"extensions":{},
			"extras":{
				"khr_physics_extra_constraint_props":{}
			},
			"name":"Empty.001",
			"rotation":[
				-0.5000000596046448,
				-0.5,
				-0.4999999701976776,
				0.5
			],
			"translation":[
				0,
				4.5622148513793945,
				0
			]
		},
		{
			"name":"jointSpaceB",
			"rotation":[
				0.7071067690849304,
				0.7071067690849304,
				-5.338507591545749e-08,
				5.338508302088485e-08
			],
			"translation":[
				0.2612997889518738,
				-4.480929851531982,
				6.726220362907043e-07
			]
		},
		{
			"extensions":{
				"KHR_physics_rigid_bodies":{
					"joint":{
						"connectedNode":21,
						"joint":0
					}
				}
			},
			"name":"jointSpaceA",
			"rotation":[
				-0.5000000596046448,
				-0.5,
				-0.4999999701976776,
				0.5
			],
			"translation":[
				-3.283477099103038e-07,
				4.5622148513793945,
				-8.992908817617717e-08
			]
		},
		{
			"mesh":9,
			"name":"physicsMeshDataNode",
			"rotation":[
				0,
				0,
				0,
				1
			],
			"translation":[
				0,
				0,
				0
			]
		},
		{
			"children":[
				20,
				15,
				22
			],
			"extensions":{
				"KHR_physics_rigid_bodies":{
					"motion":{
						"mass":0.800000011920929
					},
					"collider":{
						"geometry":{
							"convexHull":true,
							"node":23
						},
						"physicsMaterial":6,
						"collisionFilter":0
					}
				}
			},
			"extras":{
				"khr_physics_extra_props":{
					"non_renderable":0
				}
			},
			"mesh":9,
			"name":"bar.001",
			"rotation":[
				0.7071068286895752,
				0,
				0,
				0.7071068286895752
			],
			"translation":[
				0.6271988749504089,
				4.4545745849609375,
				-2.5048770904541016
			]
		},
		{
			"extensions":{},
			"extras":{
				"khr_physics_extra_constraint_props":{}
			},
			"name":"Empty.002",
			"rotation":[
				0.7071068286895752,
				0.7071068286895752,
				0,
				5.338509012631221e-08
			]
		},
		{
			"name":"jointSpaceB",
			"rotation":[
				0,
				0,
				5.960464477539063e-08,
				1
			],
			"translation":[
				-5.138421954598016e-08,
				1.1644141674041748,
				0
			]
		},
		{
			"extensions":{
				"KHR_physics_rigid_bodies":{
					"joint":{
						"connectedNode":26,
						"joint":0
					}
				}
			},
			"name":"jointSpaceA",
			"rotation":[
				0.7071067690849304,
				0.7071067690849304,
				-5.338507591545749e-08,
				5.338508302088485e-08
			],
			"translation":[
				-1.1520204790116395e-09,
				-3.574669449335488e-10,
				-3.979535811993173e-09
			]
		},
		{
			"mesh":10,
			"name":"physicsMeshDataNode",
			"rotation":[
				0,
				0,
				0,
				1
			],
			"translation":[
				0,
				0,
				0
			]
		},
		{
			"children":[
				25,
				21,
				27
			],
			"extensions":{
				"KHR_physics_rigid_bodies":{
					"motion":{
						"mass":0.5
					},
					"collider":{
						"geometry":{
							"convexHull":true,
							"node":28
						},
						"physicsMaterial":0,
						"collisionFilter":0
					}
				}
			},
			"extras":{
				"khr_physics_extra_props":{
					"non_renderable":0
				}
			},
			"mesh":10,
			"name":"pointer",
			"rotation":[
				-1,
				0,
				0,
				7.549790126404332e-08
			],
			"translation":[
				0.3658991754055023,
				-0.026355266571044922,
				2.057337760925293
			]
		},
		{
			"name":"jointSpaceB",
			"rotation":[
				-0.5000000596046448,
				-0.4999999403953552,
				0.4999999403953552,
				0.5000000596046448
			],
			"translation":[
				0.4479979872703552,
				2.768550395965576,
				-0.6948956847190857
			]
		},
		{
			"mesh":11,
			"name":"physicsMeshDataNode",
			"rotation":[
				0,
				0,
				0,
				1
			],
			"translation":[
				0,
				0,
				0
			]
		},
		{
			"children":[
				30
			],
			"extensions":{
				"KHR_physics_rigid_bodies":{
					"motion":{
						"mass":1.2000000476837158
					},
					"collider":{
						"geometry":{
							"convexHull":true,
							"node":31
						},
						"physicsMaterial":0,
						"collisionFilter":0
					}
				}
			},
			"extras":{
				"khr_physics_extra_props":{
					"non_renderable":0
				}
			},
			"mesh":11,
			"name":"rack",
			"rotation":[
				0.7071068286895752,
				0,
				0,
				0.7071068286895752
			],
			"translation":[
				0.07123809307813644,
				-2.379664659500122,
				-6.969991207122803
			]
		},
		{
			"extensions":{
				"KHR_physics_rigid_bodies":{
					"collider":{
						"geometry":{
							"shape":1
						},
						"physicsMaterial":7,
						"collisionFilter":0
					}
				}
			},
			"extras":{
				"khr_physics_extra_props":{
					"non_renderable":1
				}
			},
			"name":"Cube.003",
			"rotation":[
				0,
				0,
				0.7071068286895752,
				0.7071068286895752
			],
			"translation":[
				1.8281712532043457,
				-0.3464806377887726,
				-9.882307052612305
			]
		},
		{
			"extensions":{
				"KHR_physics_rigid_bodies":{
					"collider":{
						"geometry":{
							"shape":2
						},
						"physicsMaterial":8,
						"collisionFilter":0
					}
				}
			},
			"extras":{
				"khr_physics_extra_props":{
					"non_renderable":1
				}
			},
			"name":"Cube.004",
			"rotation":[
				0,
				0,
				0.7071068286895752,
				0.7071068286895752
			],
			"translation":[
				1.8300001621246338,
				0,
				0.007723808288574219
			]
		},
		{
			"extensions":{},
			"extras":{
				"khr_physics_extra_constraint_props":{}
			},
			"name":"driving_revolute",
			"translation":[
				1.0236449241638184,
				0.34444329142570496,
				-12.206890106201172
			]
		},
		{
			"extensions":{},
			"extras":{
				"khr_physics_extra_constraint_props":{}
			},
			"name":"following_revolute",
			"translation":[
				-0.02635529264807701,
				0.7915034294128418,
				-9.043144226074219
			]
		},
		{
			"extensions":{},
			"extras":{
				"khr_physics_extra_constraint_props":{}
			},
			"name":"rack_prismatic",
			"rotation":[
				0.4999999403953552,
				-0.4999999403953552,
				0.5000000596046448,
				0.5000001192092896
			],
			"translation":[
				1.6584137678146362,
				1.3177512884140015,
				-6.2587785720825195
			]
		},
		{
			"extensions":{
				"KHR_physics_rigid_bodies":{
					"joint":{
						"connectedNode":4,
						"joint":0
					}
				}
			},
			"name":"jointSpaceA",
			"rotation":[
				0,
				0,
				5.960464477539063e-08,
				1
			],
			"translation":[
				1.0236449241638184,
				0.34444329142570496,
				-12.206890106201172
			]
		},
		{
			"extensions":{
				"KHR_physics_rigid_bodies":{
					"joint":{
						"connectedNode":17,
						"joint":0
					}
				}
			},
			"name":"jointSpaceA",
			"rotation":[
				0,
				0,
				5.960464477539063e-08,
				1
			],
			"translation":[
				-0.02635529264807701,
				0.7915034294128418,
				-9.043144226074219
			]
		},
		{
			"extensions":{
				"KHR_physics_rigid_bodies":{
					"joint":{
						"connectedNode":30,
						"joint":1
					}
				}
			},
			"name":"jointSpaceA",
			"rotation":[
				0.4999999403953552,
				-0.4999999403953552,
				0.5000000596046448,
				0.5000001192092896
			],
			"translation":[
				1.6584137678146362,
				1.3177512884140015,
				-6.2587785720825195
			]
		},
		{
			"children":[
				33,
				34,
				35,
				36,
				37,
				26,
				38,
				39,
				40
			],
			"extensions":{},
			"extras":{
				"khr_physics_extra_props":{}
			},
			"mesh":12,
			"name":"base",
			"rotation":[
				0,
				0,
				-0.7071068286895752,
				0.7071068286895752
			],
			"translation":[
				-0.7985149621963501,
				-0.026355266571044922,
				2.057337760925293
			]
		},
		{
			"mesh":13,
			"name":"physicsMeshDataNode",
			"rotation":[
				0,
				0,
				0,
				1
			],
			"translation":[
				0,
				0,
				0
			]
		},
		{
			"extensions":{
				"KHR_physics_rigid_bodies":{
					"collider":{
						"geometry":{
							"convexHull":true,
							"node":42
						},
						"physicsMaterial":0,
						"collisionFilter":0
					}
				}
			},
			"extras":{
				"khr_physics_extra_props":{}
			},
			"mesh":13,
			"name":"Cube.002",
			"translation":[
				-0.5643525123596191,
				0.3202078640460968,
				-9.470305442810059
			]
		},
		{
			"mesh":14,
			"name":"physicsMeshDataNode",
			"rotation":[
				0,
				0,
				0,
				1
			],
			"translation":[
				0,
				0,
				0
			]
		},
		{
			"extensions":{
				"KHR_physics_rigid_bodies":{
					"collider":{
						"geometry":{
							"convexHull":true,
							"node":44
						},
						"physicsMaterial":0,
						"collisionFilter":0
					}
				}
			},
			"extras":{
				"khr_physics_extra_props":{}
			},
			"mesh":14,
			"name":"Cube.005",
			"translation":[
				-0.5643525123596191,
				0.47295069694519043,
				7.22448205947876
			]
		}
	],
	"meshes":[
		{
			"name":"Cylinder.005",
			"primitives":[
				{
					"attributes":{
						"POSITION":0,
						"NORMAL":1,
						"TEXCOORD_0":2
					},
					"indices":3
				}
			]
		},
		{
			"name":"Cylinder.006",
			"primitives":[
				{
					"attributes":{
						"POSITION":4,
						"NORMAL":5,
						"TEXCOORD_0":6
					},
					"indices":3
				}
			]
		},
		{
			"name":"Cylinder.002",
			"primitives":[
				{
					"attributes":{
						"POSITION":7,
						"NORMAL":8,
						"TEXCOORD_0":9
					},
					"indices":10
				}
			]
		},
		{
			"name":"Cylinder.007",
			"primitives":[
				{
					"attributes":{
						"POSITION":11,
						"NORMAL":12,
						"TEXCOORD_0":13
					},
					"indices":3
				}
			]
		},
		{
			"name":"Cylinder.010",
			"primitives":[
				{
					"attributes":{
						"POSITION":14,
						"NORMAL":15,
						"TEXCOORD_0":16
					},
					"indices":3
				}
			]
		},
		{
			"name":"Cube.002",
			"primitives":[
				{
					"attributes":{
						"POSITION":17,
						"NORMAL":18,
						"TEXCOORD_0":19
					},
					"indices":20
				}
			]
		},
		{
			"name":"Cylinder.009",
			"primitives":[
				{
					"attributes":{
						"POSITION":21,
						"NORMAL":22,
						"TEXCOORD_0":23
					},
					"indices":3
				}
			]
		},
		{
			"name":"Cylinder.008",
			"primitives":[
				{
					"attributes":{
						"POSITION":24,
						"NORMAL":25,
						"TEXCOORD_0":26
					},
					"indices":27
				}
			]
		},
		{
			"name":"Cube",
			"primitives":[
				{
					"attributes":{
						"POSITION":28,
						"NORMAL":29,
						"TEXCOORD_0":30
					},
					"indices":31
				}
			]
		},
		{
			"name":"Cube.007",
			"primitives":[
				{
					"attributes":{
						"POSITION":32,
						"NORMAL":33,
						"TEXCOORD_0":34
					},
					"indices":20
				}
			]
		},
		{
			"name":"Cube.009",
			"primitives":[
				{
					"attributes":{
						"POSITION":35,
						"NORMAL":36,
						"TEXCOORD_0":37
					},
					"indices":38
				}
			]
		},
		{
			"name":"Cube.013",
			"primitives":[
				{
					"attributes":{
						"POSITION":39,
						"NORMAL":40,
						"TEXCOORD_0":41
					},
					"indices":20
				}
			]
		},
		{
			"name":"Cylinder.004",
			"primitives":[
				{
					"attributes":{
						"POSITION":42,
						"NORMAL":43,
						"TEXCOORD_0":44
					},
					"indices":45
				}
			]
		},
		{
			"name":"Cube.001",
			"primitives":[
				{
					"attributes":{
						"POSITION":46,
						"NORMAL":47,
						"TEXCOORD_0":48
					},
					"indices":49
				}
			]
		},
		{
			"name":"Cube.003",
			"primitives":[
				{
					"attributes":{
						"POSITION":50,
						"NORMAL":51,
						"TEXCOORD_0":52
					},
					"indices":49
				}
			]
		}
	],
	"accessors":[
		{
			"bufferView":0,
			"componentType":5126,
			"count":192,
			"max":[
				0.1819542497396469,
				1.5162854194641113,
				0.1819542497396469
			],
			"min":[
				-0.1819542646408081,
				0,
				-0.1819542497396469
			],
			"type":"VEC3"
		},
		{
			"bufferView":1,
			"componentType":5126,
			"count":192,
			"type":"VEC3"
		},
		{
			"bufferView":2,
			"componentType":5126,
			"count":192,
			"type":"VEC2"
		},
		{
			"bufferView":3,
			"componentType":5123,
			"count":372,
			"type":"SCALAR"
		},
		{
			"bufferView":4,
			"componentType":5126,
			"count":192,
			"max":[
				0.75,
				0.15000000596046448,
				0.7500001788139343
			],
			"min":[
				-0.75,
				-0.15000000596046448,
				-0.7499998211860657
			],
			"type":"VEC3"
		},
		{
			"bufferView":5,
			"componentType":5126,
			"count":192,
			"type":"VEC3"
		},
		{
			"bufferView":6,
			"componentType":5126,
			"count":192,
			"type":"VEC2"
		},
		{
			"bufferView":7,
			"componentType":5126,
			"count":384,
			"max":[
				0.7499997615814209,
				0.6040717363357544,
				0.75
			],
			"min":[
				-0.7500002384185791,
				-1.2122138738632202,
				-0.75
			],
			"type":"VEC3"
		},
		{
			"bufferView":8,
			"componentType":5126,
			"count":384,
			"type":"VEC3"
		},
		{
			"bufferView":9,
			"componentType":5126,
			"count":384,
			"type":"VEC2"
		},
		{
			"bufferView":10,
			"componentType":5123,
			"count":744,
			"type":"SCALAR"
		},
		{
			"bufferView":11,
			"componentType":5126,
			"count":192,
			"max":[
				0.07278170436620712,
				0.6065141558647156,
				0.07278170436620712
			],
			"min":[
				-0.07278171181678772,
				0,
				-0.07278170436620712
			],
			"type":"VEC3"
		},
		{
			"bufferView":12,
			"componentType":5126,
			"count":192,
			"type":"VEC3"
		},
		{
			"bufferView":13,
			"componentType":5126,
			"count":192,
			"type":"VEC2"
		},
		{
			"bufferView":14,
			"componentType":5126,
			"count":192,
			"max":[
				0.07278170436620712,
				0.6065141558647156,
				0.07278170436620712
			],
			"min":[
				-0.0727817714214325,
				-0.8975517749786377,
				-0.07278170436620712
			],
			"type":"VEC3"
		},
		{
			"bufferView":15,
			"componentType":5126,
			"count":192,
			"type":"VEC3"
		},
		{
			"bufferView":16,
			"componentType":5126,
			"count":192,
			"type":"VEC2"
		},
		{
			"bufferView":17,
			"componentType":5126,
			"count":240,
			"max":[
				0.10564983636140823,
				2.4812300205230713,
				0.2011963278055191
			],
			"min":[
				-0.10564986616373062,
				-2.402092218399048,
				-0.20119637250900269
			],
			"type":"VEC3"
		},
		{
			"bufferView":18,
			"componentType":5126,
			"count":240,
			"type":"VEC3"
		},
		{
			"bufferView":19,
			"componentType":5126,
			"count":240,
			"type":"VEC2"
		},
		{
			"bufferView":20,
			"componentType":5123,
			"count":468,
			"type":"SCALAR"
		},
		{
			"bufferView":21,
			"componentType":5126,
			"count":192,
			"max":[
				1.800000548362732,
				0.0829884260892868,
				1.800000548362732
			],
			"min":[
				-1.800000548362732,
				-0.21701160073280334,
				-1.800000548362732
			],
			"type":"VEC3"
		},
		{
			"bufferView":22,
			"componentType":5126,
			"count":192,
			"type":"VEC3"
		},
		{
			"bufferView":23,
			"componentType":5126,
			"count":192,
			"type":"VEC2"
		},
		{
			"bufferView":24,
			"componentType":5126,
			"count":1008,
			"max":[
				4.655771255493164,
				1.6240651607513428,
				1.8000001907348633
			],
			"min":[
				-1.7999999523162842,
				-0.6065141558647156,
				-1.7999999523162842
			],
			"type":"VEC3"
		},
		{
			"bufferView":25,
			"componentType":5126,
			"count":1008,
			"type":"VEC3"
		},
		{
			"bufferView":26,
			"componentType":5126,
			"count":1008,
			"type":"VEC2"
		},
		{
			"bufferView":27,
			"componentType":5123,
			"count":1992,
			"type":"SCALAR"
		},
		{
			"bufferView":28,
			"componentType":5126,
			"count":24,
			"max":[
				1,
				1,
				1
			],
			"min":[
				-1,
				-1,
				-1
			],
			"type":"VEC3"
		},
		{
			"bufferView":29,
			"componentType":5126,
			"count":24,
			"type":"VEC3"
		},
		{
			"bufferView":30,
			"componentType":5126,
			"count":24,
			"type":"VEC2"
		},
		{
			"bufferView":31,
			"componentType":5123,
			"count":36,
			"type":"SCALAR"
		},
		{
			"bufferView":32,
			"componentType":5126,
			"count":240,
			"max":[
				0.1056499257683754,
				4.766727924346924,
				0.2011963576078415
			],
			"min":[
				-0.10564997792243958,
				-4.682126522064209,
				-0.20119653642177582
			],
			"type":"VEC3"
		},
		{
			"bufferView":33,
			"componentType":5126,
			"count":240,
			"type":"VEC3"
		},
		{
			"bufferView":34,
			"componentType":5126,
			"count":240,
			"type":"VEC2"
		},
		{
			"bufferView":35,
			"componentType":5126,
			"count":156,
			"max":[
				0.10564994066953659,
				0.20119622349739075,
				0.2011968344449997
			],
			"min":[
				-0.10564983636140823,
				-6.353338241577148,
				-0.20119613409042358
			],
			"type":"VEC3"
		},
		{
			"bufferView":36,
			"componentType":5126,
			"count":156,
			"type":"VEC3"
		},
		{
			"bufferView":37,
			"componentType":5126,
			"count":156,
			"type":"VEC2"
		},
		{
			"bufferView":38,
			"componentType":5123,
			"count":300,
			"type":"SCALAR"
		},
		{
			"bufferView":39,
			"componentType":5126,
			"count":240,
			"max":[
				0.2545238137245178,
				9.453264236450195,
				0.34139484167099
			],
			"min":[
				-0.2545238137245178,
				-9.453878402709961,
				-0.3413948118686676
			],
			"type":"VEC3"
		},
		{
			"bufferView":40,
			"componentType":5126,
			"count":240,
			"type":"VEC3"
		},
		{
			"bufferView":41,
			"componentType":5126,
			"count":240,
			"type":"VEC2"
		},
		{
			"bufferView":42,
			"componentType":5126,
			"count":1166,
			"max":[
				3.6563432216644287,
				1,
				6.807723522186279
			],
			"min":[
				-6.807723045349121,
				-1,
				-12.956890106201172
			],
			"type":"VEC3"
		},
		{
			"bufferView":43,
			"componentType":5126,
			"count":1166,
			"type":"VEC3"
		},
		{
			"bufferView":44,
			"componentType":5126,
			"count":1166,
			"type":"VEC2"
		},
		{
			"bufferView":45,
			"componentType":5123,
			"count":2322,
			"type":"SCALAR"
		},
		{
			"bufferView":46,
			"componentType":5126,
			"count":96,
			"max":[
				1.0324336290359497,
				0.22647830843925476,
				0.3777685761451721
			],
			"min":[
				-1.2341628074645996,
				-0.22647830843925476,
				-0.3777685761451721
			],
			"type":"VEC3"
		},
		{
			"bufferView":47,
			"componentType":5126,
			"count":96,
			"type":"VEC3"
		},
		{
			"bufferView":48,
			"componentType":5126,
			"count":96,
			"type":"VEC2"
		},
		{
			"bufferView":49,
			"componentType":5123,
			"count":180,
			"type":"SCALAR"
		},
		{
			"bufferView":50,
			"componentType":5126,
			"count":96,
			"max":[
				1.0324336290359497,
				0.22647830843925476,
				0.3777685761451721
			],
			"min":[
				-1.2341628074645996,
				-0.22647830843925476,
				-0.3777685761451721
			],
			"type":"VEC3"
		},
		{
			"bufferView":51,
			"componentType":5126,
			"count":96,
			"type":"VEC3"
		},
		{
			"bufferView":52,
			"componentType":5126,
			"count":96,
			"type":"VEC2"
		}
	],
	"bufferViews":[
		{
			"buffer":0,
			"byteLength":2304,
			"byteOffset":0,
			"target":34962
		},
		{
			"buffer":0,
			"byteLength":2304,
			"byteOffset":2304,
			"target":34962
		},
		{
			"buffer":0,
			"byteLength":1536,
			"byteOffset":4608,
			"target":34962
		},
		{
			"buffer":0,
			"byteLength":744,
			"byteOffset":6144,
			"target":34963
		},
		{
			"buffer":0,
			"byteLength":2304,
			"byteOffset":6888,
			"target":34962
		},
		{
			"buffer":0,
			"byteLength":2304,
			"byteOffset":9192,
			"target":34962
		},
		{
			"buffer":0,
			"byteLength":1536,
			"byteOffset":11496,
			"target":34962
		},
		{
			"buffer":0,
			"byteLength":4608,
			"byteOffset":13032,
			"target":34962
		},
		{
			"buffer":0,
			"byteLength":4608,
			"byteOffset":17640,
			"target":34962
		},
		{
			"buffer":0,
			"byteLength":3072,
			"byteOffset":22248,
			"target":34962
		},
		{
			"buffer":0,
			"byteLength":1488,
			"byteOffset":25320,
			"target":34963
		},
		{
			"buffer":0,
			"byteLength":2304,
			"byteOffset":26808,
			"target":34962
		},
		{
			"buffer":0,
			"byteLength":2304,
			"byteOffset":29112,
			"target":34962
		},
		{
			"buffer":0,
			"byteLength":1536,
			"byteOffset":31416,
			"target":34962
		},
		{
			"buffer":0,
			"byteLength":2304,
			"byteOffset":32952,
			"target":34962
		},
		{
			"buffer":0,
			"byteLength":2304,
			"byteOffset":35256,
			"target":34962
		},
		{
			"buffer":0,
			"byteLength":1536,
			"byteOffset":37560,
			"target":34962
		},
		{
			"buffer":0,
			"byteLength":2880,
			"byteOffset":39096,
			"target":34962
		},
		{
			"buffer":0,
			"byteLength":2880,
			"byteOffset":41976,
			"target":34962
		},
		{
			"buffer":0,
			"byteLength":1920,
			"byteOffset":44856,
			"target":34962
		},
		{
			"buffer":0,
			"byteLength":936,
			"byteOffset":46776,
			"target":34963
		},
		{
			"buffer":0,
			"byteLength":2304,
			"byteOffset":47712,
			"target":34962
		},
		{
			"buffer":0,
			"byteLength":2304,
			"byteOffset":50016,
			"target":34962
		},
		{
			"buffer":0,
			"byteLength":1536,
			"byteOffset":52320,
			"target":34962
		},
		{
			"buffer":0,
			"byteLength":12096,
			"byteOffset":53856,
			"target":34962
		},
		{
			"buffer":0,
			"byteLength":12096,
			"byteOffset":65952,
			"target":34962
		},
		{
			"buffer":0,
			"byteLength":8064,
			"byteOffset":78048,
			"target":34962
		},
		{
			"buffer":0,
			"byteLength":3984,
			"byteOffset":86112,
			"target":34963
		},
		{
			"buffer":0,
			"byteLength":288,
			"byteOffset":90096,
			"target":34962
		},
		{
			"buffer":0,
			"byteLength":288,
			"byteOffset":90384,
			"target":34962
		},
		{
			"buffer":0,
			"byteLength":192,
			"byteOffset":90672,
			"target":34962
		},
		{
			"buffer":0,
			"byteLength":72,
			"byteOffset":90864,
			"target":34963
		},
		{
			"buffer":0,
			"byteLength":2880,
			"byteOffset":90936,
			"target":34962
		},
		{
			"buffer":0,
			"byteLength":2880,
			"byteOffset":93816,
			"target":34962
		},
		{
			"buffer":0,
			"byteLength":1920,
			"byteOffset":96696,
			"target":34962
		},
		{
			"buffer":0,
			"byteLength":1872,
			"byteOffset":98616,
			"target":34962
		},
		{
			"buffer":0,
			"byteLength":1872,
			"byteOffset":100488,
			"target":34962
		},
		{
			"buffer":0,
			"byteLength":1248,
			"byteOffset":102360,
			"target":34962
		},
		{
			"buffer":0,
			"byteLength":600,
			"byteOffset":103608,
			"target":34963
		},
		{
			"buffer":0,
			"byteLength":2880,
			"byteOffset":104208,
			"target":34962
		},
		{
			"buffer":0,
			"byteLength":2880,
			"byteOffset":107088,
			"target":34962
		},
		{
			"buffer":0,
			"byteLength":1920,
			"byteOffset":109968,
			"target":34962
		},
		{
			"buffer":0,
			"byteLength":13992,
			"byteOffset":111888,
			"target":34962
		},
		{
			"buffer":0,
			"byteLength":13992,
			"byteOffset":125880,
			"target":34962
		},
		{
			"buffer":0,
			"byteLength":9328,
			"byteOffset":139872,
			"target":34962
		},
		{
			"buffer":0,
			"byteLength":4644,
			"byteOffset":149200,
			"target":34963
		},
		{
			"buffer":0,
			"byteLength":1152,
			"byteOffset":153844,
			"target":34962
		},
		{
			"buffer":0,
			"byteLength":1152,
			"byteOffset":154996,
			"target":34962
		},
		{
			"buffer":0,
			"byteLength":768,
			"byteOffset":156148,
			"target":34962
		},
		{
			"buffer":0,
			"byteLength":360,
			"byteOffset":156916,
			"target":34963
		},
		{
			"buffer":0,
			"byteLength":1152,
			"byteOffset":157276,
			"target":34962
		},
		{
			"buffer":0,
			"byteLength":1152,
			"byteOffset":158428,
			"target":34962
		},
		{
			"buffer":0,
			"byteLength":768,
			"byteOffset":159580,
			"target":34962
		}
	],
	"buffers":[
		{
			"byteLength":160348,
			"uri":"gear.bin"
		}
	]
}
