{
	"asset":{
		"generator":"Khronos glTF Blender I/O v4.5.48",
		"version":"2.0"
	},
	"extensionsUsed":[
		"KHR_implicit_shapes",
		"KHR_physics_rigid_bodies"
	],
	"extensions":{
		"KHR_implicit_shapes":{
			"shapes":[
				{
					"type":"box",
					"box":{
						"size":[
							27.105228424072266,
							2.7105233669281006,
							27.105228424072266
						]
					}
				},
				{
					"type":"box",
					"box":{
						"size":[
							0.9037460684776306,
							1.4243801832199097,
							5.057122230529785
						]
					}
				},
				{
					"type":"box",
					"box":{
						"size":[
							0.9037460684776306,
							1.4243801832199097,
							5.057125091552734
						]
					}
				},
				{
					"type":"box",
					"box":{
						"size":[
							0.9037460684776306,
							1.4243801832199097,
							5.057121276855469
						]
					}
				},
				{
					"type":"box",
					"box":{
						"size":[
							0.9037460684776306,
							1.4243801832199097,
							5.05712890625
						]
					}
				},
				{
					"type":"cylinder",
					"cylinder":{
						"height":10.539204597473145,
						"radiusBottom":1.58820378780365,
						"radiusTop":1.58820378780365
					}
				},
				{
					"type":"sphere",
					"sphere":{
						"radius":1.8826230535525634
					}
				}
			]
		},
		"KHR_physics_rigid_bodies":{
			"physicsMaterials":[
				{
					"staticFriction":0.18246445059776306,
					"dynamicFriction":0.18246445059776306,
					"restitution":0.6824644207954407
				},
				{
					"staticFriction":0.5,
					"dynamicFriction":0.5,
					"restitution":0.6777251362800598
				},
				{
					"staticFriction":0.5,
					"dynamicFriction":0.5,
					"restitution":0.7819905281066895
				},
				{
					"staticFriction":0.5,
					"dynamicFriction":0.5,
					"restitution":0.7962085604667664
				},
				{
					"staticFriction":0.5,
					"dynamicFriction":0.5,
					"restitution":0.5402843356132507
				},
				{
					"staticFriction":0.5,
					"dynamicFriction":0.5,
					"restitution":0.6350710988044739
				},
				{
					"staticFriction":0.8554502725601196,
					"dynamicFriction":0.8554502725601196,
					"restitution":0.07109005004167557
				},
				{
					"staticFriction":0.2725118398666382,
					"dynamicFriction":0.2725118398666382,
					"restitution":0.900473952293396
				}
			],
			"collisionFilters":[
				{
					"collisionSystems":[
						"System_0"
					],
					"collideWithSystems":[
						"System_0"
					]
				}
			],
			"physicsJoints":[
				{
					"limits":[
						{
							"linearAxes":[
								0,
								2,
								1
							],
							"min":0,
							"max":0
						}
					]
				},
				{
					"limits":[
						{
							"linearAxes":[
								0,
								2,
								1
							],
							"min":0,
							"max":0
						},
						{
							"angularAxes":[
								0,
								2
							],
							"min":0,
							"max":0
						}
					]
				}
			]
		}
	},
	"scene":0,
	"scenes":[
		{
			"extras":{
				"khr_physics_scene_viewer_props":{},
				"khr_physics_exporter_props":{
					"reparent_bones":0,
					"enabled":1
				}
			},
			"name":"Scene",
			"nodes":[
				0,
				5,
				9,
				13,
				20,
				24,
				27,
				28,
				29
			]
		}
	],
	"nodes":[
		{
			"extensions":{
				"KHR_physics_rigid_bodies":{
					"collider":{
						"geometry":{
							"shape":0
						},
						"physicsMaterial":0,
						"collisionFilter":0
					}
				}
			},
			"extras":{
				"khr_physics_extra_props":{}
			},
			"mesh":0,
			"name":"Cube.002",
			"translation":[
				0,
				-10.345564842224121,
				0
			]
		},
		{
			"extensions":{},
			"extras":{
				"khr_physics_extra_constraint_props":{}
			},
			"name":"Empty.008",
			"rotation":[
				-0.5000000596046448,
				0,
				0,
				0.8660253882408142
			],
			"translation":[
				2.6151537895202637e-06,
				0,
				3.5399858951568604
			]
		},
		{
			"name":"jointSpaceB",
			"rotation":[
				-0.8660253882408142,
				-4.731753122655391e-08,
				2.5809564263568063e-08,
				0.4999999701976776
			],
			"translation":[
				2.648681402206421e-06,
				4.373490810394287e-06,
				-3.5399796962738037
			]
		},
		{
			"extensions":{
				"KHR_physics_rigid_bodies":{
					"joint":{
						"connectedNode":2,
						"joint":0,
						"enableCollision":true
					}
				}
			},
			"name":"jointSpaceA",
			"rotation":[
				-0.5000000596046448,
				-6.183541501059153e-08,
				-1.720637499147415e-08,
				0.8660253882408142
			],
			"translation":[
				2.6151537895202637e-06,
				5.662441253662109e-07,
				3.5399858951568604
			]
		},
		{
			"name":"jointSpaceB",
			"rotation":[
				-0.8660253882408142,
				1.247462506626107e-07,
				-8.119258865235679e-08,
				0.5
			],
			"translation":[
				8.828938007354736e-07,
				1.3262033462524414e-06,
				-3.539987325668335
			]
		},
		{
			"children":[
				1,
				3,
				4
			],
			"extensions":{
				"KHR_physics_rigid_bodies":{
					"collider":{
						"geometry":{
							"shape":1
						},
						"physicsMaterial":1,
						"collisionFilter":0
					}
				}
			},
			"extras":{
				"khr_physics_extra_props":{}
			},
			"mesh":1,
			"name":"Cube.007",
			"rotation":[
				-0.061687126755714417,
				-0.13086825609207153,
				-0.815998911857605,
				0.5596553087234497
			],
			"translation":[
				0,
				9.04486083984375,
				-2.137195110321045
			]
		},
		{
			"extensions":{},
			"extras":{
				"khr_physics_extra_constraint_props":{}
			},
			"name":"Empty.007",
			"rotation":[
				-0.4999999403953552,
				0,
				0,
				0.866025447845459
			],
			"translation":[
				0,
				0,
				3.5399863719940186
			]
		},
		{
			"extensions":{
				"KHR_physics_rigid_bodies":{
					"joint":{
						"connectedNode":4,
						"joint":0,
						"enableCollision":true
					}
				}
			},
			"name":"jointSpaceA",
			"rotation":[
				-0.4999999403953552,
				1.677621810358687e-07,
				2.580956959263858e-08,
				0.866025447845459
			],
			"translation":[
				1.2405216693878174e-06,
				2.086162567138672e-07,
				3.5399863719940186
			]
		},
		{
			"name":"jointSpaceB",
			"rotation":[
				-0.8660253882408142,
				-5.376990408478832e-09,
				-1.129168580860096e-08,
				0.5000000596046448
			],
			"translation":[
				1.3113021850585938e-06,
				1.8477439880371094e-06,
				-3.5399818420410156
			]
		},
		{
			"children":[
				6,
				7,
				8
			],
			"extensions":{
				"KHR_physics_rigid_bodies":{
					"motion":{
						"mass":1
					},
					"collider":{
						"geometry":{
							"shape":2
						},
						"physicsMaterial":2,
						"collisionFilter":0
					}
				}
			},
			"extras":{
				"khr_physics_extra_props":{}
			},
			"mesh":2,
			"name":"Cube.008",
			"rotation":[
				-0.3332502841949463,
				0.29466426372528076,
				-0.772109866142273,
				0.45383208990097046
			],
			"translation":[
				-2.6063454151153564,
				8.584390640258789,
				-7.667966365814209
			]
		},
		{
			"extensions":{},
			"extras":{
				"khr_physics_extra_constraint_props":{}
			},
			"name":"Empty.006",
			"rotation":[
				-0.4999999403953552,
				0,
				0,
				0.866025447845459
			],
			"translation":[
				0,
				-2.8014183044433594e-06,
				3.5399882793426514
			]
		},
		{
			"extensions":{
				"KHR_physics_rigid_bodies":{
					"joint":{
						"connectedNode":8,
						"joint":0,
						"enableCollision":true
					}
				}
			},
			"name":"jointSpaceA",
			"rotation":[
				-0.4999999403953552,
				-1.2904782131784032e-08,
				1.075398103900227e-09,
				0.866025447845459
			],
			"translation":[
				-4.76837158203125e-07,
				-2.8014183044433594e-06,
				3.5399882793426514
			]
		},
		{
			"name":"jointSpaceB",
			"rotation":[
				-0.8660253882408142,
				-3.226195843808455e-08,
				4.086515303924898e-08,
				0.5000000596046448
			],
			"translation":[
				-1.1920928955078125e-07,
				-3.2782554626464844e-06,
				-3.5399889945983887
			]
		},
		{
			"children":[
				10,
				11,
				12
			],
			"extensions":{
				"KHR_physics_rigid_bodies":{
					"motion":{
						"mass":1
					},
					"collider":{
						"geometry":{
							"shape":3
						},
						"physicsMaterial":3,
						"collisionFilter":0
					}
				}
			},
			"extras":{
				"khr_physics_extra_props":{}
			},
			"mesh":3,
			"name":"Cube.009",
			"rotation":[
				-0.5155192017555237,
				0.641241729259491,
				-0.5213346481323242,
				0.22640496492385864
			],
			"translation":[
				-8.305524826049805,
				10.664902687072754,
				-8.554140090942383
			]
		},
		{
			"extensions":{},
			"extras":{
				"khr_physics_extra_constraint_props":{}
			},
			"name":"Empty",
			"rotation":[
				0.70710688829422,
				0,
				0,
				0.7071066498756409
			]
		},
		{
			"extensions":{},
			"extras":{
				"khr_physics_extra_constraint_props":{}
			},
			"name":"Empty.005",
			"rotation":[
				-0.4999999701976776,
				0,
				0,
				0.8660253882408142
			],
			"translation":[
				0,
				0,
				3.539982795715332
			]
		},
		{
			"name":"jointSpaceB",
			"rotation":[
				-4.0978193283081055e-08,
				-2.514570951461792e-08,
				-6.146728992462158e-08,
				1
			],
			"translation":[
				-0.12874072790145874,
				0.26399552822113037,
				3.0007002353668213
			]
		},
		{
			"extensions":{
				"KHR_physics_rigid_bodies":{
					"joint":{
						"connectedNode":16,
						"joint":1,
						"enableCollision":true
					}
				}
			},
			"name":"jointSpaceA",
			"rotation":[
				0.70710688829422,
				1.5805065700646992e-08,
				-9.219621510681009e-09,
				0.7071066498756409
			],
			"translation":[
				-2.980232238769531e-07,
				1.5497207641601562e-06,
				-2.980232238769531e-07
			]
		},
		{
			"extensions":{
				"KHR_physics_rigid_bodies":{
					"joint":{
						"connectedNode":12,
						"joint":0,
						"enableCollision":true
					}
				}
			},
			"name":"jointSpaceA",
			"rotation":[
				-0.4999999701976776,
				-4.731754188469495e-08,
				3.548815641352121e-08,
				0.8660253882408142
			],
			"translation":[
				-1.5497207641601562e-06,
				1.1920928955078125e-06,
				3.539982795715332
			]
		},
		{
			"name":"jointSpaceB",
			"rotation":[
				-0.8660253882408142,
				-8.710728849337102e-08,
				6.990091350189687e-08,
				0.5
			],
			"translation":[
				1.6540288925170898e-06,
				-2.384185791015625e-07,
				-3.5399837493896484
			]
		},
		{
			"children":[
				14,
				15,
				17,
				18,
				19
			],
			"extensions":{
				"KHR_physics_rigid_bodies":{
					"motion":{
						"mass":1
					},
					"collider":{
						"geometry":{
							"shape":2
						},
						"physicsMaterial":4,
						"collisionFilter":0
					}
				}
			},
			"extras":{
				"khr_physics_extra_props":{}
			},
			"mesh":4,
			"name":"Cube.010",
			"rotation":[
				0.5596553087234497,
				-0.815998911857605,
				0.13086822628974915,
				0.06168713420629501
			],
			"translation":[
				-11.398360252380371,
				13.20588493347168,
				-3.9095418453216553
			]
		},
		{
			"extensions":{},
			"extras":{
				"khr_physics_extra_constraint_props":{}
			},
			"name":"Empty.003",
			"rotation":[
				-0.5,
				0,
				0,
				0.8660253882408142
			],
			"translation":[
				3.56137752532959e-06,
				0,
				3.5399856567382812
			]
		},
		{
			"extensions":{
				"KHR_physics_rigid_bodies":{
					"joint":{
						"connectedNode":19,
						"joint":0,
						"enableCollision":true
					}
				}
			},
			"name":"jointSpaceA",
			"rotation":[
				-0.5,
				-9.248429222452614e-08,
				1.0753986146028183e-08,
				0.8660253882408142
			],
			"translation":[
				3.56137752532959e-06,
				-1.1920928955078125e-07,
				3.5399856567382812
			]
		},
		{
			"name":"jointSpaceB",
			"rotation":[
				-0.8660253882408142,
				5.376993073014091e-09,
				1.0753988810563442e-09,
				0.5
			],
			"translation":[
				1.430511474609375e-06,
				-1.2874603271484375e-05,
				-3.539985179901123
			]
		},
		{
			"children":[
				21,
				22,
				23
			],
			"extensions":{
				"KHR_physics_rigid_bodies":{
					"motion":{
						"mass":1
					},
					"collider":{
						"geometry":{
							"shape":3
						},
						"physicsMaterial":1,
						"collisionFilter":0
					}
				}
			},
			"extras":{
				"khr_physics_extra_props":{}
			},
			"mesh":5,
			"name":"Cube.011",
			"rotation":[
				0.45383208990097046,
				-0.7721099257469177,
				-0.29466426372528076,
				0.3332502841949463
			],
			"translation":[
				-8.792013168334961,
				13.666354179382324,
				1.6212263107299805
			]
		},
		{
			"extensions":{},
			"extras":{
				"khr_physics_extra_constraint_props":{}
			},
			"name":"Empty.009",
			"rotation":[
				-0.4999999701976776,
				0,
				0,
				0.8660253882408142
			],
			"translation":[
				0,
				-3.6954879760742188e-06,
				3.5399787425994873
			]
		},
		{
			"extensions":{
				"KHR_physics_rigid_bodies":{
					"joint":{
						"connectedNode":23,
						"joint":0,
						"enableCollision":true
					}
				}
			},
			"name":"jointSpaceA",
			"rotation":[
				-0.4999999701976776,
				-1.1829386359352156e-08,
				2.258337339355876e-08,
				0.8660253882408142
			],
			"translation":[
				5.364418029785156e-07,
				-3.6954879760742188e-06,
				3.5399787425994873
			]
		},
		{
			"children":[
				25,
				2,
				26
			],
			"extensions":{
				"KHR_physics_rigid_bodies":{
					"motion":{
						"mass":1
					},
					"collider":{
						"geometry":{
							"shape":4
						},
						"physicsMaterial":5,
						"collisionFilter":0
					}
				}
			},
			"extras":{
				"khr_physics_extra_props":{}
			},
			"mesh":6,
			"name":"Cube.012",
			"rotation":[
				0.22640500962734222,
				-0.521334707736969,
				-0.641241729259491,
				0.5155192613601685
			],
			"translation":[
				-3.0928313732147217,
				11.58583927154541,
				2.5073962211608887
			]
		},
		{
			"extensions":{
				"KHR_physics_rigid_bodies":{
					"motion":{
						"mass":6
					},
					"collider":{
						"geometry":{
							"shape":5
						},
						"physicsMaterial":6,
						"collisionFilter":0
					}
				}
			},
			"extras":{
				"khr_physics_extra_props":{}
			},
			"mesh":7,
			"name":"Cylinder",
			"translation":[
				0,
				0.420705646276474,
				-2.0127673149108887
			]
		},
		{
			"children":[
				16
			],
			"extensions":{
				"KHR_physics_rigid_bodies":{
					"motion":{
						"mass":1
					},
					"collider":{
						"geometry":{
							"shape":6
						},
						"physicsMaterial":7,
						"collisionFilter":0
					}
				}
			},
			"extras":{
				"khr_physics_extra_props":{}
			},
			"mesh":8,
			"name":"Sphere",
			"rotation":[
				-0.4393553137779236,
				0.4844605028629303,
				-0.6695362329483032,
				0.3521167039871216
			],
			"translation":[
				-14.246726036071777,
				14.183183670043945,
				-4.058470249176025
			]
		}
	],
	"meshes":[
		{
			"name":"Cube.004",
			"primitives":[
				{
					"attributes":{
						"POSITION":0,
						"NORMAL":1,
						"TEXCOORD_0":2
					},
					"indices":3
				}
			]
		},
		{
			"name":"Cube.009",
			"primitives":[
				{
					"attributes":{
						"POSITION":4,
						"NORMAL":5,
						"TEXCOORD_0":6
					},
					"indices":7
				}
			]
		},
		{
			"name":"Cube.010",
			"primitives":[
				{
					"attributes":{
						"POSITION":8,
						"NORMAL":9,
						"TEXCOORD_0":10
					},
					"indices":7
				}
			]
		},
		{
			"name":"Cube.011",
			"primitives":[
				{
					"attributes":{
						"POSITION":11,
						"NORMAL":12,
						"TEXCOORD_0":13
					},
					"indices":7
				}
			]
		},
		{
			"name":"Cube.012",
			"primitives":[
				{
					"attributes":{
						"POSITION":14,
						"NORMAL":15,
						"TEXCOORD_0":16
					},
					"indices":7
				}
			]
		},
		{
			"name":"Cube.013",
			"primitives":[
				{
					"attributes":{
						"POSITION":17,
						"NORMAL":18,
						"TEXCOORD_0":19
					},
					"indices":7
				}
			]
		},
		{
			"name":"Cube.014",
			"primitives":[
				{
					"attributes":{
						"POSITION":20,
						"NORMAL":21,
						"TEXCOORD_0":22
					},
					"indices":7
				}
			]
		},
		{
			"name":"Cylinder.006",
			"primitives":[
				{
					"attributes":{
						"POSITION":23,
						"NORMAL":24,
						"TEXCOORD_0":25
					},
					"indices":26
				}
			]
		},
		{
			"name":"Sphere",
			"primitives":[
				{
					"attributes":{
						"POSITION":27,
						"NORMAL":28,
						"TEXCOORD_0":29
					},
					"indices":30
				}
			]
		}
	],
	"accessors":[
		{
			"bufferView":0,
			"componentType":5126,
			"count":24,
			"max":[
				13.552614212036133,
				1.3552616834640503,
				13.552614212036133
			],
			"min":[
				-13.552614212036133,
				-1.3552616834640503,
				-13.552614212036133
			],
			"type":"VEC3"
		},
		{
			"bufferView":1,
			"componentType":5126,
			"count":24,
			"type":"VEC3"
		},
		{
			"bufferView":2,
			"componentType":5126,
			"count":24,
			"type":"VEC2"
		},
		{
			"bufferView":3,
			"componentType":5123,
			"count":36,
			"type":"SCALAR"
		},
		{
			"bufferView":4,
			"componentType":5126,
			"count":24,
			"max":[
				0.4518730342388153,
				0.7121900916099548,
				2.5285611152648926
			],
			"min":[
				-0.4518730342388153,
				-0.7121900916099548,
				-2.5285611152648926
			],
			"type":"VEC3"
		},
		{
			"bufferView":5,
			"componentType":5126,
			"count":24,
			"type":"VEC3"
		},
		{
			"bufferView":6,
			"componentType":5126,
			"count":24,
			"type":"VEC2"
		},
		{
			"bufferView":7,
			"componentType":5123,
			"count":36,
			"type":"SCALAR"
		},
		{
			"bufferView":8,
			"componentType":5126,
			"count":24,
			"max":[
				0.4518730342388153,
				0.7121900916099548,
				2.5285606384277344
			],
			"min":[
				-0.4518730342388153,
				-0.7121900916099548,
				-2.528562545776367
			],
			"type":"VEC3"
		},
		{
			"bufferView":9,
			"componentType":5126,
			"count":24,
			"type":"VEC3"
		},
		{
			"bufferView":10,
			"componentType":5126,
			"count":24,
			"type":"VEC2"
		},
		{
			"bufferView":11,
			"componentType":5126,
			"count":24,
			"max":[
				0.4518730342388153,
				0.7121900916099548,
				2.5285606384277344
			],
			"min":[
				-0.4518730342388153,
				-0.7121900916099548,
				-2.5285606384277344
			],
			"type":"VEC3"
		},
		{
			"bufferView":12,
			"componentType":5126,
			"count":24,
			"type":"VEC3"
		},
		{
			"bufferView":13,
			"componentType":5126,
			"count":24,
			"type":"VEC2"
		},
		{
			"bufferView":14,
			"componentType":5126,
			"count":24,
			"max":[
				0.4518730342388153,
				0.7121900916099548,
				2.5285587310791016
			],
			"min":[
				-0.4518730342388153,
				-0.7121900916099548,
				-2.528562545776367
			],
			"type":"VEC3"
		},
		{
			"bufferView":15,
			"componentType":5126,
			"count":24,
			"type":"VEC3"
		},
		{
			"bufferView":16,
			"componentType":5126,
			"count":24,
			"type":"VEC2"
		},
		{
			"bufferView":17,
			"componentType":5126,
			"count":24,
			"max":[
				0.4518730342388153,
				0.7121900916099548,
				2.5285606384277344
			],
			"min":[
				-0.4518730342388153,
				-0.7121900916099548,
				-2.5285606384277344
			],
			"type":"VEC3"
		},
		{
			"bufferView":18,
			"componentType":5126,
			"count":24,
			"type":"VEC3"
		},
		{
			"bufferView":19,
			"componentType":5126,
			"count":24,
			"type":"VEC2"
		},
		{
			"bufferView":20,
			"componentType":5126,
			"count":24,
			"max":[
				0.4518730342388153,
				0.7121900916099548,
				2.5285568237304688
			],
			"min":[
				-0.4518730342388153,
				-0.7121900916099548,
				-2.528564453125
			],
			"type":"VEC3"
		},
		{
			"bufferView":21,
			"componentType":5126,
			"count":24,
			"type":"VEC3"
		},
		{
			"bufferView":22,
			"componentType":5126,
			"count":24,
			"type":"VEC2"
		},
		{
			"bufferView":23,
			"componentType":5126,
			"count":192,
			"max":[
				1.58820378780365,
				5.269602298736572,
				1.58820378780365
			],
			"min":[
				-1.58820378780365,
				-5.269602298736572,
				-1.58820378780365
			],
			"type":"VEC3"
		},
		{
			"bufferView":24,
			"componentType":5126,
			"count":192,
			"type":"VEC3"
		},
		{
			"bufferView":25,
			"componentType":5126,
			"count":192,
			"type":"VEC2"
		},
		{
			"bufferView":26,
			"componentType":5123,
			"count":372,
			"type":"SCALAR"
		},
		{
			"bufferView":27,
			"componentType":5126,
			"count":1984,
			"max":[
				1.882622480392456,
				1.8826229572296143,
				1.8826218843460083
			],
			"min":[
				-1.8826212882995605,
				-1.8826229572296143,
				-1.8826230764389038
			],
			"type":"VEC3"
		},
		{
			"bufferView":28,
			"componentType":5126,
			"count":1984,
			"type":"VEC3"
		},
		{
			"bufferView":29,
			"componentType":5126,
			"count":1984,
			"type":"VEC2"
		},
		{
			"bufferView":30,
			"componentType":5123,
			"count":2880,
			"type":"SCALAR"
		}
	],
	"bufferViews":[
		{
			"buffer":0,
			"byteLength":288,
			"byteOffset":0,
			"target":34962
		},
		{
			"buffer":0,
			"byteLength":288,
			"byteOffset":288,
			"target":34962
		},
		{
			"buffer":0,
			"byteLength":192,
			"byteOffset":576,
			"target":34962
		},
		{
			"buffer":0,
			"byteLength":72,
			"byteOffset":768,
			"target":34963
		},
		{
			"buffer":0,
			"byteLength":288,
			"byteOffset":840,
			"target":34962
		},
		{
			"buffer":0,
			"byteLength":288,
			"byteOffset":1128,
			"target":34962
		},
		{
			"buffer":0,
			"byteLength":192,
			"byteOffset":1416,
			"target":34962
		},
		{
			"buffer":0,
			"byteLength":72,
			"byteOffset":1608,
			"target":34963
		},
		{
			"buffer":0,
			"byteLength":288,
			"byteOffset":1680,
			"target":34962
		},
		{
			"buffer":0,
			"byteLength":288,
			"byteOffset":1968,
			"target":34962
		},
		{
			"buffer":0,
			"byteLength":192,
			"byteOffset":2256,
			"target":34962
		},
		{
			"buffer":0,
			"byteLength":288,
			"byteOffset":2448,
			"target":34962
		},
		{
			"buffer":0,
			"byteLength":288,
			"byteOffset":2736,
			"target":34962
		},
		{
			"buffer":0,
			"byteLength":192,
			"byteOffset":3024,
			"target":34962
		},
		{
			"buffer":0,
			"byteLength":288,
			"byteOffset":3216,
			"target":34962
		},
		{
			"buffer":0,
			"byteLength":288,
			"byteOffset":3504,
			"target":34962
		},
		{
			"buffer":0,
			"byteLength":192,
			"byteOffset":3792,
			"target":34962
		},
		{
			"buffer":0,
			"byteLength":288,
			"byteOffset":3984,
			"target":34962
		},
		{
			"buffer":0,
			"byteLength":288,
			"byteOffset":4272,
			"target":34962
		},
		{
			"buffer":0,
			"byteLength":192,
			"byteOffset":4560,
			"target":34962
		},
		{
			"buffer":0,
			"byteLength":288,
			"byteOffset":4752,
			"target":34962
		},
		{
			"buffer":0,
			"byteLength":288,
			"byteOffset":5040,
			"target":34962
		},
		{
			"buffer":0,
			"byteLength":192,
			"byteOffset":5328,
			"target":34962
		},
		{
			"buffer":0,
			"byteLength":2304,
			"byteOffset":5520,
			"target":34962
		},
		{
			"buffer":0,
			"byteLength":2304,
			"byteOffset":7824,
			"target":34962
		},
		{
			"buffer":0,
			"byteLength":1536,
			"byteOffset":10128,
			"target":34962
		},
		{
			"buffer":0,
			"byteLength":744,
			"byteOffset":11664,
			"target":34963
		},
		{
			"buffer":0,
			"byteLength":23808,
			"byteOffset":12408,
			"target":34962
		},
		{
			"buffer":0,
			"byteLength":23808,
			"byteOffset":36216,
			"target":34962
		},
		{
			"buffer":0,
			"byteLength":15872,
			"byteOffset":60024,
			"target":34962
		},
		{
			"buffer":0,
			"byteLength":5760,
			"byteOffset":75896,
			"target":34963
		}
	],
	"buffers":[
		{
			"byteLength":81656,
			"uri":"spherical.bin"
		}
	]
}
