{
	"asset":{
		"generator":"Khronos glTF Blender I/O v4.5.48",
		"version":"2.0"
	},
	"extensionsUsed":[
		"KHR_implicit_shapes",
		"KHR_physics_rigid_bodies"
	],
	"extensions":{
		"KHR_implicit_shapes":{
			"shapes":[
				{
					"type":"cylinder",
					"cylinder":{
						"height":0.6065142750740051,
						"radiusBottom":0.07278171181678772,
						"radiusTop":0.07278171181678772
					}
				},
				{
					"type":"cylinder",
					"cylinder":{
						"height":1.504065990447998,
						"radiusBottom":0.07278174161911011,
						"radiusTop":0.07278174161911011
					}
				},
				{
					"type":"cylinder",
					"cylinder":{
						"height":0.30000001192092896,
						"radiusBottom":0.2250000685453415,
						"radiusTop":0.2250000685453415
					}
				},
				{
					"type":"box",
					"box":{
						"size":[
							2.279989719390869,
							0.44695019721984863,
							5.239973545074463
						]
					}
				},
				{
					"type":"box",
					"box":{
						"size":[
							1.3070383071899414,
							3.6563425064086914,
							6.149166107177734
						]
					}
				},
				{
					"type":"box",
					"box":{
						"size":[
							2,
							3.6600000858306885,
							13.600000381469727
						]
					}
				}
			]
		},
		"KHR_physics_rigid_bodies":{
			"physicsMaterials":[
				{
					"staticFriction":0.5,
					"dynamicFriction":0.5,
					"restitution":0.2714286148548126
				},
				{
					"staticFriction":0.5,
					"dynamicFriction":0.5,
					"restitution":0.1952381134033203
				},
				{
					"staticFriction":0.5,
					"dynamicFriction":0.5,
					"restitution":0.18571430444717407
				},
				{
					"staticFriction":0.5,
					"dynamicFriction":0.5,
					"restitution":0.1904761791229248
				},
				{
					"staticFriction":0.5,
					"dynamicFriction":0.5,
					"restitution":0.7428571581840515
				},
				{
					"staticFriction":0.5,
					"dynamicFriction":0.5,
					"restitution":0.30000001192092896
				},
				{
					"staticFriction":0.5,
					"dynamicFriction":0.5,
					"restitution":0
				},
				{
					"staticFriction":0.5,
					"dynamicFriction":0.5,
					"restitution":0.6095238327980042
				},
				{
					"staticFriction":0.5,
					"dynamicFriction":0.5,
					"restitution":0.6952381134033203
				},
				{
					"staticFriction":0.5,
					"dynamicFriction":0.5,
					"restitution":0.699999988079071
				}
			],
			"collisionFilters":[
				{
					"collisionSystems":[
						"System_0"
					],
					"collideWithSystems":[
						"System_0"
					]
				}
			],
			"physicsJoints":[
				{
					"limits":[
						{
							"linearAxes":[
								0,
								2,
								1
							],
							"min":0,
							"max":0
						},
						{
							"angularAxes":[
								0,
								2
							],
							"min":0,
							"max":0
						}
					]
				},
				{
					"limits":[
						{
							"linearAxes":[
								2
							],
							"min":0,
							"max":0
						},
						{
							"linearAxes":[
								1
							],
							"min":0,
							"max":0
						},
						{
							"angularAxes":[
								0
							],
							"min":0,
							"max":0
						},
						{
							"angularAxes":[
								2
							],
							"min":0,
							"max":0
						},
						{
							"angularAxes":[
								1
							],
							"min":0,
							"max":0
						}
					],
					"drives":[
						{
							"type":"linear",
							"mode":"force",
							"axis":0,
							"positionTarget":0,
							"velocityTarget":0,
							"stiffness":3395.31005859375,
							"damping":100
						}
					]
				}
			]
		}
	},
	"scene":0,
	"scenes":[
		{
			"extras":{
				"khr_physics_scene_viewer_props":{},
				"khr_physics_exporter_props":{
					"reparent_bones":0
				}
			},
			"name":"Scene",
			"nodes":[
				9,
				14,
				17,
				22,
				31,
				33,
				35,
				37
			]
		}
	],
	"nodes":[
		{
			"extensions":{
				"KHR_physics_rigid_bodies":{
					"collider":{
						"geometry":{
							"shape":0
						},
						"physicsMaterial":0,
						"collisionFilter":0
					}
				}
			},
			"extras":{
				"khr_physics_extra_props":{
					"non_renderable":1
				}
			},
			"name":"axis0",
			"rotation":[
				0,
				0,
				-1,
				3.774895773744902e-08
			],
			"translation":[
				0,
				-0.303257018327713,
				0
			]
		},
		{
			"extensions":{
				"KHR_physics_rigid_bodies":{
					"collider":{
						"geometry":{
							"shape":1
						},
						"physicsMaterial":1,
						"collisionFilter":0
					}
				}
			},
			"extras":{
				"khr_physics_extra_props":{
					"non_renderable":1
				}
			},
			"name":"axis1",
			"rotation":[
				0,
				0,
				-1,
				3.774895773744902e-08
			],
			"translation":[
				0,
				0.8720328211784363,
				0
			]
		},
		{
			"mesh":0,
			"name":"physicsMeshDataNode",
			"rotation":[
				0,
				0,
				0,
				1
			],
			"translation":[
				0,
				0,
				0
			]
		},
		{
			"extensions":{
				"KHR_physics_rigid_bodies":{
					"collider":{
						"geometry":{
							"convexHull":true,
							"node":2
						},
						"physicsMaterial":2,
						"collisionFilter":0
					}
				}
			},
			"extras":{
				"khr_physics_extra_props":{
					"non_renderable":1
				}
			},
			"name":"bar",
			"rotation":[
				0,
				0,
				-0.7071068286895752,
				0.7071068286895752
			],
			"translation":[
				2.1745412349700928,
				-0.3729104995727539,
				0
			]
		},
		{
			"extensions":{
				"KHR_physics_rigid_bodies":{
					"collider":{
						"geometry":{
							"shape":2
						},
						"physicsMaterial":3,
						"collisionFilter":0
					}
				}
			},
			"extras":{
				"khr_physics_extra_props":{
					"non_renderable":1
				}
			},
			"name":"cog_flywheel",
			"translation":[
				0,
				-0.007011577486991882,
				0
			]
		},
		{
			"extensions":{},
			"extras":{
				"khr_physics_extra_constraint_props":{}
			},
			"name":"Empty",
			"rotation":[
				0,
				0,
				-1,
				3.774895773744902e-08
			],
			"translation":[
				4.4545745849609375,
				-0.6342102885246277,
				0
			]
		},
		{
			"name":"jointSpaceB",
			"rotation":[
				-0.5000000596046448,
				-0.5,
				-0.4999999701976776,
				0.5
			],
			"translation":[
				6.694085641356651e-08,
				-4.480929851531982,
				3.053593218282913e-07
			]
		},
		{
			"extensions":{
				"KHR_physics_rigid_bodies":{
					"joint":{
						"connectedNode":6,
						"joint":0
					}
				}
			},
			"name":"jointSpaceA",
			"rotation":[
				2.1855694143368964e-08,
				-8.250295194439162e-16,
				-1,
				3.774895773744902e-08
			],
			"translation":[
				4.4545745849609375,
				-0.6342102885246277,
				1.9471563916795276e-07
			]
		},
		{
			"name":"jointSpaceB",
			"rotation":[
				2.1855694143368964e-08,
				-8.250295194439162e-16,
				-1,
				3.774895773744902e-08
			],
			"translation":[
				1.0571672525013995e-14,
				-1.0244548320770264e-08,
				0
			]
		},
		{
			"children":[
				0,
				1,
				3,
				4,
				5,
				7,
				8
			],
			"extensions":{
				"KHR_physics_rigid_bodies":{
					"motion":{
						"mass":0.10000000149011612
					}
				}
			},
			"extras":{
				"khr_physics_extra_props":{}
			},
			"mesh":1,
			"name":"following_gear",
			"rotation":[
				0,
				0,
				0.7071068286895752,
				0.7071068286895752
			],
			"translation":[
				-0.007011532783508301,
				0,
				-6.985806941986084
			]
		},
		{
			"extensions":{},
			"extras":{
				"khr_physics_extra_constraint_props":{}
			},
			"name":"Empty.001",
			"rotation":[
				-0.5000000596046448,
				-0.5,
				-0.4999999701976776,
				0.5
			],
			"translation":[
				0,
				4.5622148513793945,
				0
			]
		},
		{
			"name":"jointSpaceB",
			"rotation":[
				0.7071067690849304,
				0.7071067690849304,
				-5.338507591545749e-08,
				5.338508302088485e-08
			],
			"translation":[
				0.2612997889518738,
				-4.480929851531982,
				6.726220362907043e-07
			]
		},
		{
			"extensions":{
				"KHR_physics_rigid_bodies":{
					"joint":{
						"connectedNode":11,
						"joint":0
					}
				}
			},
			"name":"jointSpaceA",
			"rotation":[
				-0.5000000596046448,
				-0.5,
				-0.4999999701976776,
				0.5
			],
			"translation":[
				-3.283477099103038e-07,
				4.5622148513793945,
				-8.992908817617717e-08
			]
		},
		{
			"mesh":2,
			"name":"physicsMeshDataNode",
			"rotation":[
				0,
				0,
				0,
				1
			],
			"translation":[
				0,
				0,
				0
			]
		},
		{
			"children":[
				10,
				6,
				12
			],
			"extensions":{
				"KHR_physics_rigid_bodies":{
					"motion":{
						"mass":0.10000000149011612
					},
					"collider":{
						"geometry":{
							"convexHull":true,
							"node":13
						},
						"physicsMaterial":4,
						"collisionFilter":0
					}
				}
			},
			"extras":{
				"khr_physics_extra_props":{
					"non_renderable":0
				}
			},
			"mesh":2,
			"name":"bar.001",
			"rotation":[
				0.7071068286895752,
				0,
				0,
				0.7071068286895752
			],
			"translation":[
				0.6271988749504089,
				4.4545745849609375,
				-2.5048770904541016
			]
		},
		{
			"name":"jointSpaceB",
			"rotation":[
				0.7071067690849304,
				0.7071067690849304,
				-5.338507591545749e-08,
				5.338508302088485e-08
			],
			"translation":[
				-1.1520204790116395e-09,
				-3.574669449335488e-10,
				-3.979535811993173e-09
			]
		},
		{
			"mesh":3,
			"name":"physicsMeshDataNode",
			"rotation":[
				0,
				0,
				0,
				1
			],
			"translation":[
				0,
				0,
				0
			]
		},
		{
			"children":[
				11,
				15
			],
			"extensions":{
				"KHR_physics_rigid_bodies":{
					"motion":{
						"mass":0.10000000149011612
					},
					"collider":{
						"geometry":{
							"convexHull":true,
							"node":16
						},
						"physicsMaterial":5,
						"collisionFilter":0
					}
				}
			},
			"extras":{
				"khr_physics_extra_props":{
					"non_renderable":0
				}
			},
			"mesh":3,
			"name":"pointer",
			"rotation":[
				-1,
				0,
				0,
				7.549790126404332e-08
			],
			"translation":[
				0.3658991754055023,
				-0.026355266571044922,
				2.057337760925293
			]
		},
		{
			"extensions":{
				"KHR_physics_rigid_bodies":{
					"collider":{
						"geometry":{
							"shape":3
						},
						"physicsMaterial":6,
						"collisionFilter":0
					}
				}
			},
			"extras":{
				"khr_physics_extra_props":{
					"non_renderable":1
				}
			},
			"name":"Cube",
			"rotation":[
				1,
				0,
				0,
				1.6292068494294654e-07
			],
			"translation":[
				0,
				-4.60361909866333,
				0
			]
		},
		{
			"mesh":4,
			"name":"physicsMeshDataNode",
			"rotation":[
				0,
				0,
				0,
				1
			],
			"translation":[
				0,
				0,
				0
			]
		},
		{
			"extensions":{
				"KHR_physics_rigid_bodies":{
					"collider":{
						"geometry":{
							"convexHull":true,
							"node":19
						},
						"physicsMaterial":6,
						"collisionFilter":0
					}
				}
			},
			"extras":{
				"khr_physics_extra_props":{
					"non_renderable":1
				}
			},
			"name":"rack.001"
		},
		{
			"name":"jointSpaceB",
			"rotation":[
				0.7071068286895752,
				-0.7071067094802856,
				1.152023116901546e-07,
				1.1520231879558196e-07
			],
			"translation":[
				8.984974832833455e-15,
				7.959124559420161e-08,
				-1.0971723440889036e-07
			]
		},
		{
			"children":[
				18,
				20,
				21
			],
			"extensions":{
				"KHR_physics_rigid_bodies":{
					"motion":{
						"mass":0.10000000149011612
					}
				}
			},
			"extras":{
				"khr_physics_extra_props":{
					"non_renderable":0
				}
			},
			"mesh":5,
			"name":"plate",
			"rotation":[
				-1,
				0,
				0,
				1.6292068494294654e-07
			],
			"translation":[
				0,
				2.590085744857788,
				-7.561277866363525
			]
		},
		{
			"extensions":{
				"KHR_physics_rigid_bodies":{
					"collider":{
						"geometry":{
							"shape":4
						},
						"physicsMaterial":7,
						"collisionFilter":0
					}
				}
			},
			"extras":{
				"khr_physics_extra_props":{
					"non_renderable":1
				}
			},
			"name":"Cube.003",
			"rotation":[
				0,
				0,
				0.7071068286895752,
				0.7071068286895752
			],
			"translation":[
				1.8281712532043457,
				-0.3464806377887726,
				-9.882307052612305
			]
		},
		{
			"extensions":{
				"KHR_physics_rigid_bodies":{
					"collider":{
						"geometry":{
							"shape":5
						},
						"physicsMaterial":8,
						"collisionFilter":0
					}
				}
			},
			"extras":{
				"khr_physics_extra_props":{
					"non_renderable":1
				}
			},
			"name":"Cube.004",
			"rotation":[
				0,
				0,
				0.7071068286895752,
				0.7071068286895752
			],
			"translation":[
				1.8300001621246338,
				0,
				0.007723808288574219
			]
		},
		{
			"extensions":{},
			"extras":{
				"khr_physics_extra_constraint_props":{}
			},
			"name":"following_revolute",
			"translation":[
				-0.02635529264807701,
				0.7915034294128418,
				-9.043144226074219
			]
		},
		{
			"extensions":{},
			"extras":{
				"khr_physics_extra_constraint_props":{}
			},
			"name":"measure",
			"translation":[
				0,
				1.1644141674041748,
				0
			]
		},
		{
			"extensions":{},
			"extras":{
				"khr_physics_extra_constraint_props":{
					"use_lin_drive_x":1,
					"lin_x_drive_stiffness":3395.31005859375,
					"lin_x_drive_damping":100.0
				}
			},
			"name":"rack_prismatic",
			"rotation":[
				0,
				0,
				1,
				1.5893256488652696e-08
			],
			"translation":[
				-2.616441011428833,
				0.7985148429870605,
				-9.618616104125977
			]
		},
		{
			"extensions":{
				"KHR_physics_rigid_bodies":{
					"joint":{
						"connectedNode":8,
						"joint":0
					}
				}
			},
			"name":"jointSpaceA",
			"rotation":[
				0,
				0,
				5.960464477539063e-08,
				1
			],
			"translation":[
				-0.02635529264807701,
				0.7915034294128418,
				-9.043144226074219
			]
		},
		{
			"extensions":{
				"KHR_physics_rigid_bodies":{
					"joint":{
						"connectedNode":15,
						"joint":0
					}
				}
			},
			"name":"jointSpaceA",
			"rotation":[
				0,
				0,
				5.960464477539063e-08,
				1
			],
			"translation":[
				-5.138421954598016e-08,
				1.1644141674041748,
				0
			]
		},
		{
			"extensions":{
				"KHR_physics_rigid_bodies":{
					"joint":{
						"connectedNode":21,
						"joint":1
					}
				}
			},
			"name":"jointSpaceA",
			"rotation":[
				0,
				0,
				1,
				1.5893256488652696e-08
			],
			"translation":[
				-2.616441011428833,
				0.7985148429870605,
				-9.618616104125977
			]
		},
		{
			"children":[
				23,
				24,
				25,
				26,
				27,
				28,
				29,
				30
			],
			"extensions":{},
			"extras":{
				"khr_physics_extra_props":{}
			},
			"mesh":6,
			"name":"base",
			"rotation":[
				0,
				0,
				-0.7071068286895752,
				0.7071068286895752
			],
			"translation":[
				-0.7985149621963501,
				-0.026355266571044922,
				2.057337760925293
			]
		},
		{
			"mesh":7,
			"name":"physicsMeshDataNode",
			"rotation":[
				0,
				0,
				0,
				1
			],
			"translation":[
				0,
				0,
				0
			]
		},
		{
			"extensions":{
				"KHR_physics_rigid_bodies":{
					"collider":{
						"geometry":{
							"convexHull":true,
							"node":32
						},
						"physicsMaterial":9,
						"collisionFilter":0
					}
				}
			},
			"extras":{
				"khr_physics_extra_props":{}
			},
			"mesh":7,
			"name":"Cube.001",
			"translation":[
				-0.6634829044342041,
				0.43374621868133545,
				-2.4642345905303955
			]
		},
		{
			"mesh":8,
			"name":"physicsMeshDataNode",
			"rotation":[
				0,
				0,
				0,
				1
			],
			"translation":[
				0,
				0,
				0
			]
		},
		{
			"extensions":{
				"KHR_physics_rigid_bodies":{
					"motion":{
						"mass":10
					},
					"collider":{
						"geometry":{
							"convexHull":true,
							"node":34
						},
						"physicsMaterial":6,
						"collisionFilter":0
					}
				}
			},
			"extras":{
				"khr_physics_extra_props":{}
			},
			"mesh":8,
			"name":"Cube.002",
			"translation":[
				0,
				8.914185523986816,
				-9.129561424255371
			]
		},
		{
			"mesh":9,
			"name":"physicsMeshDataNode",
			"rotation":[
				0,
				0,
				0,
				1
			],
			"translation":[
				0,
				0,
				0
			]
		},
		{
			"extensions":{
				"KHR_physics_rigid_bodies":{
					"motion":{
						"mass":10
					},
					"collider":{
						"geometry":{
							"convexHull":true,
							"node":36
						},
						"physicsMaterial":6,
						"collisionFilter":0
					}
				}
			},
			"extras":{
				"khr_physics_extra_props":{}
			},
			"mesh":9,
			"name":"Cube.005",
			"translation":[
				0,
				10.66821002960205,
				-9.129561424255371
			]
		}
	],
	"meshes":[
		{
			"name":"Cube.002",
			"primitives":[
				{
					"attributes":{
						"POSITION":0,
						"NORMAL":1,
						"TEXCOORD_0":2
					},
					"indices":3
				}
			]
		},
		{
			"name":"Cylinder.008",
			"primitives":[
				{
					"attributes":{
						"POSITION":4,
						"NORMAL":5,
						"TEXCOORD_0":6
					},
					"indices":7
				}
			]
		},
		{
			"name":"Cube.007",
			"primitives":[
				{
					"attributes":{
						"POSITION":8,
						"NORMAL":9,
						"TEXCOORD_0":10
					},
					"indices":3
				}
			]
		},
		{
			"name":"Cube.009",
			"primitives":[
				{
					"attributes":{
						"POSITION":11,
						"NORMAL":12,
						"TEXCOORD_0":13
					},
					"indices":14
				}
			]
		},
		{
			"name":"Cube.001",
			"primitives":[
				{
					"attributes":{
						"POSITION":15,
						"NORMAL":16,
						"TEXCOORD_0":17
					},
					"indices":3
				}
			]
		},
		{
			"name":"Cube.013",
			"primitives":[
				{
					"attributes":{
						"POSITION":18,
						"NORMAL":19,
						"TEXCOORD_0":20
					},
					"indices":21
				}
			]
		},
		{
			"name":"Cylinder.004",
			"primitives":[
				{
					"attributes":{
						"POSITION":22,
						"NORMAL":23,
						"TEXCOORD_0":24
					},
					"indices":25
				}
			]
		},
		{
			"name":"Cube.004",
			"primitives":[
				{
					"attributes":{
						"POSITION":26,
						"NORMAL":27,
						"TEXCOORD_0":28
					},
					"indices":29
				}
			]
		},
		{
			"name":"Cube.003",
			"primitives":[
				{
					"attributes":{
						"POSITION":30,
						"NORMAL":31,
						"TEXCOORD_0":32
					},
					"indices":33
				}
			]
		},
		{
			"name":"Cube.005",
			"primitives":[
				{
					"attributes":{
						"POSITION":34,
						"NORMAL":35,
						"TEXCOORD_0":36
					},
					"indices":33
				}
			]
		}
	],
	"accessors":[
		{
			"bufferView":0,
			"componentType":5126,
			"count":240,
			"max":[
				0.10564983636140823,
				2.4812300205230713,
				0.2011963278055191
			],
			"min":[
				-0.10564986616373062,
				-2.402092218399048,
				-0.20119637250900269
			],
			"type":"VEC3"
		},
		{
			"bufferView":1,
			"componentType":5126,
			"count":240,
			"type":"VEC3"
		},
		{
			"bufferView":2,
			"componentType":5126,
			"count":240,
			"type":"VEC2"
		},
		{
			"bufferView":3,
			"componentType":5123,
			"count":468,
			"type":"SCALAR"
		},
		{
			"bufferView":4,
			"componentType":5126,
			"count":1008,
			"max":[
				4.655771255493164,
				1.6240651607513428,
				0.22500014305114746
			],
			"min":[
				-0.2275514006614685,
				-0.6065141558647156,
				-0.22499990463256836
			],
			"type":"VEC3"
		},
		{
			"bufferView":5,
			"componentType":5126,
			"count":1008,
			"type":"VEC3"
		},
		{
			"bufferView":6,
			"componentType":5126,
			"count":1008,
			"type":"VEC2"
		},
		{
			"bufferView":7,
			"componentType":5123,
			"count":1992,
			"type":"SCALAR"
		},
		{
			"bufferView":8,
			"componentType":5126,
			"count":240,
			"max":[
				0.1056499257683754,
				4.766727924346924,
				0.2011963576078415
			],
			"min":[
				-0.10564997792243958,
				-4.682126522064209,
				-0.20119653642177582
			],
			"type":"VEC3"
		},
		{
			"bufferView":9,
			"componentType":5126,
			"count":240,
			"type":"VEC3"
		},
		{
			"bufferView":10,
			"componentType":5126,
			"count":240,
			"type":"VEC2"
		},
		{
			"bufferView":11,
			"componentType":5126,
			"count":156,
			"max":[
				0.10564994066953659,
				0.20119622349739075,
				0.2011968344449997
			],
			"min":[
				-0.10564983636140823,
				-6.353338241577148,
				-0.20119613409042358
			],
			"type":"VEC3"
		},
		{
			"bufferView":12,
			"componentType":5126,
			"count":156,
			"type":"VEC3"
		},
		{
			"bufferView":13,
			"componentType":5126,
			"count":156,
			"type":"VEC2"
		},
		{
			"bufferView":14,
			"componentType":5123,
			"count":300,
			"type":"SCALAR"
		},
		{
			"bufferView":15,
			"componentType":5126,
			"count":240,
			"max":[
				0.11074695736169815,
				3.886234760284424,
				0.34139585494995117
			],
			"min":[
				-0.11074695736169815,
				-4.7223968505859375,
				-0.3413960933685303
			],
			"type":"VEC3"
		},
		{
			"bufferView":16,
			"componentType":5126,
			"count":240,
			"type":"VEC3"
		},
		{
			"bufferView":17,
			"componentType":5126,
			"count":240,
			"type":"VEC2"
		},
		{
			"bufferView":18,
			"componentType":5126,
			"count":166,
			"max":[
				1.1399948596954346,
				3.886234760284424,
				2.6199867725372314
			],
			"min":[
				-1.1399948596954346,
				-4.827094554901123,
				-2.6199867725372314
			],
			"type":"VEC3"
		},
		{
			"bufferView":19,
			"componentType":5126,
			"count":166,
			"type":"VEC3"
		},
		{
			"bufferView":20,
			"componentType":5126,
			"count":166,
			"type":"VEC2"
		},
		{
			"bufferView":21,
			"componentType":5123,
			"count":318,
			"type":"SCALAR"
		},
		{
			"bufferView":22,
			"componentType":5126,
			"count":1166,
			"max":[
				3.6563432216644287,
				1,
				6.807723522186279
			],
			"min":[
				-6.807723045349121,
				-1,
				-12.956890106201172
			],
			"type":"VEC3"
		},
		{
			"bufferView":23,
			"componentType":5126,
			"count":1166,
			"type":"VEC3"
		},
		{
			"bufferView":24,
			"componentType":5126,
			"count":1166,
			"type":"VEC2"
		},
		{
			"bufferView":25,
			"componentType":5123,
			"count":2322,
			"type":"SCALAR"
		},
		{
			"bufferView":26,
			"componentType":5126,
			"count":96,
			"max":[
				1.2531980276107788,
				0.37798449397087097,
				0.3777685761451721
			],
			"min":[
				-1.135032057762146,
				-0.33143842220306396,
				-0.3777685761451721
			],
			"type":"VEC3"
		},
		{
			"bufferView":27,
			"componentType":5126,
			"count":96,
			"type":"VEC3"
		},
		{
			"bufferView":28,
			"componentType":5126,
			"count":96,
			"type":"VEC2"
		},
		{
			"bufferView":29,
			"componentType":5123,
			"count":180,
			"type":"SCALAR"
		},
		{
			"bufferView":30,
			"componentType":5126,
			"count":24,
			"max":[
				0.6181188225746155,
				0.6181188225746155,
				0.6181188225746155
			],
			"min":[
				-0.6181188225746155,
				-0.6181188225746155,
				-0.6181188225746155
			],
			"type":"VEC3"
		},
		{
			"bufferView":31,
			"componentType":5126,
			"count":24,
			"type":"VEC3"
		},
		{
			"bufferView":32,
			"componentType":5126,
			"count":24,
			"type":"VEC2"
		},
		{
			"bufferView":33,
			"componentType":5123,
			"count":36,
			"type":"SCALAR"
		},
		{
			"bufferView":34,
			"componentType":5126,
			"count":24,
			"max":[
				0.6181188225746155,
				0.6181188225746155,
				0.6181188225746155
			],
			"min":[
				-0.6181188225746155,
				-0.6181188225746155,
				-0.6181188225746155
			],
			"type":"VEC3"
		},
		{
			"bufferView":35,
			"componentType":5126,
			"count":24,
			"type":"VEC3"
		},
		{
			"bufferView":36,
			"componentType":5126,
			"count":24,
			"type":"VEC2"
		}
	],
	"bufferViews":[
		{
			"buffer":0,
			"byteLength":2880,
			"byteOffset":0,
			"target":34962
		},
		{
			"buffer":0,
			"byteLength":2880,
			"byteOffset":2880,
			"target":34962
		},
		{
			"buffer":0,
			"byteLength":1920,
			"byteOffset":5760,
			"target":34962
		},
		{
			"buffer":0,
			"byteLength":936,
			"byteOffset":7680,
			"target":34963
		},
		{
			"buffer":0,
			"byteLength":12096,
			"byteOffset":8616,
			"target":34962
		},
		{
			"buffer":0,
			"byteLength":12096,
			"byteOffset":20712,
			"target":34962
		},
		{
			"buffer":0,
			"byteLength":8064,
			"byteOffset":32808,
			"target":34962
		},
		{
			"buffer":0,
			"byteLength":3984,
			"byteOffset":40872,
			"target":34963
		},
		{
			"buffer":0,
			"byteLength":2880,
			"byteOffset":44856,
			"target":34962
		},
		{
			"buffer":0,
			"byteLength":2880,
			"byteOffset":47736,
			"target":34962
		},
		{
			"buffer":0,
			"byteLength":1920,
			"byteOffset":50616,
			"target":34962
		},
		{
			"buffer":0,
			"byteLength":1872,
			"byteOffset":52536,
			"target":34962
		},
		{
			"buffer":0,
			"byteLength":1872,
			"byteOffset":54408,
			"target":34962
		},
		{
			"buffer":0,
			"byteLength":1248,
			"byteOffset":56280,
			"target":34962
		},
		{
			"buffer":0,
			"byteLength":600,
			"byteOffset":57528,
			"target":34963
		},
		{
			"buffer":0,
			"byteLength":2880,
			"byteOffset":58128,
			"target":34962
		},
		{
			"buffer":0,
			"byteLength":2880,
			"byteOffset":61008,
			"target":34962
		},
		{
			"buffer":0,
			"byteLength":1920,
			"byteOffset":63888,
			"target":34962
		},
		{
			"buffer":0,
			"byteLength":1992,
			"byteOffset":65808,
			"target":34962
		},
		{
			"buffer":0,
			"byteLength":1992,
			"byteOffset":67800,
			"target":34962
		},
		{
			"buffer":0,
			"byteLength":1328,
			"byteOffset":69792,
			"target":34962
		},
		{
			"buffer":0,
			"byteLength":636,
			"byteOffset":71120,
			"target":34963
		},
		{
			"buffer":0,
			"byteLength":13992,
			"byteOffset":71756,
			"target":34962
		},
		{
			"buffer":0,
			"byteLength":13992,
			"byteOffset":85748,
			"target":34962
		},
		{
			"buffer":0,
			"byteLength":9328,
			"byteOffset":99740,
			"target":34962
		},
		{
			"buffer":0,
			"byteLength":4644,
			"byteOffset":109068,
			"target":34963
		},
		{
			"buffer":0,
			"byteLength":1152,
			"byteOffset":113712,
			"target":34962
		},
		{
			"buffer":0,
			"byteLength":1152,
			"byteOffset":114864,
			"target":34962
		},
		{
			"buffer":0,
			"byteLength":768,
			"byteOffset":116016,
			"target":34962
		},
		{
			"buffer":0,
			"byteLength":360,
			"byteOffset":116784,
			"target":34963
		},
		{
			"buffer":0,
			"byteLength":288,
			"byteOffset":117144,
			"target":34962
		},
		{
			"buffer":0,
			"byteLength":288,
			"byteOffset":117432,
			"target":34962
		},
		{
			"buffer":0,
			"byteLength":192,
			"byteOffset":117720,
			"target":34962
		},
		{
			"buffer":0,
			"byteLength":72,
			"byteOffset":117912,
			"target":34963
		},
		{
			"buffer":0,
			"byteLength":288,
			"byteOffset":117984,
			"target":34962
		},
		{
			"buffer":0,
			"byteLength":288,
			"byteOffset":118272,
			"target":34962
		},
		{
			"buffer":0,
			"byteLength":192,
			"byteOffset":118560,
			"target":34962
		}
	],
	"buffers":[
		{
			"byteLength":118752,
			"uri":"spring_scale.bin"
		}
	]
}
