{
	"asset":{
		"generator":"Khronos glTF Blender I/O v4.5.48",
		"version":"2.0"
	},
	"extensionsUsed":[
		"KHR_physics_rigid_bodies",
		"KHR_implicit_shapes"
	],
	"extensions":{
		"KHR_physics_rigid_bodies":{
			"physicsJoints":[
				{
					"limits":[
						{
							"angularAxes":[
								0,
								2,
								1
							],
							"min":0,
							"max":0
						},
						{
							"linearAxes":[
								2,
								1
							],
							"min":0,
							"max":0
						}
					]
				},
				{
					"limits":[
						{
							"linearAxes":[
								0,
								2,
								1
							],
							"min":0,
							"max":0
						},
						{
							"angularAxes":[
								0,
								2
							],
							"min":0,
							"max":0
						}
					]
				},
				{
					"limits":[
						{
							"linearAxes":[
								0
							],
							"min":0,
							"max":0
						},
						{
							"linearAxes":[
								2
							],
							"min":0,
							"max":0
						},
						{
							"linearAxes":[
								1
							],
							"min":0,
							"max":0
						},
						{
							"angularAxes":[
								0
							],
							"min":0,
							"max":0
						},
						{
							"angularAxes":[
								2
							],
							"min":0,
							"max":0
						}
					],
					"drives":[
						{
							"type":"angular",
							"mode":"force",
							"axis":1,
							"positionTarget":0,
							"velocityTarget":0,
							"stiffness":1500,
							"damping":200
						}
					]
				}
			],
			"physicsMaterials":[
				{
					"staticFriction":0.5,
					"dynamicFriction":0.5,
					"restitution":0.5836734771728516
				},
				{
					"staticFriction":0.5,
					"dynamicFriction":0.5,
					"restitution":0
				}
			],
			"collisionFilters":[
				{
					"collisionSystems":[
						"System_0"
					],
					"collideWithSystems":[
						"System_0"
					]
				}
			]
		},
		"KHR_implicit_shapes":{
			"shapes":[
				{
					"type":"box",
					"box":{
						"size":[
							13.85991382598877,
							1.0248204469680786,
							13.85991382598877
						]
					}
				},
				{
					"type":"box",
					"box":{
						"size":[
							7.922660827636719,
							0.5858120918273926,
							7.922660827636719
						]
					}
				},
				{
					"type":"box",
					"box":{
						"size":[
							2,
							2,
							2
						]
					}
				}
			]
		}
	},
	"scene":0,
	"scenes":[
		{
			"extras":{
				"khr_physics_scene_viewer_props":{},
				"khr_physics_exporter_props":{}
			},
			"name":"Scene",
			"nodes":[
				6,
				8,
				12,
				15,
				16,
				17
			]
		}
	],
	"nodes":[
		{
			"extensions":{},
			"extras":{
				"khr_physics_extra_constraint_props":{}
			},
			"name":"Empty",
			"rotation":[
				0,
				0,
				0.7071068286895752,
				0.7071068286895752
			],
			"translation":[
				0,
				12.865716934204102,
				0
			]
		},
		{
			"extensions":{},
			"extras":{
				"khr_physics_extra_constraint_props":{}
			},
			"name":"Empty.002",
			"rotation":[
				0,
				0,
				0.7071068286895752,
				0.7071068286895752
			],
			"translation":[
				0,
				1.3767313957214355,
				3.754570245742798
			]
		},
		{
			"name":"jointSpaceB",
			"rotation":[
				0,
				0,
				0.7071067690849304,
				0.7071067690849304
			],
			"translation":[
				0,
				-3.5569324493408203,
				0
			]
		},
		{
			"extensions":{
				"KHR_physics_rigid_bodies":{
					"joint":{
						"connectedNode":2,
						"joint":0,
						"enableCollision":true
					}
				}
			},
			"name":"jointSpaceA",
			"rotation":[
				0,
				0,
				0.7071067690849304,
				0.7071067690849304
			],
			"translation":[
				0,
				12.865716934204102,
				0
			]
		},
		{
			"name":"jointSpaceB",
			"rotation":[
				-0.2943885922431946,
				-0.2943885624408722,
				-0.6429115533828735,
				0.6429116725921631
			],
			"translation":[
				-3.960797698709939e-07,
				-0.4279323220252991,
				-5.250850200653076
			]
		},
		{
			"extensions":{
				"KHR_physics_rigid_bodies":{
					"joint":{
						"connectedNode":4,
						"joint":1,
						"enableCollision":true
					}
				}
			},
			"name":"jointSpaceA",
			"rotation":[
				0,
				0,
				0.7071067690849304,
				0.7071067690849304
			],
			"translation":[
				1.61946402954527e-07,
				1.3767313957214355,
				3.754570245742798
			]
		},
		{
			"children":[
				0,
				1,
				3,
				5
			],
			"extensions":{
				"KHR_physics_rigid_bodies":{
					"collider":{
						"geometry":{
							"shape":0
						},
						"physicsMaterial":0,
						"collisionFilter":0
					}
				}
			},
			"extras":{
				"khr_physics_extra_props":{}
			},
			"mesh":0,
			"name":"Cube"
		},
		{
			"name":"jointSpaceB",
			"rotation":[
				0,
				0,
				0.7071067690849304,
				0.7071067690849304
			],
			"translation":[
				0,
				0,
				4.541796684265137
			]
		},
		{
			"children":[
				2,
				7
			],
			"extensions":{
				"KHR_physics_rigid_bodies":{
					"motion":{
						"mass":0.5
					},
					"collider":{
						"geometry":{
							"shape":1
						},
						"physicsMaterial":0,
						"collisionFilter":0
					}
				}
			},
			"extras":{
				"khr_physics_extra_props":{}
			},
			"mesh":1,
			"name":"Cube.001",
			"translation":[
				0,
				16.422649383544922,
				0
			]
		},
		{
			"extensions":{},
			"extras":{
				"khr_physics_extra_constraint_props":{}
			},
			"name":"Empty.001",
			"rotation":[
				-0.29438862204551697,
				0.2943885922431946,
				0.6429116129875183,
				0.6429117321968079
			],
			"translation":[
				0,
				0,
				-4.5417962074279785
			]
		},
		{
			"extensions":{
				"KHR_physics_rigid_bodies":{
					"joint":{
						"connectedNode":7,
						"joint":1,
						"enableCollision":true
					}
				}
			},
			"name":"jointSpaceA",
			"rotation":[
				-0.2943885922431946,
				0.2943885624408722,
				0.6429115533828735,
				0.6429116725921631
			],
			"translation":[
				0,
				0,
				-4.5417962074279785
			]
		},
		{
			"name":"jointSpaceB",
			"rotation":[
				-0.2943885922431946,
				0.2943885624408722,
				0.6429115533828735,
				0.6429116725921631
			],
			"translation":[
				1.6194641716538172e-07,
				-0.009623527526855469,
				5.217048645019531
			]
		},
		{
			"children":[
				9,
				10,
				11
			],
			"extensions":{
				"KHR_physics_rigid_bodies":{
					"motion":{
						"mass":0.5
					},
					"collider":{
						"geometry":{
							"shape":1
						},
						"physicsMaterial":0,
						"collisionFilter":0
					}
				}
			},
			"extras":{
				"khr_physics_extra_props":{}
			},
			"mesh":2,
			"name":"Cube.002",
			"rotation":[
				0.41632840037345886,
				0,
				0,
				0.909214437007904
			],
			"translation":[
				0,
				12.984221458435059,
				7.509140491485596
			]
		},
		{
			"extensions":{},
			"extras":{
				"khr_physics_extra_constraint_props":{
					"use_ang_drive_z":1,
					"ang_z_drive_stiffness":1500.0,
					"ang_z_drive_damping":200.0
				}
			},
			"name":"spring",
			"rotation":[
				-0.29438862204551697,
				-0.2943885922431946,
				-0.6429116129875183,
				0.6429117321968079
			],
			"translation":[
				0,
				-0.009624004364013672,
				5.217049598693848
			]
		},
		{
			"extensions":{
				"KHR_physics_rigid_bodies":{
					"joint":{
						"connectedNode":11,
						"joint":2,
						"enableCollision":true
					}
				}
			},
			"name":"jointSpaceA",
			"rotation":[
				-0.2943885922431946,
				-0.2943885624408722,
				-0.6429115533828735,
				0.6429116725921631
			],
			"translation":[
				7.592744850626332e-07,
				-0.009624004364013672,
				5.217049598693848
			]
		},
		{
			"children":[
				13,
				4,
				14
			],
			"extensions":{
				"KHR_physics_rigid_bodies":{
					"motion":{
						"mass":1
					},
					"collider":{
						"geometry":{
							"shape":1
						},
						"physicsMaterial":0,
						"collisionFilter":0
					}
				}
			},
			"extras":{
				"khr_physics_extra_props":{}
			},
			"mesh":3,
			"name":"Cube.003",
			"rotation":[
				0,
				0.41632840037345886,
				0.909214437007904,
				6.864377866122595e-08
			],
			"translation":[
				0,
				5.0723724365234375,
				7.509140491485596
			]
		},
		{
			"extensions":{
				"KHR_physics_rigid_bodies":{
					"motion":{
						"mass":4
					},
					"collider":{
						"geometry":{
							"shape":2
						},
						"physicsMaterial":1,
						"collisionFilter":0
					}
				}
			},
			"extras":{
				"khr_physics_extra_props":{}
			},
			"mesh":4,
			"name":"Cube.004",
			"rotation":[
				-0.39438480138778687,
				0.2418643832206726,
				0.16041043400764465,
				0.8719121217727661
			],
			"translation":[
				0,
				26.083911895751953,
				1.0075879096984863
			]
		},
		{
			"extensions":{
				"KHR_physics_rigid_bodies":{
					"motion":{
						"mass":4
					},
					"collider":{
						"geometry":{
							"shape":2
						},
						"physicsMaterial":1,
						"collisionFilter":0
					}
				}
			},
			"extras":{
				"khr_physics_extra_props":{}
			},
			"mesh":5,
			"name":"Cube.005",
			"rotation":[
				-0.32076236605644226,
				-0.03606494516134262,
				0.07203909754753113,
				0.9437273144721985
			],
			"translation":[
				0,
				26.083911895751953,
				-2.6329076290130615
			]
		}
	],
	"meshes":[
		{
			"name":"Cube",
			"primitives":[
				{
					"attributes":{
						"POSITION":0,
						"NORMAL":1,
						"TEXCOORD_0":2
					},
					"indices":3
				}
			]
		},
		{
			"name":"Cube.009",
			"primitives":[
				{
					"attributes":{
						"POSITION":4,
						"NORMAL":5,
						"TEXCOORD_0":6
					},
					"indices":3
				}
			]
		},
		{
			"name":"Cube.010",
			"primitives":[
				{
					"attributes":{
						"POSITION":7,
						"NORMAL":8,
						"TEXCOORD_0":9
					},
					"indices":3
				}
			]
		},
		{
			"name":"Cube.012",
			"primitives":[
				{
					"attributes":{
						"POSITION":10,
						"NORMAL":11,
						"TEXCOORD_0":12
					},
					"indices":3
				}
			]
		},
		{
			"name":"Cube.014",
			"primitives":[
				{
					"attributes":{
						"POSITION":13,
						"NORMAL":14,
						"TEXCOORD_0":15
					},
					"indices":16
				}
			]
		},
		{
			"name":"Cube.015",
			"primitives":[
				{
					"attributes":{
						"POSITION":17,
						"NORMAL":18,
						"TEXCOORD_0":19
					},
					"indices":16
				}
			]
		}
	],
	"accessors":[
		{
			"bufferView":0,
			"componentType":5126,
			"count":24,
			"max":[
				6.929956912994385,
				0.5124102234840393,
				6.929956912994385
			],
			"min":[
				-6.929956912994385,
				-0.5124102234840393,
				-6.929956912994385
			],
			"type":"VEC3"
		},
		{
			"bufferView":1,
			"componentType":5126,
			"count":24,
			"type":"VEC3"
		},
		{
			"bufferView":2,
			"componentType":5126,
			"count":24,
			"type":"VEC2"
		},
		{
			"bufferView":3,
			"componentType":5123,
			"count":36,
			"type":"SCALAR"
		},
		{
			"bufferView":4,
			"componentType":5126,
			"count":24,
			"max":[
				3.9613304138183594,
				0.2929060459136963,
				3.9613304138183594
			],
			"min":[
				-3.9613304138183594,
				-0.2929060459136963,
				-3.9613304138183594
			],
			"type":"VEC3"
		},
		{
			"bufferView":5,
			"componentType":5126,
			"count":24,
			"type":"VEC3"
		},
		{
			"bufferView":6,
			"componentType":5126,
			"count":24,
			"type":"VEC2"
		},
		{
			"bufferView":7,
			"componentType":5126,
			"count":24,
			"max":[
				3.9613304138183594,
				0.2929060459136963,
				3.9613304138183594
			],
			"min":[
				-3.9613304138183594,
				-0.2929060459136963,
				-3.9613304138183594
			],
			"type":"VEC3"
		},
		{
			"bufferView":8,
			"componentType":5126,
			"count":24,
			"type":"VEC3"
		},
		{
			"bufferView":9,
			"componentType":5126,
			"count":24,
			"type":"VEC2"
		},
		{
			"bufferView":10,
			"componentType":5126,
			"count":24,
			"max":[
				3.9613304138183594,
				0.2929060459136963,
				3.9613304138183594
			],
			"min":[
				-3.9613304138183594,
				-0.2929060459136963,
				-3.9613304138183594
			],
			"type":"VEC3"
		},
		{
			"bufferView":11,
			"componentType":5126,
			"count":24,
			"type":"VEC3"
		},
		{
			"bufferView":12,
			"componentType":5126,
			"count":24,
			"type":"VEC2"
		},
		{
			"bufferView":13,
			"componentType":5126,
			"count":24,
			"max":[
				1,
				1,
				1
			],
			"min":[
				-1,
				-1,
				-1
			],
			"type":"VEC3"
		},
		{
			"bufferView":14,
			"componentType":5126,
			"count":24,
			"type":"VEC3"
		},
		{
			"bufferView":15,
			"componentType":5126,
			"count":24,
			"type":"VEC2"
		},
		{
			"bufferView":16,
			"componentType":5123,
			"count":36,
			"type":"SCALAR"
		},
		{
			"bufferView":17,
			"componentType":5126,
			"count":24,
			"max":[
				1,
				1,
				1
			],
			"min":[
				-1,
				-1,
				-1
			],
			"type":"VEC3"
		},
		{
			"bufferView":18,
			"componentType":5126,
			"count":24,
			"type":"VEC3"
		},
		{
			"bufferView":19,
			"componentType":5126,
			"count":24,
			"type":"VEC2"
		}
	],
	"bufferViews":[
		{
			"buffer":0,
			"byteLength":288,
			"byteOffset":0,
			"target":34962
		},
		{
			"buffer":0,
			"byteLength":288,
			"byteOffset":288,
			"target":34962
		},
		{
			"buffer":0,
			"byteLength":192,
			"byteOffset":576,
			"target":34962
		},
		{
			"buffer":0,
			"byteLength":72,
			"byteOffset":768,
			"target":34963
		},
		{
			"buffer":0,
			"byteLength":288,
			"byteOffset":840,
			"target":34962
		},
		{
			"buffer":0,
			"byteLength":288,
			"byteOffset":1128,
			"target":34962
		},
		{
			"buffer":0,
			"byteLength":192,
			"byteOffset":1416,
			"target":34962
		},
		{
			"buffer":0,
			"byteLength":288,
			"byteOffset":1608,
			"target":34962
		},
		{
			"buffer":0,
			"byteLength":288,
			"byteOffset":1896,
			"target":34962
		},
		{
			"buffer":0,
			"byteLength":192,
			"byteOffset":2184,
			"target":34962
		},
		{
			"buffer":0,
			"byteLength":288,
			"byteOffset":2376,
			"target":34962
		},
		{
			"buffer":0,
			"byteLength":288,
			"byteOffset":2664,
			"target":34962
		},
		{
			"buffer":0,
			"byteLength":192,
			"byteOffset":2952,
			"target":34962
		},
		{
			"buffer":0,
			"byteLength":288,
			"byteOffset":3144,
			"target":34962
		},
		{
			"buffer":0,
			"byteLength":288,
			"byteOffset":3432,
			"target":34962
		},
		{
			"buffer":0,
			"byteLength":192,
			"byteOffset":3720,
			"target":34962
		},
		{
			"buffer":0,
			"byteLength":72,
			"byteOffset":3912,
			"target":34963
		},
		{
			"buffer":0,
			"byteLength":288,
			"byteOffset":3984,
			"target":34962
		},
		{
			"buffer":0,
			"byteLength":288,
			"byteOffset":4272,
			"target":34962
		},
		{
			"buffer":0,
			"byteLength":192,
			"byteOffset":4560,
			"target":34962
		}
	],
	"buffers":[
		{
			"byteLength":4752,
			"uri":"spring.bin"
		}
	]
}
